<svg width="1889" height="1827" viewBox="0 0 1889 1827" fill="none" xmlns="http://www.w3.org/2000/svg">
<path d="M1886.43 922.57L1239.53 1334.66C1220.64 1346.7 1215.08 1371.77 1227.11 1390.67L1437.78 1721.37C1449.82 1740.26 1474.89 1745.82 1493.79 1733.79L1886.43 1483.67V922.57Z" fill="white"/>
<path d="M1472.07 1742.33C1457.93 1742.33 1444.08 1735.34 1435.94 1722.56L1225.27 1391.86C1212.6 1371.97 1218.48 1345.49 1238.36 1332.82L1885.26 920.73C1885.94 920.3 1886.79 920.27 1887.5 920.66C1888.2 921.05 1888.64 921.78 1888.64 922.59V1483.69C1888.64 1484.44 1888.26 1485.14 1887.62 1485.54L1494.98 1735.66C1487.88 1740.18 1479.93 1742.34 1472.07 1742.34V1742.33ZM1884.24 926.58L1240.72 1336.52C1222.88 1347.89 1217.61 1371.65 1228.97 1389.49L1439.64 1720.19C1451.01 1738.03 1474.77 1743.3 1492.62 1731.94L1884.24 1482.46V926.57V926.58Z" fill="white"/>
<path d="M1268.29 1397.47C1267.57 1397.47 1266.86 1397.11 1266.44 1396.46C1265.79 1395.44 1266.09 1394.08 1267.11 1393.43C1299.76 1372.59 1332.44 1351.65 1365.16 1330.68C1443.07 1280.75 1523.64 1229.12 1603.29 1179.28C1604.31 1178.64 1605.67 1178.95 1606.32 1179.98C1606.96 1181.01 1606.65 1182.36 1605.62 1183.01C1525.99 1232.84 1445.44 1284.47 1367.53 1334.39C1334.81 1355.36 1302.12 1376.3 1269.48 1397.14C1269.11 1397.37 1268.7 1397.49 1268.3 1397.49L1268.29 1397.47Z" fill="white"/>
<path d="M1283.06 1343.94C1286.15 1348.78 1284.72 1355.21 1279.88 1358.3C1275.04 1361.39 1268.61 1359.96 1265.52 1355.12C1262.43 1350.28 1263.86 1343.85 1268.7 1340.76C1273.54 1337.67 1279.97 1339.1 1283.06 1343.94Z" fill="white"/>
<path d="M1318.15 1321.58C1321.24 1326.43 1319.81 1332.85 1314.97 1335.94C1310.12 1339.03 1303.7 1337.6 1300.61 1332.76C1297.52 1327.92 1298.95 1321.49 1303.79 1318.4C1308.63 1315.31 1315.06 1316.74 1318.15 1321.58Z" fill="white"/>
<path d="M1353.24 1299.23C1356.33 1304.07 1354.9 1310.5 1350.06 1313.59C1345.22 1316.68 1338.79 1315.25 1335.7 1310.41C1332.61 1305.57 1334.04 1299.14 1338.88 1296.05C1343.72 1292.96 1350.15 1294.39 1353.24 1299.23Z" fill="white"/>
<path d="M1471.67 1225.98C1470.91 1225.98 1470.18 1225.59 1469.77 1224.89C1469.16 1223.84 1469.51 1222.5 1470.56 1221.89C1495.6 1207.32 1519.59 1191.45 1542.78 1176.11C1562.56 1163.03 1583.01 1149.51 1603.79 1137.01C1604.83 1136.39 1606.18 1136.72 1606.81 1137.76C1607.43 1138.8 1607.1 1140.15 1606.06 1140.77C1585.36 1153.22 1564.95 1166.71 1545.21 1179.77C1521.96 1195.14 1497.92 1211.04 1472.77 1225.68C1472.42 1225.88 1472.04 1225.98 1471.67 1225.98Z" fill="white"/>
<path d="M1374.29 1288.01C1373.57 1288.01 1372.86 1287.65 1372.44 1286.99C1371.79 1285.97 1372.09 1284.61 1373.11 1283.96L1416.68 1256.21C1417.7 1255.56 1419.06 1255.86 1419.71 1256.88C1420.36 1257.9 1420.06 1259.26 1419.04 1259.91L1375.47 1287.66C1375.11 1287.89 1374.7 1288 1374.29 1288V1288.01Z" fill="white"/>
<path d="M1469.31 1658.78C1469.15 1658.78 1468.99 1658.76 1468.83 1658.73C1468.26 1658.6 1467.77 1658.26 1467.45 1657.77L1324.18 1432.87C1323.53 1431.85 1323.83 1430.49 1324.85 1429.84L1549.75 1286.57C1550.24 1286.26 1550.83 1286.15 1551.41 1286.28C1551.98 1286.41 1552.47 1286.75 1552.79 1287.24L1696.06 1512.14C1696.71 1513.16 1696.41 1514.52 1695.39 1515.17L1470.49 1658.44C1470.13 1658.67 1469.72 1658.78 1469.31 1658.78ZM1329.08 1432.36L1469.98 1653.56L1691.18 1512.65L1550.28 1291.45L1329.08 1432.36Z" fill="white"/>
<path d="M1641.43 1230.73L1592.32 1262.01L1623.61 1311.13L1672.72 1279.85L1641.43 1230.73Z" fill="white"/>
<path d="M1886.43 1074.71L1675.03 1209.38L1706.32 1258.49L1886.43 1143.75V1074.71Z" fill="white"/>
<path d="M1697.41 1318.61L1648.3 1349.9L1679.59 1399.01L1728.7 1367.72L1697.41 1318.61Z" fill="white"/>
<path d="M1886.43 1198.27L1731.02 1297.27L1762.31 1346.39L1886.43 1267.31V1198.27Z" fill="white"/>
<path d="M1753.4 1406.5L1704.29 1437.79L1735.58 1486.9L1784.69 1455.61L1753.4 1406.5Z" fill="white"/>
<path d="M1886.43 1321.82L1787.01 1385.16L1818.29 1434.28L1886.43 1390.87V1321.82Z" fill="white"/>
<path d="M1286.34 827.46C1265.38 827.46 1245.35 815.93 1235.25 796.35L909.481 164.84C901.921 150.19 901.031 132.98 907.031 117.61C913.041 102.23 925.391 90.1596 940.911 84.4996C1071.93 36.7196 1189.46 8.20961 1280.8 2.04961C1375.18 -4.31039 1436.2 13.8596 1457.22 54.6096L1834.04 785.08C1834.6 786.16 1834.17 787.48 1833.09 788.04C1832.01 788.6 1830.69 788.17 1830.13 787.1C1809.63 747.36 1748.52 730.12 1653.47 737.22C1559.95 744.21 1439.9 774.17 1306.31 823.85C1299.75 826.29 1293 827.45 1286.34 827.45V827.46ZM913.381 162.82L1239.16 794.33C1251.45 818.15 1279.67 829.07 1304.78 819.73C1559.05 725.15 1754.2 705.51 1818.97 765.45L1453.31 56.6296C1412.6 -22.2804 1212.06 -9.72039 942.411 88.6296C928.081 93.8596 916.671 105 911.121 119.21C905.581 133.4 906.401 149.29 913.381 162.82Z" fill="white"/>
<path d="M1280.43 868.26C1259.47 868.26 1239.44 856.73 1229.34 837.15L903.571 205.64C896.011 190.99 895.121 173.78 901.121 158.41C907.131 143.03 919.481 130.96 935.001 125.3C1066.02 77.5204 1183.55 49.0104 1274.89 42.8504C1369.31 36.4904 1430.3 54.6604 1451.31 95.4104L1828.13 825.88C1828.69 826.96 1828.26 828.28 1827.18 828.84C1826.1 829.4 1824.78 828.97 1824.22 827.9C1803.72 788.16 1742.63 770.92 1647.56 778.02C1554.04 785.01 1433.99 814.97 1300.4 864.65C1293.84 867.09 1287.09 868.25 1280.43 868.25V868.26ZM907.471 203.62L1233.25 835.13C1245.54 858.95 1273.75 869.87 1298.87 860.53C1553.14 765.96 1748.29 746.31 1813.06 806.25L1447.4 97.4304C1406.69 18.5204 1206.16 31.0804 936.501 129.43C922.171 134.66 910.761 145.81 905.211 160.01C899.671 174.2 900.491 190.09 907.471 203.62Z" fill="white"/>
<path d="M1289.98 444.271C1282.31 446.831 1274.4 449.131 1266.22 451.111C1214.05 463.751 1203.41 451.142 1066.98 446.392C900.332 440.582 843.952 456.872 804.672 474.072C782.272 483.882 764.542 494.382 733.442 512.782C627.662 575.392 600.582 614.861 573.042 605.941C566.732 603.902 560.402 599.292 554.692 590.452C512.362 622.352 464.132 615.292 437.742 607.572C437.752 613.542 438.002 619.621 438.552 625.811C440.132 643.711 442.892 675.051 462.152 701.471C503.612 758.351 605.882 770.982 715.092 733.772C708.182 748.752 652.452 874.822 718.132 992.082C785.982 1113.21 934.432 1137.54 1032 1120.91C1191.14 1093.79 1318.35 940.081 1296.61 848.611C1292.87 832.871 1276.39 810.132 1243.59 765.282C1204.8 712.252 1169.71 670.932 1144.93 643.132C1171.58 641.501 1263.63 632.611 1343.82 558.741C1351.1 552.031 1357.82 545.192 1364.07 538.282C1318.43 523.002 1298.42 475.931 1289.96 444.271H1289.98Z" fill="#E95018"/>
<path d="M975.151 1127.77C937.011 1127.77 898.181 1121.81 863.241 1110.23C797.831 1088.56 746.991 1048.07 716.221 993.141C655.361 884.491 697.261 769.251 711.051 737.431C602.041 773.221 501.731 759.491 460.381 702.761C440.761 675.841 438.011 644.641 436.371 626.001C435.841 620.031 435.571 613.831 435.551 607.581C435.551 606.891 435.871 606.231 436.431 605.821C436.981 605.401 437.701 605.271 438.371 605.471C463.331 612.771 511.461 620.301 553.381 588.701C553.871 588.331 554.491 588.191 555.091 588.291C555.691 588.401 556.221 588.751 556.551 589.261C561.451 596.841 567.231 601.751 573.731 603.861C588.951 608.791 604.831 597.321 636.481 574.471C658.651 558.471 689.001 536.551 732.331 510.901C763.891 492.221 781.271 481.931 803.801 472.071C841.711 455.471 896.441 438.261 1067.07 444.211C1121.74 446.121 1156.16 449.271 1181.29 451.581C1219.12 455.051 1234.78 456.491 1265.71 448.991C1273.48 447.111 1281.41 444.821 1289.29 442.201C1289.87 442.011 1290.49 442.061 1291.03 442.351C1291.56 442.641 1291.95 443.131 1292.11 443.721C1301.23 477.871 1321.25 521.631 1364.79 536.211C1365.49 536.451 1366.03 537.021 1366.22 537.741C1366.41 538.461 1366.22 539.221 1365.72 539.771C1359.18 546.991 1352.32 553.931 1345.33 560.371C1274.21 625.891 1193.87 641.671 1149.57 645.031C1183.01 682.771 1215.23 722.771 1245.39 763.991C1279.69 810.891 1295.01 832.291 1298.77 848.111C1306.86 882.151 1295.21 925.251 1265.97 969.471C1214.44 1047.39 1122.75 1107.68 1032.39 1123.08C1013.9 1126.23 994.621 1127.78 975.161 1127.78L975.151 1127.77ZM715.101 731.571C715.711 731.571 716.311 731.831 716.731 732.301C717.321 732.951 717.461 733.891 717.091 734.691C706.481 757.671 656.781 878.051 720.051 991.001C783.581 1104.42 926.111 1136.72 1031.63 1118.74C1120.85 1103.53 1211.39 1043.98 1262.28 967.031C1290.85 923.841 1302.28 881.961 1294.48 849.111C1290.77 833.481 1273.38 809.721 1241.82 766.571C1210.86 724.241 1177.71 683.201 1143.3 644.591C1142.74 643.961 1142.59 643.071 1142.91 642.291C1143.23 641.511 1143.97 640.991 1144.81 640.941C1187.42 638.341 1269.75 623.991 1342.34 557.121C1348.45 551.491 1354.45 545.491 1360.23 539.241C1317.96 523.401 1297.92 481.091 1288.47 447.081C1281.2 449.441 1273.9 451.521 1266.74 453.251C1235.1 460.921 1218.12 459.361 1180.88 455.941C1155.8 453.641 1121.46 450.491 1066.9 448.581C897.211 442.661 843.021 459.671 805.551 476.081C783.271 485.841 765.971 496.081 734.561 514.671C691.401 540.221 661.141 562.071 639.041 578.021C606.191 601.741 589.701 613.641 572.371 608.031C565.471 605.791 559.351 600.941 554.161 593.581C512.701 623.611 466.021 617.601 439.971 610.481C440.051 615.611 440.311 620.691 440.741 625.611C442.341 643.801 445.021 674.241 463.921 700.171C504.731 756.161 605.391 768.821 714.381 731.681C714.611 731.601 714.851 731.561 715.091 731.561L715.101 731.571Z" fill="black"/>
<path d="M1493.44 330.571L1479.19 339.671L1500.98 300.451C1502.04 298.541 1502.11 296.241 1501.18 294.271C1499.05 289.781 1492.96 289.041 1489.82 292.891L1460.87 328.391L1480.8 278.281C1482.44 274.161 1480.88 269.451 1477.1 267.131C1472.33 264.191 1466.07 266.201 1463.89 271.361L1444.84 316.571L1451.43 277.151C1452.21 272.451 1448.72 267.871 1443.96 267.911C1441 267.941 1438.14 269.651 1437.01 275.441C1434.31 289.351 1420.21 344.981 1420.21 344.981C1420.21 344.981 1414.09 342.781 1406.19 332.081C1398.29 321.371 1395.06 327.291 1395.06 327.291C1390.23 343.621 1401.94 361.461 1410.48 371.731C1381.59 398.031 1341.53 427.081 1289.97 444.261C1298.43 475.921 1318.43 522.991 1364.08 538.271C1414.05 483.061 1432.45 423.561 1439.34 393.591C1459.48 385.311 1493.57 348.071 1501.14 339.611C1502.13 338.511 1502.66 337.091 1502.66 335.621C1502.66 330.881 1497.42 328.011 1493.43 330.561L1493.44 330.571Z" fill="white"/>
<path d="M1364.08 540.47C1363.85 540.47 1363.61 540.43 1363.38 540.36C1317.99 525.17 1297.25 480.03 1287.85 444.84C1287.55 443.72 1288.18 442.56 1289.28 442.19C1331.14 428.24 1370.88 404.47 1407.46 371.51C1397.91 359.6 1388.23 342.66 1392.96 326.68C1393.01 326.53 1393.06 326.39 1393.14 326.25C1393.28 325.99 1394.62 323.69 1397.56 323.49C1400.8 323.27 1404.18 325.66 1407.97 330.79C1412.55 337 1416.48 340.19 1418.79 341.71C1421.66 330.33 1432.56 286.96 1434.87 275.04C1436.43 266.99 1441.23 265.75 1443.95 265.73C1443.98 265.73 1444 265.73 1444.03 265.73C1446.79 265.73 1449.43 266.96 1451.27 269.12C1453.26 271.45 1454.11 274.51 1453.61 277.53L1450.11 298.45L1461.88 270.52C1463.17 267.47 1465.71 265.14 1468.86 264.13C1472.02 263.12 1475.44 263.54 1478.26 265.27C1482.96 268.16 1484.88 273.98 1482.84 279.11L1468.18 315.97L1488.12 291.52C1490.08 289.12 1493.09 287.92 1496.14 288.29C1499.21 288.66 1501.84 290.55 1503.16 293.35C1504.4 295.96 1504.3 299.02 1502.9 301.54L1485.33 333.16L1492.26 328.73C1494.82 327.09 1497.94 326.99 1500.61 328.45C1503.28 329.91 1504.87 332.6 1504.87 335.64C1504.87 337.66 1504.13 339.6 1502.79 341.1C1493.38 351.61 1461.51 386.13 1441.24 395.2C1432.39 433.06 1412.12 488.51 1365.72 539.77C1365.3 540.24 1364.7 540.49 1364.09 540.49L1364.08 540.47ZM1292.64 445.69C1301.91 479.17 1321.65 521 1363.42 535.73C1408.94 484.97 1428.67 430.22 1437.2 393.11C1437.36 392.42 1437.85 391.84 1438.51 391.57C1458.34 383.41 1492.8 345.64 1499.51 338.15C1500.13 337.46 1500.47 336.56 1500.47 335.62C1500.47 334.21 1499.73 332.96 1498.49 332.28C1497.25 331.6 1495.81 331.65 1494.61 332.41L1480.36 341.51C1479.51 342.05 1478.41 341.95 1477.67 341.26C1476.94 340.57 1476.77 339.47 1477.26 338.59L1499.05 299.37C1499.76 298.08 1499.82 296.52 1499.19 295.19C1498.5 293.74 1497.2 292.8 1495.61 292.61C1494.01 292.42 1492.53 293.02 1491.52 294.26L1462.57 329.76C1461.89 330.6 1460.69 330.82 1459.75 330.27C1458.81 329.72 1458.42 328.57 1458.82 327.57L1478.75 277.46C1480 274.32 1478.82 270.76 1475.94 268.99C1474.21 267.93 1472.11 267.67 1470.18 268.29C1468.25 268.91 1466.69 270.33 1465.9 272.2L1446.85 317.41C1446.42 318.44 1445.29 318.98 1444.21 318.67C1443.14 318.36 1442.47 317.3 1442.66 316.2L1449.25 276.78C1449.54 275.07 1449.03 273.27 1447.91 271.95C1446.88 270.75 1445.39 270.08 1443.97 270.1C1442.96 270.1 1440.27 270.13 1439.16 275.85C1436.48 289.66 1422.91 343.24 1422.34 345.51C1422.19 346.11 1421.79 346.62 1421.24 346.91C1420.69 347.2 1420.05 347.25 1419.47 347.04C1419.2 346.94 1412.62 344.49 1404.42 333.37C1400.52 328.08 1398.36 327.81 1397.84 327.84C1397.45 327.87 1397.19 328.09 1397.06 328.22C1392.7 343.78 1404.62 361.24 1412.15 370.3C1412.9 371.2 1412.81 372.54 1411.94 373.33C1375.06 406.9 1334.92 431.23 1292.62 445.66L1292.64 445.69Z" fill="black"/>
<path d="M532.671 464.392C542.051 449.092 539.361 412.322 528.881 394.462C518.271 376.382 481.821 324.682 481.821 324.682C463.791 338.762 490.661 380.322 490.661 380.322C459.501 400.272 476.971 421.452 476.971 421.452C464.401 447.592 480.421 456.502 490.001 459.412C469.201 487.342 437.581 540.242 437.751 607.582C464.151 615.302 512.371 622.362 554.701 590.462C542.811 572.052 533.591 535.192 532.671 464.392Z" fill="white"/>
<path d="M481.88 616.281C464.08 616.281 448.34 612.961 437.12 609.681C436.19 609.411 435.54 608.551 435.54 607.581C435.38 544.281 462.71 493.031 486.44 460.501C481.03 458.391 474.95 454.571 471.95 447.751C468.87 440.741 469.7 431.981 474.41 421.691C472.62 419.041 468.78 412.101 470.17 403.221C471.53 394.581 477.4 386.661 487.65 379.671C482.5 371.161 463.13 336.481 480.45 322.951C480.92 322.581 481.53 322.421 482.12 322.511C482.71 322.601 483.25 322.931 483.59 323.421C483.95 323.941 520.22 375.411 530.75 393.361C540.89 410.641 544.59 448.141 534.85 464.991C535.69 526.501 542.98 568.321 556.52 589.281C557.15 590.251 556.92 591.531 556 592.221C531.46 610.711 504.94 616.291 481.86 616.291L481.88 616.281ZM439.94 605.921C464.98 612.971 511.09 619.471 551.76 589.891C538.42 567.651 531.26 525.461 530.47 464.411C530.47 464.001 530.58 463.591 530.79 463.231C539.36 449.251 537.33 413.201 526.98 395.561C517.74 379.811 488.34 337.781 481.46 327.991C468.82 342.101 492.24 378.741 492.49 379.121C492.81 379.611 492.92 380.211 492.79 380.781C492.67 381.351 492.32 381.851 491.83 382.161C481.57 388.731 475.75 396.041 474.51 403.881C473.06 413.131 478.59 419.971 478.64 420.041C479.18 420.701 479.3 421.621 478.93 422.391C474.31 431.991 473.32 439.931 475.97 445.971C478.85 452.521 485.52 455.741 490.62 457.291C491.3 457.501 491.84 458.031 492.07 458.701C492.29 459.381 492.17 460.131 491.75 460.701C468.23 492.271 440.26 542.991 439.94 605.911V605.921Z" fill="black"/>
<path d="M510.089 450.769C509.579 450.769 509.069 450.589 508.659 450.229C508.029 449.689 493.409 436.799 500.159 422.339C505.539 410.799 504.719 409.459 500.159 402.019L499.559 401.039C493.729 391.469 499.379 382.979 499.619 382.619C499.979 382.089 500.549 381.749 501.189 381.669C501.829 381.599 502.459 381.809 502.929 382.239L523.949 401.679C524.839 402.499 524.899 403.889 524.069 404.779C523.239 405.669 521.859 405.719 520.969 404.899L502.119 387.469C501.229 389.979 500.549 394.199 503.309 398.749L503.899 399.719C509.029 408.099 510.229 411.099 504.129 424.189C498.789 435.629 511.399 446.799 511.529 446.909C512.439 447.709 512.539 449.089 511.749 450.009C511.319 450.509 510.709 450.769 510.089 450.769Z" fill="black"/>
<path d="M489.658 433.6C487.188 433.6 484.738 432.64 482.918 430.77L475.378 422.98C474.538 422.11 474.558 420.72 475.428 419.88C476.298 419.04 477.688 419.06 478.538 419.93L486.078 427.72C487.858 429.56 490.808 429.73 492.798 428.11C493.738 427.34 495.118 427.48 495.888 428.42C496.658 429.36 496.518 430.74 495.578 431.51C493.858 432.92 491.758 433.61 489.658 433.61V433.6Z" fill="black"/>
<path d="M1210.67 1566.3C1211.12 1568.83 1288.48 1680.55 1288.48 1680.55L1226.04 1696.88L1164.5 1600.65L1210.67 1566.3Z" fill="white"/>
<path d="M1226.04 1699.07C1225.3 1699.07 1224.6 1698.7 1224.19 1698.06L1162.65 1601.83C1162.03 1600.86 1162.27 1599.57 1163.19 1598.89L1209.36 1564.54C1209.97 1564.09 1210.77 1563.98 1211.48 1564.26C1212.08 1564.5 1212.55 1564.99 1212.75 1565.6C1214.86 1569.91 1260.19 1635.83 1290.29 1679.29C1290.7 1679.88 1290.79 1680.63 1290.54 1681.3C1290.29 1681.97 1289.73 1682.48 1289.04 1682.66L1226.6 1698.99C1226.42 1699.04 1226.23 1699.06 1226.04 1699.06V1699.07ZM1167.45 1601.19L1227.03 1694.35L1284.89 1679.22C1253.72 1634.2 1217.9 1582.15 1210.07 1569.49L1167.45 1601.19Z" fill="black"/>
<path d="M1225.7 1665.57C1225.7 1665.57 1232.96 1632.91 1268.61 1642.26C1268.61 1642.26 1344.6 1718.85 1379.89 1786.97C1389.87 1806.24 1372.2 1828.34 1351.17 1823.01C1301.95 1810.54 1222.86 1780.05 1167.77 1707.24C1167.77 1707.24 1174.58 1672.05 1192.15 1653.24L1225.71 1665.57H1225.7Z" fill="white"/>
<path d="M1357.5 1826C1355.23 1826 1352.92 1825.72 1350.63 1825.14C1296.21 1811.35 1220.01 1779.93 1166.01 1708.56C1165.63 1708.06 1165.49 1707.43 1165.61 1706.82C1165.89 1705.36 1172.74 1670.79 1190.54 1651.74C1191.14 1651.09 1192.08 1650.88 1192.9 1651.18L1224.25 1662.7C1225.73 1658.26 1229.84 1648.74 1239.28 1642.98C1247.4 1638.03 1257.45 1637.07 1269.16 1640.14C1269.54 1640.24 1269.88 1640.44 1270.16 1640.72C1270.92 1641.49 1346.79 1718.33 1381.83 1785.97C1386.83 1795.63 1385.72 1806.95 1378.92 1815.52C1373.56 1822.28 1365.74 1826.01 1357.49 1826.01L1357.5 1826ZM1170.12 1706.7C1223.31 1776.49 1298.17 1807.31 1351.71 1820.87C1360.63 1823.13 1369.74 1820.03 1375.49 1812.78C1381.2 1805.58 1382.14 1796.08 1377.94 1787.98C1344.55 1723.54 1273.61 1650.5 1267.47 1644.24C1257.23 1641.67 1248.53 1642.5 1241.61 1646.71C1230.85 1653.25 1227.88 1665.93 1227.85 1666.06C1227.71 1666.68 1227.31 1667.2 1226.76 1667.51C1226.2 1667.81 1225.54 1667.86 1224.95 1667.64L1192.78 1655.82C1178.11 1672.44 1171.33 1701.15 1170.13 1706.72L1170.12 1706.7Z" fill="black"/>
<path d="M1350.57 1801.45C1323.73 1801.45 1265.79 1789.55 1181.9 1708.65C1181.03 1707.81 1181 1706.42 1181.84 1705.55C1182.68 1704.68 1184.07 1704.65 1184.95 1705.49C1299.08 1815.55 1365.41 1795.46 1366.07 1795.25C1367.22 1794.87 1368.46 1795.5 1368.84 1796.64C1369.22 1797.79 1368.6 1799.03 1367.45 1799.41C1366.68 1799.67 1360.95 1801.45 1350.57 1801.45Z" fill="black"/>
<path d="M1298.85 1741.02C1298.23 1741.02 1297.61 1740.76 1297.18 1740.25C1296.4 1739.33 1296.51 1737.94 1297.43 1737.15L1324.68 1714.01C1325.61 1713.23 1326.99 1713.34 1327.78 1714.26C1328.56 1715.18 1328.45 1716.57 1327.53 1717.35L1300.28 1740.49C1299.87 1740.84 1299.36 1741.01 1298.86 1741.01L1298.85 1741.02Z" fill="black"/>
<path d="M1279.59 1720.92C1278.94 1720.92 1278.3 1720.63 1277.87 1720.09C1277.12 1719.14 1277.28 1717.76 1278.23 1717.01L1308.01 1693.42C1308.96 1692.67 1310.34 1692.83 1311.1 1693.78C1311.85 1694.73 1311.69 1696.11 1310.74 1696.86L1280.96 1720.45C1280.56 1720.77 1280.07 1720.92 1279.6 1720.92H1279.59Z" fill="black"/>
<path d="M1019.58 1311.94L967.762 1351.73L1013.26 1413.55L1061.77 1367.3L1019.58 1311.94Z" fill="white"/>
<path d="M1013.26 1415.75C1013.2 1415.75 1013.13 1415.75 1013.07 1415.75C1012.44 1415.7 1011.87 1415.37 1011.49 1414.86L965.992 1353.04C965.282 1352.08 965.472 1350.72 966.422 1350L1018.24 1310.21C1018.7 1309.86 1019.29 1309.7 1019.87 1309.78C1020.45 1309.86 1020.97 1310.16 1021.33 1310.63L1063.53 1365.98C1064.21 1366.87 1064.11 1368.13 1063.3 1368.9L1014.79 1415.15C1014.38 1415.54 1013.84 1415.76 1013.27 1415.76L1013.26 1415.75ZM970.802 1352.16L1013.55 1410.24L1058.83 1367.06L1019.16 1315.02L970.802 1352.15V1352.16Z" fill="black"/>
<path d="M1044.08 1406.3L995.919 1367.29L986.849 1334.6C961.559 1333.98 933.169 1352.82 917.599 1364.94C910.389 1370.55 908.039 1380.41 912.069 1388.61C937.759 1440.8 995.689 1522.22 1023.73 1560.56C1030.79 1570.22 1046.1 1567.1 1048.57 1555.38C1060.95 1496.69 1044.08 1406.29 1044.08 1406.29V1406.3Z" fill="white"/>
<path d="M1034.93 1568.5C1029.84 1568.5 1025.07 1566.12 1021.96 1561.87C991.041 1519.59 935.401 1440.99 910.101 1389.59C905.651 1380.54 908.241 1369.45 916.251 1363.21C931.141 1351.62 959.761 1332.39 985.641 1332.39C986.061 1332.39 986.491 1332.39 986.911 1332.41C987.881 1332.43 988.711 1333.09 988.971 1334.02L997.851 1366.03L1045.47 1404.6C1045.88 1404.93 1046.15 1405.39 1046.25 1405.9C1046.42 1406.81 1063.06 1497.41 1050.73 1555.85C1049.42 1562.08 1044.71 1566.78 1038.45 1568.12C1037.27 1568.37 1036.09 1568.5 1034.93 1568.5ZM985.181 1336.79C960.731 1337.01 933.311 1355.51 918.951 1366.68C912.571 1371.65 910.511 1380.46 914.041 1387.65C939.191 1438.75 994.671 1517.11 1025.51 1559.28C1028.29 1563.08 1032.9 1564.83 1037.52 1563.83C1042.06 1562.85 1045.47 1559.45 1046.42 1554.94C1057.96 1500.23 1043.67 1416.52 1042.06 1407.49L994.531 1369C994.181 1368.71 993.921 1368.32 993.801 1367.88L985.171 1336.79H985.181Z" fill="black"/>
<path d="M1027.93 1539.38C1027.24 1539.38 1026.55 1539.05 1026.12 1538.44L949.402 1427.87C944.142 1420.3 941.812 1410.77 942.812 1401.06C944.722 1382.65 937.282 1363.75 937.212 1363.56C936.762 1362.43 937.312 1361.16 938.432 1360.71C939.562 1360.26 940.842 1360.81 941.282 1361.94C941.602 1362.75 949.192 1382.04 947.172 1401.52C946.272 1410.19 948.342 1418.66 953.002 1425.37L1029.72 1535.94C1030.41 1536.94 1030.16 1538.3 1029.17 1539C1028.79 1539.26 1028.35 1539.39 1027.92 1539.39L1027.93 1539.38Z" fill="black"/>
<path d="M1071.21 786.92C1071.21 786.92 1219.17 903.75 1297.46 1013.1C1319.34 1043.66 1322.43 1083.88 1305.83 1117.6C1269.79 1190.81 1191.85 1322.09 1071.21 1387.57L969.902 1258.12C969.902 1258.12 1058.49 1160.17 1123.62 1115.55L957.552 929.41L916.262 835.93L1071.22 786.92H1071.21Z" fill="black"/>
<path d="M1142.41 1659.49C1147.66 1668.74 1266.99 1581.5 1266.99 1581.5C1266.99 1581.5 1175.69 1474.64 1030.6 931.49C1028.91 925.17 1002.16 792.34 1002.16 792.34L803.891 896.26C803.891 896.26 838.731 1124.83 1142.41 1659.48V1659.49Z" fill="black"/>
<path d="M1054.43 1020.79C1053.46 1020.79 1052.58 1020.15 1052.31 1019.17L1033.66 951.029C1030.19 938.359 1032.46 924.869 1039.87 914.029L1051.29 897.339C1051.97 896.339 1053.34 896.079 1054.34 896.769C1055.34 897.449 1055.6 898.819 1054.91 899.819L1043.49 916.509C1036.8 926.289 1034.76 938.439 1037.89 949.869L1056.54 1018.01C1056.86 1019.18 1056.17 1020.39 1055 1020.71C1054.81 1020.76 1054.61 1020.79 1054.42 1020.79H1054.43Z" fill="white"/>
<path d="M1175.55 1377.27C1174.7 1377.27 1173.89 1376.77 1173.53 1375.94C1173.08 1374.88 1128.05 1269.24 1111.33 1216.16C1110.97 1215 1111.61 1213.77 1112.76 1213.41C1113.93 1213.05 1115.15 1213.69 1115.52 1214.84C1132.17 1267.71 1177.12 1373.15 1177.57 1374.21C1178.05 1375.33 1177.53 1376.62 1176.41 1377.09C1176.13 1377.21 1175.84 1377.27 1175.55 1377.27Z" fill="white"/>
<path d="M757.22 544.491C760.99 623.631 772.18 821.091 792.86 900.401C795.52 910.591 806.77 915.901 816.37 911.571C863.62 890.251 997.8 833.321 1099.91 825.621C1114.46 824.521 1124.1 810.051 1119.56 796.181C1100 736.401 1056.28 596.091 1043.97 500.191C1040.47 472.931 1018.81 451.921 991.89 449.821C942.19 445.951 861.91 448.791 786.31 491.241C767.42 501.851 756.17 522.541 757.22 544.481V544.491Z" fill="#E95018"/>
<path d="M809.341 915.281C806.491 915.281 803.651 914.651 801.011 913.391C795.901 910.951 792.161 906.421 790.731 900.961C770.061 821.701 758.871 625.34 755.021 544.6C753.941 521.94 765.801 500.251 785.231 489.341C859.951 447.381 938.951 443.501 992.061 447.641C1019.79 449.801 1042.54 471.781 1046.15 499.921C1058.52 596.311 1103.07 738.741 1121.65 795.511C1124.03 802.781 1122.96 810.591 1118.71 816.951C1114.47 823.291 1107.68 827.251 1100.08 827.821C999.521 835.401 868.811 890.321 817.281 913.581C814.751 914.721 812.051 915.29 809.341 915.29V915.281ZM759.411 544.381C763.261 624.981 774.421 820.981 794.981 899.841C796.081 904.051 798.961 907.54 802.901 909.421C806.871 911.32 811.451 911.371 815.461 909.561C867.201 886.211 998.481 831.061 1099.74 823.431C1105.98 822.961 1111.57 819.701 1115.05 814.491C1118.55 809.26 1119.43 802.841 1117.47 796.861C1098.85 739.98 1054.21 597.221 1041.79 500.461C1038.44 474.381 1017.39 454.001 991.721 452.011C939.201 447.921 861.141 451.741 787.381 493.161C769.381 503.271 758.401 523.371 759.401 544.381H759.411Z" fill="#E95018"/>
<path d="M847.29 348.071C847.29 348.071 831.87 316.731 826.44 311.211C821 305.691 816.8 299.871 832.79 289.171C848.78 278.471 890.55 249.911 916.15 250.101C941.75 250.281 959.68 266.451 951.8 278.111C943.92 289.771 940.31 294.681 946.38 295.431C952.45 296.181 955.8 302.961 938.6 312.931C921.39 322.901 861.41 366.161 847.29 348.071Z" fill="black"/>
<path d="M934.937 456.961L925.997 409.451C952.907 395.941 942.067 377.201 938.047 362.241C933.717 346.141 920.377 311.191 920.377 311.191C898.297 324.161 855.007 320.291 855.007 320.291C855.007 320.291 861.217 330.181 857.647 335.061C854.087 339.941 856.307 358.661 856.307 358.661C856.307 358.661 848.577 351.391 840.307 356.951C835.657 360.081 840.967 373.431 844.777 380.921C848.587 388.411 856.787 389.881 856.787 389.881C856.787 389.881 858.137 389.071 860.897 395.671L846.207 473.061L817.367 485.031L881.537 493.691C901.787 496.421 922.287 490.981 938.507 478.561L961.497 460.961L934.937 456.961Z" fill="white"/>
<path d="M891.659 496.571C888.189 496.571 884.709 496.341 881.249 495.871L817.079 487.211C816.099 487.081 815.319 486.301 815.199 485.321C815.069 484.341 815.619 483.391 816.539 483.011L844.279 471.491L858.619 395.921C857.509 393.381 856.769 392.401 856.459 392.051C856.439 392.051 856.419 392.051 856.399 392.051C856.019 391.981 847.079 390.291 842.819 381.921C839.479 375.361 832.419 359.611 839.079 355.131C844.389 351.561 849.809 352.451 853.679 354.301C853.209 348.001 852.969 337.741 855.869 333.771C858.049 330.781 854.539 323.711 853.139 321.461C852.699 320.751 852.699 319.861 853.139 319.151C853.579 318.441 854.359 318.041 855.209 318.111C855.639 318.151 898.069 321.761 919.279 309.301C919.839 308.971 920.509 308.911 921.119 309.121C921.729 309.331 922.209 309.811 922.439 310.411C922.989 311.841 935.869 345.651 940.179 361.671C940.709 363.631 941.349 365.651 942.029 367.791C946.359 381.361 951.729 398.181 928.469 410.651L936.819 455.021L961.839 458.791C962.709 458.921 963.419 459.561 963.639 460.411C963.859 461.261 963.549 462.171 962.849 462.701L939.859 480.301C926.069 490.861 908.949 496.561 891.669 496.561L891.659 496.571ZM825.729 483.951L881.839 491.521C901.369 494.161 921.539 488.801 937.179 476.821L956.059 462.371L934.609 459.141C933.689 459.001 932.949 458.291 932.779 457.371L923.839 409.861C923.659 408.901 924.139 407.931 925.009 407.491C946.619 396.641 942.149 382.661 937.839 369.131C937.139 366.941 936.479 364.881 935.929 362.811C932.329 349.411 922.279 322.441 919.219 314.331C900.249 324.021 869.699 323.361 858.789 322.761C860.509 326.551 862.309 332.411 859.419 336.361C857.319 339.241 857.609 350.981 858.489 358.401C858.599 359.321 858.119 360.201 857.299 360.621C856.469 361.031 855.479 360.891 854.809 360.261C854.549 360.021 848.219 354.281 841.539 358.771C839.549 360.111 840.969 368.581 846.749 379.921C849.619 385.561 855.529 387.311 856.909 387.651C857.209 387.651 857.549 387.691 857.869 387.801C859.019 388.181 860.639 389.321 862.939 394.821C863.109 395.221 863.149 395.651 863.069 396.081L848.379 473.471C848.239 474.201 847.749 474.811 847.059 475.091L825.729 483.941V483.951ZM857.909 391.771C857.819 391.821 857.729 391.871 857.639 391.911C857.729 391.871 857.819 391.831 857.909 391.771Z" fill="black"/>
<path d="M901.217 417.271C876.667 417.271 867.527 398.311 867.407 398.061C866.897 396.961 867.377 395.651 868.477 395.151C869.577 394.641 870.877 395.121 871.387 396.221C871.937 397.391 885.107 424.211 925.137 407.431C926.257 406.961 927.547 407.491 928.007 408.611C928.477 409.731 927.947 411.011 926.827 411.481C916.867 415.661 908.377 417.271 901.197 417.271H901.217Z" fill="black"/>
<path d="M837.03 332.83L845.25 356.85C845.25 356.85 897.56 388.12 959.84 375.46C968.38 373.72 973.81 365.28 971.88 356.78L967.08 314.53C965.17 306.11 956.759 300.87 948.359 302.85L837.02 332.83H837.03Z" fill="white"/>
<path d="M929.72 380.641C881.44 380.641 844.57 359.001 844.13 358.741C843.68 358.471 843.35 358.061 843.18 357.571L834.961 333.551C834.761 332.971 834.81 332.341 835.1 331.811C835.39 331.271 835.88 330.881 836.47 330.721L947.81 300.741C952.51 299.631 957.291 300.411 961.341 302.941C965.381 305.461 968.19 309.411 969.25 314.061C969.27 314.141 969.28 314.221 969.29 314.301L974.081 356.431C975.111 361.091 974.251 365.861 971.651 369.871C969.041 373.911 965.01 376.661 960.31 377.621C949.79 379.761 939.53 380.651 929.74 380.651L929.72 380.641ZM847.07 355.361C853.39 358.891 902.52 384.881 959.42 373.311C962.96 372.591 965.99 370.521 967.951 367.481C969.921 364.431 970.561 360.801 969.76 357.271C969.74 357.191 969.73 357.111 969.72 357.031L964.93 314.901C964.12 311.451 962.021 308.531 959.01 306.651C955.97 304.751 952.37 304.161 948.88 304.991L839.88 334.341L847.07 355.361Z" fill="black"/>
<path d="M896.222 361.46C895.662 361.46 895.102 361.25 894.672 360.82C893.812 359.96 893.812 358.57 894.672 357.71L914.622 337.76C915.482 336.9 916.872 336.9 917.732 337.76C918.592 338.62 918.592 340.01 917.732 340.87L897.782 360.82C897.352 361.25 896.792 361.46 896.232 361.46H896.222Z" fill="black"/>
<path d="M926 357.591C925.44 357.591 924.88 357.381 924.45 356.951C923.59 356.091 923.59 354.701 924.45 353.841L954.33 323.971C955.19 323.111 956.58 323.111 957.44 323.971C958.3 324.831 958.3 326.221 957.44 327.081L927.57 356.951C927.14 357.381 926.58 357.591 926.02 357.591H926Z" fill="black"/>
<path d="M739.532 1542.25C738.532 1542.25 737.622 1541.56 737.392 1540.54C737.122 1539.36 737.861 1538.18 739.041 1537.91C768.471 1531.23 799.602 1523.02 831.562 1513.52C832.722 1513.17 833.941 1513.84 834.291 1515C834.641 1516.16 833.972 1517.39 832.812 1517.73C800.762 1527.26 769.542 1535.49 740.022 1542.19C739.862 1542.23 739.692 1542.25 739.532 1542.25Z" fill="white"/>
<path d="M623.761 1561.8C622.641 1561.8 621.691 1560.95 621.581 1559.82C621.461 1558.61 622.341 1557.54 623.551 1557.42C658.511 1553.94 697.361 1547.38 739.051 1537.91C740.241 1537.64 741.411 1538.38 741.681 1539.56C741.951 1540.74 741.211 1541.92 740.031 1542.19C698.171 1551.7 659.131 1558.29 623.991 1561.78C623.921 1561.78 623.841 1561.79 623.771 1561.79L623.761 1561.8Z" fill="black"/>
<path d="M568.051 1564.76C564.201 1564.76 560.421 1564.71 556.711 1564.61C555.501 1564.58 554.541 1563.57 554.571 1562.36C554.601 1561.15 555.611 1560.18 556.821 1560.22C577.021 1560.76 599.461 1559.81 623.541 1557.42C624.751 1557.3 625.821 1558.18 625.941 1559.39C626.061 1560.6 625.181 1561.67 623.971 1561.79C604.121 1563.76 585.361 1564.76 568.041 1564.76H568.051Z" fill="white"/>
<path d="M1167.43 1379.55C1146.52 1379.55 1126.26 1368.17 1116.12 1348.52C1115.56 1347.44 1115.99 1346.12 1117.07 1345.56C1118.14 1345 1119.47 1345.43 1120.03 1346.5C1133.21 1372.06 1164.96 1382.46 1190.77 1369.71C1205.05 1362.65 1219.49 1355.36 1233.69 1348.04C1420.91 1251.46 1586.08 1139.69 1698.77 1033.32C1810.83 927.54 1857.48 840.1 1830.14 787.1L1464.55 78.4197C1471.79 133.69 1423.38 213.13 1324.95 306.04C1211.97 412.68 1046.45 524.71 858.872 621.47C845.142 628.55 831.192 635.6 817.422 642.42C804.602 648.77 795.082 659.75 790.612 673.35C786.132 686.98 787.292 701.5 793.872 714.25L901.512 922.92C902.072 924 901.642 925.32 900.572 925.88C899.492 926.44 898.172 926.01 897.612 924.94L789.972 716.27C782.852 702.46 781.592 686.74 786.442 671.98C791.282 657.25 801.592 645.36 815.482 638.49C829.232 631.69 843.152 624.65 856.872 617.58C1044.09 521 1209.26 409.23 1321.95 302.86C1433.92 197.16 1480.6 109.77 1453.38 56.7597L1453.32 56.6397C1452.76 55.5597 1453.19 54.2397 1454.27 53.6797C1455.34 53.1197 1456.67 53.5497 1457.23 54.6197L1834.05 785.09C1862.37 839.99 1815.4 929.28 1701.79 1036.52C1588.81 1143.16 1423.29 1255.19 1235.71 1351.95C1221.49 1359.29 1207.02 1366.59 1192.72 1373.66C1184.62 1377.66 1175.98 1379.56 1167.44 1379.56L1167.43 1379.55Z" fill="white"/>
<path d="M1118.08 1349.71C1117.28 1349.71 1116.52 1349.28 1116.13 1348.52L1042.42 1205.63C1041.86 1204.55 1042.29 1203.23 1043.37 1202.67C1044.45 1202.11 1045.77 1202.54 1046.33 1203.61L1120.04 1346.5C1120.6 1347.58 1120.17 1348.9 1119.09 1349.46C1118.77 1349.63 1118.43 1349.71 1118.09 1349.71H1118.08Z" fill="white"/>
<path d="M1044.36 1206.82C1043.56 1206.82 1042.8 1206.39 1042.41 1205.63L1011.05 1144.84C1010.49 1143.76 1010.92 1142.44 1012 1141.88C1013.07 1141.32 1014.4 1141.75 1014.96 1142.82L1046.32 1203.61C1046.88 1204.69 1046.45 1206.01 1045.37 1206.57C1045.05 1206.74 1044.71 1206.81 1044.37 1206.81L1044.36 1206.82Z" fill="black"/>
<path d="M1013 1146.02C1012.2 1146.02 1011.44 1145.59 1011.05 1144.83L897.609 924.929C897.049 923.849 897.479 922.529 898.549 921.969C899.619 921.409 900.949 921.839 901.509 922.909L1014.95 1142.81C1015.51 1143.89 1015.08 1145.21 1014 1145.77C1013.68 1145.94 1013.34 1146.02 1013 1146.02Z" fill="white"/>
<path d="M900.923 714.13C900.123 714.13 899.363 713.7 898.973 712.94C898.413 711.86 898.843 710.54 899.913 709.98C1196.84 556.8 1434.5 365.77 1491.3 234.62C1491.78 233.51 1493.06 232.99 1494.19 233.48C1495.3 233.96 1495.81 235.25 1495.33 236.37C1438.16 368.38 1199.68 560.28 901.923 713.89C901.603 714.06 901.253 714.13 900.923 714.13Z" fill="white"/>
<path d="M936.731 789.94C935.931 789.94 935.171 789.51 934.781 788.75C934.221 787.67 934.651 786.35 935.721 785.79C1232.65 632.61 1470.32 441.58 1527.12 310.43C1527.6 309.32 1528.89 308.8 1530.01 309.29C1531.12 309.77 1531.63 311.06 1531.15 312.18C1473.98 444.19 1235.5 636.09 937.741 789.7C937.421 789.87 937.071 789.95 936.741 789.95L936.731 789.94Z" fill="white"/>
<path d="M1067.6 814.35C1066.83 814.35 1066.09 813.95 1065.69 813.24C1065.09 812.18 1065.46 810.84 1066.52 810.25C1140.66 768.23 1210.29 724.09 1273.49 679.06C1274.48 678.36 1275.85 678.59 1276.55 679.57C1277.25 680.56 1277.02 681.93 1276.04 682.63C1212.72 727.75 1142.95 771.97 1068.69 814.07C1068.35 814.26 1067.98 814.36 1067.61 814.36L1067.6 814.35Z" fill="white"/>
<path d="M1325.93 645.29C1325.27 645.29 1324.62 644.99 1324.18 644.43C1323.44 643.47 1323.63 642.09 1324.59 641.35C1447.86 547.11 1532.5 456.51 1562.93 386.25C1563.41 385.14 1564.71 384.63 1565.82 385.11C1566.93 385.59 1567.44 386.89 1566.96 388C1536.24 458.94 1451.11 550.16 1327.26 644.85C1326.86 645.15 1326.39 645.3 1325.93 645.3V645.29Z" fill="white"/>
<path d="M1197.12 834.43C1196.39 834.43 1195.67 834.06 1195.25 833.4C1194.61 832.37 1194.92 831.02 1195.95 830.37C1269.6 784.39 1336.55 737.17 1394.95 690.04C1395.9 689.28 1397.28 689.43 1398.04 690.37C1398.8 691.31 1398.65 692.7 1397.71 693.46C1339.18 740.7 1272.08 788.02 1198.28 834.09C1197.92 834.32 1197.52 834.42 1197.12 834.42V834.43Z" fill="white"/>
<path d="M1436.45 660.389C1435.84 660.389 1435.23 660.129 1434.79 659.629C1433.99 658.709 1434.09 657.329 1435.01 656.529C1518.38 584.149 1575 516.899 1598.75 462.049C1599.23 460.939 1600.51 460.419 1601.64 460.909C1602.75 461.389 1603.26 462.689 1602.78 463.799C1578.77 519.239 1521.75 587.039 1437.89 659.849C1437.48 660.209 1436.96 660.389 1436.45 660.389Z" fill="white"/>
<path d="M1080 1093.2C1079.2 1093.2 1078.44 1092.77 1078.05 1092.01C1077.49 1090.93 1077.92 1089.61 1079 1089.05C1092.55 1082.06 1106.23 1074.86 1119.67 1067.64C1120.74 1067.07 1122.07 1067.47 1122.64 1068.54C1123.21 1069.61 1122.81 1070.94 1121.74 1071.51C1108.28 1078.74 1094.58 1085.95 1081.01 1092.95C1080.69 1093.12 1080.35 1093.19 1080.01 1093.19L1080 1093.2Z" fill="black"/>
<path d="M1120.7 1071.77C1119.92 1071.77 1119.16 1071.35 1118.76 1070.61C1118.19 1069.54 1118.59 1068.21 1119.66 1067.64C1162.82 1044.47 1205.24 1020.18 1245.77 995.461C1246.8 994.831 1248.15 995.161 1248.79 996.191C1249.42 997.231 1249.09 998.581 1248.06 999.211C1207.47 1023.97 1164.97 1048.3 1121.74 1071.51C1121.41 1071.69 1121.05 1071.77 1120.7 1071.77Z" fill="white"/>
<path d="M1246.92 999.53C1246.18 999.53 1245.46 999.16 1245.04 998.48C1244.41 997.44 1244.74 996.09 1245.77 995.46C1353.8 929.56 1450.1 859.4 1524.26 792.58C1597.9 726.23 1648.43 664.37 1670.38 613.68C1670.86 612.57 1672.15 612.06 1673.27 612.54C1674.38 613.02 1674.89 614.32 1674.41 615.43C1628.83 720.68 1469.45 864.15 1248.05 999.21C1247.69 999.43 1247.3 999.53 1246.91 999.53H1246.92Z" fill="white"/>
<path d="M1115.82 1169.01C1115.02 1169.01 1114.26 1168.58 1113.87 1167.82C1113.31 1166.74 1113.74 1165.42 1114.82 1164.86C1161.65 1140.7 1207.77 1115.22 1251.91 1089.11C1252.95 1088.49 1254.3 1088.84 1254.92 1089.88C1255.54 1090.92 1255.19 1092.27 1254.15 1092.89C1209.94 1119.04 1163.74 1144.57 1116.84 1168.77C1116.52 1168.94 1116.18 1169.02 1115.84 1169.02L1115.82 1169.01Z" fill="white"/>
<path d="M1253.02 1093.2C1252.27 1093.2 1251.54 1092.81 1251.13 1092.12C1250.51 1091.08 1250.86 1089.73 1251.9 1089.11C1485.12 951.151 1659.2 798.031 1706.21 689.501C1706.69 688.391 1707.97 687.871 1709.1 688.361C1710.21 688.841 1710.72 690.141 1710.24 691.251C1662.89 800.591 1488.12 954.491 1254.14 1092.9C1253.79 1093.11 1253.4 1093.21 1253.02 1093.21V1093.2Z" fill="white"/>
<path d="M1151.63 1244.83C1150.83 1244.83 1150.07 1244.4 1149.68 1243.64C1149.12 1242.56 1149.55 1241.24 1150.63 1240.68C1178.02 1226.55 1205.35 1211.87 1231.87 1197.04C1232.93 1196.45 1234.27 1196.83 1234.86 1197.88C1235.45 1198.94 1235.07 1200.28 1234.02 1200.87C1207.46 1215.72 1180.08 1230.42 1152.65 1244.58C1152.33 1244.75 1151.99 1244.83 1151.65 1244.83H1151.63Z" fill="black"/>
<path d="M1232.94 1201.16C1232.17 1201.16 1231.42 1200.75 1231.02 1200.04C1230.43 1198.98 1230.81 1197.64 1231.86 1197.05C1490.9 1052.23 1691.15 882.771 1742.02 765.321C1742.5 764.211 1743.8 763.701 1744.91 764.181C1746.02 764.661 1746.53 765.961 1746.05 767.071C1720.96 825.001 1660.21 896.001 1570.36 972.391C1479.47 1049.67 1363.16 1128.68 1234 1200.89C1233.66 1201.08 1233.29 1201.17 1232.93 1201.17L1232.94 1201.16Z" fill="white"/>
<path d="M1408.45 1411.98C1407.71 1411.98 1406.98 1411.6 1406.57 1410.92C1405.94 1409.88 1406.27 1408.53 1407.31 1407.9C1414.85 1403.32 1422.33 1398.73 1429.74 1394.14C1430.77 1393.5 1432.12 1393.82 1432.76 1394.85C1433.4 1395.88 1433.08 1397.23 1432.05 1397.87C1424.63 1402.47 1417.14 1407.06 1409.59 1411.65C1409.23 1411.87 1408.84 1411.97 1408.45 1411.97V1411.98ZM1453.22 1384.23C1452.49 1384.23 1451.78 1383.87 1451.36 1383.21C1450.71 1382.19 1451.01 1380.83 1452.04 1380.18C1459.5 1375.45 1466.89 1370.73 1474.2 1365.99C1475.22 1365.33 1476.58 1365.62 1477.24 1366.64C1477.9 1367.66 1477.61 1369.02 1476.59 1369.68C1469.27 1374.42 1461.87 1379.16 1454.4 1383.89C1454.04 1384.12 1453.63 1384.23 1453.23 1384.23H1453.22ZM1497.43 1355.61C1496.72 1355.61 1496.02 1355.26 1495.6 1354.63C1494.93 1353.62 1495.21 1352.26 1496.22 1351.59C1503.59 1346.71 1510.88 1341.83 1518.08 1336.95C1519.08 1336.27 1520.45 1336.53 1521.13 1337.54C1521.81 1338.54 1521.55 1339.91 1520.54 1340.59C1513.33 1345.48 1506.03 1350.37 1498.64 1355.26C1498.27 1355.51 1497.85 1355.63 1497.43 1355.63V1355.61ZM1541.03 1326.05C1540.34 1326.05 1539.65 1325.72 1539.22 1325.11C1538.53 1324.11 1538.78 1322.75 1539.77 1322.05C1546.97 1317.05 1554.22 1311.96 1561.31 1306.91C1562.3 1306.21 1563.67 1306.44 1564.37 1307.43C1565.07 1308.42 1564.84 1309.79 1563.86 1310.49C1556.76 1315.55 1549.5 1320.65 1542.28 1325.66C1541.9 1325.92 1541.46 1326.05 1541.03 1326.05ZM1583.96 1295.48C1583.28 1295.48 1582.62 1295.17 1582.18 1294.58C1581.47 1293.6 1581.68 1292.23 1582.66 1291.51C1589.81 1286.28 1596.92 1281.01 1603.81 1275.84C1604.78 1275.11 1606.16 1275.31 1606.89 1276.28C1607.62 1277.25 1607.42 1278.63 1606.45 1279.35C1599.55 1284.53 1592.42 1289.82 1585.25 1295.05C1584.86 1295.34 1584.41 1295.47 1583.96 1295.47V1295.48Z" fill="white"/>
<path d="M1605.14 1279.79C1604.47 1279.79 1603.81 1279.49 1603.38 1278.91C1602.65 1277.94 1602.85 1276.56 1603.82 1275.84L1604.35 1275.44C1605.32 1274.71 1606.7 1274.91 1607.42 1275.88C1608.15 1276.85 1607.95 1278.23 1606.98 1278.95L1606.45 1279.35C1606.06 1279.65 1605.59 1279.79 1605.14 1279.79ZM1626.62 1263.42C1625.96 1263.42 1625.31 1263.13 1624.88 1262.57C1624.14 1261.61 1624.31 1260.23 1625.27 1259.49C1632.23 1254.1 1639.19 1248.63 1645.97 1243.23C1646.92 1242.47 1648.3 1242.63 1649.06 1243.58C1649.82 1244.53 1649.66 1245.91 1648.71 1246.67C1641.92 1252.09 1634.94 1257.57 1627.96 1262.97C1627.56 1263.28 1627.09 1263.43 1626.62 1263.43V1263.42Z" fill="white"/>
<path d="M1664.38 1233.35C1663.75 1233.35 1663.11 1233.08 1662.68 1232.55C1661.91 1231.61 1662.05 1230.23 1662.98 1229.46C1669.88 1223.8 1676.68 1218.13 1683.18 1212.6C1684.11 1211.81 1685.49 1211.93 1686.28 1212.85C1687.06 1213.77 1686.95 1215.16 1686.03 1215.95C1679.5 1221.49 1672.69 1227.18 1665.77 1232.85C1665.36 1233.19 1664.87 1233.35 1664.38 1233.35Z" fill="white"/>
<path d="M1702.35 1201.16C1701.74 1201.16 1701.13 1200.91 1700.7 1200.41C1699.9 1199.5 1699.99 1198.11 1700.9 1197.31C1707.57 1191.45 1714.16 1185.55 1720.49 1179.76C1721.38 1178.94 1722.77 1179 1723.59 1179.9C1724.41 1180.79 1724.34 1182.18 1723.45 1183C1717.1 1188.81 1710.48 1194.74 1703.79 1200.61C1703.37 1200.98 1702.86 1201.16 1702.34 1201.16H1702.35Z" fill="white"/>
<path d="M1721.97 1183.58C1721.38 1183.58 1720.78 1183.34 1720.35 1182.87C1719.53 1181.98 1719.6 1180.59 1720.49 1179.77C1724.78 1175.84 1729 1171.93 1733.14 1168.03C1734.02 1167.2 1735.41 1167.24 1736.24 1168.12C1737.07 1169 1737.03 1170.39 1736.15 1171.22C1732 1175.13 1727.76 1179.06 1723.45 1183C1723.03 1183.39 1722.5 1183.58 1721.97 1183.58ZM1753.61 1153.53C1753.04 1153.53 1752.48 1153.31 1752.05 1152.88C1751.2 1152.02 1751.2 1150.63 1752.07 1149.77C1758.39 1143.53 1764.6 1137.23 1770.52 1131.04C1771.36 1130.16 1772.75 1130.14 1773.62 1130.97C1774.5 1131.81 1774.53 1133.2 1773.69 1134.07C1767.74 1140.28 1761.5 1146.62 1755.16 1152.89C1754.73 1153.31 1754.17 1153.52 1753.62 1153.52L1753.61 1153.53ZM1790.04 1115.45C1789.52 1115.45 1788.99 1115.26 1788.57 1114.89C1787.67 1114.08 1787.59 1112.69 1788.41 1111.79C1794.39 1105.14 1800.18 1098.47 1805.63 1091.95C1806.41 1091.02 1807.79 1090.89 1808.72 1091.67C1809.65 1092.45 1809.77 1093.83 1809 1094.76C1803.52 1101.32 1797.69 1108.03 1791.67 1114.72C1791.24 1115.2 1790.64 1115.45 1790.04 1115.45ZM1823.79 1074.99C1823.32 1074.99 1822.86 1074.84 1822.46 1074.54C1821.5 1073.8 1821.31 1072.42 1822.05 1071.46C1827.53 1064.3 1832.71 1057.16 1837.46 1050.23C1838.15 1049.23 1839.51 1048.97 1840.51 1049.66C1841.51 1050.35 1841.76 1051.71 1841.08 1052.71C1836.29 1059.7 1831.06 1066.9 1825.53 1074.12C1825.1 1074.68 1824.44 1074.98 1823.78 1074.98L1823.79 1074.99ZM1853.48 1031.48C1853.1 1031.48 1852.71 1031.38 1852.36 1031.17C1851.32 1030.55 1850.97 1029.2 1851.59 1028.16C1856.23 1020.35 1860.41 1012.61 1864.03 1005.15C1864.56 1004.06 1865.87 1003.6 1866.96 1004.13C1868.05 1004.66 1868.51 1005.97 1867.98 1007.06C1864.31 1014.63 1860.06 1022.48 1855.36 1030.39C1854.95 1031.08 1854.22 1031.47 1853.47 1031.47L1853.48 1031.48Z" fill="white"/>
<path d="M259.751 1816.26C252.511 1816.26 245.331 1816.14 238.441 1815.91C237.231 1815.87 236.281 1814.85 236.321 1813.64C236.361 1812.43 237.361 1811.49 238.591 1811.52C247.051 1811.8 255.871 1811.91 264.851 1811.85C266.021 1811.79 267.051 1812.82 267.061 1814.03C267.061 1815.24 266.091 1816.23 264.881 1816.24C263.161 1816.25 261.461 1816.26 259.761 1816.26H259.751ZM291.201 1815.58C290.031 1815.58 289.061 1814.66 289.011 1813.48C288.961 1812.27 289.901 1811.24 291.111 1811.19C299.621 1810.83 308.451 1810.32 317.351 1809.68C318.571 1809.59 319.611 1810.5 319.701 1811.71C319.791 1812.92 318.881 1813.97 317.671 1814.06C308.731 1814.71 299.851 1815.21 291.301 1815.57C291.271 1815.57 291.241 1815.57 291.211 1815.57L291.201 1815.58ZM212.201 1814.41C212.141 1814.41 212.081 1814.41 212.021 1814.41C202.931 1813.66 194.081 1812.66 185.711 1811.45C184.511 1811.28 183.681 1810.16 183.851 1808.96C184.021 1807.76 185.141 1806.93 186.341 1807.1C194.621 1808.3 203.391 1809.28 212.391 1810.03C213.601 1810.13 214.501 1811.19 214.401 1812.4C214.301 1813.55 213.341 1814.41 212.211 1814.41H212.201ZM343.761 1811.82C342.641 1811.82 341.691 1810.97 341.581 1809.84C341.461 1808.63 342.341 1807.56 343.551 1807.44C352.051 1806.6 360.851 1805.63 369.691 1804.55C370.891 1804.41 371.991 1805.26 372.141 1806.46C372.291 1807.66 371.431 1808.76 370.231 1808.91C361.351 1810 352.521 1810.97 343.981 1811.81C343.911 1811.81 343.831 1811.82 343.761 1811.82ZM160.111 1806.73C159.951 1806.73 159.791 1806.71 159.631 1806.68C150.601 1804.65 141.981 1802.27 134.031 1799.6C132.881 1799.21 132.261 1797.97 132.651 1796.82C133.041 1795.67 134.291 1795.05 135.431 1795.44C143.241 1798.06 151.711 1800.4 160.601 1802.4C161.781 1802.67 162.531 1803.84 162.261 1805.02C162.031 1806.04 161.121 1806.74 160.121 1806.74L160.111 1806.73ZM396.081 1805.44C395.001 1805.44 394.071 1804.65 393.911 1803.56C393.741 1802.36 394.571 1801.25 395.771 1801.07C404.291 1799.85 413.041 1798.5 421.781 1797.07C422.971 1796.87 424.101 1797.69 424.301 1798.88C424.501 1800.08 423.681 1801.21 422.491 1801.4C413.731 1802.83 404.951 1804.18 396.401 1805.41C396.291 1805.43 396.191 1805.43 396.091 1805.43L396.081 1805.44ZM448.101 1796.96C447.061 1796.96 446.131 1796.22 445.941 1795.16C445.721 1793.97 446.521 1792.82 447.711 1792.61C456.211 1791.07 464.901 1789.42 473.571 1787.7C474.751 1787.47 475.921 1788.24 476.151 1789.43C476.381 1790.62 475.611 1791.77 474.421 1792.01C465.741 1793.73 457.011 1795.39 448.491 1796.93C448.361 1796.95 448.231 1796.97 448.101 1796.97V1796.96ZM110.381 1789.7C110.051 1789.7 109.721 1789.62 109.401 1789.47C101.001 1785.26 93.3711 1780.51 86.7211 1775.34C85.7611 1774.6 85.5911 1773.22 86.3311 1772.26C87.0711 1771.3 88.4511 1771.13 89.4111 1771.87C95.8311 1776.86 103.221 1781.46 111.371 1785.54C112.451 1786.08 112.891 1787.4 112.351 1788.49C111.971 1789.26 111.191 1789.7 110.381 1789.7ZM499.811 1786.73C498.801 1786.73 497.891 1786.02 497.661 1784.99C497.411 1783.8 498.161 1782.64 499.351 1782.38C507.791 1780.58 516.441 1778.66 525.051 1776.7C526.231 1776.43 527.411 1777.17 527.681 1778.35C527.951 1779.53 527.211 1780.71 526.031 1780.98C517.401 1782.95 508.731 1784.87 500.271 1786.68C500.121 1786.71 499.961 1786.73 499.811 1786.73ZM551.191 1775C550.201 1775 549.301 1774.33 549.061 1773.32C548.771 1772.14 549.501 1770.95 550.681 1770.67C559.091 1768.63 567.691 1766.49 576.231 1764.31C577.411 1764.01 578.601 1764.72 578.901 1765.89C579.201 1767.07 578.491 1768.26 577.321 1768.56C568.761 1770.75 560.151 1772.89 551.721 1774.94C551.551 1774.98 551.371 1775 551.201 1775H551.191ZM602.251 1761.95C601.281 1761.95 600.391 1761.3 600.131 1760.32C599.821 1759.15 600.511 1757.94 601.681 1757.63C610.051 1755.38 618.601 1753.04 627.071 1750.66C628.241 1750.34 629.451 1751.01 629.781 1752.18C630.111 1753.35 629.431 1754.56 628.261 1754.89C619.771 1757.27 611.211 1759.62 602.821 1761.87C602.631 1761.92 602.441 1761.95 602.251 1761.95ZM69.5511 1757.2C68.8811 1757.2 68.2211 1756.9 67.7911 1756.32C64.0611 1751.36 60.8711 1746.04 58.2911 1740.5C57.1011 1737.93 56.0211 1735.28 55.0811 1732.6C54.6811 1731.46 55.2811 1730.2 56.4311 1729.8C57.5711 1729.4 58.8311 1730 59.2311 1731.15C60.1211 1733.69 61.1411 1736.21 62.2811 1738.65C64.7311 1743.91 67.7611 1748.97 71.3111 1753.68C72.0411 1754.65 71.8411 1756.03 70.8711 1756.75C70.4711 1757.05 70.0111 1757.19 69.5511 1757.19V1757.2ZM653.001 1747.72C652.051 1747.72 651.171 1747.1 650.891 1746.14C650.551 1744.98 651.221 1743.76 652.381 1743.42C660.741 1740.98 669.151 1738.47 677.611 1735.9C678.761 1735.55 680.001 1736.2 680.351 1737.36C680.701 1738.52 680.051 1739.75 678.891 1740.1C670.411 1742.67 661.991 1745.19 653.611 1747.63C653.401 1747.69 653.201 1747.72 652.991 1747.72H653.001ZM703.431 1732.41C702.501 1732.41 701.631 1731.81 701.341 1730.87C700.981 1729.71 701.621 1728.48 702.781 1728.12C711.101 1725.5 719.461 1722.83 727.861 1720.1C729.011 1719.73 730.251 1720.36 730.631 1721.51C731.001 1722.66 730.371 1723.9 729.221 1724.28C720.801 1727.02 712.431 1729.7 704.101 1732.32C703.881 1732.39 703.661 1732.42 703.441 1732.42L703.431 1732.41ZM753.551 1716.11C752.631 1716.11 751.781 1715.53 751.471 1714.61C751.081 1713.46 751.701 1712.22 752.851 1711.83C761.121 1709.05 769.431 1706.22 777.781 1703.34C778.921 1702.94 780.181 1703.55 780.571 1704.7C780.971 1705.85 780.361 1707.1 779.211 1707.49C770.851 1710.38 762.531 1713.22 754.251 1716C754.021 1716.08 753.781 1716.11 753.551 1716.11ZM52.2011 1708.3C51.0411 1708.3 50.0711 1707.39 50.0111 1706.21C49.9211 1704.43 49.8711 1702.62 49.8711 1700.81C49.8711 1693.99 50.5111 1686.83 51.7811 1679.51C51.9911 1678.32 53.1211 1677.51 54.3211 1677.72C55.5211 1677.93 56.3211 1679.06 56.1111 1680.26C54.8911 1687.33 54.2711 1694.24 54.2711 1700.81C54.2711 1702.55 54.3111 1704.28 54.4011 1705.99C54.4611 1707.2 53.5311 1708.23 52.3211 1708.29C52.2811 1708.29 52.2411 1708.29 52.2111 1708.29L52.2011 1708.3ZM60.5911 1656.63C60.3511 1656.63 60.1111 1656.59 59.8811 1656.51C58.7311 1656.12 58.1211 1654.87 58.5211 1653.72C61.2411 1645.79 64.6511 1637.52 68.6411 1629.14C69.1611 1628.04 70.4711 1627.58 71.5711 1628.1C72.6611 1628.62 73.1311 1629.93 72.6111 1631.03C68.6911 1639.26 65.3411 1647.37 62.6811 1655.14C62.3711 1656.05 61.5211 1656.62 60.6011 1656.62L60.5911 1656.63ZM83.0111 1609.04C82.6311 1609.04 82.2511 1608.94 81.9011 1608.74C80.8511 1608.13 80.5011 1606.78 81.1211 1605.73C85.3911 1598.45 90.1611 1590.92 95.3111 1583.36C95.9911 1582.36 97.3611 1582.1 98.3611 1582.78C99.3611 1583.46 99.6211 1584.83 98.9411 1585.83C93.8511 1593.32 89.1311 1600.76 84.9111 1607.96C84.5011 1608.66 83.7711 1609.05 83.0111 1609.05V1609.04ZM112.521 1565.41C112.061 1565.41 111.591 1565.26 111.191 1564.96C110.221 1564.23 110.041 1562.85 110.771 1561.88C115.921 1555.11 121.461 1548.15 127.241 1541.19C128.021 1540.26 129.401 1540.13 130.331 1540.91C131.261 1541.69 131.391 1543.07 130.621 1544C124.881 1550.9 119.381 1557.81 114.261 1564.54C113.831 1565.11 113.171 1565.41 112.511 1565.41H112.521ZM146.161 1524.86C145.641 1524.86 145.121 1524.68 144.701 1524.3C143.801 1523.49 143.721 1522.1 144.531 1521.2C150.241 1514.82 156.281 1508.3 162.471 1501.81C163.311 1500.93 164.701 1500.9 165.581 1501.74C166.461 1502.58 166.491 1503.97 165.651 1504.84C159.491 1511.3 153.481 1517.79 147.801 1524.13C147.371 1524.61 146.771 1524.86 146.161 1524.86ZM182.511 1486.71C181.941 1486.71 181.381 1486.49 180.951 1486.06C180.101 1485.2 180.101 1483.81 180.961 1482.95C187.061 1476.89 193.451 1470.72 199.941 1464.59C200.821 1463.76 202.211 1463.79 203.041 1464.68C203.871 1465.56 203.831 1466.95 202.951 1467.78C196.491 1473.88 190.131 1480.04 184.051 1486.07C183.621 1486.49 183.061 1486.71 182.501 1486.71H182.511ZM220.811 1450.5C220.211 1450.5 219.611 1450.26 219.181 1449.78C218.371 1448.88 218.441 1447.49 219.341 1446.68C225.751 1440.89 232.391 1435 239.101 1429.17C240.021 1428.37 241.401 1428.47 242.201 1429.39C243.001 1430.31 242.901 1431.69 241.981 1432.49C235.301 1438.29 228.671 1444.16 222.291 1449.94C221.871 1450.32 221.341 1450.51 220.821 1450.51L220.811 1450.5ZM260.591 1415.92C259.961 1415.92 259.341 1415.65 258.911 1415.13C258.131 1414.2 258.251 1412.81 259.181 1412.04C263.251 1408.63 267.381 1405.21 271.551 1401.78C272.491 1401.01 273.871 1401.15 274.641 1402.09C275.411 1403.03 275.271 1404.41 274.331 1405.18C270.161 1408.6 266.051 1412 261.991 1415.41C261.581 1415.75 261.081 1415.92 260.581 1415.92H260.591Z" fill="white"/>
<path d="M460.682 151.631C442.452 119.711 402.382 109.081 371.902 128.461C342.182 147.361 333.182 186.971 351.532 218.021C360.372 232.991 373.952 243.211 389.172 247.591C400.852 250.951 410.872 258.791 417.032 269.571L420.692 275.971C423.712 281.261 430.302 283.081 435.412 280.031L472.682 257.771C477.792 254.721 479.472 247.961 476.452 242.671L472.812 236.301C466.742 225.671 464.702 213.021 467.652 201.171C471.682 184.991 469.602 167.261 460.682 151.641V151.631Z" fill="#E95018"/>
<path d="M476.24 307.62C463.52 315.22 447.11 310.69 439.58 297.5L430.73 282L476.79 254.5L485.64 270C493.17 283.18 488.96 300.03 476.25 307.62H476.24Z" fill="white"/>
<path d="M462.97 313.5C460.56 313.5 458.13 313.19 455.73 312.56C448.09 310.55 441.67 305.59 437.67 298.59L428.82 283.09C428.23 282.05 428.57 280.73 429.6 280.12L475.66 252.62C476.17 252.32 476.77 252.23 477.34 252.38C477.91 252.53 478.4 252.9 478.69 253.41L487.54 268.91C495.65 283.1 491.08 301.31 477.37 309.51C472.94 312.16 467.99 313.51 462.97 313.51V313.5ZM433.71 282.78L441.49 296.41C444.9 302.38 450.35 306.61 456.85 308.31C463.1 309.95 469.59 309.03 475.12 305.73C486.8 298.76 490.66 283.21 483.73 271.08L475.99 257.53L433.71 282.78Z" fill="#E95018"/>
<path d="M350.881 88.1908C350.121 88.1908 349.381 87.7908 348.971 87.0908L316.681 30.7608C316.081 29.7108 316.441 28.3708 317.491 27.7608C318.541 27.1608 319.881 27.5208 320.491 28.5708L352.781 84.9008C353.381 85.9508 353.021 87.2908 351.971 87.9008C351.631 88.1008 351.251 88.1908 350.881 88.1908Z" fill="#E95018"/>
<path d="M244.27 297.17C243.51 297.17 242.77 296.77 242.36 296.06C241.76 295.01 242.12 293.67 243.17 293.06L316.57 251.03C317.63 250.43 318.96 250.79 319.57 251.84C320.17 252.89 319.81 254.23 318.76 254.84L245.36 296.87C245.02 297.07 244.64 297.16 244.27 297.16V297.17Z" fill="#E95018"/>
<path d="M506.772 148.861C506.002 148.861 505.252 148.451 504.852 147.731C504.262 146.671 504.642 145.331 505.702 144.741L581.612 102.401C582.672 101.811 584.012 102.191 584.602 103.251C585.192 104.311 584.812 105.651 583.752 106.241L507.842 148.581C507.502 148.771 507.132 148.861 506.772 148.861Z" fill="#E95018"/>
<path d="M296.391 168.701C296.191 168.701 295.991 168.671 295.791 168.621L224.381 148.481C223.211 148.151 222.531 146.941 222.861 145.771C223.191 144.601 224.401 143.921 225.571 144.251L296.981 164.391C298.151 164.721 298.831 165.931 298.501 167.101C298.231 168.071 297.351 168.701 296.391 168.701Z" fill="#E95018"/>
<path d="M445.691 87.9506C445.501 87.9506 445.301 87.9206 445.101 87.8706C443.931 87.5506 443.251 86.3406 443.571 85.1706L464.401 9.71059C464.721 8.54059 465.931 7.86059 467.101 8.18059C468.271 8.50059 468.951 9.71059 468.631 10.8806L447.801 86.3406C447.531 87.3106 446.651 87.9506 445.681 87.9506H445.691Z" fill="#E95018"/>
<path d="M1734.72 341.52C1734.19 341.52 1733.66 341.33 1733.24 340.95C1732.34 340.13 1732.28 338.74 1733.1 337.85C1735.87 334.81 1738.6 331.79 1741.28 328.78C1742.08 327.87 1743.47 327.79 1744.38 328.6C1745.29 329.41 1745.37 330.79 1744.56 331.7C1741.87 334.73 1739.13 337.77 1736.34 340.82C1735.91 341.29 1735.31 341.54 1734.72 341.54V341.52ZM1760.13 312.48C1759.63 312.48 1759.13 312.31 1758.72 311.97C1757.79 311.19 1757.67 309.81 1758.44 308.88C1764.18 302.02 1769.74 295.14 1774.95 288.44C1775.7 287.48 1777.07 287.31 1778.03 288.05C1778.99 288.79 1779.16 290.17 1778.41 291.13C1773.17 297.87 1767.58 304.79 1761.81 311.69C1761.37 312.21 1760.75 312.48 1760.12 312.48H1760.13ZM1792.43 270.85C1791.99 270.85 1791.54 270.72 1791.16 270.44C1790.17 269.74 1789.94 268.37 1790.65 267.38C1795.87 260.05 1800.82 252.74 1805.35 245.65C1806.01 244.63 1807.36 244.33 1808.38 244.98C1809.4 245.63 1809.7 246.99 1809.05 248.01C1804.48 255.16 1799.49 262.54 1794.23 269.93C1793.8 270.53 1793.13 270.85 1792.44 270.85H1792.43ZM1820.71 226.41C1820.35 226.41 1819.99 226.32 1819.65 226.13C1818.59 225.54 1818.2 224.21 1818.79 223.14C1823.19 215.2 1827.16 207.34 1830.58 199.78C1831.08 198.68 1832.38 198.18 1833.49 198.69C1834.59 199.19 1835.08 200.49 1834.58 201.6C1831.11 209.26 1827.08 217.23 1822.63 225.27C1822.23 225.99 1821.48 226.4 1820.71 226.4V226.41ZM1842.23 178.39C1842 178.39 1841.77 178.35 1841.54 178.28C1840.39 177.9 1839.76 176.66 1840.14 175.51C1843.01 166.83 1845.17 158.36 1846.57 150.32C1846.78 149.13 1847.9 148.33 1849.11 148.53C1850.3 148.74 1851.1 149.88 1850.9 151.07C1849.46 159.32 1847.25 168.01 1844.31 176.89C1844.01 177.81 1843.15 178.4 1842.23 178.4V178.39ZM1850.72 126.67C1849.54 126.67 1848.57 125.73 1848.53 124.55C1848.23 115.63 1846.83 107.11 1844.34 99.2304C1843.98 98.0704 1844.62 96.8404 1845.77 96.4704C1846.92 96.1004 1848.16 96.7504 1848.53 97.9004C1851.14 106.16 1852.62 115.08 1852.92 124.4C1852.96 125.61 1852.01 126.63 1850.8 126.67C1850.77 126.67 1850.75 126.67 1850.73 126.67H1850.72ZM1304.57 87.0304C1303.63 87.0304 1302.76 86.4304 1302.47 85.4804C1302.11 84.3204 1302.76 83.0904 1303.92 82.7304C1312.33 80.1304 1320.82 77.5604 1329.16 75.0904C1330.33 74.7404 1331.54 75.4104 1331.89 76.5704C1332.23 77.7304 1331.57 78.9504 1330.41 79.3004C1322.08 81.7704 1313.6 84.3304 1305.21 86.9304C1304.99 87.0004 1304.77 87.0304 1304.56 87.0304H1304.57ZM1834.81 77.2404C1834.12 77.2404 1833.44 76.9204 1833.01 76.3104C1828.24 69.5304 1822.31 63.2704 1815.38 57.6904C1814.43 56.9304 1814.29 55.5504 1815.05 54.6004C1815.81 53.6604 1817.19 53.5004 1818.14 54.2704C1825.38 60.1004 1831.59 66.6704 1836.6 73.7804C1837.3 74.7704 1837.06 76.1404 1836.07 76.8404C1835.69 77.1104 1835.25 77.2404 1834.81 77.2404ZM1355.11 72.0704C1354.15 72.0704 1353.27 71.4404 1353 70.4704C1352.67 69.3004 1353.35 68.0904 1354.52 67.7604C1363.03 65.3604 1371.58 63.0004 1379.96 60.7604C1381.13 60.4504 1382.34 61.1404 1382.65 62.3104C1382.96 63.4804 1382.27 64.6904 1381.1 65.0004C1372.75 67.2404 1364.21 69.5904 1355.72 71.9804C1355.52 72.0404 1355.32 72.0604 1355.12 72.0604L1355.11 72.0704ZM1406.02 58.4404C1405.04 58.4404 1404.14 57.7804 1403.89 56.7804C1403.59 55.6004 1404.31 54.4104 1405.48 54.1104C1414.07 51.9404 1422.7 49.8304 1431.11 47.8404C1432.3 47.5604 1433.47 48.2904 1433.75 49.4704C1434.03 50.6504 1433.3 51.8304 1432.12 52.1104C1423.73 54.0904 1415.12 56.2004 1406.56 58.3604C1406.38 58.4104 1406.2 58.4304 1406.02 58.4304V58.4404ZM1457.31 46.3204C1456.3 46.3204 1455.39 45.6204 1455.17 44.5904C1454.91 43.4104 1455.66 42.2304 1456.84 41.9804C1465.52 40.0804 1474.21 38.2504 1482.67 36.5604C1483.85 36.3204 1485.02 37.0904 1485.25 38.2804C1485.49 39.4704 1484.72 40.6304 1483.53 40.8604C1475.1 42.5504 1466.43 44.3704 1457.78 46.2604C1457.62 46.2904 1457.46 46.3104 1457.31 46.3104V46.3204ZM1794.57 44.0704C1794.24 44.0704 1793.9 43.9904 1793.59 43.8404C1786.3 40.1804 1778.19 36.8904 1769.51 34.0804C1768.36 33.7104 1767.73 32.4704 1768.1 31.3104C1768.47 30.1604 1769.71 29.5204 1770.87 29.9004C1779.77 32.7804 1788.08 36.1504 1795.57 39.9104C1796.65 40.4504 1797.09 41.7704 1796.55 42.8604C1796.16 43.6304 1795.39 44.0704 1794.59 44.0704H1794.57ZM1508.99 35.9704C1507.95 35.9704 1507.02 35.2304 1506.83 34.1604C1506.62 32.9704 1507.41 31.8204 1508.6 31.6104C1517.37 30.0304 1526.13 28.5504 1534.63 27.2104C1535.83 27.0204 1536.95 27.8404 1537.14 29.0404C1537.33 30.2404 1536.51 31.3604 1535.31 31.5504C1526.84 32.8904 1518.11 34.3604 1509.37 35.9404C1509.24 35.9604 1509.11 35.9804 1508.98 35.9804L1508.99 35.9704ZM1561.05 27.7704C1559.96 27.7704 1559.02 26.9704 1558.88 25.8604C1558.72 24.6604 1559.56 23.5504 1560.77 23.3904C1569.63 22.2104 1578.46 21.1504 1586.99 20.2504C1588.21 20.1204 1589.28 21.0004 1589.4 22.2004C1589.53 23.4104 1588.65 24.4904 1587.45 24.6104C1578.95 25.5104 1570.17 26.5604 1561.34 27.7404C1561.24 27.7504 1561.14 27.7604 1561.05 27.7604V27.7704ZM1744.71 27.5304C1744.56 27.5304 1744.41 27.5204 1744.27 27.4804C1736.14 25.8104 1727.45 24.4104 1718.44 23.3204C1717.24 23.1704 1716.38 22.0804 1716.52 20.8804C1716.67 19.6804 1717.75 18.8204 1718.96 18.9604C1728.09 20.0604 1736.9 21.4804 1745.15 23.1804C1746.34 23.4204 1747.1 24.5904 1746.86 25.7704C1746.65 26.8104 1745.73 27.5204 1744.71 27.5204V27.5304ZM1613.46 22.2604C1612.32 22.2604 1611.36 21.3804 1611.27 20.2304C1611.18 19.0204 1612.09 17.9704 1613.3 17.8804C1622.28 17.2104 1631.16 16.7004 1639.69 16.3804C1640.85 16.3404 1641.92 17.2804 1641.97 18.4904C1642.02 19.7004 1641.07 20.7204 1639.86 20.7704C1631.38 21.1004 1622.56 21.6004 1613.63 22.2604C1613.57 22.2604 1613.52 22.2604 1613.46 22.2604ZM1692.46 21.0604C1692.46 21.0604 1692.38 21.0604 1692.34 21.0604C1683.94 20.5904 1675.12 20.3304 1666.11 20.3004C1664.9 20.3004 1663.92 19.3104 1663.92 18.0904C1663.92 16.8804 1664.91 15.9004 1666.12 15.9004C1675.2 15.9404 1684.1 16.2004 1692.57 16.6704C1693.78 16.7404 1694.71 17.7704 1694.64 18.9904C1694.58 20.1604 1693.61 21.0604 1692.45 21.0604H1692.46Z" fill="white"/>
<path d="M222.269 1075.21C222.269 1075.21 222.239 1075.21 222.229 1075.21C213.139 1075.04 204.239 1074.64 195.789 1074.02C194.579 1073.93 193.669 1072.88 193.759 1071.67C193.849 1070.46 194.889 1069.55 196.109 1069.64C204.479 1070.26 213.299 1070.65 222.309 1070.82C223.519 1070.84 224.489 1071.84 224.469 1073.06C224.449 1074.26 223.469 1075.22 222.279 1075.22L222.269 1075.21ZM248.619 1075.09C247.429 1075.09 246.459 1074.14 246.429 1072.95C246.399 1071.74 247.349 1070.73 248.569 1070.7C257.049 1070.47 265.879 1070.07 274.809 1069.49C276.039 1069.43 277.059 1070.33 277.139 1071.54C277.219 1072.75 276.299 1073.79 275.089 1073.87C266.099 1074.45 257.219 1074.86 248.679 1075.09C248.659 1075.09 248.639 1075.09 248.619 1075.09ZM301.209 1071.75C300.089 1071.75 299.139 1070.9 299.029 1069.77C298.909 1068.56 299.799 1067.49 300.999 1067.37C309.489 1066.55 318.279 1065.57 327.129 1064.45C328.329 1064.3 329.429 1065.15 329.579 1066.36C329.729 1067.56 328.879 1068.66 327.669 1068.81C318.779 1069.93 309.949 1070.91 301.419 1071.74C301.349 1071.74 301.279 1071.75 301.209 1071.75ZM169.759 1071.23C169.659 1071.23 169.549 1071.23 169.439 1071.21C160.309 1069.9 151.539 1068.26 143.359 1066.32C142.179 1066.04 141.449 1064.86 141.729 1063.68C142.009 1062.5 143.189 1061.77 144.369 1062.05C152.419 1063.95 161.069 1065.58 170.069 1066.87C171.269 1067.04 172.099 1068.16 171.929 1069.36C171.769 1070.45 170.829 1071.24 169.759 1071.24V1071.23ZM353.499 1065.21C352.429 1065.21 351.499 1064.43 351.329 1063.34C351.149 1062.14 351.969 1061.02 353.169 1060.84C361.649 1059.56 370.379 1058.14 379.129 1056.62C380.329 1056.41 381.459 1057.21 381.669 1058.41C381.879 1059.6 381.079 1060.74 379.879 1060.95C371.099 1062.48 362.329 1063.9 353.819 1065.18C353.709 1065.2 353.599 1065.21 353.489 1065.21H353.499ZM118.629 1058.85C118.379 1058.85 118.119 1058.81 117.869 1058.71C109.069 1055.47 100.919 1051.7 93.6488 1047.52C92.5988 1046.92 92.2388 1045.57 92.8387 1044.52C93.4487 1043.47 94.7887 1043.11 95.8387 1043.71C102.899 1047.77 110.829 1051.43 119.389 1054.59C120.529 1055.01 121.109 1056.27 120.689 1057.41C120.359 1058.3 119.519 1058.85 118.629 1058.85ZM405.429 1056.2C404.399 1056.2 403.479 1055.47 403.279 1054.42C403.049 1053.23 403.829 1052.08 405.019 1051.85C413.439 1050.21 422.109 1048.44 430.799 1046.58C431.979 1046.33 433.149 1047.08 433.409 1048.27C433.659 1049.46 432.909 1050.62 431.719 1050.88C423.009 1052.74 414.309 1054.52 405.859 1056.16C405.719 1056.19 405.579 1056.2 405.439 1056.2H405.429ZM456.969 1045.2C455.969 1045.2 455.069 1044.51 454.829 1043.5C454.559 1042.32 455.289 1041.14 456.469 1040.86C464.869 1038.92 473.479 1036.85 482.059 1034.72C483.239 1034.43 484.429 1035.15 484.719 1036.32C485.009 1037.5 484.289 1038.69 483.119 1038.98C474.519 1041.11 465.879 1043.18 457.459 1045.13C457.289 1045.17 457.129 1045.19 456.959 1045.19L456.969 1045.2ZM508.129 1032.53C507.159 1032.53 506.269 1031.88 506.009 1030.89C505.699 1029.72 506.399 1028.52 507.569 1028.21C515.959 1026 524.499 1023.68 532.979 1021.33C534.149 1021.01 535.359 1021.69 535.679 1022.86C535.999 1024.03 535.319 1025.24 534.149 1025.56C525.659 1027.92 517.089 1030.24 508.689 1032.46C508.499 1032.51 508.309 1032.53 508.129 1032.53ZM73.5387 1032.3C72.9987 1032.3 72.4587 1032.1 72.0387 1031.7C65.3188 1025.38 59.6887 1018.31 55.2987 1010.68C54.6987 1009.63 55.0588 1008.29 56.1088 1007.68C57.1588 1007.08 58.4988 1007.44 59.1088 1008.49C63.2887 1015.75 68.6488 1022.48 75.0588 1028.5C75.9388 1029.33 75.9888 1030.72 75.1587 1031.6C74.7287 1032.06 74.1388 1032.29 73.5588 1032.29L73.5387 1032.3ZM558.899 1018.42C557.949 1018.42 557.069 1017.8 556.789 1016.84C556.449 1015.68 557.119 1014.46 558.279 1014.12C566.599 1011.69 575.089 1009.15 583.499 1006.58C584.659 1006.23 585.889 1006.88 586.239 1008.04C586.589 1009.2 585.939 1010.43 584.779 1010.78C576.349 1013.36 567.839 1015.9 559.499 1018.33C559.299 1018.39 559.089 1018.42 558.879 1018.42H558.899ZM609.309 1003.03C608.379 1003.03 607.509 1002.43 607.219 1001.5C606.849 1000.34 607.489 999.111 608.649 998.741C616.939 996.101 625.289 993.391 633.699 990.621C634.849 990.241 636.089 990.861 636.469 992.021C636.849 993.171 636.219 994.411 635.069 994.791C626.649 997.571 618.289 1000.28 609.979 1002.93C609.759 1003 609.529 1003.03 609.309 1003.03ZM47.7387 987.301C46.7287 987.301 45.8288 986.601 45.5988 985.581C44.0188 978.471 43.2188 970.891 43.2188 963.061C43.2188 961.661 43.2387 960.261 43.2987 958.841C43.3487 957.631 44.3387 956.671 45.5687 956.721C46.7787 956.761 47.7287 957.781 47.6887 958.991C47.6387 960.351 47.6187 961.711 47.6187 963.051C47.6187 970.561 48.3887 977.811 49.8987 984.621C50.1587 985.801 49.4187 986.981 48.2287 987.241C48.0687 987.281 47.9087 987.291 47.7487 987.291L47.7387 987.301ZM659.359 986.501C658.449 986.501 657.589 985.931 657.279 985.011C656.889 983.861 657.499 982.611 658.649 982.221C666.889 979.401 675.179 976.521 683.519 973.571C684.659 973.171 685.919 973.761 686.319 974.911C686.719 976.051 686.119 977.311 684.979 977.711C676.629 980.661 668.329 983.551 660.069 986.381C659.829 986.461 659.589 986.501 659.359 986.501ZM48.9887 935.061C48.8287 935.061 48.6687 935.041 48.5087 935.011C47.3288 934.741 46.5788 933.571 46.8488 932.391C48.6888 924.211 51.2587 915.641 54.4887 906.901C54.9087 905.761 56.1787 905.181 57.3087 905.601C58.4487 906.021 59.0288 907.281 58.6088 908.421C55.4488 916.981 52.9287 925.371 51.1387 933.351C50.9087 934.371 49.9987 935.071 48.9987 935.071L48.9887 935.061ZM66.9187 885.651C66.5987 885.651 66.2687 885.581 65.9587 885.431C64.8687 884.901 64.4088 883.591 64.9388 882.501C68.6188 874.911 72.8187 867.041 77.4287 859.121C78.0387 858.071 79.3787 857.711 80.4287 858.321C81.4787 858.931 81.8387 860.271 81.2287 861.321C76.6787 869.151 72.5288 876.921 68.8988 884.411C68.5188 885.191 67.7387 885.651 66.9187 885.651ZM93.2388 840.041C92.8188 840.041 92.3987 839.921 92.0287 839.681C91.0187 839.011 90.7388 837.651 91.4087 836.641C96.0987 829.551 101.189 822.261 106.549 814.951C107.269 813.971 108.639 813.761 109.619 814.481C110.599 815.201 110.809 816.571 110.089 817.551C104.779 824.801 99.7188 832.041 95.0687 839.071C94.6488 839.711 93.9487 840.051 93.2388 840.051V840.041ZM124.329 797.501C123.849 797.501 123.369 797.341 122.959 797.021C122.009 796.271 121.849 794.881 122.609 793.931C127.929 787.241 133.589 780.381 139.419 773.541C140.209 772.621 141.589 772.511 142.519 773.291C143.439 774.081 143.549 775.461 142.769 776.391C136.969 783.201 131.339 790.021 126.049 796.671C125.619 797.221 124.979 797.501 124.329 797.501ZM158.489 757.371C157.969 757.371 157.439 757.181 157.019 756.801C156.119 755.991 156.049 754.601 156.859 753.701C162.619 747.331 168.669 740.811 174.829 734.351C175.669 733.471 177.059 733.441 177.929 734.271C178.809 735.111 178.839 736.501 178.009 737.371C171.879 743.811 165.849 750.291 160.119 756.641C159.689 757.121 159.089 757.361 158.489 757.361V757.371ZM194.819 719.191C194.259 719.191 193.699 718.981 193.269 718.551C192.409 717.691 192.409 716.301 193.269 715.441C199.349 709.341 205.689 703.121 212.109 696.941C212.979 696.101 214.379 696.131 215.219 697.001C216.059 697.871 216.029 699.261 215.159 700.111C208.759 706.261 202.449 712.471 196.389 718.541C195.959 718.971 195.399 719.191 194.839 719.191H194.819ZM232.789 682.641C232.199 682.641 231.609 682.401 231.179 681.941C230.359 681.051 230.409 679.661 231.299 678.841C237.639 672.971 244.199 666.991 250.819 661.071C251.729 660.261 253.109 660.341 253.919 661.241C254.729 662.141 254.649 663.531 253.749 664.341C247.149 670.241 240.609 676.201 234.289 682.061C233.869 682.451 233.329 682.651 232.799 682.651L232.789 682.641ZM272.059 647.481C271.439 647.481 270.829 647.221 270.399 646.721C269.609 645.801 269.709 644.421 270.619 643.621C277.159 637.961 283.909 632.191 290.689 626.491C291.619 625.711 292.999 625.831 293.779 626.761C294.559 627.691 294.439 629.071 293.509 629.851C286.749 635.541 280.009 641.291 273.489 646.941C273.069 647.301 272.559 647.481 272.049 647.481H272.059Z" fill="white"/>
<path d="M1316.08 1452.24C1314.89 1452.24 1313.91 1451.29 1313.88 1450.09L1313.63 1438.41C1313.6 1437.2 1314.57 1436.19 1315.78 1436.17C1316.99 1436.15 1318 1437.11 1318.02 1438.32L1318.27 1450C1318.3 1451.21 1317.33 1452.22 1316.12 1452.24C1316.1 1452.24 1316.09 1452.24 1316.07 1452.24H1316.08Z" fill="black"/>
<path d="M1316.96 1493.11C1315.77 1493.11 1314.79 1492.16 1314.76 1490.96L1314.51 1479.28C1314.48 1478.07 1315.45 1477.06 1316.66 1477.04C1317.85 1477.03 1318.88 1477.98 1318.9 1479.19L1319.15 1490.87C1319.18 1492.08 1318.21 1493.09 1317 1493.11C1316.99 1493.11 1316.97 1493.11 1316.95 1493.11H1316.96Z" fill="black"/>
<path d="M1290.5 1467.04C1289.29 1467.04 1288.31 1466.07 1288.3 1464.86C1288.3 1463.65 1289.27 1462.66 1290.48 1462.65L1301.99 1462.56C1303.23 1462.62 1304.2 1463.53 1304.2 1464.74C1304.2 1465.95 1303.24 1466.94 1302.02 1466.95L1290.51 1467.04H1290.49H1290.5Z" fill="black"/>
<path d="M1330.78 1466.72C1329.57 1466.72 1328.59 1465.75 1328.58 1464.54C1328.58 1463.33 1329.55 1462.34 1330.76 1462.33L1342.27 1462.24H1342.29C1343.5 1462.24 1344.48 1463.21 1344.49 1464.42C1344.49 1465.63 1343.52 1466.62 1342.31 1466.63L1330.8 1466.72H1330.78Z" fill="black"/>
<path d="M821.569 209.24C819.149 209.24 816.729 208.79 814.399 207.889C809.339 205.919 805.359 202.06 803.179 197.02C798.739 186.72 803.349 174.649 813.459 170.11C818.329 167.919 823.749 167.78 828.719 169.72C833.779 171.69 837.759 175.549 839.939 180.589C844.379 190.889 839.769 202.959 829.659 207.5C827.069 208.66 824.319 209.25 821.569 209.25V209.24ZM815.259 174.1C807.329 177.66 803.719 187.16 807.219 195.27C808.929 199.23 812.049 202.249 815.999 203.789C819.869 205.289 824.079 205.179 827.869 203.479C835.799 199.919 839.409 190.419 835.909 182.309C834.199 178.349 831.089 175.329 827.129 173.789C823.259 172.289 819.049 172.4 815.259 174.1Z" fill="white"/>
<path d="M340.738 1654.99V1630.83H351.24V1654.99H340.738Z" fill="black" stroke="white"/>
<path d="M407.723 1654.99V1630.83H418.225V1654.99H407.723Z" fill="black" stroke="white"/>
<path d="M474.703 1654.99V1630.83H485.205V1654.99H474.703Z" fill="black" stroke="white"/>
<path d="M290.691 1710.13V1655.99H520.914V1710.13H290.691Z" fill="black" stroke="white"/>
<path d="M317.016 1779.14V1711.13H526.225V1779.14H317.016Z" fill="white" stroke="white"/>
<path d="M330.91 1717.56H359.746C361.297 1717.56 362.554 1718.82 362.554 1720.37V1769.9C362.554 1771.45 361.297 1772.71 359.746 1772.71H330.91C329.359 1772.71 328.102 1771.45 328.102 1769.9V1720.37C328.102 1718.82 329.359 1717.56 330.91 1717.56Z" fill="black" stroke="white"/>
<path d="M337.34 1720.99L337.34 1720.99L335.513 1717.56H355.145L353.318 1720.99C352.83 1721.91 351.874 1722.48 350.838 1722.48H350.833H339.82C338.783 1722.48 337.828 1721.91 337.34 1720.99Z" fill="black" stroke="white"/>
<path d="M382.636 1717.56H411.472C413.023 1717.56 414.28 1718.82 414.28 1720.37V1769.9C414.28 1771.45 413.023 1772.71 411.472 1772.71H382.636C381.085 1772.71 379.828 1771.45 379.828 1769.9V1720.37C379.828 1718.82 381.085 1717.56 382.636 1717.56Z" fill="black" stroke="white"/>
<path d="M389.067 1720.99L389.066 1720.99L387.239 1717.56H406.872L405.045 1720.99C404.556 1721.91 403.601 1722.48 402.565 1722.48H402.56H391.546C390.509 1722.48 389.555 1721.91 389.067 1720.99Z" fill="black" stroke="white"/>
<path d="M433.929 1717.56H462.765C464.316 1717.56 465.573 1718.82 465.573 1720.37V1769.9C465.573 1771.45 464.316 1772.71 462.765 1772.71H433.929C432.378 1772.71 431.121 1771.45 431.121 1769.9V1720.37C431.121 1718.82 432.378 1717.56 433.929 1717.56Z" fill="black" stroke="white"/>
<path d="M440.36 1720.99L440.359 1720.99L438.532 1717.56H458.165L456.338 1720.99C455.849 1721.91 454.894 1722.48 453.858 1722.48H453.853H442.839C441.802 1722.48 440.848 1721.91 440.36 1720.99Z" fill="black" stroke="white"/>
<path d="M485.648 1717.56H514.484C516.035 1717.56 517.292 1718.82 517.292 1720.37V1769.9C517.292 1771.45 516.035 1772.71 514.484 1772.71H485.648C484.097 1772.71 482.84 1771.45 482.84 1769.9V1720.37C482.84 1718.82 484.097 1717.56 485.648 1717.56Z" fill="black" stroke="white"/>
<path d="M492.079 1720.99L492.078 1720.99L490.251 1717.56H509.884L508.057 1720.99C507.568 1721.91 506.613 1722.48 505.577 1722.48H505.571H494.558C493.521 1722.48 492.567 1721.91 492.079 1720.99Z" fill="black" stroke="white"/>
<path d="M323.474 1579.17V1579.17H516.209V1629.83H322.974C309.855 1629.83 299.203 1619.17 299.203 1606.05V1602.94C299.203 1589.82 309.855 1579.17 322.974 1579.17H323.474Z" fill="black" stroke="white"/>
<path d="M513.807 1627.93H514.307V1627.43V1581.56V1581.06H513.807H324.525C311.602 1581.06 301.092 1591.57 301.092 1604.5C301.092 1617.42 311.602 1627.93 324.525 1627.93H513.807ZM519.099 1632.72H324.525C308.963 1632.72 296.301 1620.06 296.301 1604.5C296.301 1588.93 308.963 1576.27 324.525 1576.27H519.099V1632.72Z" fill="white" stroke="white"/>
<path d="M343.252 1604.5C343.252 1613.91 335.62 1621.55 326.204 1621.55C316.789 1621.55 309.156 1613.91 309.156 1604.5C309.156 1595.08 316.789 1587.45 326.204 1587.45C335.62 1587.45 343.252 1595.08 343.252 1604.5Z" fill="black" stroke="white"/>
<path d="M334.469 1604.5C334.469 1609.06 330.769 1612.76 326.205 1612.76C321.641 1612.76 317.941 1609.06 317.941 1604.5C317.941 1599.93 321.641 1596.23 326.205 1596.23C330.769 1596.23 334.469 1599.93 334.469 1604.5Z" fill="white" stroke="white"/>
<path d="M398.178 1604.5C398.178 1613.91 390.545 1621.55 381.13 1621.55C371.715 1621.55 364.082 1613.91 364.082 1604.5C364.082 1595.08 371.715 1587.45 381.13 1587.45C390.545 1587.45 398.178 1595.08 398.178 1604.5Z" fill="black" stroke="white"/>
<path d="M389.395 1604.5C389.395 1609.06 385.695 1612.76 381.131 1612.76C376.567 1612.76 372.867 1609.06 372.867 1604.5C372.867 1599.93 376.567 1596.23 381.131 1596.23C385.695 1596.23 389.395 1599.93 389.395 1604.5Z" fill="white" stroke="white"/>
<path d="M453.108 1604.5C453.108 1613.91 445.475 1621.55 436.06 1621.55C426.644 1621.55 419.012 1613.91 419.012 1604.5C419.012 1595.08 426.644 1587.45 436.06 1587.45C445.475 1587.45 453.108 1595.08 453.108 1604.5Z" fill="black" stroke="white"/>
<path d="M444.324 1604.5C444.324 1609.06 440.625 1612.76 436.061 1612.76C431.497 1612.76 427.797 1609.06 427.797 1604.5C427.797 1599.93 431.497 1596.23 436.061 1596.23C440.625 1596.23 444.324 1599.93 444.324 1604.5Z" fill="white" stroke="white"/>
<path d="M508.03 1604.5C508.03 1613.91 500.397 1621.55 490.982 1621.55C481.566 1621.55 473.934 1613.91 473.934 1604.5C473.934 1595.08 481.566 1587.45 490.982 1587.45C500.397 1587.45 508.03 1595.08 508.03 1604.5Z" fill="black" stroke="white"/>
<path d="M499.246 1604.5C499.246 1609.06 495.546 1612.76 490.983 1612.76C486.419 1612.76 482.719 1609.06 482.719 1604.5C482.719 1599.93 486.419 1596.23 490.983 1596.23C495.546 1596.23 499.246 1599.93 499.246 1604.5Z" fill="white" stroke="white"/>
<path d="M565.691 1780.5V1460.55H684.173V1780.5H565.691Z" fill="white" stroke="white"/>
<path d="M579.574 1704.05V1471.35H670.294V1704.05H579.574Z" fill="black" stroke="white"/>
<path d="M564.691 1460.55V1780.5H510.544L510.544 1460.55H564.691Z" fill="black" stroke="white"/>
<path d="M584.461 1593.69V1482.09H665.399V1593.69H584.461Z" fill="black" stroke="white"/>
<path d="M587.613 1491.64V1489.84H604.66V1491.64H587.613Z" fill="black" stroke="white"/>
<path d="M612.969 1518.37V1516.57H662.251V1518.37H612.969Z" fill="white" stroke="white"/>
<path d="M612.969 1527.27V1525.47H662.251V1527.27H612.969Z" fill="white" stroke="white"/>
<path d="M612.969 1536.18V1534.38H662.251V1536.18H612.969Z" fill="white" stroke="white"/>
<path d="M612.969 1545.08V1543.29H662.251V1545.08H612.969Z" fill="white" stroke="white"/>
<path d="M612.969 1553.99V1552.19H662.251V1553.99H612.969Z" fill="white" stroke="white"/>
<path d="M612.969 1562.9V1561.1H662.251V1562.9H612.969Z" fill="white" stroke="white"/>
<path d="M612.969 1571.81V1570.01H662.251V1571.81H612.969Z" fill="white" stroke="white"/>
<path d="M612.969 1580.72V1578.92H662.251V1580.72H612.969Z" fill="white" stroke="white"/>
<path d="M587.613 1514.29V1512.49H604.66V1514.29H587.613Z" fill="white" stroke="white"/>
<path d="M587.613 1500.55V1498.75H593.346V1500.55H587.613Z" fill="white" stroke="white"/>
<path d="M596.637 1500.55V1498.75H604.66V1500.55H596.637Z" fill="white" stroke="white"/>
<path d="M587.613 1507.42V1505.62H593.346V1507.42H587.613Z" fill="white" stroke="white"/>
<path d="M596.637 1507.42V1505.62H604.66V1507.42H596.637Z" fill="white" stroke="white"/>
<path d="M587.613 1521.16V1519.37H593.346V1521.16H587.613Z" fill="white" stroke="white"/>
<path d="M596.637 1521.16V1519.37H604.66V1521.16H596.637Z" fill="white" stroke="white"/>
<path d="M587.613 1528.04V1526.24H593.346V1528.04H587.613Z" fill="white" stroke="white"/>
<path d="M596.637 1528.04V1526.24H604.66V1528.04H596.637Z" fill="white" stroke="white"/>
<path d="M587.613 1534.91V1533.11H593.346V1534.91H587.613Z" fill="white" stroke="white"/>
<path d="M596.637 1534.91V1533.11H604.66V1534.91H596.637Z" fill="white" stroke="white"/>
<path d="M587.613 1541.78V1539.98H593.346V1541.78H587.613Z" fill="white" stroke="white"/>
<path d="M596.637 1541.78V1539.98H604.66V1541.78H596.637Z" fill="white" stroke="white"/>
<path d="M587.613 1548.65V1546.85H593.346V1548.65H587.613Z" fill="white" stroke="white"/>
<path d="M596.637 1548.65V1546.85H604.66V1548.65H596.637Z" fill="white" stroke="white"/>
<path d="M587.613 1555.52V1553.72H593.346V1555.52H587.613Z" fill="white" stroke="white"/>
<path d="M596.637 1555.52V1553.72H604.66V1555.52H596.637Z" fill="white" stroke="white"/>
<path d="M587.613 1580.71V1562.5H604.66V1580.71H587.613Z" fill="white" stroke="white"/>
<path d="M584.461 1643.98V1598.92H621.773V1643.98H584.461Z" fill="black" stroke="white"/>
<path d="M591.422 1618.95C589.724 1617.25 589.724 1614.5 591.422 1612.8C593.12 1611.1 595.872 1611.1 597.57 1612.8C599.268 1614.5 599.268 1617.25 597.57 1618.95C595.872 1620.65 593.12 1620.65 591.422 1618.95Z" fill="white" stroke="white"/>
<path d="M596.15 1617.97L592.402 1614.22L592.836 1613.79L596.584 1617.53L596.15 1617.97Z" fill="black" stroke="white"/>
<path d="M608.668 1618.95C606.97 1617.25 606.97 1614.5 608.668 1612.8C610.366 1611.1 613.118 1611.1 614.816 1612.8C616.514 1614.5 616.514 1617.25 614.816 1618.95C613.118 1620.65 610.366 1620.65 608.668 1618.95Z" fill="white" stroke="white"/>
<path d="M613.4 1617.95L609.652 1614.2L610.09 1613.76L613.838 1617.51L613.4 1617.95Z" fill="black" stroke="white"/>
<path d="M587.758 1635.83C587.758 1634.72 588.654 1633.83 589.762 1633.83C590.87 1633.83 591.766 1634.72 591.766 1635.83C591.766 1636.94 590.87 1637.84 589.762 1637.84C588.654 1637.84 587.758 1636.94 587.758 1635.83Z" fill="white" stroke="white"/>
<path d="M596.66 1635.83C596.66 1634.72 597.556 1633.83 598.664 1633.83C599.772 1633.83 600.668 1634.72 600.668 1635.83C600.668 1636.94 599.772 1637.84 598.664 1637.84C597.556 1637.84 596.66 1636.94 596.66 1635.83Z" fill="white" stroke="white"/>
<path d="M605.566 1635.83C605.566 1634.72 606.462 1633.83 607.57 1633.83C608.678 1633.83 609.574 1634.72 609.574 1635.83C609.574 1636.94 608.678 1637.84 607.57 1637.84C606.462 1637.84 605.566 1636.94 605.566 1635.83Z" fill="white" stroke="white"/>
<path d="M614.469 1635.83C614.469 1634.72 615.365 1633.83 616.473 1633.83C617.581 1633.83 618.477 1634.72 618.477 1635.83C618.477 1636.94 617.581 1637.84 616.473 1637.84C615.365 1637.84 614.469 1636.94 614.469 1635.83Z" fill="white" stroke="white"/>
<path d="M628.094 1643.98V1598.92H665.406V1643.98H628.094Z" fill="black" stroke="white"/>
<path d="M635.051 1618.95C633.353 1617.25 633.353 1614.5 635.051 1612.8C636.749 1611.1 639.501 1611.1 641.199 1612.8C642.897 1614.5 642.897 1617.25 641.199 1618.95C639.501 1620.65 636.749 1620.65 635.051 1618.95Z" fill="white" stroke="white"/>
<path d="M639.779 1617.96L636.031 1614.21L636.465 1613.78L640.213 1617.53L639.779 1617.96Z" fill="black" stroke="white"/>
<path d="M652.293 1618.95C650.595 1617.25 650.595 1614.5 652.293 1612.8C653.991 1611.1 656.743 1611.1 658.441 1612.8C660.139 1614.5 660.139 1617.25 658.441 1618.95C656.743 1620.65 653.991 1620.65 652.293 1618.95Z" fill="white" stroke="white"/>
<path d="M657.018 1617.95L653.27 1614.2L653.703 1613.77L657.451 1617.52L657.018 1617.95Z" fill="black" stroke="white"/>
<path d="M631.391 1635.83C631.391 1634.72 632.286 1633.83 633.395 1633.83C634.503 1633.83 635.399 1634.72 635.399 1635.83C635.399 1636.94 634.503 1637.84 633.395 1637.84C632.286 1637.84 631.391 1636.94 631.391 1635.83Z" fill="white" stroke="white"/>
<path d="M640.293 1635.83C640.293 1634.72 641.189 1633.83 642.297 1633.83C643.405 1633.83 644.301 1634.72 644.301 1635.83C644.301 1636.94 643.405 1637.84 642.297 1637.84C641.189 1637.84 640.293 1636.94 640.293 1635.83Z" fill="white" stroke="white"/>
<path d="M649.191 1635.83C649.191 1634.72 650.087 1633.83 651.195 1633.83C652.303 1633.83 653.199 1634.72 653.199 1635.83C653.199 1636.94 652.303 1637.84 651.195 1637.84C650.087 1637.84 649.191 1636.94 649.191 1635.83Z" fill="white" stroke="white"/>
<path d="M658.094 1635.83C658.094 1634.72 658.99 1633.83 660.098 1633.83C661.206 1633.83 662.102 1634.72 662.102 1635.83C662.102 1636.94 661.206 1637.84 660.098 1637.84C658.99 1637.84 658.094 1636.94 658.094 1635.83Z" fill="white" stroke="white"/>
<path d="M584.461 1660.4V1651.32H665.399V1660.4H584.461Z" fill="black" stroke="white"/>
<path d="M584.461 1677.41V1668.33H665.399V1677.41H584.461Z" fill="black" stroke="white"/>
<path d="M584.461 1694.43V1685.35H665.399V1694.43H584.461Z" fill="black" stroke="white"/>
<path d="M637.906 1493.08V1492.55H654.571V1493.08H637.906Z" fill="white" stroke="white"/>
<path d="M668.134 1497.01H653.88C651.566 1497.01 649.688 1495.13 649.688 1492.82C649.688 1490.5 651.566 1488.62 653.88 1488.62H668.134V1497.01Z" fill="black" stroke="white"/>
<path d="M672.826 1492.82C672.826 1495.13 670.949 1497.01 668.634 1497.01C666.318 1497.01 664.441 1495.13 664.441 1492.82C664.441 1490.5 666.318 1488.62 668.634 1488.62C670.949 1488.62 672.826 1490.5 672.826 1492.82Z" fill="white" stroke="white"/>
<path d="M610.129 1493.08V1492.55H626.794V1493.08H610.129Z" fill="white" stroke="white"/>
<path d="M640.356 1497.01H626.103C623.788 1497.01 621.91 1495.13 621.91 1492.82C621.91 1490.5 623.788 1488.62 626.103 1488.62H640.356V1497.01Z" fill="black" stroke="white"/>
<path d="M645.049 1492.82C645.049 1495.13 643.172 1497.01 640.856 1497.01C638.541 1497.01 636.664 1495.13 636.664 1492.82C636.664 1490.5 638.541 1488.62 640.856 1488.62C643.172 1488.62 645.049 1490.5 645.049 1492.82Z" fill="white" stroke="white"/>
<path d="M655.976 1273.12L657.551 1271.8L630.363 1239.25C630.363 1239.25 630.363 1239.25 630.363 1239.25C627.515 1235.85 623.344 1233.76 618.913 1233.52L618.912 1233.52C614.482 1233.28 610.108 1234.92 606.915 1238L655.976 1273.12ZM655.976 1273.12L628.789 1240.57C626.273 1237.56 622.723 1235.78 618.809 1235.57C614.893 1235.36 611.175 1236.75 608.352 1239.48L608.352 1239.48L467.602 1375.84L466.168 1374.36L606.915 1238L655.976 1273.12Z" fill="black" stroke="white"/>
<path d="M615.431 1238.3C617.139 1236.94 619.608 1237.14 621.069 1238.76L644.577 1264.77L644.577 1264.77C646.093 1266.44 645.98 1269.02 644.322 1270.56L624.693 1288.79L624.693 1288.79C623.027 1290.34 620.426 1290.25 618.868 1288.59L603.903 1272.59L603.836 1272.51L593.846 1261.09C592.298 1259.32 592.538 1256.62 594.372 1255.15L615.431 1238.3C615.431 1238.3 615.431 1238.3 615.431 1238.3Z" fill="black" stroke="white"/>
<path d="M621.705 1270.46L509.954 1386.05L489.976 1366.35L606.78 1255.41L606.78 1255.41C610.886 1251.5 617.336 1251.52 621.423 1255.44C625.657 1259.51 625.783 1266.24 621.705 1270.46Z" fill="black" stroke="white"/>
<path d="M614.54 1258.41C616.968 1258.99 618.469 1261.42 617.894 1263.85C617.318 1266.28 614.883 1267.78 612.455 1267.2C610.027 1266.63 608.526 1264.19 609.101 1261.77C609.677 1259.34 612.112 1257.84 614.54 1258.41Z" fill="white" stroke="white"/>
<path d="M507.105 1403.6L476.971 1370.97L489.122 1366.92L509.433 1386.94L507.105 1403.6Z" fill="white" stroke="white"/>
<path d="M476.095 1371.49L506.675 1404.6L467.631 1428.81C463.737 1431.22 458.727 1430.79 455.299 1427.76L447.38 1420.74L447.38 1420.74C443.146 1417 442.7 1410.55 446.375 1406.25L446.375 1406.25L476.095 1371.49Z" fill="black" stroke="white"/>
<path d="M480.318 1389.29C485.258 1390.47 488.31 1395.43 487.134 1400.37C485.958 1405.31 480.999 1408.36 476.059 1407.19C471.119 1406.01 468.067 1401.05 469.243 1396.11C470.419 1391.17 475.378 1388.12 480.318 1389.29Z" fill="white" stroke="white"/>
<path d="M478.798 1423.06L496.664 1411.99L531.872 1493.43C531.686 1493.5 531.453 1493.57 531.178 1493.66C530.406 1493.91 529.302 1494.27 527.975 1494.69C525.321 1495.53 521.777 1496.63 518.215 1497.65C514.649 1498.67 511.078 1499.6 508.365 1500.13C507.005 1500.39 505.884 1500.55 505.096 1500.56C504.698 1500.57 504.421 1500.54 504.251 1500.49C504.205 1500.48 504.175 1500.47 504.157 1500.46C503.924 1499.6 502.268 1494.48 499.915 1487.27C497.496 1479.86 494.33 1470.21 491.183 1460.65C488.036 1451.08 484.909 1441.59 482.568 1434.49C481.398 1430.94 480.425 1427.99 479.744 1425.93L478.953 1423.54L478.798 1423.06ZM504.131 1500.45C504.131 1500.45 504.133 1500.45 504.137 1500.45C504.133 1500.45 504.131 1500.45 504.131 1500.45Z" fill="black" stroke="white"/>
<path d="M633.001 1287.46L629.792 1285.43L640.97 1275.04L643.491 1278.35L633.001 1287.46Z" fill="black" stroke="white"/>
<path d="M627.081 1296.25C626.469 1295.6 626.49 1294.59 627.103 1293.98L627.186 1293.9L649.142 1274.61C649.142 1274.61 649.142 1274.61 649.142 1274.61C649.812 1274.02 650.833 1274.08 651.434 1274.75C651.434 1274.75 651.434 1274.75 651.434 1274.75L656.161 1279.99L656.161 1279.99C656.753 1280.64 656.714 1281.65 656.08 1282.26L656.079 1282.26L635.127 1302.34L635.127 1302.34C634.473 1302.96 633.437 1302.94 632.812 1302.28C632.812 1302.28 632.812 1302.28 632.812 1302.28L627.082 1296.25L627.081 1296.25Z" fill="black" stroke="white"/>
<path d="M590.524 1243.84C589.962 1243.06 590.06 1241.99 590.754 1241.33C591.57 1240.56 592.873 1240.65 593.569 1241.52L593.57 1241.52L599.891 1249.46L596.537 1252.14L590.524 1243.84C590.524 1243.84 590.524 1243.84 590.524 1243.84Z" fill="white" stroke="white"/>
<path d="M628.785 1245.81L635.353 1237.62C635.353 1237.62 635.353 1237.62 635.353 1237.62C635.725 1237.16 635.777 1236.51 635.482 1235.99C635.017 1235.18 633.908 1235.01 633.222 1235.66L628.785 1245.81ZM628.785 1245.81L625.885 1242.6L633.222 1235.66L628.785 1245.81Z" fill="white" stroke="white"/>
<path d="M650.681 1288.82L643.823 1295.39L662.142 1315.47L662.143 1315.47C663.318 1316.77 664.02 1318.43 664.129 1320.18L664.129 1320.18L666.238 1354.81H672.795V1318.27C672.795 1316.74 672.26 1315.25 671.289 1314.05L650.681 1288.82ZM650.681 1288.82L671.288 1314.05L650.681 1288.82Z" fill="white" stroke="white"/>
<path d="M661.251 1271.49L655.149 1277.38L652.498 1274.44L658.499 1268.65C658.499 1268.65 658.499 1268.65 658.499 1268.65C659.365 1267.81 660.772 1267.94 661.478 1268.91C662.06 1269.71 661.961 1270.81 661.251 1271.49L661.251 1271.49Z" fill="white" stroke="white"/>
<path d="M468.612 1368.3L475.245 1370.95L453.206 1396.72L454.73 1381.39L468.612 1368.3Z" fill="white" stroke="white"/>
<path d="M519.873 1524.4H322.465V1469.49H519.373V1469.5H519.873C535.033 1469.5 547.324 1481.79 547.324 1496.95C547.324 1512.11 535.033 1524.4 519.873 1524.4Z" fill="black" stroke="white"/>
<path d="M465.914 1273.12L467.488 1271.8L440.301 1239.25C440.301 1239.25 440.301 1239.25 440.301 1239.25C437.453 1235.85 433.282 1233.76 428.85 1233.52L428.85 1233.52C424.419 1233.28 420.046 1234.92 416.853 1238L465.914 1273.12ZM465.914 1273.12L438.727 1240.57C436.21 1237.56 432.661 1235.78 428.746 1235.57C424.831 1235.36 421.112 1236.75 418.29 1239.48L418.289 1239.48L277.532 1375.83L276.105 1374.36L416.852 1238L465.914 1273.12Z" fill="black" stroke="white"/>
<path d="M403.783 1261.09L413.773 1272.51L413.841 1272.59L428.806 1288.59C430.363 1290.25 432.964 1290.34 434.63 1288.79L434.63 1288.79L454.26 1270.56C455.917 1269.02 456.026 1266.44 454.514 1264.77L403.783 1261.09ZM403.783 1261.09C402.235 1259.32 402.475 1256.62 404.31 1255.15L425.368 1238.3C425.369 1238.3 425.369 1238.3 425.369 1238.3C427.076 1236.94 429.546 1237.14 431.007 1238.76L454.514 1264.77L403.783 1261.09Z" fill="black" stroke="white"/>
<path d="M431.643 1270.46L319.891 1386.05L299.915 1366.35L416.717 1255.41L416.717 1255.41C420.824 1251.5 427.273 1251.52 431.361 1255.44C435.594 1259.51 435.72 1266.24 431.643 1270.46Z" fill="black" stroke="white"/>
<path d="M426.631 1259.61C428.396 1261.37 428.396 1264.24 426.631 1266C424.867 1267.76 422.006 1267.76 420.242 1266C418.477 1264.24 418.477 1261.37 420.242 1259.61C422.006 1257.85 424.867 1257.85 426.631 1259.61Z" fill="white" stroke="white"/>
<path d="M317.042 1403.6L286.908 1370.97L299.064 1366.92L319.37 1386.94L317.042 1403.6Z" fill="white" stroke="white"/>
<path d="M286.032 1371.49L316.613 1404.6L277.569 1428.81C273.675 1431.22 268.664 1430.79 265.236 1427.76L257.318 1420.74L257.318 1420.74C253.084 1417 252.637 1410.55 256.313 1406.25L256.313 1406.25L286.032 1371.49Z" fill="black" stroke="white"/>
<path d="M294.643 1391.75C298.234 1395.34 298.234 1401.17 294.643 1404.76C291.052 1408.35 285.23 1408.35 281.639 1404.76C278.048 1401.17 278.048 1395.34 281.639 1391.75C285.23 1388.16 291.052 1388.16 294.643 1391.75Z" fill="white" stroke="white"/>
<path d="M288.743 1423.06L306.61 1411.99L341.818 1493.43C341.632 1493.5 341.399 1493.57 341.124 1493.66C340.352 1493.91 339.247 1494.27 337.921 1494.69C335.266 1495.53 331.722 1496.63 328.16 1497.65C324.595 1498.67 321.023 1499.6 318.311 1500.13C316.95 1500.39 315.829 1500.55 315.041 1500.56C314.643 1500.57 314.366 1500.54 314.196 1500.49C314.15 1500.48 314.12 1500.47 314.102 1500.46C313.87 1499.6 312.213 1494.48 309.861 1487.27C307.442 1479.86 304.275 1470.21 301.128 1460.65C297.982 1451.08 294.854 1441.59 292.514 1434.49C291.343 1430.94 290.37 1427.99 289.689 1425.93L288.899 1423.54L288.743 1423.06ZM314.077 1500.45C314.077 1500.45 314.079 1500.45 314.082 1500.45C314.078 1500.45 314.076 1500.45 314.077 1500.45Z" fill="black" stroke="white"/>
<path d="M334.134 1470.58C349.106 1472.96 359.307 1487.04 356.92 1502.01C354.532 1516.98 340.46 1527.18 325.489 1524.8C310.518 1522.41 300.316 1508.34 302.704 1493.36C305.091 1478.39 319.163 1468.19 334.134 1470.58Z" fill="white" stroke="white"/>
<path d="M341.992 1497.69C341.992 1504.42 336.54 1509.87 329.814 1509.87C323.089 1509.87 317.637 1504.42 317.637 1497.69C317.637 1490.97 323.089 1485.51 329.814 1485.51C336.54 1485.51 341.992 1490.97 341.992 1497.69Z" fill="black" stroke="white"/>
<path d="M442.944 1287.46L439.729 1285.42L450.907 1275.04L453.429 1278.34L442.944 1287.46Z" fill="black" stroke="white"/>
<path d="M437.018 1296.25C436.407 1295.6 436.428 1294.59 437.041 1293.98L437.124 1293.9L459.079 1274.61C459.079 1274.61 459.079 1274.61 459.079 1274.61C459.749 1274.02 460.77 1274.08 461.371 1274.75C461.371 1274.75 461.371 1274.75 461.371 1274.75L466.098 1279.99L466.099 1279.99C466.69 1280.64 466.652 1281.65 466.017 1282.26L466.017 1282.26L445.064 1302.34L445.064 1302.34C444.41 1302.96 443.374 1302.94 442.75 1302.28C442.749 1302.28 442.749 1302.28 442.749 1302.28L437.019 1296.25L437.018 1296.25Z" fill="black" stroke="white"/>
<path d="M400.462 1243.84C399.9 1243.06 399.998 1241.99 400.691 1241.33C401.507 1240.56 402.81 1240.65 403.507 1241.52L403.508 1241.52L409.828 1249.46L406.474 1252.14L400.462 1243.84C400.462 1243.84 400.462 1243.84 400.462 1243.84Z" fill="white" stroke="white"/>
<path d="M445.298 1237.62L438.73 1245.81L435.83 1242.6L443.167 1235.66C443.853 1235.01 444.962 1235.18 445.428 1235.99C445.723 1236.51 445.671 1237.16 445.299 1237.62C445.299 1237.62 445.298 1237.62 445.298 1237.62Z" fill="white" stroke="white"/>
<path d="M460.618 1288.82L453.761 1295.39L472.079 1315.47L472.08 1315.47C473.256 1316.77 473.958 1318.43 474.066 1320.18L474.066 1320.18L476.175 1354.81H482.732V1318.27C482.732 1316.74 482.198 1315.25 481.226 1314.05L460.618 1288.82ZM460.618 1288.82L481.226 1314.05L460.618 1288.82Z" fill="white" stroke="white"/>
<path d="M471.188 1271.49L465.087 1277.38L462.436 1274.44L468.436 1268.65C468.437 1268.65 468.437 1268.65 468.437 1268.65C469.303 1267.81 470.709 1267.94 471.416 1268.91C471.997 1269.71 471.899 1270.81 471.189 1271.49L471.188 1271.49Z" fill="white" stroke="white"/>
<path d="M278.553 1368.3L285.182 1370.94L263.147 1396.72L264.671 1381.39L278.553 1368.3Z" fill="white" stroke="white"/>
<path d="M170.709 1068.6L170.851 1068.9L171.183 1068.89L191.773 1067.96L196.642 1085.74L178.445 1095.42L178.152 1095.57L178.182 1095.9C178.59 1100.38 178.629 1104.84 178.282 1109.22L178.255 1109.55L178.55 1109.7L196.825 1119.18L192.148 1137.02L171.547 1136.31L171.216 1136.3L171.076 1136.6C169.208 1140.62 167.002 1144.49 164.488 1148.16L164.3 1148.43L164.479 1148.71L175.583 1166.07L162.616 1179.18L145.155 1168.28L144.874 1168.11L144.603 1168.3C141.006 1170.82 137.161 1173.06 133.095 1175L132.796 1175.14L132.811 1175.47L133.742 1196.06L115.964 1200.93L106.281 1182.73L106.125 1182.44L105.795 1182.47C101.322 1182.88 96.86 1182.92 92.4796 1182.57L92.1488 1182.54L91.9961 1182.84L82.5201 1201.11L64.6834 1196.44L65.3897 1175.84L65.401 1175.51L65.1005 1175.37C61.0759 1173.5 57.2101 1171.29 53.5428 1168.78L53.2696 1168.59L52.9906 1168.77L35.6274 1179.87L22.5158 1166.9L33.4142 1149.44L33.5895 1149.16L33.3993 1148.89C30.8758 1145.3 28.6397 1141.45 26.7013 1137.38L26.5586 1137.08L26.2274 1137.1L5.63669 1138.03L0.767849 1120.25L18.9649 1110.57L19.2581 1110.41L19.2279 1110.08C18.8204 1105.61 18.7808 1101.15 19.1284 1096.77L19.1547 1096.44L18.8602 1096.29L0.585047 1086.81L5.26228 1068.97L25.8629 1069.68L26.194 1069.69L26.3335 1069.39C28.2017 1065.37 30.4079 1061.5 32.9224 1057.83L33.1097 1057.56L32.9312 1057.28L21.8266 1039.92L34.7944 1026.8L52.2552 1037.7L52.5361 1037.88L52.8072 1037.69C56.4034 1035.17 60.2593 1032.93 64.3156 1030.99L64.6145 1030.85L64.5995 1030.52L63.6676 1009.93L81.4464 1005.06L91.1286 1023.25L91.2846 1023.55L91.6154 1023.52C96.0885 1023.11 100.55 1023.07 104.93 1023.42L105.261 1023.44L105.414 1023.15L114.89 1004.87L132.727 1009.55L132.02 1030.15L132.009 1030.48L132.309 1030.62C136.334 1032.5 140.2 1034.7 143.867 1037.21L144.14 1037.4L144.419 1037.22L161.783 1026.12L174.894 1039.08L163.996 1056.54L163.821 1056.83L164.011 1057.1C166.534 1060.69 168.77 1064.54 170.709 1068.6ZM50.4677 1116.2L50.95 1116.07L50.4677 1116.2C57.7607 1142.84 85.2758 1158.52 111.922 1151.23L111.79 1150.75L111.922 1151.23C138.558 1143.94 154.245 1116.42 146.952 1089.78L146.47 1089.91L146.952 1089.78C139.659 1063.14 112.144 1047.45 85.498 1054.75L85.63 1055.23L85.498 1054.75C58.8616 1062.04 43.1748 1089.55 50.4677 1116.2Z" fill="white" stroke="black"/>
<path d="M495.764 862.578L504.241 893.548L472.856 910.249L472.564 910.404L472.593 910.735C473.281 918.418 473.34 926.06 472.753 933.581L472.727 933.911L473.021 934.064L504.546 950.4L496.399 981.466L460.858 980.24L460.527 980.229L460.388 980.53C457.179 987.444 453.403 994.07 449.089 1000.36L448.901 1000.63L449.08 1000.91L468.244 1030.86L445.657 1053.69L415.536 1034.9L415.255 1034.72L414.983 1034.91C408.807 1039.25 402.202 1043.09 395.236 1046.41L394.937 1046.55L394.952 1046.88L396.563 1082.39L365.585 1090.87L348.882 1059.49L348.727 1059.19L348.396 1059.22C340.713 1059.91 333.071 1059.97 325.55 1059.38L325.22 1059.36L325.067 1059.65L308.731 1091.17L277.665 1083.03L278.891 1047.49L278.902 1047.16L278.602 1047.02C271.687 1043.81 265.061 1040.03 258.774 1035.72L258.501 1035.53L258.222 1035.71L228.269 1054.86L205.437 1032.28L224.235 1002.15L224.411 1001.87L224.22 1001.6C219.877 995.426 216.041 988.821 212.722 981.855L212.58 981.555L212.248 981.57L176.738 983.182L168.259 952.204L199.646 935.501L199.939 935.346L199.909 935.015C199.222 927.332 199.162 919.69 199.75 912.169L199.775 911.839L199.481 911.686L167.956 895.35L176.103 864.284L211.644 865.51L211.975 865.521L212.115 865.22C215.323 858.306 219.109 851.68 223.414 845.392L223.601 845.119L223.422 844.841L204.268 814.887L226.855 792.056L256.976 810.864L257.258 811.04L257.529 810.849C263.705 806.506 270.31 802.67 277.276 799.351L277.576 799.209L277.561 798.877L275.949 763.367L306.928 754.888L323.63 786.275L323.785 786.567L324.116 786.538C331.799 785.85 339.441 785.791 346.962 786.378L347.293 786.404L347.445 786.11L363.781 754.585L394.848 762.732L393.621 798.273L393.61 798.604L393.911 798.743C400.825 801.952 407.451 805.738 413.739 810.043L414.012 810.23L414.29 810.051L444.244 790.897L467.075 813.484L448.267 843.605L448.091 843.886L448.282 844.158C452.625 850.334 456.461 856.939 459.78 863.905L459.922 864.204L460.254 864.189L495.764 862.578ZM254.039 945.412C266.472 990.818 313.357 1017.55 358.763 1005.11C404.169 992.679 430.896 945.794 418.463 900.388C406.03 854.982 359.145 828.255 313.739 840.688C268.333 853.121 241.606 900.006 254.039 945.412Z" fill="white" stroke="black"/>
<path d="M99.3965 335.978C99.0635 336.18 98.6446 336.219 98.2595 336.054C97.6374 335.779 97.3537 335.052 97.6274 334.429C116.594 291.397 144.264 253.991 179.881 223.246C180.4 222.798 181.172 222.861 181.618 223.376C182.063 223.891 182.004 224.669 181.489 225.114C146.154 255.613 118.695 292.732 99.882 335.424C99.7758 335.666 99.6042 335.852 99.3965 335.978Z" fill="white"/>
<path d="M127.899 335.275C127.558 335.482 127.124 335.518 126.735 335.336C126.116 335.046 125.854 334.312 126.145 333.698C154.54 273.127 208.565 223.598 248.885 192.715C249.413 192.305 250.198 192.406 250.612 192.946C251.029 193.485 250.924 194.258 250.384 194.675C210.281 225.394 156.557 274.626 128.375 334.745C128.268 334.975 128.103 335.151 127.899 335.275Z" fill="white"/>
</svg>
