<svg width="1778" height="1830" viewBox="0 0 1778 1830" fill="none" xmlns="http://www.w3.org/2000/svg">
<path d="M299.781 1477.07L321.641 1464.97L314.001 1438.77C318.561 1435.06 322.761 1431.03 326.551 1426.71L352.421 1435.28L365.301 1413.87L345.581 1394.99C347.641 1389.56 349.251 1383.97 350.381 1378.28L377.111 1372.76L377.561 1347.78L351.081 1341.3C350.161 1335.62 348.751 1329.98 346.851 1324.41L367.231 1306.27L355.131 1284.41L328.931 1292.05C325.221 1287.49 321.191 1283.29 316.871 1279.5L325.441 1253.63L304.031 1240.75L285.151 1260.47C279.721 1258.41 274.131 1256.8 268.441 1255.67L262.921 1228.94L237.941 1228.49L231.461 1254.97C225.781 1255.89 220.141 1257.3 214.571 1259.2L196.431 1238.82L174.571 1250.92L182.211 1277.12C177.651 1280.83 173.451 1284.86 169.661 1289.18L143.781 1280.61L130.901 1302.02L150.621 1320.9C148.561 1326.33 146.951 1331.92 145.821 1337.61L119.091 1343.13L118.641 1368.11L145.121 1374.59C146.041 1380.27 147.451 1385.91 149.351 1391.48L128.971 1409.63L141.071 1431.49L167.271 1423.85C170.981 1428.41 175.011 1432.61 179.331 1436.4L170.761 1462.27L192.171 1475.15L211.051 1455.43C216.481 1457.49 222.071 1459.1 227.761 1460.23L233.281 1486.96L258.261 1487.41L264.741 1460.93C270.421 1460.01 276.061 1458.6 281.631 1456.7L299.771 1477.09L299.781 1477.07ZM191.841 1389.07C174.641 1357.99 185.891 1318.85 216.971 1301.65C248.051 1284.45 287.191 1295.7 304.391 1326.78C321.591 1357.86 310.341 1397 279.261 1414.2C248.181 1431.4 209.041 1420.15 191.841 1389.07Z" fill="white"/>
<path d="M641.46 1764.09L677.18 1744.32L664.7 1701.51C672.15 1695.45 679.01 1688.87 685.21 1681.8L727.49 1695.8L748.54 1660.82L716.32 1629.98C719.69 1621.11 722.31 1611.98 724.17 1602.68L767.85 1593.66L768.59 1552.84L725.33 1542.25C723.83 1532.97 721.52 1523.75 718.42 1514.66L751.73 1485.01L731.96 1449.29L689.15 1461.77C683.09 1454.32 676.51 1447.46 669.44 1441.26L683.44 1398.98L648.46 1377.93L617.62 1410.15C608.75 1406.78 599.62 1404.16 590.32 1402.3L581.3 1358.62L540.48 1357.88L529.89 1401.14C520.61 1402.64 511.39 1404.95 502.3 1408.05L472.65 1374.74L436.93 1394.51L449.41 1437.32C441.96 1443.38 435.1 1449.96 428.9 1457.03L386.62 1443.03L365.57 1478.01L397.79 1508.85C394.42 1517.72 391.8 1526.85 389.94 1536.15L346.26 1545.17L345.52 1585.99L388.78 1596.58C390.28 1605.86 392.59 1615.08 395.69 1624.17L362.38 1653.82L382.15 1689.54L424.96 1677.06C431.02 1684.51 437.6 1691.37 444.67 1697.57L430.67 1739.85L465.65 1760.9L496.49 1728.68C505.36 1732.05 514.49 1734.67 523.79 1736.53L532.81 1780.21L573.63 1780.95L584.22 1737.69C593.5 1736.19 602.72 1733.88 611.81 1730.78L641.46 1764.09ZM465.1 1620.31C436.99 1569.52 455.38 1505.57 506.17 1477.47C556.95 1449.36 620.91 1467.75 649.01 1518.54C677.12 1569.32 658.73 1633.28 607.94 1661.38C557.16 1689.49 493.2 1671.1 465.1 1620.32V1620.31Z" fill="white"/>
<path d="M31.2514 290.232H1318.1C1335.35 290.232 1350.41 304.222 1351.73 321.472L1415.64 1156.45C1416.96 1173.7 1404.04 1187.69 1386.79 1187.69H99.9414C82.6914 1187.69 67.6314 1173.7 66.3114 1156.45L2.40144 321.472C1.08144 304.222 13.9914 290.232 31.2514 290.232Z" fill="#121212"/>
<path d="M1386.78 1189.99H99.9305C81.5305 1189.99 65.4105 1175.02 64.0005 1156.62L0.100514 321.642C-0.589486 312.632 2.29051 304.162 8.20051 297.782C14.0905 291.422 22.2705 287.922 31.2505 287.922H1318.09C1336.49 287.922 1352.62 302.892 1354.02 321.292L1417.92 1156.27C1418.61 1165.28 1415.73 1173.75 1409.82 1180.13C1403.93 1186.49 1395.74 1189.99 1386.77 1189.99H1386.78ZM31.2505 292.542C23.5705 292.542 16.5905 295.522 11.5805 300.922C6.55051 306.352 4.11051 313.582 4.70051 321.292L68.6105 1156.27C69.8405 1172.32 83.8905 1185.37 99.9305 1185.37H1386.78C1394.46 1185.37 1401.44 1182.39 1406.45 1176.99C1411.48 1171.56 1413.92 1164.33 1413.33 1156.62L1349.43 321.642C1348.2 305.592 1334.15 292.542 1318.1 292.542H31.2505Z" fill="white"/>
<path d="M1035.32 945.461C1034.13 945.461 1033.11 944.541 1033.02 943.331L1028.63 885.941C1028.53 884.671 1029.48 883.561 1030.76 883.461C1032 883.341 1033.14 884.311 1033.24 885.591L1037.63 942.981C1037.73 944.251 1036.78 945.361 1035.5 945.461C1035.44 945.461 1035.38 945.461 1035.32 945.461Z" fill="white"/>
<path d="M1000.6 1140.14H188.23C163.15 1140.14 142 1120.55 140.09 1095.54L124.05 885.911C123.95 884.641 124.9 883.531 126.18 883.431C127.44 883.331 128.56 884.291 128.66 885.561L144.7 1095.19C146.43 1117.81 165.56 1135.52 188.24 1135.52H1000.6C1012.9 1135.52 1024.28 1130.55 1032.63 1121.53C1040.99 1112.51 1045.07 1100.78 1044.13 1088.52L1038.94 1020.73C1038.84 1019.46 1039.79 1018.35 1041.07 1018.25C1042.31 1018.15 1043.45 1019.11 1043.55 1020.38L1048.74 1088.17C1049.76 1101.53 1045.13 1114.84 1036.02 1124.67C1026.91 1134.5 1014 1140.14 1000.6 1140.14Z" fill="white"/>
<path d="M102.539 577.042C101.349 577.042 100.329 576.122 100.239 574.912L91.0294 454.652C90.0094 441.292 94.6494 427.982 103.749 418.152C112.859 408.322 125.769 402.682 139.169 402.682H168.629C169.909 402.682 170.939 403.712 170.939 404.992C170.939 406.272 169.909 407.302 168.629 407.302H139.169C126.869 407.302 115.499 412.272 107.139 421.292C98.7794 430.312 94.6994 442.032 95.6294 454.302L104.839 574.562C104.939 575.832 103.989 576.942 102.709 577.042C102.649 577.042 102.589 577.042 102.529 577.042H102.539Z" fill="white"/>
<path d="M505.76 407.292H245.74C244.46 407.292 243.43 406.262 243.43 404.982C243.43 403.702 244.46 402.672 245.74 402.672H505.76C507.04 402.672 508.07 403.702 508.07 404.982C508.07 406.262 507.04 407.292 505.76 407.292Z" fill="white"/>
<path d="M1312.41 715.202H1086.92C1085.71 715.202 1084.71 714.272 1084.62 713.072L1078.67 635.382C1078.62 634.742 1078.84 634.112 1079.28 633.642C1079.72 633.172 1080.33 632.902 1080.97 632.902H1306.46C1307.67 632.902 1308.67 633.832 1308.76 635.032L1314.71 712.722C1314.76 713.362 1314.54 713.992 1314.1 714.462C1313.66 714.932 1313.05 715.202 1312.41 715.202ZM1089.06 710.582H1309.92L1304.33 637.502H1083.47L1089.06 710.582Z" fill="white"/>
<path d="M1323.26 856.841H1097.77C1096.56 856.841 1095.56 855.911 1095.47 854.711L1089.52 777.021C1089.47 776.381 1089.69 775.751 1090.13 775.281C1090.57 774.811 1091.18 774.541 1091.82 774.541H1317.31C1318.52 774.541 1319.52 775.471 1319.61 776.671L1325.56 854.361C1325.61 855.001 1325.39 855.631 1324.95 856.101C1324.51 856.571 1323.9 856.841 1323.26 856.841ZM1099.91 852.221H1320.77L1315.18 779.141H1094.32L1099.91 852.221Z" fill="white"/>
<path d="M1334.1 998.491H1108.61C1107.4 998.491 1106.4 997.561 1106.31 996.361L1100.36 918.671C1100.31 918.031 1100.53 917.401 1100.97 916.931C1101.41 916.461 1102.02 916.191 1102.66 916.191H1328.15C1329.36 916.191 1330.36 917.121 1330.45 918.321L1336.4 996.011C1336.45 996.651 1336.23 997.281 1335.79 997.751C1335.35 998.221 1334.74 998.491 1334.1 998.491ZM1110.75 993.871H1331.61L1326.02 920.791H1105.16L1110.76 993.871H1110.75Z" fill="white"/>
<path d="M1344.94 1140.14H1119.45C1118.24 1140.14 1117.24 1139.21 1117.15 1138.01L1111.2 1060.32C1111.15 1059.68 1111.37 1059.05 1111.81 1058.58C1112.25 1058.11 1112.86 1057.84 1113.5 1057.84H1338.99C1340.2 1057.84 1341.2 1058.77 1341.29 1059.97L1347.24 1137.66C1347.29 1138.3 1347.07 1138.93 1346.63 1139.4C1346.19 1139.87 1345.58 1140.14 1344.94 1140.14ZM1121.59 1135.52H1342.45L1336.86 1062.44H1116L1121.59 1135.52Z" fill="white"/>
<path d="M1301.84 577.022H1076.35C1075.14 577.022 1074.14 576.092 1074.05 574.892L1061.06 405.162C1061.01 404.522 1061.23 403.892 1061.67 403.422C1062.11 402.952 1062.72 402.682 1063.36 402.682H1288.85C1290.06 402.682 1291.06 403.612 1291.15 404.812L1304.14 574.542C1304.19 575.182 1303.97 575.812 1303.53 576.282C1303.09 576.752 1302.48 577.022 1301.84 577.022ZM1078.49 572.402H1299.35L1286.71 407.282H1065.85L1078.49 572.402Z" fill="white"/>
<path d="M967.043 526.982C967.043 526.982 1071.43 567.262 1197.02 465.262C1254.65 418.462 1289.71 349.362 1294.62 275.292C1295.58 260.822 1302.04 247.262 1312.69 237.412L1390.61 187.762C1392.13 186.792 1394.11 186.912 1395.5 188.062C1397.02 189.312 1396.82 191.802 1396.73 192.802C1396 201.802 1371.65 223.842 1362.94 243.472C1360.2 249.632 1357.28 259.462 1358.61 273.762C1369.55 270.502 1380.5 267.232 1391.44 263.972C1393.78 263.272 1396.32 263.952 1398 265.732C1399.98 267.822 1399.56 271.062 1399.39 272.372C1397.97 283.282 1372.31 301.322 1357.88 316.432C1351.91 322.682 1343.58 332.922 1336.44 348.602C1339.54 386.132 1341.06 470.582 1291.87 555.842C1199.87 715.322 1013.44 733.872 993.903 735.482L967.053 526.982H967.043Z" fill="#121212"/>
<path d="M993.892 737.802C992.742 737.802 991.752 736.952 991.602 735.792L964.752 527.292C964.652 526.482 964.982 525.682 965.622 525.182C966.262 524.682 967.112 524.552 967.872 524.842C968.902 525.242 1072.57 563.382 1195.57 463.492C1252.17 417.522 1287.44 348.882 1292.33 275.152C1293.33 260.032 1300.01 246.032 1311.14 235.732C1311.24 235.642 1311.35 235.552 1311.47 235.482L1389.39 185.832C1391.76 184.322 1394.81 184.502 1396.99 186.292C1399.44 188.312 1399.16 191.712 1399.06 193.002C1398.64 198.122 1392.66 205.612 1385.08 215.092C1377.73 224.282 1369.4 234.702 1365.08 244.432C1361.65 252.172 1360.19 261.012 1360.73 270.762L1390.81 261.792C1394.01 260.842 1397.41 261.752 1399.71 264.172C1402.44 267.062 1401.91 271.162 1401.71 272.702C1400.65 280.882 1388.7 291.482 1376.05 302.712C1370.25 307.852 1364.26 313.172 1359.59 318.062C1351.28 326.762 1344.29 337.182 1338.82 349.042C1343.06 401.232 1338.64 479.482 1293.9 557.032C1202.07 716.222 1015.13 736.082 994.122 737.822C994.052 737.822 993.992 737.822 993.932 737.822L993.892 737.802ZM969.802 530.352L995.902 733.002C1025.04 730.232 1201.82 707.332 1289.87 554.702C1334.18 477.892 1338.4 400.332 1334.14 348.802C1334.11 348.412 1334.18 348.012 1334.34 347.652C1340.06 335.092 1347.42 324.052 1356.22 314.852C1361.03 309.822 1367.09 304.432 1372.96 299.232C1383.89 289.542 1396.27 278.552 1397.11 272.082C1397.25 271.042 1397.56 268.622 1396.33 267.322C1395.24 266.172 1393.62 265.742 1392.11 266.192L1359.28 275.982C1358.62 276.182 1357.9 276.072 1357.33 275.682C1356.76 275.292 1356.39 274.672 1356.32 273.982C1355.24 262.322 1356.75 251.742 1360.84 242.542C1365.4 232.272 1373.93 221.602 1381.46 212.192C1387.98 204.032 1394.14 196.332 1394.45 192.622C1394.6 190.722 1394.32 190.072 1394.05 189.852C1393.43 189.342 1392.55 189.282 1391.87 189.722L1314.13 239.262C1303.96 248.742 1297.86 261.592 1296.95 275.462C1291.98 350.462 1256.1 420.302 1198.5 467.072C1133.15 520.142 1073.58 534.222 1035.11 536.692C1001.69 538.822 978.392 533.002 969.832 530.362L969.802 530.352Z" fill="white"/>
<path d="M303.59 1138.21H804.73C806.86 958.691 878.36 739.371 878.36 739.371L1018.13 749.761L1034.67 502.471C1034.67 502.471 892.19 491.931 776.87 481.991C699 475.281 554.69 503.491 469.17 522.531C425.33 532.291 386.47 557.441 359.55 593.391L279.43 700.371L366.4 749.771C291.86 875.581 292.52 1035.56 303.59 1138.22V1138.21Z" fill="#E95018"/>
<path d="M649.497 785.162L670.937 1140.16C671.267 1145.57 668.317 1150.61 663.517 1152.85L248.377 1346.82C244.237 1348.75 239.787 1348.19 236.347 1345.97C233.037 1343.83 223.257 1337.67 223.257 1337.67L208.947 980.662C208.617 975.252 211.567 970.212 216.367 967.972L633.197 767.582C633.197 767.582 640.557 772.692 644.057 775.202C647.097 777.382 649.237 780.902 649.497 785.152V785.162Z" fill="white"/>
<path d="M636.308 777.292L657.748 1132.29C658.078 1137.7 655.128 1142.74 650.328 1144.98L236.318 1337.82C228.198 1341.6 218.878 1335.83 218.328 1326.67L196.888 971.672C196.558 966.262 199.508 961.222 204.308 958.982L618.318 766.142C626.438 762.362 635.758 768.132 636.308 777.292Z" fill="#121212"/>
<path d="M231.049 1341.31C228.439 1341.31 225.849 1340.6 223.489 1339.19C219.119 1336.59 216.329 1331.95 216.019 1326.8L194.579 971.801C194.199 965.491 197.719 959.501 203.329 956.881L617.339 764.041C621.829 761.941 626.869 762.211 631.139 764.751C635.509 767.351 638.299 771.991 638.609 777.141L660.049 1132.14C660.429 1138.45 656.909 1144.44 651.299 1147.06L237.289 1339.9C235.279 1340.84 233.159 1341.3 231.049 1341.3V1341.31ZM623.569 767.271C622.119 767.271 620.669 767.591 619.289 768.231L205.279 961.071C201.369 962.891 198.919 967.091 199.189 971.531L220.629 1326.53C220.849 1330.16 222.799 1333.41 225.859 1335.23C228.799 1336.99 232.259 1337.16 235.349 1335.73L649.359 1142.89C653.269 1141.07 655.719 1136.86 655.449 1132.43L634.009 777.431C633.789 773.801 631.839 770.551 628.779 768.731C627.149 767.761 625.369 767.271 623.579 767.271H623.569Z" fill="white"/>
<path d="M608.09 749.28L629.53 1104.28C629.86 1109.69 626.91 1114.73 622.11 1116.97L208.1 1309.81C199.98 1313.59 190.66 1307.82 190.11 1298.66L168.67 943.66C168.34 938.25 171.29 933.21 176.09 930.97L590.1 738.13C598.22 734.35 607.54 740.12 608.09 749.28Z" fill="#121212"/>
<path d="M202.83 1313.31C200.22 1313.31 197.63 1312.6 195.27 1311.19C190.9 1308.59 188.11 1303.95 187.8 1298.8L166.36 943.801C165.98 937.491 169.49 931.501 175.11 928.881L589.12 736.041C593.61 733.941 598.64 734.211 602.91 736.751C607.28 739.351 610.08 743.991 610.39 749.141L631.83 1104.14C632.21 1110.45 628.69 1116.44 623.08 1119.06L209.07 1311.9C207.06 1312.84 204.94 1313.3 202.83 1313.3V1313.31ZM595.35 739.261C593.9 739.261 592.45 739.581 591.07 740.221L177.06 933.061C173.15 934.881 170.7 939.091 170.97 943.521L192.41 1298.52C192.63 1302.15 194.58 1305.4 197.64 1307.23C200.58 1308.98 204.04 1309.16 207.13 1307.73L621.14 1114.89C625.05 1113.07 627.5 1108.86 627.23 1104.43L605.79 749.431C605.57 745.801 603.61 742.541 600.56 740.721C598.93 739.751 597.15 739.261 595.36 739.261H595.35Z" fill="white"/>
<path d="M584.501 779.962L603.391 1092.75C603.681 1097.52 601.081 1101.96 596.851 1103.93L232.071 1273.84C224.911 1277.17 216.701 1272.08 216.221 1264.01L197.331 951.222C197.041 946.452 199.641 942.012 203.871 940.042L568.651 770.132C575.811 766.802 584.021 771.892 584.501 779.962Z" fill="#121212"/>
<path d="M227.419 1277.19C225.079 1277.19 222.749 1276.55 220.619 1275.29C216.689 1272.95 214.179 1268.78 213.899 1264.15L195.009 951.362C194.669 945.692 197.829 940.302 202.879 937.952L567.659 768.042C571.699 766.162 576.229 766.392 580.069 768.682C583.999 771.022 586.509 775.182 586.789 779.822L605.679 1092.61C606.019 1098.28 602.859 1103.67 597.809 1106.02L233.029 1275.93C231.219 1276.77 229.319 1277.19 227.419 1277.19ZM573.269 771.402C572.029 771.402 570.789 771.672 569.609 772.222L204.829 942.132C201.489 943.692 199.389 947.282 199.619 951.082L218.509 1263.87C218.699 1266.98 220.369 1269.76 222.979 1271.32C225.489 1272.82 228.439 1272.97 231.079 1271.75L595.859 1101.84C599.199 1100.28 601.289 1096.68 601.069 1092.89L582.179 780.102C581.989 776.992 580.319 774.212 577.699 772.652C576.309 771.822 574.789 771.402 573.259 771.402H573.269Z" fill="white"/>
<path d="M505.761 1148.56C504.891 1148.56 504.061 1148.07 503.671 1147.23C503.131 1146.08 503.631 1144.7 504.791 1144.16L595.281 1102.01C598.621 1100.45 600.721 1096.86 600.491 1093.06L598.391 1058.34C598.311 1057.07 599.281 1055.97 600.551 1055.9C601.831 1055.83 602.921 1056.79 602.991 1058.06L605.091 1092.78C605.431 1098.45 602.271 1103.84 597.221 1106.19L506.731 1148.34C506.411 1148.49 506.081 1148.56 505.761 1148.56Z" fill="white"/>
<path d="M215.809 937.182C214.939 937.182 214.109 936.692 213.719 935.852C213.179 934.702 213.669 933.322 214.829 932.782L274.689 904.712C275.849 904.172 277.219 904.672 277.759 905.822C278.299 906.972 277.809 908.352 276.649 908.892L216.789 936.962C216.469 937.112 216.139 937.182 215.809 937.182Z" fill="white"/>
<path d="M305.971 713.271L431.761 787.241C431.761 787.241 326.781 958.671 486.341 1140.21L589.451 1127.55C589.451 1127.55 567.291 1144.09 544.451 1148.23C521.621 1152.37 516.731 1176.7 516.731 1176.7L563.591 1202.42C563.591 1202.42 505.951 1256.04 469.861 1235.13C433.771 1214.21 133.411 989.231 305.951 713.291L305.971 713.271Z" fill="#121212"/>
<path d="M489.02 1242.3C481.92 1242.3 475.04 1240.78 468.72 1237.11C436.22 1218.27 296.88 1109.83 259.81 960.531C238.84 876.081 253.71 792.481 304.01 712.041C304.67 710.981 306.05 710.641 307.14 711.271L432.93 785.241C433.46 785.561 433.85 786.071 434 786.671C434.15 787.271 434.05 787.911 433.73 788.431C433.47 788.861 407.63 831.751 401.49 896.071C395.85 955.181 406.2 1045.01 487.27 1137.75L589.17 1125.24C590.2 1125.08 591.2 1125.7 591.59 1126.67C591.98 1127.64 591.67 1128.75 590.83 1129.38C589.91 1130.07 567.97 1146.29 544.87 1150.48C527.14 1153.69 520.96 1170.24 519.42 1175.51L564.71 1200.36C565.36 1200.72 565.8 1201.36 565.89 1202.1C565.98 1202.83 565.71 1203.57 565.17 1204.07C563.17 1205.93 523.63 1242.27 489.01 1242.27L489.02 1242.3ZM306.74 716.401C258.09 795.151 243.81 876.901 264.29 959.421C300.97 1107.16 438.86 1214.47 471.03 1233.12C501.18 1250.59 548.45 1212.48 559.61 1202.86L515.62 1178.72C514.74 1178.23 514.27 1177.23 514.47 1176.24C514.52 1175.98 519.94 1150.32 544.04 1145.96C557.9 1143.45 571.65 1136.15 580.01 1131.04L486.62 1142.51C485.86 1142.61 485.11 1142.32 484.6 1141.74C401.63 1047.35 391.12 955.701 396.91 895.441C402.43 838.061 423.41 797.421 428.61 788.081L306.73 716.411L306.74 716.401Z" fill="white"/>
<path d="M655.653 407.511C643.143 415.301 623.473 427.561 601.573 421.021C578.253 414.061 558.893 387.731 563.223 370.111C567.013 354.671 586.753 355.021 589.773 338.941C592.613 323.801 576.153 318.071 575.023 299.461C573.523 274.681 600.323 245.101 625.173 244.391C640.423 243.961 641.953 254.761 659.593 255.821C683.613 257.261 688.383 237.681 715.643 235.041C735.283 233.141 751.303 241.501 764.813 248.551C784.843 259.001 797.993 265.861 799.233 276.601C801.773 298.591 750.353 302.111 702.863 357.641C685.593 377.831 679.103 392.911 655.663 407.511H655.653Z" fill="white"/>
<path d="M736.69 425.871C755.21 375.591 714.8 311.671 711.83 306.391C711.83 306.391 688.97 325.431 658.48 323.391C627.98 321.341 630.53 362.621 630.53 362.621C613.95 358.971 611.06 370.111 615.16 392.881C619.26 415.651 641.87 408.991 641.87 408.991C645.02 412.761 648.33 416.021 651.73 418.901L613.01 476.191C602.44 491.831 587.67 504.171 570.41 511.791L554.72 518.721C550.63 520.521 551.46 526.571 555.89 527.161C586.56 531.271 658.57 536.421 712.62 504.961C715.86 503.071 715.01 498.141 711.34 497.361L698.77 494.681C689.83 492.781 685.17 482.871 689.41 474.771L709.04 437.221C715.88 436.941 721.76 436.021 726.03 435.141C730.97 434.121 734.97 430.601 736.71 425.871H736.69Z" fill="#121212"/>
<path d="M601.872 532.511C582.582 532.511 566.152 530.861 555.572 529.441C552.552 529.031 550.242 526.741 549.812 523.721C549.382 520.691 550.972 517.831 553.772 516.591L569.462 509.661C586.352 502.211 600.752 490.181 611.092 474.881L648.672 419.281C645.962 416.871 643.402 414.281 641.032 411.541C637.712 412.231 629.472 413.301 622.552 409.021C617.462 405.881 614.212 400.571 612.892 393.261C609.952 376.951 610.822 367.591 615.712 362.891C618.602 360.111 622.682 359.091 628.172 359.831C628.212 353.261 629.312 337.191 638.692 327.871C643.792 322.801 650.492 320.511 658.642 321.061C687.842 323.031 710.142 304.781 710.362 304.591C710.892 304.151 711.582 303.971 712.252 304.091C712.922 304.211 713.512 304.631 713.842 305.231C713.992 305.501 714.242 305.921 714.582 306.491C730.342 333.181 754.462 384.291 738.862 426.641C736.822 432.181 732.192 436.191 726.482 437.371C721.262 438.451 715.872 439.141 710.452 439.431L691.432 475.811C689.752 479.031 689.672 482.751 691.222 486.041C692.762 489.321 695.692 491.641 699.232 492.401L711.802 495.081C714.432 495.641 716.412 497.731 716.842 500.401C717.262 503.031 716.052 505.601 713.762 506.931C678.622 527.381 635.832 532.491 601.872 532.491V532.511ZM641.862 406.681C642.532 406.681 643.192 406.981 643.632 407.511C646.532 410.971 649.752 414.211 653.212 417.131C654.112 417.891 654.292 419.211 653.632 420.181L614.912 477.471C604.092 493.491 589.012 506.081 571.322 513.891L555.632 520.821C554.262 521.421 554.322 522.701 554.382 523.071C554.432 523.441 554.722 524.661 556.182 524.861C584.922 528.721 657.582 534.301 711.442 502.951C712.382 502.411 712.342 501.501 712.282 501.141C712.232 500.841 711.992 499.851 710.842 499.611L698.272 496.931C693.302 495.871 689.202 492.621 687.042 488.021C684.882 483.421 684.992 478.201 687.342 473.691L706.972 436.141C707.352 435.411 708.092 434.941 708.922 434.901C714.462 434.671 720.212 433.971 725.542 432.861C729.682 432.011 733.032 429.091 734.522 425.061C749.792 383.611 723.742 331.341 711.152 309.801C704.672 314.511 684.352 327.401 658.312 325.681C651.552 325.241 646.042 327.071 641.932 331.151C631.672 341.351 632.802 362.261 632.812 362.471C632.852 363.191 632.562 363.891 632.012 364.361C631.462 364.831 630.722 365.011 630.022 364.861C624.702 363.691 621.072 364.131 618.892 366.231C615.342 369.651 614.852 378.231 617.422 392.461C618.492 398.421 621.022 402.671 624.942 405.101C631.882 409.411 641.122 406.801 641.212 406.771C641.422 406.711 641.642 406.681 641.852 406.681H641.862Z" fill="white"/>
<path d="M704.09 439.832C687.56 439.832 672.29 430.712 671.59 430.282C670.5 429.622 670.15 428.202 670.81 427.112C671.47 426.022 672.89 425.672 673.98 426.332C674.16 426.442 691.95 437.072 708.73 434.922C709.99 434.772 711.15 435.662 711.31 436.922C711.47 438.182 710.58 439.342 709.31 439.502C707.57 439.722 705.82 439.822 704.09 439.822V439.832Z" fill="white"/>
<path d="M625.149 562.171C606.549 562.171 590.169 560.211 576.519 557.561C533.559 549.221 508.269 532.861 507.209 532.171C506.139 531.471 505.849 530.041 506.549 528.981C507.249 527.921 508.679 527.621 509.739 528.311C510.749 528.971 612.279 593.591 749.629 528.161C750.789 527.611 752.159 528.101 752.699 529.251C753.249 530.401 752.759 531.781 751.609 532.321C703.789 555.101 660.469 562.161 625.149 562.161V562.171Z" fill="#121212"/>
<path d="M1396.02 667.441C1394.19 667.441 1392.36 667.421 1390.53 667.391C1389.26 667.371 1388.24 666.321 1388.26 665.041C1388.28 663.781 1389.31 662.771 1390.57 662.771H1390.61C1399.71 662.911 1408.99 662.691 1418.09 662.081C1419.37 662.031 1420.46 662.961 1420.55 664.231C1420.63 665.501 1419.67 666.601 1418.4 666.691C1410.99 667.181 1403.46 667.431 1396.02 667.431V667.441ZM1362.94 665.811C1362.86 665.811 1362.79 665.811 1362.71 665.801C1353.5 664.891 1344.22 663.581 1335.12 661.901C1333.86 661.671 1333.04 660.471 1333.27 659.211C1333.5 657.961 1334.71 657.121 1335.96 657.361C1344.94 659.011 1354.1 660.311 1363.18 661.211C1364.45 661.341 1365.38 662.471 1365.25 663.731C1365.13 664.921 1364.13 665.811 1362.96 665.811H1362.94ZM1445.76 663.741C1444.64 663.741 1443.65 662.921 1443.48 661.781C1443.29 660.521 1444.16 659.341 1445.42 659.151C1454.46 657.791 1463.54 656.031 1472.41 653.921C1473.66 653.621 1474.89 654.391 1475.19 655.631C1475.49 656.871 1474.72 658.111 1473.48 658.411C1464.48 660.551 1455.28 662.331 1446.12 663.711C1446 663.731 1445.89 663.731 1445.77 663.731L1445.76 663.741ZM1308.55 655.781C1308.35 655.781 1308.14 655.761 1307.94 655.701C1299.02 653.271 1290.08 650.421 1281.38 647.241C1280.18 646.801 1279.57 645.481 1280 644.281C1280.44 643.081 1281.76 642.471 1282.96 642.901C1291.54 646.041 1300.35 648.851 1309.15 651.251C1310.38 651.591 1311.11 652.851 1310.77 654.081C1310.49 655.111 1309.56 655.781 1308.55 655.781ZM1499.58 650.951C1498.61 650.951 1497.71 650.331 1497.39 649.361C1496.99 648.151 1497.65 646.841 1498.86 646.451C1507.52 643.601 1516.17 640.351 1524.57 636.781C1525.74 636.291 1527.1 636.831 1527.6 638.001C1528.1 639.171 1527.55 640.531 1526.38 641.031C1517.87 644.641 1509.1 647.941 1500.31 650.831C1500.07 650.911 1499.83 650.941 1499.59 650.941L1499.58 650.951ZM1256.58 636.781C1256.26 636.781 1255.92 636.711 1255.61 636.571C1247.2 632.661 1238.87 628.361 1230.83 623.771C1229.72 623.141 1229.34 621.731 1229.97 620.621C1230.6 619.511 1232 619.121 1233.12 619.761C1241.05 624.281 1249.27 628.531 1257.55 632.381C1258.71 632.921 1259.21 634.291 1258.67 635.451C1258.28 636.291 1257.44 636.791 1256.57 636.791L1256.58 636.781ZM1550.46 629.351C1549.63 629.351 1548.83 628.901 1548.42 628.121C1547.82 626.991 1548.26 625.601 1549.38 625.001C1557.45 620.741 1565.44 616.091 1573.13 611.171C1574.2 610.481 1575.63 610.801 1576.32 611.871C1577.01 612.941 1576.69 614.371 1575.62 615.061C1567.83 620.051 1559.73 624.761 1551.54 629.081C1551.2 629.261 1550.83 629.351 1550.46 629.351ZM1208.52 609.351C1208.07 609.351 1207.61 609.221 1207.21 608.941C1199.58 603.701 1192.08 598.071 1184.91 592.201C1183.92 591.391 1183.78 589.941 1184.58 588.951C1185.39 587.961 1186.84 587.821 1187.83 588.621C1194.9 594.401 1202.3 599.961 1209.82 605.131C1210.87 605.851 1211.14 607.291 1210.41 608.341C1209.96 608.991 1209.24 609.341 1208.51 609.341L1208.52 609.351ZM1597.05 599.541C1596.36 599.541 1595.67 599.231 1595.21 598.631C1594.44 597.621 1594.63 596.171 1595.64 595.391C1602.89 589.851 1610 583.941 1616.77 577.811C1617.71 576.951 1619.18 577.031 1620.03 577.971C1620.89 578.911 1620.81 580.381 1619.87 581.231C1613 587.451 1605.79 593.441 1598.45 599.061C1598.03 599.381 1597.54 599.531 1597.05 599.531V599.541ZM1165.69 574.331C1165.11 574.331 1164.53 574.111 1164.09 573.681C1157.44 567.251 1150.97 560.451 1144.87 553.491C1144.03 552.531 1144.13 551.071 1145.08 550.231C1146.04 549.381 1147.5 549.481 1148.34 550.451C1154.36 557.321 1160.73 564.021 1167.3 570.361C1168.22 571.251 1168.24 572.711 1167.35 573.621C1166.9 574.091 1166.3 574.321 1165.69 574.321V574.331ZM1638.07 562.431C1637.5 562.431 1636.94 562.221 1636.49 561.811C1635.56 560.941 1635.51 559.481 1636.38 558.551C1642.63 551.861 1648.66 544.851 1654.32 537.711C1655.11 536.711 1656.56 536.541 1657.56 537.331C1658.56 538.121 1658.73 539.571 1657.94 540.571C1652.21 547.811 1646.1 554.931 1639.76 561.701C1639.3 562.191 1638.69 562.431 1638.07 562.431ZM1129.25 532.711C1128.54 532.711 1127.84 532.391 1127.39 531.771C1121.89 524.321 1116.64 516.551 1111.78 508.681C1111.11 507.591 1111.45 506.171 1112.53 505.501C1113.62 504.831 1115.04 505.171 1115.71 506.251C1120.5 514.021 1125.68 521.681 1131.1 529.021C1131.86 530.051 1131.64 531.491 1130.61 532.251C1130.2 532.551 1129.72 532.701 1129.24 532.701L1129.25 532.711ZM1672.38 519.021C1671.94 519.021 1671.5 518.901 1671.11 518.631C1670.05 517.921 1669.76 516.491 1670.46 515.431C1675.5 507.821 1680.29 499.911 1684.69 491.901C1685.31 490.781 1686.71 490.381 1687.83 490.991C1688.95 491.611 1689.36 493.011 1688.74 494.131C1684.28 502.251 1679.42 510.281 1674.31 517.991C1673.87 518.661 1673.13 519.021 1672.39 519.021H1672.38ZM1100.22 485.641C1099.38 485.641 1098.57 485.181 1098.16 484.381C1093.98 476.131 1090.1 467.601 1086.62 459.021C1086.14 457.841 1086.71 456.491 1087.89 456.011C1089.07 455.531 1090.42 456.101 1090.9 457.281C1094.33 465.741 1098.16 474.151 1102.28 482.291C1102.86 483.431 1102.4 484.821 1101.27 485.391C1100.93 485.561 1100.58 485.641 1100.23 485.641H1100.22ZM1699.02 470.521C1698.71 470.521 1698.39 470.461 1698.08 470.321C1696.91 469.801 1696.39 468.441 1696.91 467.271C1700.62 458.921 1704.02 450.311 1707.01 441.691C1707.42 440.491 1708.74 439.851 1709.95 440.271C1711.15 440.691 1711.79 442.001 1711.37 443.211C1708.33 451.961 1704.89 460.691 1701.13 469.151C1700.75 470.011 1699.9 470.521 1699.02 470.521ZM1079.45 434.391C1078.47 434.391 1077.55 433.761 1077.25 432.761C1074.51 423.931 1072.11 414.861 1070.12 405.811C1069.85 404.571 1070.63 403.341 1071.88 403.061C1073.12 402.781 1074.36 403.571 1074.63 404.821C1076.6 413.741 1078.96 422.681 1081.66 431.391C1082.04 432.611 1081.36 433.901 1080.14 434.281C1079.91 434.351 1079.68 434.381 1079.46 434.381L1079.45 434.391ZM1717.16 418.251C1716.97 418.251 1716.78 418.231 1716.59 418.181C1715.35 417.861 1714.61 416.611 1714.92 415.371C1717.18 406.541 1719.08 397.491 1720.59 388.471C1720.8 387.211 1721.98 386.351 1723.25 386.571C1724.51 386.781 1725.36 387.971 1725.15 389.231C1723.62 398.371 1721.69 407.551 1719.4 416.501C1719.13 417.541 1718.2 418.241 1717.17 418.241L1717.16 418.251ZM1067.55 380.381C1066.41 380.381 1065.42 379.541 1065.26 378.381C1064.04 369.231 1063.18 359.891 1062.72 350.631C1062.66 349.361 1063.64 348.271 1064.91 348.211C1066.17 348.101 1067.26 349.131 1067.33 350.401C1067.79 359.541 1068.63 368.751 1069.83 377.771C1070 379.031 1069.11 380.201 1067.85 380.361C1067.75 380.371 1067.64 380.381 1067.54 380.381H1067.55ZM1726.3 363.701C1726.24 363.701 1726.17 363.701 1726.11 363.701C1724.84 363.591 1723.89 362.481 1724 361.211C1724.75 352.141 1725.13 342.901 1725.13 333.751C1725.13 332.471 1726.16 331.441 1727.44 331.441C1728.72 331.441 1729.75 332.471 1729.75 333.751C1729.75 343.031 1729.36 352.401 1728.61 361.591C1728.51 362.801 1727.5 363.711 1726.31 363.711L1726.3 363.701ZM1727.38 330.201C1726.12 330.201 1725.09 329.191 1725.07 327.931C1724.91 318.791 1724.37 309.561 1723.46 300.491C1723.33 299.221 1724.26 298.091 1725.53 297.961C1726.81 297.841 1727.93 298.761 1728.06 300.031C1728.98 309.231 1729.53 318.591 1729.69 327.851C1729.71 329.131 1728.7 330.181 1727.42 330.201H1727.38ZM1064.79 325.141C1064.79 325.141 1064.74 325.141 1064.71 325.141C1063.44 325.101 1062.44 324.031 1062.48 322.761C1062.78 313.501 1063.47 304.151 1064.53 294.971C1064.67 293.711 1065.82 292.801 1067.09 292.941C1068.35 293.091 1069.26 294.231 1069.12 295.501C1068.07 304.561 1067.39 313.781 1067.1 322.911C1067.06 324.161 1066.04 325.141 1064.8 325.141H1064.79ZM1721.85 275.171C1720.76 275.171 1719.79 274.391 1719.58 273.281C1717.91 264.301 1715.85 255.281 1713.43 246.491C1713.09 245.261 1713.82 243.991 1715.05 243.651C1716.27 243.311 1717.55 244.031 1717.89 245.261C1720.34 254.181 1722.43 263.321 1724.12 272.431C1724.35 273.681 1723.52 274.891 1722.27 275.121C1722.13 275.151 1721.99 275.161 1721.85 275.161V275.171ZM1071.15 270.201C1071 270.201 1070.85 270.191 1070.69 270.151C1069.44 269.901 1068.63 268.681 1068.88 267.431C1070.71 258.341 1072.95 249.231 1075.53 240.361C1075.88 239.141 1077.17 238.421 1078.39 238.791C1079.61 239.151 1080.32 240.431 1079.96 241.651C1077.42 250.401 1075.21 259.381 1073.4 268.341C1073.18 269.441 1072.22 270.191 1071.14 270.191L1071.15 270.201ZM1707.22 221.831C1706.28 221.831 1705.4 221.251 1705.05 220.321C1701.91 211.771 1698.37 203.241 1694.51 194.951C1693.97 193.801 1694.47 192.421 1695.63 191.881C1696.79 191.341 1698.16 191.841 1698.7 193.001C1702.62 201.401 1706.21 210.061 1709.39 218.731C1709.83 219.931 1709.22 221.251 1708.02 221.691C1707.76 221.791 1707.49 221.831 1707.22 221.831ZM1086.6 217.091C1086.33 217.091 1086.04 217.041 1085.77 216.941C1084.58 216.481 1083.99 215.151 1084.44 213.961C1087.76 205.331 1091.5 196.721 1095.54 188.371C1096.09 187.221 1097.48 186.741 1098.62 187.301C1099.77 187.851 1100.25 189.241 1099.69 190.381C1095.7 198.611 1092.02 207.101 1088.75 215.611C1088.4 216.531 1087.52 217.091 1086.6 217.091ZM1683.88 171.711C1683.08 171.711 1682.3 171.291 1681.87 170.551C1677.34 162.641 1672.42 154.811 1667.24 147.291C1666.52 146.241 1666.78 144.801 1667.83 144.081C1668.89 143.361 1670.32 143.621 1671.04 144.671C1676.3 152.301 1681.29 160.241 1685.88 168.261C1686.51 169.371 1686.13 170.781 1685.02 171.411C1684.66 171.621 1684.26 171.711 1683.87 171.711H1683.88ZM1110.73 167.291C1110.33 167.291 1109.93 167.191 1109.56 166.971C1108.46 166.321 1108.1 164.901 1108.75 163.811C1113.47 155.851 1118.59 147.991 1123.96 140.441C1124.69 139.401 1126.14 139.161 1127.18 139.901C1128.22 140.641 1128.46 142.081 1127.72 143.121C1122.42 150.561 1117.38 158.321 1112.72 166.171C1112.29 166.901 1111.52 167.301 1110.73 167.301V167.291ZM1652.5 126.171C1651.83 126.171 1651.17 125.881 1650.71 125.321C1644.93 118.261 1638.77 111.361 1632.42 104.791C1631.53 103.871 1631.55 102.411 1632.47 101.531C1633.38 100.641 1634.85 100.661 1635.73 101.581C1642.18 108.231 1648.42 115.241 1654.28 122.391C1655.09 123.381 1654.94 124.831 1653.96 125.641C1653.53 125.991 1653.01 126.161 1652.5 126.161V126.171ZM1142.81 122.211C1142.28 122.211 1141.76 122.031 1141.32 121.661C1140.35 120.841 1140.22 119.381 1141.05 118.411C1147.02 111.351 1153.37 104.441 1159.92 97.8809C1160.82 96.9809 1162.28 96.9809 1163.18 97.8809C1164.08 98.7809 1164.08 100.241 1163.18 101.141C1156.72 107.601 1150.46 114.411 1144.57 121.381C1144.11 121.921 1143.46 122.201 1142.81 122.201V122.211ZM1614.01 86.4309C1613.47 86.4309 1612.93 86.2409 1612.49 85.8609C1605.61 79.8509 1598.4 74.0509 1591.05 68.6409C1590.02 67.8809 1589.8 66.4409 1590.56 65.4109C1591.32 64.3809 1592.76 64.1709 1593.79 64.9209C1601.24 70.4109 1608.55 76.2809 1615.53 82.3809C1616.49 83.2209 1616.59 84.6809 1615.75 85.6409C1615.29 86.1609 1614.65 86.4309 1614.01 86.4309ZM1181.92 83.0709C1181.27 83.0709 1180.61 82.7909 1180.16 82.2509C1179.34 81.2809 1179.46 79.8209 1180.43 79.0009C1187.51 73.0009 1194.91 67.2409 1202.43 61.8809C1203.47 61.1409 1204.91 61.3809 1205.65 62.4209C1206.39 63.4609 1206.15 64.9009 1205.11 65.6409C1197.7 70.9309 1190.4 76.6109 1183.41 82.5209C1182.97 82.8909 1182.45 83.0709 1181.92 83.0709ZM1569.47 53.6009C1569.06 53.6009 1568.64 53.4909 1568.26 53.2609C1560.48 48.4709 1552.4 43.9609 1544.26 39.8409C1543.12 39.2709 1542.67 37.8809 1543.24 36.7409C1543.81 35.6109 1545.21 35.1509 1546.34 35.7209C1554.6 39.8909 1562.79 44.4709 1570.68 49.3309C1571.76 50.0009 1572.1 51.4209 1571.44 52.5109C1571.01 53.2209 1570.25 53.6109 1569.47 53.6109V53.6009ZM1226.95 50.9509C1226.16 50.9509 1225.39 50.5509 1224.96 49.8209C1224.31 48.7209 1224.67 47.3109 1225.76 46.6609C1233.71 41.9309 1241.97 37.4909 1250.29 33.4409C1251.44 32.8809 1252.82 33.3609 1253.38 34.5109C1253.94 35.6609 1253.46 37.0409 1252.31 37.6009C1244.1 41.5909 1235.96 45.9809 1228.12 50.6409C1227.75 50.8609 1227.34 50.9609 1226.94 50.9609L1226.95 50.9509ZM1520.08 28.6409C1519.79 28.6409 1519.5 28.5909 1519.22 28.4709C1510.74 25.0409 1502.01 21.9409 1493.3 19.2509C1492.08 18.8709 1491.4 17.5809 1491.78 16.3609C1492.15 15.1409 1493.45 14.4509 1494.67 14.8409C1503.51 17.5709 1512.35 20.7109 1520.95 24.1909C1522.13 24.6709 1522.7 26.0109 1522.23 27.1909C1521.86 28.0909 1521 28.6309 1520.09 28.6309L1520.08 28.6409ZM1276.68 26.7809C1275.75 26.7809 1274.88 26.2209 1274.53 25.3009C1274.07 24.1109 1274.66 22.7709 1275.85 22.3209C1284.49 18.9809 1293.37 15.9809 1302.25 13.3809C1303.48 13.0109 1304.75 13.7309 1305.11 14.9509C1305.47 16.1709 1304.77 17.4509 1303.54 17.8109C1294.78 20.3709 1286.02 23.3309 1277.51 26.6209C1277.24 26.7309 1276.96 26.7809 1276.68 26.7809ZM1467.21 12.3109C1467.05 12.3109 1466.88 12.2909 1466.71 12.2609C1457.81 10.3109 1448.7 8.71092 1439.64 7.51092C1438.38 7.34092 1437.49 6.18092 1437.65 4.92092C1437.82 3.66092 1438.97 2.77092 1440.24 2.93092C1449.44 4.15092 1458.67 5.77092 1467.69 7.74092C1468.94 8.01092 1469.72 9.24092 1469.45 10.4909C1469.21 11.5709 1468.26 12.3009 1467.2 12.3009L1467.21 12.3109ZM1329.76 11.2709C1328.68 11.2709 1327.72 10.5109 1327.5 9.42092C1327.25 8.17092 1328.05 6.95092 1329.3 6.70092C1338.35 4.86092 1347.61 3.39092 1356.82 2.31092C1358.1 2.16092 1359.23 3.07092 1359.38 4.33092C1359.53 5.60092 1358.62 6.74092 1357.36 6.89092C1348.28 7.95092 1339.14 9.41092 1330.22 11.2209C1330.06 11.2509 1329.91 11.2709 1329.76 11.2709ZM1412.38 5.04092C1412.38 5.04092 1412.3 5.04092 1412.27 5.04092C1403.15 4.60092 1393.77 4.54092 1384.78 4.83092C1384.76 4.83092 1384.73 4.83092 1384.7 4.83092C1383.46 4.83092 1382.44 3.85092 1382.4 2.60092C1382.36 1.33092 1383.35 0.260921 1384.63 0.220921C1393.75 -0.0890789 1403.26 -0.0190789 1412.5 0.430921C1413.77 0.490921 1414.75 1.58092 1414.69 2.85092C1414.63 4.09092 1413.61 5.05092 1412.39 5.05092L1412.38 5.04092Z" fill="white"/>
<path d="M1396.02 50.6113C1239.66 50.6113 1112.91 177.361 1112.91 333.721C1112.91 490.081 1239.66 616.831 1396.02 616.831C1552.38 616.831 1679.13 490.081 1679.13 333.721C1679.13 177.361 1552.38 50.6113 1396.02 50.6113ZM1396.02 563.871C1268.91 563.871 1165.87 460.831 1165.87 333.721C1165.87 206.611 1268.91 103.571 1396.02 103.571C1523.13 103.571 1626.17 206.611 1626.17 333.721C1626.17 460.831 1523.13 563.871 1396.02 563.871Z" fill="#121212"/>
<path d="M1396.02 619.131C1238.64 619.131 1110.61 491.091 1110.61 333.711C1110.61 176.331 1238.64 48.3008 1396.02 48.3008C1553.4 48.3008 1681.44 176.341 1681.44 333.721C1681.44 491.101 1553.4 619.141 1396.02 619.141V619.131ZM1396.02 52.9108C1241.19 52.9108 1115.22 178.881 1115.22 333.711C1115.22 488.541 1241.19 614.511 1396.02 614.511C1550.85 614.511 1676.82 488.541 1676.82 333.711C1676.82 178.881 1550.85 52.9108 1396.02 52.9108ZM1396.02 566.171C1267.85 566.171 1163.57 461.891 1163.57 333.711C1163.57 205.531 1267.85 101.251 1396.02 101.251C1524.19 101.251 1628.48 205.531 1628.48 333.711C1628.48 461.891 1524.2 566.171 1396.02 566.171ZM1396.02 105.871C1270.39 105.871 1168.18 208.081 1168.18 333.711C1168.18 459.341 1270.39 561.551 1396.02 561.551C1521.65 561.551 1623.86 459.341 1623.86 333.711C1623.86 208.081 1521.65 105.871 1396.02 105.871Z" fill="white"/>
<path d="M1227.54 176.952L1190.07 139.482C1177.26 153.062 1165.78 167.912 1155.83 183.822L1201.58 210.552C1209.2 198.552 1217.9 187.312 1227.54 176.962V176.952Z" fill="#121212"/>
<path d="M1201.58 212.862C1201.18 212.862 1200.78 212.762 1200.42 212.542L1154.67 185.812C1154.13 185.502 1153.74 184.982 1153.59 184.372C1153.44 183.762 1153.54 183.122 1153.87 182.592C1163.86 166.622 1175.47 151.582 1188.39 137.892C1188.82 137.442 1189.41 137.182 1190.04 137.172C1190.67 137.202 1191.27 137.412 1191.71 137.852L1229.18 175.322C1230.06 176.202 1230.08 177.612 1229.24 178.532C1219.67 188.812 1211.02 200.002 1203.54 211.792C1203.1 212.482 1202.35 212.862 1201.59 212.862H1201.58ZM1159.06 183.042L1200.84 207.442C1207.79 196.722 1215.69 186.502 1224.35 177.022L1190.13 142.812C1178.61 155.232 1168.17 168.742 1159.06 183.042Z" fill="white"/>
<path d="M1404.31 50.7422V103.742C1459.33 105.692 1509.43 126.942 1548.04 160.942L1584.45 122.452C1536.32 79.4922 1473.42 52.7322 1404.31 50.7422Z" fill="#121212"/>
<path d="M1548.04 163.242C1547.5 163.242 1546.95 163.052 1546.51 162.672C1507.14 128.002 1456.61 107.892 1404.22 106.042C1402.98 106.002 1401.99 104.982 1401.99 103.732V50.7417C1401.99 50.1217 1402.24 49.5217 1402.69 49.0917C1403.14 48.6517 1403.79 48.4317 1404.36 48.4417C1471.4 50.3717 1535.9 76.0417 1585.97 120.732C1586.43 121.142 1586.71 121.732 1586.74 122.362C1586.77 122.982 1586.54 123.592 1586.11 124.042L1549.7 162.532C1549.25 163.012 1548.64 163.252 1548.02 163.252L1548.04 163.242ZM1406.61 101.512C1458.53 103.852 1508.53 123.752 1547.88 157.742L1581.12 122.592C1532.71 80.1217 1470.91 55.5217 1406.6 53.1217V101.512H1406.61Z" fill="white"/>
<path d="M1560.07 172.322C1600.94 213.862 1626.16 270.842 1626.16 333.712C1626.16 353.612 1623.63 372.922 1618.88 391.342L1669.56 406.862C1675.78 383.532 1679.12 359.012 1679.12 333.722C1679.12 255.692 1647.55 185.032 1596.48 133.822L1560.06 172.322H1560.07Z" fill="white"/>
<path d="M1564.5 490.482L1601.97 527.952C1630.02 498.222 1651.69 462.432 1664.83 422.742L1614.17 407.232C1603.62 438.542 1586.52 466.832 1564.5 490.482Z" fill="white"/>
<path d="M1231.97 495.111C1191.1 453.571 1165.88 396.591 1165.88 333.721C1165.88 294.341 1175.78 257.271 1193.22 224.851L1147.46 198.121C1125.45 238.391 1112.93 284.591 1112.93 333.721C1112.93 411.751 1144.5 482.411 1195.56 533.621L1231.98 495.121L1231.97 495.111Z" fill="white"/>
<path d="M1552.78 502.201C1513.57 538.701 1461.61 561.671 1404.3 563.701V616.701C1476.23 614.631 1541.42 585.741 1590.25 539.671L1552.78 502.201Z" fill="#121212"/>
<path d="M1404.3 619.002C1403.7 619.002 1403.12 618.772 1402.69 618.352C1402.24 617.922 1401.99 617.322 1401.99 616.702V563.702C1401.99 562.462 1402.98 561.442 1404.22 561.392C1458.91 559.452 1511.11 537.832 1551.21 500.502C1552.12 499.662 1553.54 499.682 1554.42 500.562L1591.89 538.032C1592.33 538.472 1592.58 539.072 1592.57 539.702C1592.56 540.332 1592.3 540.922 1591.85 541.352C1540.9 589.422 1474.32 616.992 1404.38 619.012H1404.31L1404.3 619.002ZM1406.61 565.912V614.302C1473.76 611.802 1537.62 585.352 1586.93 539.602L1552.71 505.382C1512.57 542.042 1460.85 563.462 1406.6 565.902L1406.61 565.912Z" fill="white"/>
<path d="M1239.26 165.232C1278.47 128.732 1330.44 105.762 1387.74 103.732V50.7324C1315.81 52.8024 1250.62 81.6924 1201.79 127.762L1239.26 165.232Z" fill="white"/>
<path d="M1387.74 616.702V563.702C1332.72 561.752 1282.62 540.502 1244.01 506.502L1207.6 544.992C1255.73 587.952 1318.63 614.712 1387.74 616.702Z" fill="#121212"/>
<path d="M1387.74 619.002H1387.67C1320.63 617.072 1256.13 591.402 1206.06 546.712C1205.6 546.302 1205.32 545.712 1205.29 545.082C1205.26 544.462 1205.49 543.852 1205.92 543.402L1242.33 504.912C1243.18 504.012 1244.6 503.942 1245.53 504.762C1284.9 539.432 1335.43 559.542 1387.82 561.392C1389.06 561.432 1390.05 562.452 1390.05 563.702V616.702C1390.05 617.322 1389.8 617.922 1389.35 618.352C1388.92 618.772 1388.34 619.002 1387.74 619.002ZM1210.91 544.842C1259.32 587.312 1321.12 611.912 1385.43 614.312V565.922C1333.51 563.582 1283.51 543.682 1244.16 509.692L1210.91 544.842Z" fill="white"/>
<path d="M1396.02 517.381C1372.5 517.381 1349.59 513.001 1327.93 504.351C1326.75 503.881 1326.17 502.531 1326.64 501.351C1327.11 500.171 1328.45 499.591 1329.64 500.061C1350.75 508.491 1373.08 512.761 1396.01 512.761C1474.13 512.761 1542.65 462.831 1566.52 388.511C1566.91 387.301 1568.22 386.641 1569.42 387.021C1570.64 387.411 1571.3 388.711 1570.91 389.921C1546.43 466.161 1476.14 517.381 1396.01 517.381H1396.02Z" fill="white"/>
<path d="M1572.38 293.57C1571.34 293.57 1570.39 292.86 1570.14 291.8C1566.46 276.45 1560.74 261.64 1553.14 247.77C1552.53 246.65 1552.94 245.25 1554.06 244.64C1555.18 244.02 1556.58 244.44 1557.19 245.56C1564.99 259.79 1570.86 274.99 1574.64 290.73C1574.94 291.97 1574.17 293.22 1572.93 293.51C1572.75 293.55 1572.57 293.57 1572.39 293.57H1572.38Z" fill="white"/>
<path d="M1279.42 474.941C1278.9 474.941 1278.37 474.761 1277.94 474.401C1236.26 439.381 1212.35 388.101 1212.35 333.721C1212.35 232.451 1294.74 150.061 1396.02 150.061C1415.13 150.061 1433.96 152.981 1451.99 158.751C1453.2 159.141 1453.87 160.441 1453.48 161.651C1453.09 162.861 1451.8 163.551 1450.58 163.141C1433 157.521 1414.64 154.671 1396.01 154.671C1297.28 154.671 1216.96 234.991 1216.96 333.721C1216.96 386.741 1240.26 436.731 1280.9 470.871C1281.88 471.691 1282 473.151 1281.18 474.121C1280.72 474.661 1280.07 474.941 1279.41 474.941H1279.42Z" fill="white"/>
<path d="M1701.98 1240.01H631.91V1281.8H798.76L668.58 1825.99H696.99L815.53 1334.11L934.07 1825.99H962.49L832.3 1281.8H1701.98V1240.01Z" fill="#121212"/>
<path d="M962.491 1828.3H934.081C933.011 1828.3 932.091 1827.57 931.841 1826.53L815.541 1343.96L699.241 1826.53C698.991 1827.57 698.061 1828.3 697.001 1828.3H668.591C667.881 1828.3 667.211 1827.98 666.781 1827.42C666.351 1826.86 666.181 1826.14 666.351 1825.45L795.851 1284.1H631.931C630.651 1284.1 629.621 1283.07 629.621 1281.79V1240C629.621 1238.72 630.651 1237.69 631.931 1237.69H1702C1703.28 1237.69 1704.31 1238.72 1704.31 1240V1281.79C1704.31 1283.07 1703.28 1284.1 1702 1284.1H835.251L964.751 1825.45C964.911 1826.14 964.751 1826.86 964.321 1827.42C963.891 1827.98 963.221 1828.3 962.511 1828.3H962.491ZM935.891 1823.68H959.561L830.061 1282.33C829.901 1281.64 830.061 1280.92 830.491 1280.36C830.931 1279.81 831.601 1279.48 832.301 1279.48H1699.67V1242.31H634.221V1279.48H798.761C799.471 1279.48 800.131 1279.8 800.571 1280.36C801.011 1280.91 801.171 1281.64 801.001 1282.33L671.501 1823.68H695.171L813.291 1333.56C813.541 1332.52 814.471 1331.79 815.531 1331.79C816.591 1331.79 817.521 1332.52 817.771 1333.56L935.891 1823.68Z" fill="white"/>
<path d="M1435.58 1825.99L1554.12 1334.05L1672.66 1825.99H1701.07L1570.83 1281.49L1537.42 1281.44L1407.16 1825.99H1435.58Z" fill="#121212"/>
<path d="M1701.07 1828.3H1672.66C1671.59 1828.3 1670.67 1827.57 1670.41 1826.53L1554.11 1343.89L1437.81 1826.53C1437.56 1827.57 1436.63 1828.3 1435.56 1828.3H1407.15C1406.44 1828.3 1405.77 1827.98 1405.34 1827.42C1404.91 1826.86 1404.74 1826.14 1404.91 1825.45L1535.16 1280.9C1535.41 1279.86 1536.34 1279.13 1537.41 1279.13L1570.82 1279.18C1571.89 1279.18 1572.81 1279.91 1573.06 1280.95L1703.3 1825.45C1703.46 1826.14 1703.3 1826.86 1702.87 1827.42C1702.44 1827.98 1701.76 1828.3 1701.06 1828.3H1701.07ZM1674.48 1823.68H1698.15L1569.01 1283.79L1539.24 1283.75L1410.09 1823.68H1433.76L1551.88 1333.5C1552.13 1332.46 1553.06 1331.73 1554.13 1331.73C1555.2 1331.73 1556.12 1332.46 1556.37 1333.5L1674.48 1823.68Z" fill="white"/>
<path d="M1425.78 1275.52C1424.5 1275.52 1423.47 1274.49 1423.47 1273.21V1247.43C1423.47 1246.15 1424.5 1245.12 1425.78 1245.12C1427.06 1245.12 1428.09 1246.15 1428.09 1247.43V1273.21C1428.09 1274.49 1427.06 1275.52 1425.78 1275.52Z" fill="#121212"/>
<path d="M1353.87 1719.1L1342.82 1774.14C1342.45 1776 1340.71 1777.26 1339.09 1776.85L1306.78 1768.63C1305.39 1768.28 1304.56 1766.8 1304.87 1765.2L1314.18 1716.01L1353.87 1719.1Z" fill="#121212"/>
<path d="M1339.72 1779.23C1339.32 1779.23 1338.91 1779.18 1338.52 1779.08L1306.21 1770.86C1303.62 1770.2 1302.06 1767.58 1302.6 1764.76L1311.91 1715.57C1312.13 1714.41 1313.25 1713.61 1314.36 1713.7L1354.05 1716.79C1354.71 1716.84 1355.31 1717.17 1355.71 1717.7C1356.11 1718.23 1356.26 1718.9 1356.13 1719.55L1345.08 1774.59C1344.76 1776.18 1343.81 1777.57 1342.47 1778.42C1341.62 1778.96 1340.67 1779.23 1339.72 1779.23ZM1316.06 1718.47L1307.14 1765.62C1307.06 1766.04 1307.21 1766.35 1307.35 1766.39L1339.66 1774.61C1339.8 1774.64 1339.95 1774.55 1340.02 1774.51C1340.29 1774.34 1340.49 1774.03 1340.56 1773.68L1351.1 1721.19L1316.07 1718.46L1316.06 1718.47Z" fill="white"/>
<path d="M1458.01 1671.88L1485.23 1716.62L1454.13 1733.11L1426.13 1693.08L1458.01 1671.88Z" fill="#121212"/>
<path d="M1454.13 1735.42C1453.4 1735.42 1452.68 1735.07 1452.24 1734.43L1424.24 1694.4C1423.88 1693.89 1423.75 1693.26 1423.86 1692.65C1423.97 1692.04 1424.33 1691.5 1424.85 1691.16L1456.73 1669.97C1457.25 1669.63 1457.9 1669.51 1458.51 1669.64C1459.12 1669.78 1459.66 1670.16 1459.98 1670.69L1487.2 1715.44C1487.53 1715.98 1487.62 1716.64 1487.45 1717.25C1487.28 1717.86 1486.87 1718.38 1486.3 1718.68L1455.19 1735.16C1454.85 1735.34 1454.48 1735.43 1454.11 1735.43L1454.13 1735.42ZM1429.38 1693.69L1454.85 1730.12L1481.99 1715.74L1457.29 1675.14L1429.38 1693.7V1693.69Z" fill="white"/>
<path d="M1354.32 1749.95C1356.53 1757.86 1361.19 1780.17 1363.14 1793.59C1364.36 1802.01 1359.04 1809.98 1350.9 1812.18C1327.88 1818.41 1272.85 1818.14 1227.03 1820.16C1223.89 1820.3 1218.11 1818.77 1215.54 1811.16C1206.82 1785.38 1254.98 1777.39 1302.57 1751.18C1303.51 1750.67 1304.64 1750.71 1305.51 1751.33C1306.06 1751.72 1306.75 1752.2 1307.58 1752.72C1315.86 1757.99 1329.62 1758 1338.03 1752.94L1347.53 1747.23C1350.13 1745.66 1353.5 1747.01 1354.32 1749.95Z" fill="#121212"/>
<path d="M1226.63 1822.47C1222.04 1822.47 1216 1819.73 1213.35 1811.9C1206.59 1791.92 1230.07 1781.76 1259.79 1768.89C1272.6 1763.34 1287.11 1757.06 1301.45 1749.16C1303.19 1748.21 1305.25 1748.32 1306.85 1749.46C1307.38 1749.84 1308.04 1750.29 1308.82 1750.78C1316.29 1755.53 1329.12 1755.62 1336.84 1750.97L1346.34 1745.26C1348.2 1744.14 1350.43 1743.96 1352.44 1744.76C1354.46 1745.56 1355.96 1747.23 1356.55 1749.34C1358.85 1757.57 1363.49 1779.9 1365.43 1793.27C1366.82 1802.8 1360.83 1811.9 1351.51 1814.42C1334.13 1819.12 1299.8 1820.15 1263.46 1821.23C1251.37 1821.59 1238.87 1821.96 1227.14 1822.48C1226.98 1822.48 1226.81 1822.49 1226.64 1822.49L1226.63 1822.47ZM1303.93 1753.13C1303.85 1753.13 1303.76 1753.15 1303.68 1753.2C1289.15 1761.2 1274.53 1767.54 1261.63 1773.12C1230.15 1786.75 1212.58 1795.21 1217.73 1810.42C1220.21 1817.76 1225.81 1817.89 1226.93 1817.85C1238.69 1817.33 1251.21 1816.96 1263.31 1816.6C1297.79 1815.57 1333.44 1814.51 1350.29 1809.95C1357.36 1808.04 1361.9 1801.15 1360.85 1793.92C1358.98 1781.07 1354.34 1758.61 1352.1 1750.57C1351.9 1749.86 1351.4 1749.31 1350.73 1749.04C1350.08 1748.78 1349.33 1748.84 1348.72 1749.21L1339.22 1754.92C1330.01 1760.45 1315.27 1760.35 1306.34 1754.67C1305.48 1754.12 1304.74 1753.62 1304.17 1753.2C1304.1 1753.15 1304.02 1753.13 1303.94 1753.13H1303.93Z" fill="white"/>
<path d="M1364.52 1799.66C1364.57 1799.89 1364.6 1800.06 1364.61 1800.13C1365.83 1808.55 1357.84 1813.72 1350.19 1817.31C1327.51 1827.96 1235.91 1821.86 1232.37 1821.61C1232.3 1821.61 1232.25 1821.61 1232.17 1821.61C1231.03 1821.63 1219.4 1821.63 1216.05 1814.4C1215.63 1813.5 1215.38 1812.24 1215.22 1811.06C1214.96 1809.13 1215.1 1807.16 1215.52 1805.26C1215.87 1803.71 1217.4 1802.74 1218.92 1803.13C1235.92 1807.48 1275.8 1810.32 1315.29 1804.55C1329.85 1802.42 1353.12 1795.89 1359.23 1792.24C1360.9 1791.24 1363.03 1792.21 1363.41 1794.13C1363.73 1795.73 1364.11 1797.68 1364.5 1799.67L1364.52 1799.66Z" fill="#121212"/>
<path d="M1289.78 1825.87C1261.41 1825.87 1234.31 1824.06 1232.23 1823.92C1230.79 1823.91 1217.93 1823.9 1213.98 1815.37C1213.52 1814.38 1213.18 1813.03 1212.96 1811.35C1212.68 1809.23 1212.79 1807.01 1213.3 1804.75C1213.6 1803.39 1214.45 1802.2 1215.63 1801.47C1216.81 1800.75 1218.2 1800.54 1219.53 1800.88C1234.26 1804.65 1273.21 1808.36 1314.99 1802.25C1329.22 1800.17 1352.17 1793.78 1358.08 1790.24C1359.5 1789.39 1361.25 1789.29 1362.76 1789.95C1364.28 1790.63 1365.38 1792.01 1365.71 1793.66L1366.8 1799.2L1366.9 1799.75C1368.39 1810.03 1358.65 1815.88 1351.18 1819.38C1340.35 1824.47 1314.58 1825.85 1289.78 1825.85V1825.87ZM1232.17 1819.3C1232.25 1819.3 1232.47 1819.3 1232.53 1819.3C1265.15 1821.52 1331.49 1823.53 1349.22 1815.21C1359.1 1810.58 1363.14 1806.02 1362.33 1800.45L1361.17 1794.56C1361.12 1794.33 1360.98 1794.23 1360.87 1794.18C1360.73 1794.11 1360.58 1794.13 1360.44 1794.21C1354.04 1798.04 1330.59 1804.64 1315.65 1806.82C1277.81 1812.34 1237.28 1810.19 1218.37 1805.35C1218.26 1805.32 1218.14 1805.33 1218.03 1805.4C1217.96 1805.44 1217.84 1805.54 1217.79 1805.74C1217.4 1807.47 1217.31 1809.15 1217.52 1810.73C1217.73 1812.32 1218.01 1813.09 1218.16 1813.41C1220.94 1819.4 1231.68 1819.31 1232.15 1819.29H1232.17V1819.3Z" fill="white"/>
<path d="M1299.3 1774.32C1298.81 1774.32 1298.32 1774.17 1297.9 1773.85L1284 1763.27C1282.99 1762.5 1282.79 1761.05 1283.56 1760.04C1284.33 1759.02 1285.78 1758.83 1286.79 1759.6L1300.69 1770.18C1301.7 1770.95 1301.9 1772.4 1301.13 1773.41C1300.67 1774.01 1299.99 1774.32 1299.29 1774.32H1299.3Z" fill="white"/>
<path d="M1280.84 1781.89C1280.36 1781.89 1279.87 1781.74 1279.46 1781.43L1267.3 1772.31C1266.28 1771.55 1266.08 1770.1 1266.84 1769.08C1267.6 1768.06 1269.05 1767.86 1270.07 1768.62L1282.23 1777.74C1283.25 1778.5 1283.45 1779.95 1282.69 1780.97C1282.24 1781.57 1281.54 1781.89 1280.84 1781.89Z" fill="white"/>
<path d="M1452.09 1723.56L1487.87 1718.38L1508.99 1763.19C1512.1 1769.91 1509.63 1778.62 1503.34 1782.6C1495.15 1787.78 1482.91 1794.54 1468.85 1799.06C1442.34 1807.58 1415.87 1832.03 1393.07 1820.01C1370.27 1807.99 1371.78 1807.1 1370.64 1798.87C1369.5 1790.64 1392.1 1774.43 1407.38 1763.77C1419.86 1755.06 1452.09 1723.55 1452.09 1723.55V1723.56Z" fill="#121212"/>
<path d="M1406.44 1825.56C1401.52 1825.56 1396.69 1824.53 1392 1822.06C1371.25 1811.12 1369.58 1809.01 1368.56 1800.8C1368.5 1800.3 1368.43 1799.76 1368.35 1799.19C1367.2 1790.87 1382.59 1778.25 1406.06 1761.88C1418.25 1753.38 1450.15 1722.22 1450.47 1721.9C1450.82 1721.56 1451.27 1721.34 1451.75 1721.27L1487.53 1716.09C1488.58 1715.93 1489.52 1716.47 1489.95 1717.39L1511.07 1762.2C1514.67 1769.99 1511.75 1780 1504.56 1784.55C1496.58 1789.6 1484.02 1796.6 1469.54 1801.26C1461.35 1803.89 1453 1808.16 1444.92 1812.3C1432.11 1818.85 1418.98 1825.56 1406.43 1825.56H1406.44ZM1453.17 1725.73C1448.76 1730.03 1420.46 1757.46 1408.71 1765.66C1399.61 1772.01 1371.93 1791.32 1372.93 1798.55C1373.01 1799.15 1373.08 1799.7 1373.15 1800.22C1373.88 1806.13 1374.03 1807.36 1394.16 1817.96C1408.71 1825.63 1425.29 1817.15 1442.84 1808.17C1451.08 1803.95 1459.61 1799.6 1468.15 1796.85C1482.16 1792.34 1494.35 1785.55 1502.11 1780.64C1507.41 1777.29 1509.56 1769.89 1506.9 1764.14L1486.51 1720.89L1453.17 1725.72V1725.73Z" fill="white"/>
<path d="M1440.34 1762.48C1439.91 1762.48 1439.47 1762.36 1439.08 1762.11L1422.95 1751.62C1421.88 1750.93 1421.58 1749.5 1422.27 1748.43C1422.96 1747.36 1424.39 1747.05 1425.46 1747.75L1441.59 1758.24C1442.66 1758.93 1442.96 1760.36 1442.27 1761.43C1441.83 1762.11 1441.09 1762.48 1440.33 1762.48H1440.34Z" fill="white"/>
<path d="M1428.87 1774.5C1428.44 1774.5 1428 1774.38 1427.61 1774.13L1411.47 1763.64C1410.4 1762.95 1410.1 1761.52 1410.79 1760.45C1411.48 1759.38 1412.91 1759.07 1413.98 1759.77L1430.12 1770.26C1431.19 1770.95 1431.49 1772.38 1430.8 1773.45C1430.36 1774.13 1429.62 1774.5 1428.86 1774.5H1428.87Z" fill="white"/>
<path d="M1372.2 1805.04C1372.2 1805.04 1390.14 1818.11 1409.88 1811.29C1429.62 1804.47 1508.98 1762.67 1508.98 1762.67L1513.08 1771.65C1515.16 1776.2 1513.38 1781.61 1509 1784.08C1489.23 1795.22 1436.47 1823.6 1409.01 1825.47C1374.79 1827.8 1372.2 1805.04 1372.2 1805.04Z" fill="#121212"/>
<path d="M1404.28 1827.94C1372.87 1827.94 1369.94 1805.54 1369.91 1805.3C1369.81 1804.39 1370.25 1803.51 1371.04 1803.05C1371.83 1802.59 1372.82 1802.64 1373.56 1803.18C1373.73 1803.3 1390.8 1815.44 1409.13 1809.11C1428.48 1802.42 1507.12 1761.05 1507.91 1760.63C1508.47 1760.34 1509.13 1760.28 1509.73 1760.49C1510.33 1760.7 1510.82 1761.14 1511.08 1761.72L1515.18 1770.7C1517.73 1776.3 1515.52 1783.06 1510.13 1786.1C1489 1798 1436.86 1825.89 1409.16 1827.78C1407.46 1827.89 1405.83 1827.95 1404.27 1827.95L1404.28 1827.94ZM1376.34 1810.16C1379.44 1816.1 1387.63 1824.6 1408.85 1823.17C1435.61 1821.35 1487.01 1793.82 1507.87 1782.07C1511.19 1780.2 1512.55 1776.04 1510.99 1772.61L1507.9 1765.85C1494.8 1772.72 1428.73 1807.22 1410.64 1813.47C1396.49 1818.35 1383.42 1813.73 1376.34 1810.16Z" fill="white"/>
<path d="M1428.21 1367.7C1428.21 1367.7 1304.98 1417.82 1259.51 1472.89C1216.07 1525.51 1411.74 1716.63 1411.74 1716.63C1411.99 1717.54 1478.23 1680.1 1478.23 1678.95L1427.49 1568.27C1407.46 1525.1 1367.41 1500.43 1383.75 1485.26C1398.62 1471.46 1481.25 1478.59 1523.66 1477.11C1599.01 1474.49 1598.29 1364.65 1598.29 1364.65L1428.21 1367.71V1367.7Z" fill="white"/>
<path d="M1323.23 1504.14C1312.59 1543.93 1302.48 1663.64 1300.15 1730.59C1300.12 1731.51 1367.96 1732.16 1368.1 1730.95C1368.78 1725.06 1418.93 1543.77 1446.94 1495.83C1461.82 1470.37 1557.79 1477.66 1579.2 1473.41C1636.36 1462.06 1632.61 1346.66 1632.61 1346.66L1365 1453.53C1342.12 1457.01 1329.26 1481.58 1323.23 1504.13V1504.14Z" fill="white"/>
<path d="M1379.37 1685.38C1378.69 1685.38 1378.02 1685.08 1377.56 1684.51L1323.9 1617.39C1323.1 1616.4 1323.27 1614.94 1324.26 1614.15C1325.25 1613.35 1326.71 1613.52 1327.5 1614.51L1381.16 1681.63C1381.96 1682.62 1381.79 1684.08 1380.8 1684.87C1380.38 1685.21 1379.87 1685.37 1379.36 1685.37L1379.37 1685.38Z" fill="#121212"/>
<path d="M1649.75 1163.92C1649.75 1163.92 1647.46 1071.85 1593.32 1053.97C1588.72 1052.45 1583.9 1051.7 1579.06 1051.52L1531.29 1049.72C1517.11 1049.61 1505.37 1053.03 1490.2 1058.58C1477.52 1063.22 1463.4 1071.87 1455.16 1079.35C1418.83 1112.35 1418.46 1223.15 1387.04 1220.54C1376.49 1219.66 1358.84 1202.04 1341.36 1180.47C1327.36 1163.2 1303.25 1142.01 1303.25 1142.01L1261.26 1163.2C1271.24 1180.13 1280.24 1197.66 1287.59 1215.9C1302.95 1254.01 1328.16 1286.01 1359.74 1313.33C1370.25 1322.42 1385.11 1324.28 1397.52 1318.09C1417.66 1308.05 1447.83 1291.88 1466.58 1276.61C1473.48 1300.44 1467.33 1326.43 1450.34 1344.8C1445.24 1350.31 1439.72 1355.37 1433.9 1359.5C1428.18 1363.57 1426.82 1371.6 1430.75 1377.44C1437.08 1386.86 1449.72 1397.69 1473.86 1395.15C1505.57 1391.82 1595.85 1392.18 1635.72 1392.52C1646.3 1392.61 1654.84 1383.85 1654.59 1373.17L1649.75 1163.89V1163.92Z" fill="#121212"/>
<path d="M1466.88 1397.86C1446.28 1397.86 1434.89 1387.76 1428.84 1378.75C1424.21 1371.86 1425.88 1362.39 1432.57 1357.64C1437.93 1353.84 1443.34 1349 1448.65 1343.25C1464.21 1326.42 1470.42 1302.72 1465.25 1280.64C1446.61 1295.1 1418.96 1310 1398.56 1320.17C1385.28 1326.79 1369.46 1324.79 1358.24 1315.08C1324.46 1285.85 1299.97 1252.77 1285.46 1216.77C1278.61 1199.78 1270.05 1182.64 1259.28 1164.37C1258.96 1163.82 1258.87 1163.16 1259.05 1162.55C1259.23 1161.94 1259.66 1161.43 1260.23 1161.14L1302.22 1139.95C1303.06 1139.53 1304.08 1139.65 1304.78 1140.28C1305.02 1140.49 1329.2 1161.8 1343.16 1179.02C1363.09 1203.6 1378.74 1217.53 1387.24 1218.24C1401.69 1219.35 1409.63 1190.04 1418.07 1158.91C1426.32 1128.46 1435.68 1093.95 1453.61 1077.65C1462.58 1069.5 1476.96 1060.97 1489.41 1056.41C1505.22 1050.62 1517.08 1047.22 1531.31 1047.41L1579.15 1049.21C1584.47 1049.41 1589.48 1050.27 1594.05 1051.78C1649.1 1069.96 1651.97 1160.04 1652.07 1163.86L1656.91 1373.14C1657.04 1378.97 1654.87 1384.46 1650.8 1388.6C1646.78 1392.68 1641.45 1394.89 1635.71 1394.85C1597.72 1394.53 1505.91 1394.13 1474.11 1397.47C1471.59 1397.74 1469.18 1397.86 1466.89 1397.86H1466.88ZM1466.58 1274.32C1466.81 1274.32 1467.04 1274.35 1467.27 1274.43C1468.01 1274.66 1468.58 1275.25 1468.8 1275.99C1475.91 1300.55 1469.49 1327.52 1452.04 1346.39C1446.51 1352.37 1440.86 1357.42 1435.25 1361.41C1430.58 1364.73 1429.43 1371.35 1432.68 1376.19C1438.7 1385.14 1450.7 1395.29 1473.63 1392.89C1505.66 1389.52 1597.67 1389.92 1635.75 1390.25C1640.22 1390.23 1644.38 1388.55 1647.51 1385.37C1650.7 1382.13 1652.4 1377.83 1652.29 1373.26L1647.45 1163.98C1647.43 1162.98 1644.54 1073.32 1592.6 1056.17C1588.45 1054.8 1583.87 1054.02 1578.97 1053.83L1531.2 1052.03C1530.98 1052.03 1530.76 1052.03 1530.55 1052.03C1517.38 1052.03 1506.42 1055.11 1491 1060.76C1479.25 1065.06 1465.15 1073.41 1456.72 1081.08C1439.78 1096.47 1430.61 1130.29 1422.53 1160.13C1413.18 1194.6 1405.15 1224.39 1386.86 1222.86C1376.81 1222.02 1360.9 1208.26 1339.57 1181.95C1327.59 1167.17 1307.86 1149.25 1302.89 1144.8L1264.49 1164.18C1274.8 1181.85 1283.06 1198.52 1289.73 1215.07C1303.97 1250.39 1328.03 1282.88 1361.25 1311.62C1371.05 1320.1 1384.88 1321.85 1396.49 1316.07C1417.72 1305.48 1446.87 1289.74 1465.12 1274.87C1465.54 1274.53 1466.05 1274.35 1466.58 1274.35V1274.32Z" fill="white"/>
<path d="M1465.96 1279.43C1465.27 1279.43 1464.6 1279.13 1464.14 1278.55C1463.35 1277.54 1463.53 1276.1 1464.53 1275.31C1469.93 1271.08 1486.36 1255.83 1494.96 1243.21C1495.68 1242.16 1497.11 1241.89 1498.17 1242.6C1499.22 1243.32 1499.5 1244.75 1498.78 1245.81C1489.89 1258.85 1472.95 1274.58 1467.38 1278.94C1466.96 1279.27 1466.46 1279.43 1465.96 1279.43Z" fill="white"/>
<path d="M1298.01 1143.19L1291.59 1108.45C1291.59 1108.45 1286.34 1081.96 1279.92 1078.42C1275.2 1075.82 1272.06 1085.65 1273.05 1098.07C1273.21 1100.13 1270.41 1100.87 1269.56 1098.99C1266.21 1091.6 1262.72 1082.93 1262.42 1078.42C1261.84 1069.59 1260.09 1051.34 1251.92 1053.1C1243.75 1054.87 1229.17 1083.13 1240.25 1107.26C1251.33 1131.4 1277 1153.77 1277 1153.77L1298 1143.17L1298.01 1143.19Z" fill="#121212"/>
<path d="M1277.01 1156.1C1276.46 1156.1 1275.92 1155.91 1275.49 1155.53C1274.43 1154.6 1249.32 1132.55 1238.16 1108.24C1230.82 1092.24 1234.22 1074.5 1239.85 1063.24C1243.32 1056.31 1247.65 1051.68 1251.43 1050.86C1253.5 1050.42 1255.47 1050.85 1257.15 1052.11C1261.34 1055.27 1263.75 1063.58 1264.72 1078.28C1264.92 1081.34 1266.99 1087.46 1270.59 1095.66C1270.32 1088.02 1271.5 1079.26 1275.73 1076.52C1277.36 1075.47 1279.23 1075.43 1281.02 1076.41C1288.02 1080.26 1292.92 1103.41 1293.83 1108.01L1300.25 1142.77C1300.44 1143.78 1299.93 1144.79 1299.02 1145.25L1278.02 1155.85C1277.69 1156.02 1277.33 1156.1 1276.98 1156.1H1277.01ZM1253.02 1055.3C1252.83 1055.3 1252.63 1055.32 1252.42 1055.37C1250.55 1055.77 1247.11 1059.06 1243.99 1065.3C1238.84 1075.61 1235.7 1091.8 1242.36 1106.31C1251.79 1126.85 1272.31 1146.38 1277.38 1151.01L1295.43 1141.9L1289.33 1108.86C1287.24 1098.32 1282.59 1082.51 1278.82 1080.44C1278.48 1080.25 1278.39 1080.3 1278.26 1080.38C1276.55 1081.49 1274.59 1088.19 1275.36 1097.88C1275.52 1099.94 1274.25 1101.73 1272.26 1102.24C1270.29 1102.75 1268.31 1101.81 1267.47 1099.94C1262.86 1089.77 1260.39 1082.58 1260.13 1078.57C1259.07 1062.52 1256.42 1057.32 1254.39 1055.79C1253.94 1055.45 1253.51 1055.29 1253.02 1055.29V1055.3Z" fill="white"/>
<path d="M1514.43 1063.9C1513.1 1063.66 1512.77 1061.85 1513.95 1061.17C1517.93 1058.87 1523.56 1054.69 1523.21 1049.65L1524.07 1030.17C1524.01 1027.79 1522.45 1025.73 1520.19 1025.04L1506.18 1020.78C1504.02 1020.12 1502.56 1018.09 1502.61 1015.82L1503.05 995.161L1496.25 989.671C1495.72 989.241 1495.63 988.461 1496.04 987.921L1505.86 974.961C1509.04 970.081 1511.96 958.621 1514.77 959.271C1514.77 959.271 1572.82 950.121 1577.49 978.971C1578.2 983.381 1577.13 987.891 1574.69 991.621L1569.78 999.151C1564.85 1006.72 1562.46 1015.83 1563.77 1024.79C1564.18 1027.61 1570.75 1053.52 1570.75 1053.52C1570.75 1053.52 1582.4 1058.8 1589.52 1060.77C1591.06 1061.2 1591.14 1063.36 1589.64 1063.91L1576.62 1067.02C1563.6 1070.08 1550.1 1070.42 1536.95 1068.01L1514.45 1063.89L1514.43 1063.9Z" fill="#121212"/>
<path d="M1554.41 1071.93C1548.44 1071.93 1542.47 1071.39 1536.52 1070.3L1514.02 1066.18C1512.45 1065.89 1511.25 1064.68 1510.97 1063.1C1510.7 1061.52 1511.41 1059.99 1512.78 1059.19C1518.14 1056.09 1521.09 1052.68 1520.89 1049.82C1520.89 1049.73 1520.89 1049.65 1520.89 1049.56L1521.74 1030.08C1521.7 1028.85 1520.8 1027.66 1519.5 1027.26L1505.49 1023C1502.35 1022.04 1500.21 1019.07 1500.28 1015.78L1500.69 996.25L1494.78 991.47C1493.27 990.25 1493 988.08 1494.18 986.53L1504 973.57C1505 972.03 1506.13 969.33 1507.22 966.71C1509.56 961.12 1511.45 956.64 1514.74 956.94C1520.19 956.13 1574.9 948.74 1579.74 978.6C1580.53 983.49 1579.42 988.56 1576.6 992.88L1571.69 1000.41C1566.86 1007.82 1564.85 1016.36 1566.03 1024.46C1566.31 1026.37 1570.06 1041.5 1572.69 1051.87C1575.65 1053.18 1584.44 1056.98 1590.11 1058.55C1591.77 1059.01 1592.93 1060.48 1593 1062.2C1593.07 1063.93 1592.03 1065.49 1590.41 1066.08C1590.33 1066.11 1590.24 1066.14 1590.15 1066.16L1577.13 1069.27C1569.61 1071.04 1562.01 1071.92 1554.4 1071.92L1554.41 1071.93ZM1516.98 1062.03L1537.35 1065.76C1550.26 1068.12 1563.29 1067.8 1576.08 1064.79L1586.52 1062.29C1579.42 1059.99 1570.22 1055.83 1569.78 1055.64C1569.14 1055.35 1568.67 1054.78 1568.5 1054.1C1567.83 1051.44 1561.9 1027.99 1561.48 1025.14C1560.13 1015.93 1562.39 1006.25 1567.84 997.9L1572.75 990.37C1574.94 987.01 1575.81 983.1 1575.2 979.35C1570.95 953.08 1515.68 961.48 1515.12 961.57C1515.05 961.58 1514.97 961.59 1514.89 961.59C1513.98 962.55 1512.5 966.1 1511.5 968.5C1510.33 971.31 1509.11 974.21 1507.79 976.24L1498.49 988.53L1504.5 993.38C1505.06 993.83 1505.37 994.51 1505.36 995.23L1504.92 1015.89C1504.89 1017.13 1505.69 1018.24 1506.86 1018.6L1520.87 1022.86C1524.08 1023.84 1526.3 1026.76 1526.38 1030.14L1525.53 1049.66C1525.81 1054.93 1521.41 1059.16 1516.99 1062.05L1516.98 1062.03Z" fill="white"/>
<path d="M1510.89 914.411C1524.3 913.161 1507.89 927.631 1557.06 911.321C1576.64 904.831 1567.43 928.361 1572.52 926.681C1591.3 920.511 1590.65 920.701 1599.99 922.811C1606.18 924.211 1610.56 935.411 1609.7 943.931C1608.56 955.171 1596.7 973.441 1586.19 992.661C1580.75 1002.61 1570.43 1003.93 1557.29 990.011C1555.89 988.531 1562.33 979.181 1558.6 975.431C1548.93 965.671 1545.46 981.181 1537.8 976.761C1530.44 972.521 1527.36 969.701 1519.5 963.151C1509.99 955.221 1495.15 968.811 1489.05 950.321C1485.87 940.671 1492.54 916.131 1510.89 914.411Z" fill="white"/>
<path d="M1640.87 1774.33H1560.47V1481.72H1518.48V1774.33H1438.08C1412.44 1774.33 1391.66 1795.11 1391.66 1820.75V1827.69H1687.29V1820.75C1687.29 1795.11 1666.51 1774.33 1640.87 1774.33Z" fill="#121212"/>
<path d="M1687.29 1830H1391.66C1390.38 1830 1389.35 1828.97 1389.35 1827.69V1820.75C1389.35 1793.88 1411.21 1772.02 1438.08 1772.02H1516.17V1481.71C1516.17 1480.43 1517.2 1479.4 1518.48 1479.4H1560.47C1561.75 1479.4 1562.78 1480.43 1562.78 1481.71V1772.02H1640.87C1667.74 1772.02 1689.6 1793.88 1689.6 1820.75V1827.69C1689.6 1828.97 1688.57 1830 1687.29 1830ZM1393.97 1825.38H1684.98V1820.75C1684.98 1796.43 1665.19 1776.64 1640.87 1776.64H1560.47C1559.19 1776.64 1558.16 1775.61 1558.16 1774.33V1484.02H1520.78V1774.33C1520.78 1775.61 1519.75 1776.64 1518.47 1776.64H1438.07C1413.75 1776.64 1393.96 1796.43 1393.96 1820.75V1825.38H1393.97Z" fill="white"/>
<path d="M1664.86 1170.47H1643.73C1587.4 1170.47 1538.67 1210.06 1526.63 1265.61L1502.04 1379.06C1496.29 1405.61 1473 1424.53 1446.07 1424.53H1401.66C1378.45 1424.53 1359.63 1443.53 1359.63 1466.96C1359.63 1490.39 1378.45 1509.39 1401.66 1509.39H1473.79L1473.75 1509.59H1600.65C1645.06 1509.59 1683.48 1478.37 1692.97 1434.58L1731.96 1254.65C1741.33 1211.4 1708.7 1170.47 1664.84 1170.47H1664.86Z" fill="#121212"/>
<path d="M1600.67 1511.89H1473.77C1473.45 1511.89 1473.13 1511.82 1472.84 1511.69H1401.68C1377.23 1511.69 1357.34 1491.62 1357.34 1466.95C1357.34 1442.28 1377.23 1422.21 1401.68 1422.21H1446.09C1471.73 1422.21 1494.32 1403.85 1499.8 1378.56L1524.39 1265.11C1536.57 1208.93 1586.76 1168.15 1643.75 1168.15H1664.88C1686.34 1168.15 1706.42 1177.78 1719.96 1194.57C1733.7 1211.6 1738.91 1233.67 1734.26 1255.12L1695.27 1435.05C1685.62 1479.57 1645.84 1511.88 1600.69 1511.88L1600.67 1511.89ZM1474.74 1507.27H1600.67C1643.67 1507.27 1681.55 1476.49 1690.74 1434.08L1729.73 1254.15C1734.08 1234.07 1729.2 1213.41 1716.35 1197.48C1703.69 1181.78 1684.92 1172.77 1664.87 1172.77H1643.74C1588.91 1172.77 1540.61 1212.02 1528.9 1266.09L1504.31 1379.54C1498.37 1406.94 1473.89 1426.83 1446.09 1426.83H1401.68C1379.78 1426.83 1361.95 1444.83 1361.95 1466.95C1361.95 1489.07 1379.77 1507.07 1401.68 1507.07H1473.81C1474.13 1507.07 1474.45 1507.14 1474.74 1507.27Z" fill="white"/>
<path d="M1077.73 1455.71C1064.52 1516.21 1116.9 1681.72 1127.88 1722.06C1129.32 1727.34 1134.15 1731.01 1139.66 1731.01H1188.46C1195.25 1731.01 1200.73 1725.53 1200.67 1718.79C1200.22 1670.94 1191.52 1496.46 1221.36 1446.23C1238.63 1417.15 1270.27 1404.04 1291.43 1390.2C1342.21 1356.98 1323.09 1283.44 1323.09 1283.44L1131.3 1397.28C1104.74 1401.26 1083.42 1429.66 1077.73 1455.72V1455.71Z" fill="white"/>
<path d="M1150.47 1302.45C1150.47 1302.45 983.052 1303.95 930.262 1366.85C882.812 1423.38 953.152 1672.26 967.882 1722.07C969.412 1727.23 974.172 1730.77 979.592 1730.77H1042.49C1043.81 1730.77 1044.89 1729.7 1044.89 1728.39V1464.69C1044.89 1448.07 1048.15 1456.98 1062.21 1447.98C1081.92 1435.36 1117.68 1446.08 1166.95 1446.44C1323.42 1447.6 1298.21 1300.3 1298.21 1300.3L1150.47 1302.46V1302.45Z" fill="white"/>
<path d="M1188.89 1731.24L1192.18 1773.95L1153.07 1774.15L1144.99 1731.54L1188.89 1731.24Z" fill="#121212"/>
<path d="M1153.07 1776.46C1151.96 1776.46 1151.01 1775.67 1150.8 1774.58L1142.72 1731.97C1142.59 1731.3 1142.77 1730.6 1143.2 1730.07C1143.63 1729.54 1144.28 1729.23 1144.97 1729.23L1188.88 1728.93H1188.9C1190.11 1728.93 1191.11 1729.86 1191.2 1731.06L1194.48 1773.77C1194.53 1774.41 1194.31 1775.04 1193.88 1775.51C1193.44 1775.98 1192.84 1776.25 1192.19 1776.25L1153.08 1776.45H1153.07V1776.46ZM1147.77 1733.84L1154.98 1771.84L1189.69 1771.66L1186.76 1733.57L1147.77 1733.84Z" fill="white"/>
<path d="M1034.26 1731.24L1033.66 1773.95L993.342 1774.15L986.172 1731.54L1034.26 1731.24Z" fill="#121212"/>
<path d="M993.341 1776.46C992.211 1776.46 991.251 1775.65 991.061 1774.54L983.891 1731.93C983.781 1731.26 983.961 1730.58 984.401 1730.06C984.831 1729.54 985.481 1729.24 986.151 1729.24L1034.24 1728.94C1034.88 1728.9 1035.46 1729.18 1035.89 1729.62C1036.33 1730.06 1036.57 1730.66 1036.56 1731.28L1035.96 1773.99C1035.94 1775.25 1034.92 1776.26 1033.66 1776.27L993.341 1776.47H993.331L993.341 1776.46ZM988.901 1733.84L995.291 1771.84L1031.38 1771.66L1031.91 1733.57L988.891 1733.84H988.901Z" fill="white"/>
<path d="M993.922 1768.7H1031.42C1034.08 1768.7 1036.48 1770.28 1037.49 1772.73C1040.82 1780.76 1047.59 1799.53 1046.68 1817.33C1046.43 1822.19 1042.36 1826 1037.45 1826H927.402C922.342 1826 918.492 1821.41 919.512 1816.49C920.722 1810.59 924.912 1802.84 936.982 1795.87C956.522 1784.58 981.072 1773.3 988.812 1769.81C990.422 1769.09 992.152 1768.71 993.922 1768.71V1768.7Z" fill="#121212"/>
<path d="M1037.45 1828.3H927.401C924.261 1828.3 921.311 1826.91 919.331 1824.47C917.391 1822.09 916.631 1819 917.241 1816.01C918.461 1810.1 922.671 1801.45 935.811 1793.85C955.591 1782.42 980.641 1770.93 987.851 1767.68C989.761 1766.81 991.801 1766.37 993.911 1766.37H1031.41C1035.02 1766.37 1038.24 1768.51 1039.61 1771.82C1042.74 1779.38 1049.92 1798.95 1048.97 1817.42C1048.66 1823.51 1043.59 1828.28 1037.44 1828.28L1037.45 1828.3ZM993.921 1771C992.481 1771 991.081 1771.3 989.761 1771.89C982.601 1775.12 957.731 1786.53 938.131 1797.85C928.901 1803.18 923.251 1809.78 921.771 1816.94C921.431 1818.57 921.851 1820.25 922.911 1821.55C924.011 1822.9 925.651 1823.67 927.401 1823.67H1037.45C1041.14 1823.67 1044.18 1820.82 1044.37 1817.19C1045.27 1799.66 1038.37 1780.86 1035.36 1773.59C1034.71 1772.01 1033.16 1770.99 1031.42 1770.99H993.921V1771Z" fill="white"/>
<path d="M1154.41 1768.7H1191.91C1194.57 1768.7 1196.97 1770.28 1197.98 1772.73C1201.31 1780.76 1208.08 1799.53 1207.17 1817.33C1206.92 1822.19 1202.85 1826 1197.94 1826H1087.89C1082.83 1826 1078.98 1821.41 1080 1816.49C1081.21 1810.59 1085.4 1802.84 1097.47 1795.87C1117.01 1784.58 1141.56 1773.3 1149.3 1769.81C1150.91 1769.09 1152.64 1768.71 1154.41 1768.71V1768.7Z" fill="#121212"/>
<path d="M1197.94 1828.3H1087.89C1084.75 1828.3 1081.8 1826.91 1079.82 1824.47C1077.88 1822.09 1077.12 1819 1077.73 1816.01C1078.95 1810.09 1083.16 1801.45 1096.3 1793.85C1116.08 1782.42 1141.13 1770.93 1148.34 1767.68C1150.25 1766.81 1152.29 1766.37 1154.39 1766.37H1191.89C1195.5 1766.37 1198.72 1768.51 1200.09 1771.82C1203.22 1779.37 1210.4 1798.94 1209.45 1817.42C1209.14 1823.51 1204.07 1828.28 1197.92 1828.28L1197.94 1828.3ZM1154.41 1771C1152.97 1771 1151.57 1771.3 1150.26 1771.89C1143.1 1775.12 1118.23 1786.53 1098.63 1797.85C1089.4 1803.18 1083.74 1809.78 1082.27 1816.94C1081.93 1818.57 1082.35 1820.25 1083.41 1821.55C1084.51 1822.9 1086.15 1823.67 1087.9 1823.67H1197.95C1201.64 1823.67 1204.68 1820.82 1204.87 1817.19C1205.77 1799.65 1198.86 1780.86 1195.85 1773.59C1195.2 1772.01 1193.65 1770.99 1191.91 1770.99H1154.41V1771Z" fill="white"/>
<path d="M995.942 1220.29L976.102 1212.88C967.692 1209.74 958.472 1209.84 950.162 1213.25C939.782 1217.5 925.702 1224.39 916.052 1233.52C913.632 1235.81 915.122 1240.01 918.382 1240.01H995.022L995.942 1220.29Z" fill="#121212"/>
<path d="M995.012 1242.32H918.372C915.962 1242.32 913.892 1240.9 912.982 1238.61C912.042 1236.24 912.612 1233.58 914.452 1231.84C924.412 1222.42 938.882 1215.37 949.272 1211.11C958.092 1207.5 967.912 1207.36 976.902 1210.72L996.742 1218.13C997.682 1218.48 998.292 1219.4 998.242 1220.4L997.322 1240.12C997.262 1241.35 996.252 1242.32 995.012 1242.32ZM963.562 1212.92C959.292 1212.92 955.042 1213.74 951.022 1215.39C940.992 1219.5 927.062 1226.27 917.622 1235.2C917.062 1235.73 917.072 1236.43 917.262 1236.91C917.382 1237.21 917.682 1237.71 918.362 1237.71H992.802L993.542 1221.87L975.282 1215.05C971.482 1213.63 967.512 1212.92 963.562 1212.92Z" fill="white"/>
<path d="M1333.7 1132.01C1333.7 1132.01 1335.84 1055.09 1282.78 1045.8C1282.81 1045.73 1282.84 1045.65 1282.86 1045.57L1226.66 1042.39C1226.66 1042.39 1190.54 1037.39 1157.27 1066.03C1127.26 1091.86 1120.66 1158.11 1101.47 1174.97C1084.83 1189.59 1013.2 1208.59 994.434 1213.39C991.774 1214.07 989.924 1216.46 989.934 1219.19L989.994 1237.36H1103.57C1119.42 1237.36 1134.57 1230.96 1145.58 1219.63C1152.21 1212.8 1160.38 1204.42 1169.39 1194.97C1169.28 1200.81 1169.92 1210.48 1174.04 1221.25C1182.34 1242.97 1178.38 1267.58 1162.48 1284.63C1155.81 1291.78 1148.27 1298.2 1140.29 1302.06C1140.29 1302.06 1145.37 1326.07 1182.37 1327.71C1197.41 1328.38 1237.14 1329.81 1266.69 1328.14C1307.04 1325.85 1336.82 1318.42 1336.82 1318.42L1333.7 1132.01Z" fill="#121212"/>
<path d="M1234.24 1331.23C1211.79 1331.23 1190.36 1330.38 1182.27 1330.02C1143.93 1328.32 1138.26 1303.59 1138.04 1302.54C1137.82 1301.5 1138.34 1300.45 1139.3 1299.98C1146.21 1296.64 1153.44 1290.95 1160.8 1283.06C1175.85 1266.93 1180.1 1243.56 1171.89 1222.08C1168.8 1213.99 1167.59 1206.51 1167.22 1200.59C1160.39 1207.71 1154.14 1214.14 1148.79 1219.65L1147.24 1221.24C1135.87 1232.95 1119.95 1239.67 1103.58 1239.67H990.003C988.733 1239.67 987.703 1238.64 987.693 1237.37L987.633 1219.2C987.623 1215.4 990.183 1212.1 993.863 1211.16C1036.77 1200.19 1087.17 1184.46 1099.94 1173.24C1107.99 1166.17 1114.08 1148.84 1120.52 1130.5C1128.99 1106.39 1138.58 1079.07 1155.76 1064.28C1189.44 1035.29 1225.46 1039.89 1226.97 1040.11L1282.99 1043.27C1283.45 1043.29 1283.88 1043.45 1284.24 1043.72C1336.93 1053.94 1336.06 1129.47 1336.01 1132.01L1339.13 1318.38C1339.15 1319.45 1338.42 1320.4 1337.38 1320.66C1337.08 1320.73 1306.92 1328.17 1266.82 1330.44C1256.7 1331.01 1245.34 1331.22 1234.24 1331.22V1331.23ZM1143.06 1303.25C1144.96 1308.48 1153.08 1324.11 1182.47 1325.41C1194.52 1325.94 1236.18 1327.55 1266.56 1325.84C1300.69 1323.9 1327.5 1318.2 1334.49 1316.6L1331.4 1132.05V1131.95C1331.42 1131.2 1332.86 1056.91 1282.39 1048.08C1282.14 1048.03 1281.89 1047.95 1281.67 1047.82L1226.54 1044.7C1226.01 1044.63 1190.81 1040.21 1158.78 1067.78C1142.54 1081.76 1133.16 1108.47 1124.88 1132.03C1117.95 1151.78 1111.96 1168.83 1103 1176.7C1086.15 1191.5 1016.09 1210.23 995.013 1215.62C993.383 1216.04 992.243 1217.5 992.253 1219.18L992.303 1235.04H1103.58C1118.71 1235.04 1133.42 1228.83 1143.93 1218.01L1145.48 1216.42C1151.81 1209.9 1159.41 1202.08 1167.73 1193.37C1168.39 1192.68 1169.4 1192.46 1170.28 1192.83C1171.16 1193.19 1171.73 1194.06 1171.71 1195.01C1171.6 1200.94 1172.29 1210.16 1176.21 1220.43C1185.05 1243.57 1180.44 1268.77 1164.18 1286.2C1157.04 1293.86 1149.95 1299.58 1143.07 1303.24L1143.06 1303.25Z" fill="white"/>
<path d="M1166.94 1203.81C1166.38 1203.81 1165.81 1203.6 1165.37 1203.19C1164.44 1202.32 1164.38 1200.86 1165.25 1199.93C1179.95 1184.11 1191.34 1165.87 1199.11 1145.73C1199.57 1144.54 1200.91 1143.94 1202.09 1144.41C1203.28 1144.87 1203.87 1146.2 1203.41 1147.39C1195.43 1168.09 1183.73 1186.82 1168.63 1203.08C1168.17 1203.57 1167.56 1203.82 1166.94 1203.82V1203.81Z" fill="white"/>
<path d="M1193.16 945.039C1193.16 945.039 1191.05 963.83 1181.63 974.27C1180.91 975.07 1180.75 976.22 1181.3 977.15L1185.18 983.64C1185.52 984.2 1185.79 984.8 1186 985.42L1192.45 1004.37C1193.04 1006.1 1194.6 1007.34 1196.43 1007.49C1200.46 1007.82 1210.68 1006.26 1211.52 1008.95C1212.45 1011.96 1211.73 1036.3 1211.37 1046.89C1211.27 1049.71 1213.25 1052.16 1216.02 1052.67L1237.83 1056.69C1247.66 1058.5 1257.77 1057.3 1266.84 1053.3C1269.78 1052 1271.1 1048.55 1269.73 1045.64C1264.74 1034.98 1253.82 1009.54 1255.27 993.969L1264.97 966.84C1264.73 953.84 1253.87 943.519 1240.78 943.849L1193.15 945.039H1193.16Z" fill="#121212"/>
<path d="M1246.89 1059.83C1243.74 1059.83 1240.58 1059.54 1237.43 1058.96L1215.62 1054.94C1211.69 1054.21 1208.94 1050.79 1209.08 1046.81C1209.88 1023.28 1209.77 1012.47 1209.4 1010.01C1208.02 1009.5 1203.75 1009.67 1201.39 1009.76C1199.44 1009.84 1197.6 1009.91 1196.26 1009.8C1193.52 1009.57 1191.17 1007.74 1190.28 1005.12L1183.84 986.17C1183.68 985.7 1183.47 985.25 1183.22 984.83L1179.33 978.34C1178.27 976.56 1178.51 974.31 1179.93 972.73C1188.75 962.95 1190.86 944.97 1190.88 944.79C1191.01 943.64 1191.96 942.77 1193.12 942.74L1240.75 941.55C1247.83 941.39 1254.35 943.93 1259.38 948.75C1264.36 953.52 1267.18 959.94 1267.31 966.81C1267.31 967.09 1267.27 967.37 1267.17 967.63L1257.57 994.48C1256.33 1009.58 1267.13 1034.58 1271.85 1044.68C1272.77 1046.65 1272.86 1048.85 1272.09 1050.89C1271.32 1052.94 1269.8 1054.55 1267.79 1055.43C1261.14 1058.36 1254.05 1059.84 1246.89 1059.84V1059.83ZM1205.52 1005.02C1209.68 1005.02 1212.9 1005.56 1213.74 1008.26C1214.5 1010.72 1214.48 1023.74 1213.69 1046.96C1213.63 1048.64 1214.8 1050.09 1216.46 1050.39L1238.27 1054.41C1247.64 1056.14 1257.2 1055.02 1265.93 1051.18C1266.79 1050.8 1267.44 1050.11 1267.77 1049.24C1268.09 1048.38 1268.06 1047.44 1267.67 1046.61C1262.76 1036.11 1251.5 1009.95 1253 993.75C1253.02 993.56 1253.06 993.37 1253.13 993.18L1262.68 966.46C1262.47 960.98 1260.18 955.88 1256.19 952.06C1252.06 948.1 1246.59 946 1240.87 946.14L1195.19 947.28C1194.35 952.55 1191.42 966.87 1183.36 975.8L1187.18 982.43C1187.59 983.12 1187.94 983.87 1188.21 984.65L1194.65 1003.61C1194.95 1004.48 1195.73 1005.1 1196.64 1005.17C1197.7 1005.26 1199.41 1005.19 1201.21 1005.12C1202.71 1005.06 1204.17 1005 1205.52 1005V1005.02Z" fill="white"/>
<path d="M1188.75 938.39C1186.81 941.35 1187.98 945.34 1191.21 946.82L1193.16 947.71L1230.58 966.15C1231.53 966.62 1232.67 966.56 1233.53 965.94C1235.08 964.82 1237.87 963.44 1240.65 965.21C1244.54 967.69 1245.33 980.94 1235.33 984.46C1234.01 984.92 1233.29 986.32 1233.82 987.6C1234.4 988.99 1235.25 990.84 1236.42 992.85C1245.24 1008.01 1267.04 1008.92 1277.55 994.85C1285.29 984.49 1292.39 967.45 1283.66 944.15C1269.97 907.61 1214.04 899.75 1188.75 938.39Z" fill="white"/>
<path d="M1279.87 929.91C1279.87 929.91 1296.2 910.53 1320.09 918.05C1343.98 925.56 1345.2 966 1347.97 991.2C1357.73 1079.97 1379.4 1112.29 1386.4 1120.31C1394.17 1129.21 1333.1 1123.17 1312.53 1116.16C1253.23 1095.95 1284.45 1038.85 1287.24 1028.57C1290.03 1018.29 1312.13 960.75 1284.65 954.03L1270.71 942.17L1279.87 929.91Z" fill="white"/>
<path d="M1287.39 957.63L1287.1 957.74C1284.5 958.69 1281.61 957.36 1280.66 954.78L1273.38 935.1C1272.42 932.52 1273.76 929.65 1276.36 928.7L1276.65 928.59C1279.25 927.64 1282.14 928.97 1283.09 931.55L1290.37 951.23C1291.33 953.81 1289.99 956.68 1287.39 957.63Z" fill="#121212"/>
<path d="M1285.37 960.349C1282.38 960.349 1279.57 958.519 1278.48 955.579L1271.2 935.899C1270.52 934.079 1270.6 932.099 1271.42 930.329C1272.24 928.549 1273.71 927.199 1275.55 926.529L1275.85 926.419C1279.63 925.039 1283.85 926.979 1285.24 930.749L1292.52 950.429C1293.2 952.259 1293.12 954.229 1292.3 955.999C1291.48 957.769 1290.01 959.119 1288.17 959.789L1287.87 959.899C1287.04 960.199 1286.19 960.349 1285.36 960.349H1285.37ZM1278.37 930.589C1278.06 930.589 1277.74 930.639 1277.43 930.759L1277.13 930.869C1276.46 931.119 1275.91 931.609 1275.61 932.269C1275.31 932.909 1275.28 933.639 1275.53 934.299L1282.81 953.979C1283.33 955.369 1284.89 956.079 1286.3 955.569L1286.59 955.459C1287.27 955.209 1287.81 954.719 1288.12 954.059C1288.42 953.419 1288.45 952.689 1288.2 952.029L1280.92 932.349C1280.52 931.269 1279.48 930.589 1278.37 930.589Z" fill="white"/>
<path d="M1301.5 1774.33H1221.1V1481.72H1179.11V1774.33H1098.71C1073.07 1774.33 1052.29 1795.11 1052.29 1820.75V1827.69H1347.92V1820.75C1347.92 1795.11 1327.14 1774.33 1301.5 1774.33Z" fill="#121212"/>
<path d="M1347.92 1830H1052.29C1051.01 1830 1049.98 1828.97 1049.98 1827.69V1820.75C1049.98 1793.88 1071.84 1772.02 1098.71 1772.02H1176.8V1481.71C1176.8 1480.43 1177.83 1479.4 1179.11 1479.4H1221.1C1222.38 1479.4 1223.41 1480.43 1223.41 1481.71V1772.02H1301.5C1328.37 1772.02 1350.23 1793.88 1350.23 1820.75V1827.69C1350.23 1828.97 1349.2 1830 1347.92 1830ZM1054.6 1825.38H1345.61V1820.75C1345.61 1796.43 1325.82 1776.64 1301.5 1776.64H1221.1C1219.82 1776.64 1218.79 1775.61 1218.79 1774.33V1484.02H1181.41V1774.33C1181.41 1775.61 1180.38 1776.64 1179.1 1776.64H1098.7C1074.38 1776.64 1054.59 1796.43 1054.59 1820.75V1825.38H1054.6Z" fill="white"/>
<path d="M1325.49 1170.47H1304.36C1248.03 1170.47 1199.3 1210.06 1187.26 1265.61L1162.67 1379.06C1156.92 1405.61 1133.63 1424.53 1106.7 1424.53H1062.29C1039.08 1424.53 1020.26 1443.53 1020.26 1466.96C1020.26 1490.39 1039.08 1509.39 1062.29 1509.39H1134.42L1134.38 1509.59H1261.28C1305.69 1509.59 1344.11 1478.37 1353.6 1434.58L1392.59 1254.65C1401.96 1211.4 1369.33 1170.47 1325.47 1170.47H1325.49Z" fill="#121212"/>
<path d="M1261.3 1511.89H1134.4C1134.08 1511.89 1133.76 1511.82 1133.47 1511.69H1062.31C1037.86 1511.69 1017.97 1491.62 1017.97 1466.95C1017.97 1442.28 1037.86 1422.21 1062.31 1422.21H1106.72C1132.36 1422.21 1154.95 1403.85 1160.43 1378.56L1185.01 1265.11C1197.19 1208.93 1247.38 1168.15 1304.37 1168.15H1325.5C1346.96 1168.15 1367.04 1177.78 1380.58 1194.57C1394.32 1211.6 1399.53 1233.67 1394.88 1255.12L1355.89 1435.05C1346.24 1479.57 1306.46 1511.88 1261.31 1511.88L1261.3 1511.89ZM1135.37 1507.27H1261.3C1304.3 1507.27 1342.18 1476.49 1351.37 1434.08L1390.36 1254.15C1394.71 1234.07 1389.83 1213.41 1376.98 1197.48C1364.32 1181.78 1345.55 1172.77 1325.5 1172.77H1304.37C1249.54 1172.77 1201.24 1212.02 1189.53 1266.09L1164.95 1379.54C1159.01 1406.94 1134.52 1426.83 1106.73 1426.83H1062.32C1040.42 1426.83 1022.59 1444.83 1022.59 1466.95C1022.59 1489.07 1040.41 1507.07 1062.32 1507.07H1134.45C1134.77 1507.07 1135.09 1507.14 1135.38 1507.27H1135.37Z" fill="white"/>
<path d="M1758.16 1142.02C1757.99 1142.02 1757.82 1142 1757.64 1141.96C1756.4 1141.68 1755.62 1140.44 1755.9 1139.2C1793 976.971 1763.04 851.241 1731.37 774.341C1697.04 690.991 1653.37 645.411 1652.93 644.961C1652.04 644.041 1652.06 642.581 1652.98 641.701C1653.9 640.811 1655.36 640.831 1656.24 641.751C1656.68 642.211 1700.87 688.281 1735.55 772.381C1767.53 849.941 1797.79 976.711 1760.4 1140.23C1760.16 1141.3 1759.21 1142.02 1758.15 1142.02H1758.16Z" fill="white"/>
<path d="M1654.59 1375.51C1654.32 1375.51 1654.04 1375.46 1653.77 1375.36C1652.58 1374.91 1651.98 1373.57 1652.43 1372.38C1722.45 1188.26 1735.21 1067.62 1733.57 998.841C1731.81 924.391 1713.27 893.041 1713.09 892.741C1712.43 891.651 1712.77 890.231 1713.86 889.571C1714.94 888.911 1716.37 889.251 1717.03 890.341C1717.81 891.621 1736.28 922.671 1738.17 998.101C1739.9 1067.36 1727.18 1188.79 1656.74 1374.03C1656.39 1374.95 1655.51 1375.52 1654.58 1375.52L1654.59 1375.51Z" fill="white"/>
<path d="M233.019 210.89C232.419 210.89 231.819 210.66 231.369 210.19C230.479 209.28 230.499 207.82 231.419 206.93C232.979 205.41 389.499 54.6101 559.969 22.5301C561.229 22.3101 562.429 23.1201 562.659 24.3701C562.899 25.6201 562.069 26.8301 560.819 27.0601C391.739 58.8901 236.189 208.73 234.639 210.24C234.189 210.68 233.609 210.89 233.029 210.89H233.019Z" fill="white"/>
<path d="M147.51 248.97C146.98 248.97 146.44 248.79 146.01 248.41C145.04 247.58 144.93 246.12 145.76 245.16C260.19 111.88 379.13 64.5905 380.32 64.1305C381.51 63.6605 382.85 64.2505 383.31 65.4405C383.77 66.6305 383.18 67.9605 382 68.4305C380.82 68.8905 262.9 115.82 149.27 248.17C148.81 248.7 148.17 248.97 147.52 248.97H147.51Z" fill="white"/>
</svg>
