<svg width="2059" height="2065" viewBox="0 0 2059 2065" fill="none" xmlns="http://www.w3.org/2000/svg">
<path d="M1591.92 1899.67C2067.79 1590.98 2201.63 952.311 1890.86 473.183C1580.09 -5.94489 942.396 -144.102 466.523 164.601C-9.34756 473.304 -143.188 1111.97 167.581 1591.1C478.351 2070.22 1116.05 2208.38 1591.92 1899.67Z" fill="#121212" fill-opacity="0.29"/>
<path d="M1102.66 2041.27C1097.38 2041.27 1091.52 2037.6 1088.23 2034.09C1080.48 2025.77 1068.12 1993.21 1062.68 1973.54C1058.46 1958.24 1059.24 1912.29 1059.76 1881.91C1059.93 1872.82 1060.06 1864.98 1060.01 1860.44C1059.83 1845.89 1054.49 1843.34 1038.62 1835.73C1035.97 1834.46 1033.06 1833.07 1029.87 1831.48C1016.09 1824.57 1004.48 1805.62 1002.26 1786.41C1000.1 1767.75 1006.62 1751.06 1020.6 1739.42C1031.47 1730.36 1039.9 1699.34 1040.33 1685.99C1040.51 1680.51 1043.94 1675.7 1049.27 1673.47C1058.66 1669.54 1074.2 1666.73 1094.88 1675.75C1103.74 1679.61 1107.43 1685.01 1111.01 1690.24C1113.88 1694.44 1116.59 1698.39 1122.14 1701.83C1126.09 1704.27 1131.21 1706.03 1136.16 1707.7C1147.09 1711.42 1159.49 1715.64 1155.44 1728.52C1151.44 1741.35 1167.5 1756.48 1194.51 1765.28C1211.76 1770.91 1223.91 1783.91 1224.06 1796.92C1224.16 1805.72 1218.77 1812.69 1209.26 1816.04C1187.87 1823.58 1188.69 1829.68 1190.08 1839.78C1190.65 1843.91 1191.96 1848.37 1193.24 1852.67C1195.82 1861.41 1198.05 1868.93 1193.69 1873.05C1187.88 1878.54 1170.83 1882.13 1165.3 1882.96C1159.54 1883.83 1152.18 1890.25 1149.68 1902.27C1146.74 1916.39 1122.15 1949.97 1107.67 1964.4C1095.97 1976.04 1099.53 1986.79 1107.32 2010.28L1109.31 2016.32C1113.43 2028.89 1112.8 2036.87 1107.42 2040.04C1105.96 2040.91 1104.33 2041.27 1102.66 2041.27ZM1051.64 1679.12C1048.54 1680.42 1046.56 1683.12 1046.47 1686.18C1046.01 1700.56 1037.33 1733.48 1024.53 1744.14C1012.19 1754.41 1006.44 1769.17 1008.36 1785.7C1010.36 1802.98 1020.57 1819.93 1032.62 1825.97C1035.77 1827.55 1038.65 1828.92 1041.27 1830.18C1057.68 1838.04 1065.92 1841.99 1066.14 1860.35C1066.19 1864.96 1066.07 1872.47 1065.89 1882C1065.41 1910.21 1064.59 1957.44 1068.59 1971.87C1074.31 1992.56 1086.34 2023.06 1092.7 2029.88C1096.24 2033.68 1101.96 2036.09 1104.26 2034.74C1106.02 2033.7 1106.88 2028.74 1103.44 2018.2L1101.45 2012.2C1093.36 1987.81 1088.9 1974.37 1103.3 1960.03C1118.09 1945.3 1141.16 1912.81 1143.64 1901.01C1146.75 1886.03 1156.29 1878.11 1164.36 1876.89C1172.28 1875.7 1185.76 1872.05 1189.43 1868.6C1191.06 1867.08 1188.9 1859.76 1187.31 1854.42C1185.98 1849.9 1184.6 1845.22 1183.97 1840.64C1182.22 1827.84 1182.88 1818.83 1207.19 1810.26C1214.16 1807.8 1217.95 1803.1 1217.89 1797.01C1217.79 1788.48 1209.83 1776.76 1192.57 1771.13C1161.67 1761.05 1144.39 1743.19 1149.55 1726.69C1151.58 1720.16 1146.68 1717.79 1134.16 1713.51C1128.87 1711.71 1123.42 1709.85 1118.87 1707.04C1112.23 1702.93 1108.88 1698.03 1105.9 1693.7C1102.54 1688.78 1099.63 1684.53 1092.39 1681.37C1073.7 1673.21 1059.91 1675.64 1051.62 1679.12L1051.64 1679.12Z" fill="white"/>
<path d="M1231.87 1394.28C1228.87 1394.28 1226.57 1393.88 1225.16 1393.03C1214.68 1386.66 1217.65 1367.7 1220.04 1352.49C1221.03 1346.22 1222.15 1339.12 1221.36 1337.05C1219.95 1333.23 1211.36 1329.92 1205.09 1327.5C1200.5 1325.73 1196.55 1324.21 1194.42 1322.34C1192.7 1320.84 1191.21 1318.5 1189.89 1315.18C1188.19 1310.93 1188.36 1306.32 1190.34 1302.2C1192.31 1298.1 1195.98 1294.96 1200.4 1293.63C1204.66 1292.34 1208.64 1292.01 1212.21 1292.66C1216.99 1293.53 1225.09 1297.18 1235.37 1301.78C1248.17 1307.53 1264.1 1314.68 1275.35 1316.8C1286.76 1318.93 1302.4 1319.07 1316.19 1319.19C1326.51 1319.28 1335.42 1319.35 1341.35 1320.21C1345.95 1320.87 1348.71 1322.79 1349.53 1325.88C1350.83 1330.75 1348.05 1338.36 1319.19 1360.99C1296.94 1378.44 1250.73 1394.32 1231.87 1394.32V1394.28ZM1202.18 1299.48C1199.37 1300.33 1197.13 1302.24 1195.87 1304.83C1194.64 1307.38 1194.55 1310.24 1195.6 1312.88C1196.83 1315.97 1197.92 1317.22 1198.45 1317.69C1199.78 1318.84 1203.59 1320.32 1207.31 1321.75C1215.48 1324.89 1224.74 1328.48 1227.13 1334.89C1228.4 1338.31 1227.62 1343.87 1226.12 1353.42C1224.12 1366.12 1221.38 1383.53 1228.34 1387.76C1234.43 1391.44 1288.4 1377.28 1315.41 1356.11C1342.92 1334.54 1343.95 1328.69 1343.6 1327.43C1343.55 1327.23 1342.87 1326.6 1340.49 1326.25C1334.96 1325.45 1325.82 1325.37 1316.16 1325.29C1302.1 1325.16 1286.17 1325.03 1274.23 1322.79C1262.26 1320.55 1246.62 1313.53 1232.85 1307.34C1223.76 1303.25 1215.17 1299.38 1211.13 1298.66C1208.52 1298.18 1205.51 1298.45 1202.18 1299.47V1299.48Z" fill="white"/>
<path d="M1369.38 1806.53C1365.88 1806.53 1362.78 1806 1360.32 1804.95C1338.84 1795.69 1320.19 1734.53 1312.88 1678.89C1312.03 1672.43 1311.85 1667.32 1311.69 1662.82C1311.38 1653.96 1311.18 1648.6 1306.25 1641.31C1303.7 1637.54 1294.38 1638.5 1284.51 1639.5C1269.52 1641.03 1250.85 1642.93 1236.37 1632.24C1208.94 1611.95 1210.87 1589.54 1225.06 1549.92C1240.81 1505.97 1291.35 1507.78 1318.49 1508.76C1336.04 1509.38 1338.04 1517.35 1339.79 1524.36C1341.04 1529.36 1342.23 1534.1 1348.53 1538.11C1363.34 1547.55 1400.66 1540.74 1406.08 1539.69C1416.85 1531.52 1418.2 1527.16 1418.04 1525.27C1417.75 1522.09 1412.59 1519.5 1408.04 1517.2C1407.1 1516.74 1406.18 1516.27 1405.29 1515.79C1400.3 1513.15 1394.32 1512.48 1388.01 1511.8C1382.08 1511.15 1375.95 1510.46 1370.23 1508.06C1363.31 1505.14 1358.24 1498.72 1354.14 1493.56C1352.25 1491.17 1349.75 1488.02 1348.28 1487.12C1347.63 1488.58 1347.05 1492.06 1346.7 1494.28C1345.62 1500.91 1344.5 1507.76 1339.27 1509.06C1337.29 1509.56 1335.41 1509.23 1333.88 1508.09C1329.58 1504.95 1329.05 1496.36 1328.45 1486.42C1328.37 1485.11 1328.28 1483.8 1328.19 1482.5C1328.08 1480.93 1327.73 1480.14 1327.43 1479.94C1326.2 1479.1 1321.4 1480.58 1317.55 1481.78C1313.18 1483.14 1307.72 1484.83 1301.9 1485.4C1293.91 1486.22 1287.33 1491.29 1280.96 1496.2C1275.42 1500.47 1270.2 1504.49 1264.37 1505.32C1258.98 1506.11 1254.15 1503.95 1251.18 1499.41C1247.25 1493.41 1247.44 1484.47 1251.65 1477.67C1256.63 1469.64 1263.7 1472.36 1267.92 1473.99C1271.02 1475.19 1272.22 1475.49 1272.78 1474.84C1274.23 1473.16 1275.22 1470.9 1276.46 1468.04C1278.81 1462.61 1281.73 1455.86 1289.82 1448.37C1297.35 1441.37 1301.59 1441.84 1305.98 1443.11C1308.12 1443.73 1309.3 1444.08 1311.91 1442.43C1315.08 1440.41 1315.96 1437.95 1316.98 1435.1C1318.32 1431.4 1319.97 1426.76 1327.05 1424.59C1331.94 1423.09 1335.62 1424.07 1338.86 1424.94C1343.38 1426.16 1347.66 1427.3 1356.82 1421.65C1365.97 1416.03 1366.2 1412.53 1366.05 1411.59C1365.8 1409.94 1363.6 1408.66 1361.67 1408.19C1360.19 1407.84 1359.18 1408.41 1355.82 1410.83C1352.17 1413.46 1346.65 1417.45 1336.75 1420.14C1322.17 1424.11 1317.69 1422.87 1310.92 1420.99C1309.1 1420.48 1307.2 1419.97 1304.84 1419.47C1301.16 1418.7 1299.02 1417.07 1298.53 1414.62C1297.41 1409.18 1304.15 1404.14 1325.65 1389.03L1330.91 1385.32C1356.69 1367.13 1370.73 1367.22 1390.76 1369.56C1398.69 1370.48 1403.95 1374.92 1409.53 1379.63C1419.45 1387.99 1430.67 1397.46 1462.15 1392.44C1500.66 1386.29 1510.22 1380.25 1517.91 1375.39C1520.31 1373.88 1522.57 1372.44 1525.47 1371.1C1538.74 1364.93 1590.89 1362.83 1614.95 1369.13C1629.24 1372.87 1632.67 1377.14 1636.32 1381.66C1638.95 1384.94 1641.68 1388.33 1650.02 1392.27C1666.66 1400.13 1703.36 1395.68 1730.15 1392.42C1734.36 1391.91 1738.42 1391.41 1742.2 1390.99C1767.43 1388.15 1785.5 1391.45 1797.42 1401.05C1801.27 1404.15 1811.97 1404.1 1821.41 1404.07C1831.17 1404.03 1840.38 1404 1845.26 1407.07C1847.83 1408.68 1849.33 1411.08 1849.61 1414.04C1850.54 1424.09 1836.59 1438.14 1830.54 1443.72C1826.26 1447.68 1826.9 1455.47 1827.47 1462.36C1827.98 1468.6 1828.44 1473.99 1825.06 1476.81C1823.2 1478.36 1820.58 1478.7 1817.29 1477.81C1806.35 1474.82 1803.4 1460.84 1801.02 1449.62C1800.14 1445.46 1798.95 1439.84 1797.72 1438.47C1797.19 1439.09 1796.42 1440.27 1795.89 1441.13C1793.39 1445.06 1789.61 1450.98 1781.95 1451C1778.22 1451.02 1774.51 1450.61 1770.89 1450.23C1763.35 1449.42 1756.23 1448.66 1750.43 1451.55C1750.14 1451.7 1749.95 1451.82 1749.83 1451.92C1750.63 1453.81 1756.16 1457.93 1760.27 1460.98C1765.27 1464.7 1770.92 1468.9 1775.42 1473.63C1787.08 1485.89 1782.05 1495.63 1775.67 1507.94C1774.51 1510.2 1773.27 1512.59 1772.03 1515.2C1767.98 1523.65 1770.46 1530.9 1772.26 1536.19C1773.46 1539.68 1774.41 1542.45 1772.91 1544.8C1772.34 1545.7 1771.16 1546.83 1768.85 1547.1C1763.13 1547.73 1756.58 1541.26 1748.97 1533.77C1744.36 1529.24 1739.61 1524.57 1735.6 1522.14C1733.46 1520.84 1731.93 1520.74 1731.06 1521.82C1729.1 1524.24 1729.52 1530.98 1734.66 1536.48C1745.77 1548.32 1753.99 1569.36 1747.37 1585C1742.71 1596.02 1729.67 1594.53 1718.15 1593.21C1711.24 1592.41 1704.08 1591.6 1700.36 1593.72C1699.01 1594.48 1698.69 1595.25 1698.56 1595.76C1697.71 1599.03 1701.53 1605.34 1705.22 1611.43C1708.7 1617.2 1712.3 1623.18 1713.91 1629.13C1715.52 1635.11 1713.43 1638.19 1711.4 1639.71C1704.19 1645.12 1686.92 1637.81 1679.68 1633.42C1673 1629.37 1664.69 1619.57 1656.66 1610.1C1651.57 1604.09 1646.74 1598.4 1643.05 1595.06C1638.16 1590.64 1634.11 1593.26 1623.8 1601.91C1620.9 1604.32 1617.62 1607.06 1614.04 1609.65C1607.26 1614.52 1604.51 1625.63 1602.3 1634.57C1599.97 1644 1597.91 1652.12 1591.23 1651.53C1582.47 1650.76 1577.42 1636.62 1572.06 1621.64C1570.65 1617.69 1569.19 1613.58 1567.72 1609.98C1561.57 1594.87 1540.41 1580.75 1519.54 1577.84C1505.27 1575.86 1501.64 1571.37 1498.71 1567.78C1496.84 1565.48 1495.49 1563.83 1491.13 1562.76C1489.27 1562.3 1488.21 1562.27 1487.69 1562.31C1487.95 1563.72 1489.63 1566.95 1492.63 1570.51C1493.78 1571.86 1495.21 1572.19 1497.88 1572.72C1501.16 1573.37 1505.24 1574.19 1509.3 1578.2C1514.31 1583.14 1514.19 1593.46 1511.95 1600.97C1509.97 1607.63 1506.42 1611.93 1502.2 1612.78C1497.89 1613.64 1494.93 1615.52 1490.02 1618.62C1486.82 1620.64 1482.86 1623.16 1477.4 1626.03C1463.18 1633.54 1454.57 1617.79 1450.43 1610.21C1449.7 1608.88 1449.05 1607.68 1448.47 1606.76C1446.24 1603.24 1445.53 1598.19 1444.84 1593.3C1444.21 1588.81 1443.48 1583.73 1441.64 1581.9C1441.53 1581.82 1441.02 1581.32 1440.78 1581.39C1439.73 1581.75 1436.39 1585.54 1434.75 1597.84C1433.07 1610.58 1456.78 1630.64 1465.94 1633.33C1475 1636.01 1486.29 1639.33 1486.32 1653.19C1486.34 1661.22 1477.9 1665.92 1467.2 1671.88C1459.72 1676.05 1451.22 1680.78 1444.08 1687.48C1434.39 1696.54 1436.9 1703.66 1440.09 1712.65C1441.86 1717.66 1443.69 1722.83 1443.11 1728.47C1441.71 1742.33 1434.63 1752.66 1426.45 1764.61C1423.23 1769.3 1419.91 1774.15 1416.58 1779.7C1405.99 1797.25 1384.16 1806.58 1369.4 1806.58L1369.38 1806.53ZM1296.94 1632.47C1303.36 1632.47 1308.49 1633.65 1311.34 1637.86C1317.26 1646.62 1317.49 1653.33 1317.83 1662.59C1317.99 1666.97 1318.17 1671.91 1318.98 1678.08C1326.99 1738.9 1346.22 1792.15 1362.77 1799.29C1373.17 1803.78 1400.13 1794.95 1411.3 1776.45C1414.74 1770.76 1418.1 1765.84 1421.38 1761.07C1429.39 1749.36 1435.74 1740.09 1437 1727.77C1437.43 1723.52 1435.9 1719.2 1434.28 1714.62C1431.15 1705.76 1427.24 1694.73 1439.87 1682.92C1447.57 1675.72 1456.41 1670.81 1464.21 1666.45C1472.78 1661.67 1480.18 1657.56 1480.18 1653.16C1480.16 1645.16 1475.45 1642.48 1464.21 1639.18C1453.05 1635.89 1426.42 1613.98 1428.68 1596.99C1429.61 1589.96 1432.16 1577.8 1438.8 1575.53C1440.23 1575.04 1443.08 1574.64 1445.96 1577.49C1449.29 1580.76 1450.08 1586.42 1450.93 1592.4C1451.54 1596.64 1452.16 1601.02 1453.67 1603.42C1454.3 1604.43 1455.03 1605.74 1455.85 1607.21C1461.03 1616.7 1466.36 1624.86 1474.55 1620.54C1479.79 1617.79 1483.65 1615.34 1486.75 1613.37C1491.88 1610.13 1495.58 1607.78 1501.01 1606.69C1502.51 1606.39 1504.66 1603.94 1506.09 1599.15C1508.07 1592.51 1507.59 1585.04 1505.02 1582.5C1502.27 1579.78 1499.57 1579.25 1496.71 1578.68C1493.82 1578.1 1490.55 1577.45 1487.97 1574.4C1484.67 1570.49 1479.57 1563.28 1482.36 1558.76C1484.81 1554.81 1490.7 1556.24 1492.63 1556.72C1499 1558.29 1501.39 1561.23 1503.51 1563.82C1506.1 1567.01 1508.55 1570.02 1520.43 1571.67C1543.64 1574.9 1566.45 1590.33 1573.46 1607.58C1574.97 1611.3 1576.45 1615.47 1577.9 1619.49C1581.73 1630.21 1586.98 1644.9 1591.82 1645.32C1593.33 1645.42 1595.4 1637.04 1596.4 1633C1598.85 1623.09 1601.9 1610.75 1610.54 1604.56C1613.94 1602.12 1616.97 1599.57 1619.93 1597.11C1629.21 1589.36 1637.96 1582.03 1647.24 1590.43C1651.26 1594.05 1656.2 1599.88 1661.43 1606.05C1668.79 1614.73 1677.12 1624.56 1682.95 1628.1C1692.18 1633.69 1704.72 1637.04 1707.8 1634.74C1708.72 1634.04 1708.45 1632.14 1708.07 1630.67C1706.69 1625.55 1703.31 1619.97 1700.04 1614.57C1695.3 1606.71 1691.19 1599.94 1692.7 1594.15C1693.33 1591.7 1694.91 1589.74 1697.4 1588.34C1702.87 1585.22 1710.67 1586.12 1718.92 1587.06C1731 1588.44 1739.11 1588.87 1741.79 1582.57C1747.73 1568.5 1738.62 1549.58 1730.25 1540.64C1722.86 1532.75 1722.47 1522.71 1726.36 1517.92C1728.63 1515.12 1733.11 1513.36 1738.86 1516.85C1743.49 1519.65 1748.5 1524.58 1753.34 1529.35C1758 1533.92 1764.22 1540.04 1767.4 1540.87C1767.18 1540.06 1766.82 1538.99 1766.52 1538.14C1764.62 1532.57 1761.42 1523.24 1766.56 1512.51C1767.83 1509.85 1769.1 1507.39 1770.3 1505.09C1776.55 1493.01 1779.7 1486.94 1771.04 1477.85C1766.91 1473.49 1761.47 1469.46 1756.68 1465.88C1748.62 1459.89 1743.29 1455.92 1743.71 1451.2C1743.85 1449.7 1744.65 1447.6 1747.79 1446.04C1755.18 1442.36 1763.55 1443.25 1771.64 1444.11C1775.06 1444.48 1778.59 1444.86 1781.92 1444.86H1782.02C1786.02 1444.86 1788.18 1441.94 1790.78 1437.82C1792.51 1435.1 1794.14 1432.54 1796.98 1432.11C1798.57 1431.86 1800.14 1432.38 1801.63 1433.63C1804.5 1436.07 1805.65 1441.48 1807.1 1448.34C1809.12 1457.93 1811.66 1469.88 1818.98 1471.86C1820.68 1472.32 1821.22 1472.07 1821.22 1472.07C1822.12 1471.29 1821.68 1465.8 1821.43 1462.86C1820.77 1454.99 1819.97 1445.19 1826.44 1439.2C1837.12 1429.34 1844.01 1419.45 1843.55 1414.6C1843.46 1413.55 1843.01 1412.85 1842.07 1412.27C1838.68 1410.15 1829.55 1410.18 1821.49 1410.21C1810.01 1410.24 1799.18 1410.29 1793.63 1405.82C1783.2 1397.4 1766.15 1394.47 1742.94 1397.06C1739.19 1397.48 1735.15 1397.98 1730.93 1398.48C1701.87 1402.02 1665.71 1406.41 1647.46 1397.8C1637.83 1393.26 1634.52 1389.12 1631.59 1385.48C1628.34 1381.46 1625.78 1378.27 1613.45 1375.04C1589.86 1368.87 1538.99 1371.58 1528.1 1376.64C1525.57 1377.82 1523.56 1379.09 1521.24 1380.56C1513.08 1385.72 1502.93 1392.14 1463.16 1398.48C1428.91 1403.94 1415.99 1393.06 1405.61 1384.3C1400.35 1379.86 1396.17 1376.35 1390.1 1375.64C1371.03 1373.42 1359.03 1373 1334.51 1390.31L1329.23 1394.03C1318.19 1401.78 1306.82 1409.79 1304.87 1413.08C1305.15 1413.19 1305.57 1413.31 1306.15 1413.43C1308.72 1413.98 1310.78 1414.54 1312.62 1415.05C1318.83 1416.78 1322.25 1417.73 1335.19 1414.2C1344.02 1411.8 1348.8 1408.36 1352.28 1405.83C1355.77 1403.3 1358.79 1401.13 1363.18 1402.21C1367.03 1403.15 1371.41 1405.86 1372.17 1410.62C1373.01 1415.96 1368.94 1421.42 1360.09 1426.87C1348.66 1433.9 1342.37 1432.2 1337.31 1430.85C1334.4 1430.06 1332.11 1429.45 1328.9 1430.43C1324.76 1431.7 1324.03 1433.75 1322.82 1437.14C1321.65 1440.4 1320.19 1444.45 1315.24 1447.58C1310.31 1450.7 1306.85 1449.72 1304.34 1448.98C1301.72 1448.23 1299.66 1447.63 1294.06 1452.85C1286.92 1459.48 1284.39 1465.31 1282.16 1470.47C1280.82 1473.55 1279.56 1476.46 1277.5 1478.85C1274.02 1482.9 1269.25 1481.06 1265.78 1479.71C1260.93 1477.83 1259.04 1477.48 1256.93 1480.88C1253.93 1485.72 1253.71 1491.96 1256.38 1496.02C1257.55 1497.79 1259.71 1499.78 1263.56 1499.22C1267.79 1498.62 1272.4 1495.06 1277.27 1491.31C1283.99 1486.14 1291.61 1480.26 1301.34 1479.28C1306.55 1478.75 1311.46 1477.23 1315.79 1475.89C1322.22 1473.91 1327.28 1472.32 1330.97 1474.84C1333.04 1476.26 1334.14 1478.61 1334.39 1482.06C1334.48 1483.37 1334.56 1484.69 1334.64 1486.02C1334.99 1491.64 1335.63 1502.12 1337.59 1503.12C1339.19 1502.53 1340.25 1496.03 1340.69 1493.26C1341.7 1487.04 1342.87 1479.98 1348.6 1480.76C1352.33 1481.28 1355.29 1485 1359.02 1489.72C1362.85 1494.56 1367.2 1500.05 1372.67 1502.35C1377.55 1504.42 1382.98 1505.02 1388.74 1505.65C1395.35 1506.38 1402.2 1507.14 1408.22 1510.33C1409.07 1510.79 1409.98 1511.24 1410.87 1511.7C1416.85 1514.73 1423.63 1518.14 1424.21 1524.71C1424.73 1530.55 1419.97 1536.99 1409.26 1545C1408.89 1545.27 1408.49 1545.46 1408.04 1545.54C1406.23 1545.92 1363.28 1554.75 1345.27 1543.28C1336.91 1537.95 1335.23 1531.23 1333.88 1525.83C1332.23 1519.27 1331.24 1515.33 1318.52 1514.87C1292.73 1513.95 1245.11 1512.24 1230.86 1551.97C1215.79 1594 1217.86 1610.87 1240.04 1627.26C1252.62 1636.56 1269.97 1634.77 1283.9 1633.35C1288.57 1632.89 1293 1632.42 1296.94 1632.42V1632.47Z" fill="white" fill-opacity="0.2"/>
<path d="M1127.11 719.869H1408.06V1021.76H1383.99L1380.65 1018.92H1127.11V719.869Z" fill="#B9BEC6"/>
<path d="M1384.7 720.58H1105.17V1017.82H1384.7V720.58Z" fill="#121212"/>
<path d="M1383.99 1020.92H1105.88C1104.66 1020.92 1103.68 1019.94 1103.68 1018.72V721.29C1103.68 720.07 1104.66 719.09 1105.88 719.09H1383.99C1385.21 719.09 1386.19 720.07 1386.19 721.29V1018.72C1386.19 1019.94 1385.2 1020.92 1383.99 1020.92ZM1108.09 1016.52H1381.79V723.49H1108.09V1016.52Z" fill="#5E5E5E"/>
<path d="M1408.05 1020.39H1078.84V1044.48H1408.05V1020.39Z" fill="#B9BEC6"/>
<path d="M1297.75 1018.01H969.961V1044.47H1297.75V1018.01Z" fill="#121212"/>
<path d="M1297.05 1046.68H970.68C969.46 1046.68 968.48 1045.7 968.48 1044.48V1018.73C968.48 1017.51 969.46 1016.53 970.68 1016.53H1297.05C1298.27 1016.53 1299.25 1017.52 1299.25 1018.73V1044.48C1299.25 1045.7 1298.27 1046.68 1297.05 1046.68ZM972.88 1042.28H1294.85V1020.93H972.88V1042.28Z" fill="#5E5E5E"/>
<path d="M1742.35 52.6895H1691.62V781.049H1742.35C1768.44 781.049 1789.59 759.909 1789.59 733.819V99.9194C1789.59 73.8394 1768.44 52.6895 1742.35 52.6895Z" fill="#B9BEC6"/>
<path d="M1742.35 783.26H1691.62C1690.4 783.26 1689.42 782.28 1689.42 781.06V52.6902C1689.42 51.4702 1690.4 50.4902 1691.62 50.4902H1742.35C1769.61 50.4902 1791.79 72.6602 1791.79 99.9202V733.83C1791.79 761.09 1769.61 783.26 1742.35 783.26ZM1693.82 778.86H1742.35C1767.18 778.86 1787.39 758.66 1787.39 733.83V99.9202C1787.39 75.0902 1767.19 54.8902 1742.35 54.8902H1693.82V778.85V778.86Z" fill="#5E5E5E"/>
<path d="M1712.06 55.791H721.34C695.421 55.791 674.41 76.8023 674.41 102.721V732.401C674.41 758.32 695.421 779.331 721.34 779.331H1712.06C1737.98 779.331 1758.99 758.32 1758.99 732.401V102.721C1758.99 76.8023 1737.98 55.791 1712.06 55.791Z" fill="#121212"/>
<path d="M1712.06 780.901H721.329C694.239 780.901 672.199 758.871 672.199 731.781V102.071C672.199 74.9812 694.239 52.9512 721.329 52.9512H1712.06C1739.15 52.9512 1761.19 74.9812 1761.19 102.071V731.781C1761.19 758.871 1739.15 780.901 1712.06 780.901ZM721.329 57.3512C696.669 57.3512 676.609 77.4112 676.609 102.071V731.781C676.609 756.441 696.669 776.501 721.329 776.501H1712.06C1736.72 776.501 1756.78 756.441 1756.78 731.781V102.071C1756.78 77.4112 1736.72 57.3512 1712.06 57.3512H721.329Z" fill="#5E5E5E"/>
<path d="M915.748 162.941L562.309 163.373L562.374 217.303L915.814 216.871L915.748 162.941Z" fill="#121212"/>
<path d="M563.089 219.441C561.869 219.441 560.889 218.461 560.889 217.241L560.809 163.461C560.809 162.881 561.039 162.311 561.449 161.901C561.859 161.491 562.419 161.251 563.009 161.251L930.629 160.801C931.849 160.801 932.829 161.781 932.829 163.001L932.909 216.781C932.909 217.371 932.679 217.931 932.269 218.341C931.859 218.751 931.299 218.991 930.709 218.991L563.089 219.441ZM565.209 165.661L565.289 215.041L928.499 214.591L928.419 165.221L565.209 165.671V165.661Z" fill="white"/>
<path d="M858.55 317.679C843.17 317.679 830.66 305.169 830.66 289.789C830.66 274.409 843.17 261.889 858.55 261.889C873.93 261.889 886.44 274.399 886.44 289.789C886.44 305.179 873.93 317.679 858.55 317.679ZM858.55 266.289C845.6 266.289 835.06 276.829 835.06 289.779C835.06 302.729 845.6 313.269 858.55 313.269C871.5 313.269 882.04 302.729 882.04 289.779C882.04 276.829 871.5 266.289 858.55 266.289Z" fill="#5E5E5E"/>
<path d="M945.232 445.85C944.672 445.85 944.122 445.64 943.692 445.22L857.012 360C856.592 359.59 856.352 359.02 856.352 358.43V315.05C856.352 313.83 857.332 312.85 858.552 312.85C859.772 312.85 860.752 313.83 860.752 315.05V357.51L946.772 442.09C947.642 442.94 947.652 444.34 946.802 445.2C946.372 445.64 945.802 445.86 945.232 445.86V445.85Z" fill="#5E5E5E"/>
<path d="M618.769 380.829C603.389 380.829 590.879 368.319 590.879 352.929C590.879 337.539 603.389 325.029 618.769 325.029C634.149 325.029 646.659 337.539 646.659 352.929C646.659 368.319 634.149 380.829 618.769 380.829ZM618.769 329.439C605.819 329.439 595.279 339.979 595.279 352.929C595.279 365.879 605.819 376.419 618.769 376.419C631.719 376.419 642.259 365.879 642.259 352.929C642.259 339.979 631.719 329.439 618.769 329.439Z" fill="#5E5E5E"/>
<path d="M843.22 472.259C842.94 472.259 842.66 472.209 842.38 472.089L721.21 422.368C720.39 422.029 719.86 421.238 719.84 420.358L719.09 355.129H645.04C643.82 355.129 642.84 354.148 642.84 352.928C642.84 351.708 643.83 350.729 645.04 350.729H721.27C722.48 350.729 723.46 351.699 723.47 352.909L724.23 418.858L844.05 468.029C845.17 468.489 845.71 469.778 845.25 470.898C844.9 471.748 844.08 472.268 843.21 472.268L843.22 472.259Z" fill="#5E5E5E"/>
<path d="M969.068 472.58C968.588 472.58 968.108 472.42 967.698 472.1C966.748 471.34 966.588 469.96 967.348 469.01L1049.19 366.08V190.99H917.778C916.558 190.99 915.578 190.01 915.578 188.79C915.578 187.57 916.558 186.59 917.778 186.59H1051.39C1052.61 186.59 1053.59 187.57 1053.59 188.79V366.85C1053.59 367.35 1053.42 367.83 1053.11 368.22L970.798 471.75C970.358 472.3 969.718 472.58 969.068 472.58Z" fill="#5E5E5E"/>
<path d="M1177.68 153.659C1162.3 153.659 1149.79 141.149 1149.79 125.769C1149.79 110.389 1162.3 97.8691 1177.68 97.8691C1193.06 97.8691 1205.57 110.379 1205.57 125.769C1205.57 141.159 1193.06 153.659 1177.68 153.659ZM1177.68 102.269C1164.73 102.269 1154.19 112.809 1154.19 125.759C1154.19 138.709 1164.73 149.249 1177.68 149.249C1190.63 149.249 1201.17 138.709 1201.17 125.759C1201.17 112.809 1190.63 102.269 1177.68 102.269Z" fill="#5E5E5E"/>
<path d="M1074.36 469.51C1073.88 469.51 1073.39 469.35 1072.98 469.02C1072.03 468.26 1071.89 466.87 1072.65 465.92L1175.48 338.45V151.46C1175.48 150.24 1176.46 149.26 1177.68 149.26C1178.9 149.26 1179.88 150.24 1179.88 151.46V339.23C1179.88 339.73 1179.71 340.22 1179.39 340.61L1076.07 468.68C1075.64 469.22 1075 469.5 1074.35 469.5L1074.36 469.51Z" fill="#5E5E5E"/>
<path d="M1421.95 347.82C1406.57 347.82 1394.06 335.31 1394.06 319.92C1394.06 304.53 1406.57 292.02 1421.95 292.02C1437.33 292.02 1449.84 304.53 1449.84 319.92C1449.84 335.31 1437.33 347.82 1421.95 347.82ZM1421.95 296.43C1409 296.43 1398.46 306.97 1398.46 319.92C1398.46 332.87 1409 343.41 1421.95 343.41C1434.9 343.41 1445.44 332.87 1445.44 319.92C1445.44 306.97 1434.9 296.43 1421.95 296.43Z" fill="#5E5E5E"/>
<path d="M1174.22 471.139C1173.48 471.139 1172.75 470.759 1172.34 470.079C1171.71 469.039 1172.03 467.689 1173.07 467.049L1274.65 405.109V319.909C1274.65 318.689 1275.63 317.709 1276.85 317.709H1396.26C1397.48 317.709 1398.46 318.689 1398.46 319.909C1398.46 321.129 1397.48 322.109 1396.26 322.109H1279.06V406.349C1279.06 407.119 1278.66 407.829 1278 408.229L1175.36 470.809C1175 471.029 1174.61 471.129 1174.22 471.129V471.139Z" fill="#5E5E5E"/>
<path d="M1391.56 510.009C1376.18 510.009 1363.67 497.499 1363.67 482.109C1363.67 466.719 1376.18 454.209 1391.56 454.209C1406.94 454.209 1419.45 466.719 1419.45 482.109C1419.45 497.499 1406.94 510.009 1391.56 510.009ZM1391.56 458.619C1378.61 458.619 1368.07 469.159 1368.07 482.109C1368.07 495.059 1378.61 505.599 1391.56 505.599C1404.51 505.599 1415.05 495.059 1415.05 482.109C1415.05 469.159 1404.51 458.619 1391.56 458.619Z" fill="#5E5E5E"/>
<path d="M1365.87 484.32H1242.74C1241.52 484.32 1240.54 483.34 1240.54 482.12C1240.54 480.9 1241.52 479.92 1242.74 479.92H1365.87C1367.09 479.92 1368.07 480.9 1368.07 482.12C1368.07 483.34 1367.09 484.32 1365.87 484.32Z" fill="#5E5E5E"/>
<path d="M958.956 190.604C958.998 174.444 945.932 161.31 929.772 161.268C913.613 161.225 900.478 174.291 900.436 190.451C900.394 206.611 913.459 219.745 929.619 219.788C945.779 219.83 958.913 206.764 958.956 190.604Z" fill="#121212"/>
<path d="M915.778 218.488C914.558 218.488 913.578 217.508 913.578 216.288V163.268C913.578 162.048 914.558 161.068 915.778 161.068C916.998 161.068 917.978 162.048 917.978 163.268V216.288C917.978 217.508 916.998 218.488 915.778 218.488Z" fill="white"/>
<path d="M928.659 221.86C911.309 221.86 897.199 207.74 897.199 190.39C897.199 173.04 911.309 158.92 928.659 158.92C946.009 158.92 960.119 173.04 960.119 190.39C960.119 207.74 946.009 221.86 928.659 221.86ZM928.659 163.33C913.739 163.33 901.599 175.47 901.599 190.39C901.599 205.31 913.739 217.45 928.659 217.45C943.579 217.45 955.719 205.31 955.719 190.39C955.719 175.47 943.579 163.33 928.659 163.33Z" fill="#5E5E5E"/>
<path d="M1241.34 440.759C1235.68 397.199 1198.47 363.539 1153.38 363.539C1138 363.539 1123.54 367.459 1110.92 374.339C1094.66 354.149 1069.74 341.219 1041.8 341.219C1013.86 341.219 988.948 354.149 972.678 374.339C960.068 367.449 945.608 363.539 930.218 363.539C881.208 363.539 841.488 403.269 841.488 452.289V492.499C841.488 545.759 884.658 588.929 937.908 588.929H1238.2C1279.13 588.929 1312.31 555.739 1312.31 514.799C1312.31 473.859 1280.81 442.399 1241.34 440.749V440.759Z" fill="#B9BEC6"/>
<path d="M1238.2 591.14H937.909C883.529 591.14 839.289 546.89 839.289 492.5V452.29C839.289 402.14 880.079 361.34 930.219 361.34C944.809 361.34 959.249 364.87 972.119 371.55C989.469 350.85 1014.76 339.02 1041.8 339.02C1068.84 339.02 1094.12 350.85 1111.48 371.55C1124.34 364.86 1138.79 361.34 1153.38 361.34C1198.3 361.34 1236.62 394.45 1243.27 438.66C1283.37 441.28 1314.52 474.38 1314.52 514.81C1314.52 555.24 1280.28 591.14 1238.2 591.14ZM930.229 365.75C882.519 365.75 843.699 404.57 843.699 452.3V492.51C843.699 544.47 885.969 586.74 937.919 586.74H1238.21C1277.86 586.74 1310.12 554.47 1310.12 514.81C1310.12 475.15 1279.87 444.57 1241.26 442.96C1240.19 442.91 1239.31 442.11 1239.17 441.04C1233.6 398.11 1196.72 365.74 1153.39 365.74C1138.93 365.74 1124.61 369.38 1111.99 376.27C1111.05 376.78 1109.89 376.55 1109.22 375.72C1092.68 355.19 1068.12 343.42 1041.81 343.42C1015.5 343.42 990.939 355.19 974.399 375.72C973.729 376.55 972.569 376.78 971.629 376.27C959.009 369.38 944.689 365.74 930.229 365.74V365.75Z" fill="#5E5E5E"/>
<path d="M889.708 457.06C888.488 457.06 887.508 456.08 887.508 454.86C887.508 434.67 903.928 418.24 924.118 418.24C933.898 418.24 943.098 422.05 950.008 428.97C950.868 429.83 950.868 431.22 950.008 432.08C949.148 432.94 947.758 432.94 946.898 432.08C940.818 425.99 932.728 422.64 924.118 422.64C906.358 422.64 891.908 437.09 891.908 454.86C891.908 456.08 890.928 457.06 889.708 457.06Z" fill="#5E5E5E"/>
<path d="M982.77 457.449C981.55 457.449 980.57 456.459 980.57 455.249C980.57 429.439 1001.56 408.449 1027.36 408.449C1042.93 408.449 1057.43 416.159 1066.16 429.079C1066.84 430.089 1066.58 431.459 1065.57 432.139C1064.56 432.819 1063.19 432.549 1062.51 431.549C1054.6 419.839 1041.46 412.859 1027.36 412.859C1003.99 412.859 984.97 431.879 984.97 455.259C984.97 456.479 983.99 457.459 982.77 457.459V457.449Z" fill="#5E5E5E"/>
<path d="M918.719 548.55C917.499 548.55 916.52 547.57 916.52 546.35C916.52 525.11 933.799 507.82 955.049 507.82C965.34 507.82 975.009 511.83 982.289 519.11C983.149 519.97 983.149 521.36 982.289 522.22C981.429 523.08 980.04 523.08 979.18 522.22C972.73 515.77 964.169 512.22 955.049 512.22C936.24 512.22 920.93 527.53 920.93 546.35C920.93 547.57 919.949 548.55 918.729 548.55H918.719Z" fill="#5E5E5E"/>
<path d="M1016.95 548.96C1015.73 548.96 1014.75 547.98 1014.75 546.76C1014.75 519.59 1036.85 497.49 1064.02 497.49C1080.41 497.49 1095.68 505.61 1104.87 519.21C1105.55 520.22 1105.29 521.59 1104.28 522.27C1103.28 522.95 1101.9 522.69 1101.22 521.68C1092.85 509.29 1078.94 501.9 1064.02 501.9C1039.28 501.9 1019.16 522.03 1019.16 546.77C1019.16 547.99 1018.18 548.97 1016.96 548.97L1016.95 548.96Z" fill="#5E5E5E"/>
<path d="M1099.07 479.519C1098.26 479.519 1097.48 479.069 1097.09 478.289C1093.98 472.009 1092.41 465.259 1092.41 458.209C1092.41 433.219 1112.74 412.879 1137.73 412.879C1149.2 412.879 1160.15 417.179 1168.55 424.979C1169.44 425.809 1169.49 427.199 1168.66 428.089C1167.83 428.979 1166.44 429.029 1165.55 428.199C1157.97 421.159 1148.09 417.279 1137.73 417.279C1115.17 417.279 1096.81 435.639 1096.81 458.199C1096.81 464.569 1098.23 470.669 1101.03 476.329C1101.57 477.419 1101.12 478.739 1100.03 479.279C1099.72 479.429 1099.38 479.509 1099.06 479.509L1099.07 479.519Z" fill="#5E5E5E"/>
<path d="M1649.56 434.199L1925.47 434.199V34.1992L1649.56 34.1992V434.199Z" fill="#121212"/>
<path d="M1353.03 90.0293L1925.47 90.0293V34.2093L1353.03 34.2093V90.0293Z" fill="#B9BEC6"/>
<path d="M1382.8 74.2396C1389.65 74.2396 1395.21 68.7238 1395.21 61.9196C1395.21 55.1155 1389.65 49.5996 1382.8 49.5996C1375.94 49.5996 1370.39 55.1155 1370.39 61.9196C1370.39 68.7238 1375.94 74.2396 1382.8 74.2396Z" fill="#121212"/>
<path d="M1423.62 74.2396C1430.47 74.2396 1436.03 68.7238 1436.03 61.9196C1436.03 55.1155 1430.47 49.5996 1423.62 49.5996C1416.76 49.5996 1411.21 55.1155 1411.21 61.9196C1411.21 68.7238 1416.76 74.2396 1423.62 74.2396Z" fill="#121212"/>
<path d="M1464.44 74.2396C1471.29 74.2396 1476.85 68.7238 1476.85 61.9196C1476.85 55.1155 1471.29 49.5996 1464.44 49.5996C1457.58 49.5996 1452.03 55.1155 1452.03 61.9196C1452.03 68.7238 1457.58 74.2396 1464.44 74.2396Z" fill="#121212"/>
<path d="M1925.47 436.4H1353.03C1351.81 436.4 1350.83 435.41 1350.83 434.2V34.2C1350.83 32.98 1351.81 32 1353.03 32H1925.47C1926.69 32 1927.67 32.98 1927.67 34.2V434.2C1927.67 435.42 1926.69 436.4 1925.47 436.4ZM1355.23 432H1923.27V36.4H1355.23V431.99V432Z" fill="#5E5E5E"/>
<path d="M1892.25 116.66V114.16H1889.75H1721.2H1718.7V116.66V283.94V286.44H1721.2H1889.75H1892.25V283.94V116.66Z" fill="#121212" stroke="white" stroke-width="5"/>
<path d="M1877.22 274.011H1881.79L1879.33 270.163L1830.81 194.373L1828.83 191.279L1826.67 194.257L1791.33 243.178L1772.63 224.95L1770.69 223.06L1768.96 225.144L1731.81 269.914L1728.41 274.011H1733.73H1877.22Z" fill="#121212" stroke="white" stroke-width="5"/>
<path d="M1775.98 196.851C1786.15 196.851 1794.42 188.667 1794.42 178.531C1794.42 168.395 1786.15 160.211 1775.98 160.211C1765.81 160.211 1757.54 168.395 1757.54 178.531C1757.54 188.667 1765.81 196.851 1775.98 196.851Z" fill="#121212" stroke="white" stroke-width="5"/>
<path d="M1466.47 261.461H1421.74V273.701H1466.47V261.461Z" fill="white"/>
<path d="M1588.87 261.461H1484.01V273.701H1588.87V261.461Z" fill="white"/>
<path d="M1560.54 175.051H1466.79V187.291H1560.54V175.051Z" fill="white"/>
<path d="M1636.02 175.051H1576.31V187.291H1636.02V175.051Z" fill="white"/>
<path d="M1652.87 346.301H1467.18V358.541H1652.87V346.301Z" fill="white"/>
<path d="M1735.81 346.301H1676.1V358.541H1735.81V346.301Z" fill="white"/>
<path d="M1506.37 221.721H1422.69V233.961H1506.37V221.721Z" fill="white"/>
<path d="M1701.27 221.641H1531.21V233.881H1701.27V221.641Z" fill="white"/>
<path d="M1813.73 305.43H1772.47V317.67H1813.73V305.43Z" fill="white"/>
<path d="M1537.43 305.23H1466.79V317.47H1537.43V305.23Z" fill="white"/>
<path d="M1760.27 305.43H1560.54V317.67H1760.27V305.43Z" fill="white"/>
<path d="M1412.94 142.199L1392.9 150.029L1412.94 157.859V161.209L1389.25 151.809V148.239L1412.94 138.789V142.189V142.199Z" fill="white"/>
<path d="M1433.37 123.449H1436.91L1418.94 174.339H1415.4L1433.37 123.449Z" fill="white"/>
<path d="M1462.51 148.249V151.819L1438.82 161.219V157.869L1458.86 150.039L1438.82 142.209V138.809L1462.51 148.259V148.249Z" fill="white"/>
<path d="M1479.44 714.909L1521.7 732.879L1532.89 706.559C1543.53 708.389 1554.22 708.439 1564.59 706.859L1575.31 733.399L1617.88 716.249L1607.16 689.709C1615.72 683.659 1623.39 676.219 1629.78 667.529L1656.12 678.729L1674.07 636.509L1647.73 625.309C1649.55 614.679 1649.59 603.989 1648.01 593.629L1674.55 582.939L1657.36 540.379L1630.82 551.069C1624.76 542.509 1617.31 534.839 1608.61 528.439L1619 500.819L1577.54 484.149L1566.35 510.469C1555.71 508.639 1545.02 508.589 1534.65 510.169L1523.93 483.629L1481.36 500.779L1492.08 527.319C1483.52 533.369 1475.85 540.809 1469.46 549.499L1443.12 538.299L1425.17 580.519L1451.51 591.719C1449.69 602.349 1449.65 613.039 1451.23 623.399L1424.69 634.089L1441.88 676.649L1468.42 665.959C1474.48 674.519 1481.93 682.189 1490.63 688.589L1479.44 714.909ZM1496.33 585.859C1508.83 556.459 1542.82 542.759 1572.25 555.279C1601.68 567.789 1615.4 601.779 1602.9 631.179C1590.4 660.579 1556.41 674.279 1526.98 661.759C1497.55 649.249 1483.83 615.259 1496.33 585.859Z" fill="#121212"/>
<path d="M1575.3 735.599C1574.43 735.599 1573.61 735.079 1573.26 734.219L1563.19 709.279C1553.54 710.579 1543.82 710.489 1534.24 709.009L1523.73 733.739C1523.5 734.279 1523.07 734.699 1522.53 734.919C1521.99 735.139 1521.38 735.129 1520.84 734.899L1478.58 716.929C1477.46 716.449 1476.94 715.159 1477.42 714.039L1487.93 689.309C1480.21 683.429 1473.4 676.489 1467.65 668.639L1442.71 678.689C1441.58 679.139 1440.3 678.599 1439.84 677.469L1422.65 634.909C1422.43 634.369 1422.44 633.759 1422.67 633.219C1422.9 632.679 1423.33 632.259 1423.87 632.039L1448.81 621.989C1447.5 612.359 1447.59 602.639 1449.06 593.049L1424.31 582.519C1423.19 582.039 1422.67 580.749 1423.15 579.629L1441.1 537.409C1441.33 536.869 1441.76 536.449 1442.3 536.229C1442.84 536.009 1443.45 536.019 1443.99 536.249L1468.74 546.769C1474.62 539.059 1481.55 532.259 1489.4 526.509L1479.33 501.569C1479.11 501.029 1479.12 500.419 1479.35 499.879C1479.58 499.339 1480.01 498.919 1480.55 498.699L1523.12 481.549C1524.25 481.099 1525.53 481.639 1525.99 482.769L1536.06 507.709C1545.7 506.409 1555.42 506.499 1565.01 507.979L1575.52 483.249C1575.99 482.139 1577.26 481.629 1578.37 482.069L1619.83 498.739C1620.94 499.189 1621.49 500.439 1621.07 501.559L1611.26 527.629C1619 533.519 1625.83 540.469 1631.6 548.339L1656.54 538.289C1657.67 537.839 1658.95 538.379 1659.41 539.509L1676.6 582.069C1676.82 582.609 1676.81 583.219 1676.58 583.759C1676.35 584.299 1675.92 584.719 1675.38 584.939L1650.44 594.989C1651.75 604.629 1651.66 614.339 1650.19 623.929L1674.94 634.459C1676.06 634.939 1676.58 636.229 1676.1 637.349L1658.15 679.569C1657.92 680.109 1657.49 680.529 1656.95 680.749C1656.41 680.969 1655.8 680.959 1655.26 680.729L1630.51 670.209C1624.63 677.919 1617.7 684.719 1609.85 690.469L1619.92 715.409C1620.14 715.949 1620.13 716.559 1619.9 717.099C1619.67 717.639 1619.24 718.059 1618.7 718.279L1576.13 735.429C1575.86 735.539 1575.58 735.589 1575.31 735.589L1575.3 735.599ZM1564.59 704.659C1565.48 704.659 1566.29 705.199 1566.63 706.039L1576.52 730.539L1615.01 715.029L1605.12 690.539C1604.74 689.589 1605.06 688.509 1605.89 687.919C1614.41 681.899 1621.85 674.609 1628.01 666.229C1628.62 665.409 1629.71 665.109 1630.65 665.509L1654.96 675.849L1671.19 637.679L1646.88 627.339C1645.94 626.939 1645.4 625.949 1645.57 624.939C1647.33 614.699 1647.42 604.279 1645.84 593.959C1645.69 592.949 1646.25 591.969 1647.19 591.579L1671.69 581.709L1656.15 543.229L1631.65 553.099C1630.7 553.479 1629.62 553.159 1629.03 552.329C1623 543.809 1615.7 536.359 1607.32 530.209C1606.52 529.619 1606.21 528.579 1606.56 527.659L1616.19 502.059L1578.73 486.999L1568.38 511.329C1567.98 512.269 1567 512.809 1565.98 512.639C1555.73 510.879 1545.3 510.779 1534.99 512.349C1533.99 512.499 1533 511.949 1532.62 510.999L1522.73 486.499L1484.24 502.009L1494.13 526.499C1494.51 527.449 1494.19 528.529 1493.36 529.119C1484.84 535.129 1477.4 542.429 1471.24 550.809C1470.64 551.639 1469.54 551.939 1468.6 551.529L1444.29 541.189L1428.06 579.359L1452.37 589.699C1453.31 590.099 1453.85 591.089 1453.68 592.099C1451.93 602.349 1451.83 612.769 1453.41 623.079C1453.56 624.089 1453 625.069 1452.06 625.459L1427.56 635.329L1443.1 673.809L1467.61 663.939C1468.56 663.559 1469.64 663.879 1470.23 664.709C1476.26 673.229 1483.56 680.679 1491.94 686.829C1492.76 687.429 1493.06 688.529 1492.66 689.469L1482.33 713.759L1520.53 730.009L1530.86 705.719C1531.26 704.779 1532.22 704.239 1533.26 704.409C1543.51 706.169 1553.93 706.269 1564.25 704.699C1564.36 704.679 1564.47 704.669 1564.58 704.669L1564.59 704.659ZM1549.66 668.619C1541.68 668.619 1533.7 667.009 1526.13 663.789C1495.63 650.819 1481.36 615.479 1494.32 584.999C1500.6 570.239 1512.25 558.799 1527.13 552.809C1542.01 546.819 1558.34 546.969 1573.12 553.259C1603.62 566.229 1617.89 601.569 1604.93 632.049C1598.65 646.809 1587 658.249 1572.12 664.239C1564.86 667.159 1557.26 668.619 1549.66 668.619ZM1549.59 552.829C1542.55 552.829 1535.5 554.179 1528.78 556.889C1514.99 562.449 1504.19 573.039 1498.37 586.719C1486.36 614.959 1499.59 647.709 1527.86 659.729C1541.55 665.549 1556.69 665.699 1570.48 660.139C1584.27 654.579 1595.07 643.989 1600.89 630.309C1612.89 602.069 1599.67 569.319 1571.4 557.299C1564.39 554.319 1556.99 552.819 1549.59 552.819V552.829Z" fill="#5E5E5E"/>
<path d="M478.098 823.42H320.438V894.23H478.098V823.42Z" fill="white"/>
<path d="M699.258 823.42H541.598V894.23H699.258V823.42Z" fill="white"/>
<path d="M262.308 823.42H104.648V894.23H262.308V823.42Z" fill="white"/>
<path d="M478.098 693.969H320.438V764.779H478.098V693.969Z" fill="white"/>
<path d="M699.258 693.969H541.598V764.779H699.258V693.969Z" fill="white"/>
<path d="M262.308 693.969H104.648V764.779H262.308V693.969Z" fill="white"/>
<path d="M478.098 564.18H320.438V634.99H478.098V564.18Z" fill="white"/>
<path d="M394.821 826.549C393.601 826.549 392.621 825.559 392.621 824.349V757.639C392.621 756.419 393.601 755.439 394.821 755.439C396.041 755.439 397.021 756.419 397.021 757.639V824.349C397.021 825.569 396.041 826.549 394.821 826.549Z" fill="white"/>
<path d="M615.981 819.579C614.761 819.579 613.781 818.599 613.781 817.379V796.369H178.041V817.379C178.041 818.599 177.061 819.579 175.841 819.579C174.621 819.579 173.641 818.599 173.641 817.379V794.159C173.641 792.939 174.621 791.959 175.841 791.959H615.981C617.201 791.959 618.181 792.939 618.181 794.159V817.379C618.181 818.599 617.201 819.579 615.981 819.579Z" fill="white"/>
<path d="M473.64 817.379H315.98V888.189H473.64V817.379Z" fill="#121212"/>
<path d="M473.649 890.4H315.989C314.769 890.4 313.789 889.42 313.789 888.2V817.38C313.789 816.16 314.779 815.18 315.989 815.18H473.649C474.869 815.18 475.849 816.16 475.849 817.38V888.2C475.849 889.42 474.869 890.4 473.649 890.4ZM318.189 886H471.449V819.59H318.189V886Z" fill="white"/>
<path d="M694.808 817.379H537.148V888.189H694.808V817.379Z" fill="#121212"/>
<path d="M694.809 890.4H537.149C535.929 890.4 534.949 889.42 534.949 888.2V817.38C534.949 816.16 535.929 815.18 537.149 815.18H694.809C696.029 815.18 697.009 816.16 697.009 817.38V888.2C697.009 889.42 696.029 890.4 694.809 890.4ZM539.349 886H692.609V819.59H539.349V886Z" fill="white"/>
<path d="M257.859 817.379H100.199V888.189H257.859V817.379Z" fill="#121212"/>
<path d="M257.86 890.4H100.2C98.98 890.4 98 889.42 98 888.2V817.38C98 816.16 98.98 815.18 100.2 815.18H257.86C259.08 815.18 260.06 816.16 260.06 817.38V888.2C260.06 889.42 259.08 890.4 257.86 890.4ZM102.4 886H255.66V819.59H102.4V886Z" fill="white"/>
<path d="M394.821 697.098C393.601 697.098 392.621 696.118 392.621 694.898V628.188C392.621 626.968 393.601 625.988 394.821 625.988C396.041 625.988 397.021 626.968 397.021 628.188V694.898C397.021 696.118 396.041 697.098 394.821 697.098Z" fill="white"/>
<path d="M615.981 690.138C614.761 690.138 613.781 689.158 613.781 687.938V666.918H178.041V687.938C178.041 689.158 177.061 690.138 175.841 690.138C174.621 690.138 173.641 689.158 173.641 687.938V664.718C173.641 663.498 174.621 662.518 175.841 662.518H615.981C617.201 662.518 618.181 663.498 618.181 664.718V687.938C618.181 689.158 617.201 690.138 615.981 690.138Z" fill="white"/>
<path d="M473.64 687.928H315.98V758.738H473.64V687.928Z" fill="#121212"/>
<path d="M473.649 760.948H315.989C314.769 760.948 313.789 759.968 313.789 758.748V687.938C313.789 686.718 314.779 685.738 315.989 685.738H473.649C474.869 685.738 475.849 686.718 475.849 687.938V758.748C475.849 759.968 474.869 760.948 473.649 760.948ZM318.189 756.548H471.449V690.138H318.189V756.548Z" fill="white"/>
<path d="M694.808 687.928H537.148V758.738H694.808V687.928Z" fill="#121212"/>
<path d="M694.809 760.948H537.149C535.929 760.948 534.949 759.968 534.949 758.748V687.938C534.949 686.718 535.929 685.738 537.149 685.738H694.809C696.029 685.738 697.009 686.718 697.009 687.938V758.748C697.009 759.968 696.029 760.948 694.809 760.948ZM539.349 756.548H692.609V690.138H539.349V756.548Z" fill="white"/>
<path d="M257.859 687.928H100.199V758.738H257.859V687.928Z" fill="#121212"/>
<path d="M257.86 760.948H100.2C98.98 760.948 98 759.968 98 758.748V687.938C98 686.718 98.98 685.738 100.2 685.738H257.86C259.08 685.738 260.06 686.718 260.06 687.938V758.748C260.06 759.968 259.08 760.948 257.86 760.948ZM102.4 756.548H255.66V690.138H102.4V756.548Z" fill="white"/>
<path d="M473.64 558.139H315.98V628.949H473.64V558.139Z" fill="#121212"/>
<path d="M473.649 631.159H315.989C314.769 631.159 313.789 630.169 313.789 628.959V558.149C313.789 556.929 314.779 555.949 315.989 555.949H473.649C474.869 555.949 475.849 556.929 475.849 558.149V628.959C475.849 630.179 474.869 631.159 473.649 631.159ZM318.189 626.759H471.449V560.349H318.189V626.759Z" fill="white"/>
<path d="M389.253 524.562L212.633 351.792C197.073 336.572 172.123 336.852 156.903 352.412C141.683 367.972 141.963 392.932 157.523 408.152L334.143 580.922C349.703 596.142 374.653 595.862 389.873 580.302C405.093 564.742 404.813 539.782 389.253 524.562Z" fill="#121212"/>
<path d="M100.863 325.681V434.021H194.303V325.681H100.863Z" fill="#121212"/>
<path d="M194.302 436.221H100.872C99.6519 436.221 98.6719 435.241 98.6719 434.021V325.671C98.6719 324.451 99.6519 323.471 100.872 323.471H194.312C195.532 323.471 196.512 324.451 196.512 325.671V434.021C196.512 435.241 195.522 436.221 194.312 436.221H194.302ZM103.062 431.821H192.092V327.881H103.072V431.821H103.062Z" fill="white"/>
<path d="M658.872 145.392L582.182 101.102L505.492 145.392V233.952L582.182 278.242L658.872 233.952V233.912L634.842 220.032H633.692L582.182 249.772L530.142 219.722V159.622L582.182 129.572L634.032 159.512H634.492L658.872 145.432V145.392Z" fill="#121212"/>
<path d="M582.183 280.441C581.803 280.441 581.423 280.341 581.083 280.151L504.393 235.861C503.713 235.471 503.293 234.741 503.293 233.951V145.381C503.293 144.591 503.713 143.871 504.393 143.471L581.083 99.1909C581.763 98.8009 582.603 98.8009 583.283 99.1909L659.973 143.471C660.653 143.861 661.073 144.591 661.073 145.381V145.431C661.073 146.221 660.653 146.941 659.973 147.341L635.593 161.421C635.253 161.611 634.883 161.711 634.493 161.711H634.033C633.643 161.711 633.263 161.611 632.933 161.421L582.183 132.111L532.343 160.891V218.451L582.183 247.231L632.593 218.121C632.933 217.931 633.303 217.831 633.693 217.831H634.833C635.223 217.831 635.603 217.931 635.933 218.121L659.973 232.001C660.653 232.391 661.073 233.121 661.073 233.911C661.073 234.701 660.653 235.471 659.973 235.861L583.283 280.151C582.943 280.351 582.563 280.441 582.183 280.441ZM507.693 232.681L582.183 275.691L654.503 233.921L634.263 222.231L583.283 251.671C582.603 252.061 581.763 252.061 581.083 251.671L529.043 221.621C528.363 221.231 527.943 220.501 527.943 219.711V159.611C527.943 158.821 528.363 158.101 529.043 157.701L581.083 127.651C581.763 127.261 582.603 127.261 583.283 127.651L634.263 157.091L654.503 145.401L582.183 103.641L507.693 146.651V232.671V232.681Z" fill="white"/>
<path d="M505.491 199.011H479.391C478.171 199.011 477.191 198.031 477.191 196.811V178.821C477.191 177.601 478.181 176.621 479.391 176.621H505.491C506.711 176.621 507.691 177.601 507.691 178.821V196.811C507.691 198.031 506.701 199.011 505.491 199.011ZM481.601 194.611H503.291V181.031H481.601V194.611Z" fill="white"/>
<path d="M479.401 226.522H440.251C439.031 226.522 438.051 225.542 438.051 224.322V152.372C438.051 151.152 439.031 150.172 440.251 150.172H479.401C480.621 150.172 481.601 151.152 481.601 152.372V224.322C481.601 225.542 480.611 226.522 479.401 226.522ZM442.461 222.122H477.201V154.572H442.461V222.122Z" fill="white"/>
<path d="M298.113 191.552V191.482C298.113 161.722 322.283 137.552 352.043 137.552H440.243V245.482H352.043C322.283 245.482 298.113 221.312 298.113 191.552Z" fill="#121212"/>
<path d="M440.252 247.692H352.052C321.102 247.692 295.922 222.512 295.922 191.562C295.922 160.612 321.102 135.352 352.052 135.352H440.252C441.472 135.352 442.452 136.332 442.452 137.552V245.482C442.452 246.702 441.462 247.682 440.252 247.682V247.692ZM352.052 139.762C323.532 139.762 300.322 162.972 300.322 191.492C300.322 220.012 323.532 243.292 352.052 243.292H438.052V139.762H352.052Z" fill="white"/>
<path d="M378.892 272.551C377.672 272.551 376.692 271.571 376.692 270.351V247.691H346.322V270.351C346.322 271.571 345.332 272.551 344.122 272.551C342.912 272.551 341.922 271.571 341.922 270.351V245.481C341.922 244.261 342.902 243.281 344.122 243.281H378.892C380.112 243.281 381.092 244.261 381.092 245.481V270.351C381.092 271.571 380.102 272.551 378.892 272.551Z" fill="white"/>
<path d="M361.681 594.361C350.741 594.361 340.431 590.161 332.601 582.501L155.981 409.731C139.581 393.681 139.281 367.281 155.331 350.871C163.101 342.921 173.501 338.481 184.621 338.351C195.741 338.261 206.231 342.441 214.181 350.211L390.801 522.981C407.201 539.031 407.501 565.431 391.451 581.831C383.681 589.781 373.281 594.221 362.161 594.351C362.001 594.351 361.841 594.351 361.681 594.351V594.361ZM185.081 342.761C184.941 342.761 184.801 342.761 184.661 342.761C174.721 342.871 165.421 346.841 158.471 353.951C144.131 368.621 144.391 392.231 159.051 406.581L335.671 579.351C342.781 586.301 352.071 590.021 362.101 589.961C372.041 589.851 381.341 585.881 388.291 578.771C402.631 564.101 402.371 540.491 387.711 526.141L211.091 353.371C204.091 346.521 194.871 342.761 185.091 342.761H185.081Z" fill="white"/>
<path d="M184.591 442.641C219.269 442.641 247.381 414.524 247.381 379.841C247.381 345.158 219.269 317.041 184.591 317.041C149.913 317.041 121.801 345.158 121.801 379.841C121.801 414.524 149.913 442.641 184.591 442.641Z" fill="#121212"/>
<path d="M184.594 444.85C148.754 444.85 119.594 415.69 119.594 379.84C119.594 343.99 148.754 314.83 184.594 314.83C220.434 314.83 249.594 343.99 249.594 379.84C249.594 415.69 220.434 444.85 184.594 444.85ZM184.594 319.24C151.184 319.24 124.004 346.43 124.004 379.84C124.004 413.25 151.184 440.44 184.594 440.44C218.004 440.44 245.184 413.26 245.184 379.84C245.184 346.42 218.004 319.24 184.594 319.24Z" fill="white"/>
<path d="M401.101 553.622V306.512C401.101 284.742 383.461 267.102 361.691 267.102C339.921 267.102 322.281 284.742 322.281 306.512V553.622C322.281 575.392 339.921 593.032 361.691 593.032C383.461 593.032 401.101 575.392 401.101 553.622Z" fill="#121212"/>
<path d="M361.692 595.23C338.742 595.23 320.082 576.56 320.082 553.62V306.51C320.082 283.56 338.752 264.9 361.692 264.9C384.632 264.9 403.302 283.57 403.302 306.51V553.62C403.302 576.57 384.632 595.23 361.692 595.23ZM361.692 269.3C341.172 269.3 324.482 285.99 324.482 306.51V553.62C324.482 574.14 341.172 590.83 361.692 590.83C382.212 590.83 398.902 574.14 398.902 553.62V306.51C398.902 285.99 382.212 269.3 361.692 269.3Z" fill="white"/>
<path d="M143.798 1851.27H578.598L578.598 1138.78H143.798L143.798 1851.27Z" fill="#B9BEC6"/>
<path d="M101.098 1858.89H627.668V1712.4H101.098V1858.89Z" fill="white"/>
<path d="M627.668 1861.09H101.098C99.8784 1861.09 98.8984 1860.11 98.8984 1858.89V1712.4C98.8984 1711.18 99.8784 1710.2 101.098 1710.2H627.668C628.888 1710.2 629.868 1711.18 629.868 1712.4V1858.89C629.868 1860.11 628.888 1861.09 627.668 1861.09ZM103.298 1856.69H625.468V1714.6H103.298V1856.69Z" fill="black"/>
<path d="M101.098 1665.95H627.668V1519.46H101.098V1665.95Z" fill="white"/>
<path d="M627.668 1668.15H101.098C99.8784 1668.15 98.8984 1667.17 98.8984 1665.95V1519.46C98.8984 1518.24 99.8784 1517.26 101.098 1517.26H627.668C628.888 1517.26 629.868 1518.24 629.868 1519.46V1665.95C629.868 1667.17 628.888 1668.15 627.668 1668.15ZM103.298 1663.75H625.468V1521.67H103.298V1663.75Z" fill="black"/>
<path d="M101.098 1282.06H627.668V1135.57H101.098V1282.06Z" fill="white"/>
<path d="M627.668 1284.26H101.098C99.8784 1284.26 98.8984 1283.28 98.8984 1282.06V1135.57C98.8984 1134.35 99.8784 1133.37 101.098 1133.37H627.668C628.888 1133.37 629.868 1134.36 629.868 1135.57V1282.06C629.868 1283.28 628.888 1284.26 627.668 1284.26ZM103.298 1279.86H625.468V1137.78H103.298V1279.86Z" fill="black"/>
<path d="M101.098 1475.54H627.668V1329.05H101.098V1475.54Z" fill="white"/>
<path d="M627.668 1477.74H101.098C99.8784 1477.74 98.8984 1476.76 98.8984 1475.54V1329.05C98.8984 1327.83 99.8784 1326.85 101.098 1326.85H627.668C628.888 1326.85 629.868 1327.84 629.868 1329.05V1475.54C629.868 1476.76 628.888 1477.74 627.668 1477.74ZM103.298 1473.34H625.468V1331.26H103.298V1473.34Z" fill="black"/>
<path d="M535.418 1208.82C535.418 1221.81 545.088 1232.34 557.008 1232.34C568.928 1232.34 578.598 1221.81 578.598 1208.82C578.598 1195.83 568.928 1185.3 557.008 1185.3C545.088 1185.3 535.418 1195.83 535.418 1208.82Z" fill="black"/>
<path d="M488.148 1227.69H162.298C161.078 1227.69 160.098 1226.71 160.098 1225.49V1192.14C160.098 1190.92 161.078 1189.94 162.298 1189.94H488.148C489.368 1189.94 490.348 1190.93 490.348 1192.14V1225.49C490.348 1226.71 489.368 1227.69 488.148 1227.69ZM164.498 1223.29H485.948V1194.35H164.498V1223.29Z" fill="black"/>
<path d="M557.008 1425.81C568.932 1425.81 578.598 1415.28 578.598 1402.29C578.598 1389.3 568.932 1378.77 557.008 1378.77C545.084 1378.77 535.418 1389.3 535.418 1402.29C535.418 1415.28 545.084 1425.81 557.008 1425.81Z" fill="black"/>
<path d="M488.148 1421.17H162.298C161.078 1421.17 160.098 1420.19 160.098 1418.97V1385.62C160.098 1384.4 161.078 1383.42 162.298 1383.42H488.148C489.368 1383.42 490.348 1384.4 490.348 1385.62V1418.97C490.348 1420.19 489.368 1421.17 488.148 1421.17ZM164.498 1416.77H485.948V1387.83H164.498V1416.77Z" fill="black"/>
<path d="M557.008 1616.22C568.932 1616.22 578.598 1605.69 578.598 1592.7C578.598 1579.71 568.932 1569.18 557.008 1569.18C545.084 1569.18 535.418 1579.71 535.418 1592.7C535.418 1605.69 545.084 1616.22 557.008 1616.22Z" fill="black"/>
<path d="M488.148 1611.57H162.298C161.078 1611.57 160.098 1610.59 160.098 1609.37V1576.02C160.098 1574.8 161.078 1573.82 162.298 1573.82H488.148C489.368 1573.82 490.348 1574.8 490.348 1576.02V1609.37C490.348 1610.59 489.368 1611.57 488.148 1611.57ZM164.498 1607.17H485.948V1578.23H164.498V1607.17Z" fill="black"/>
<path d="M557.008 1809.16C568.932 1809.16 578.598 1798.63 578.598 1785.64C578.598 1772.65 568.932 1762.12 557.008 1762.12C545.084 1762.12 535.418 1772.65 535.418 1785.64C535.418 1798.63 545.084 1809.16 557.008 1809.16Z" fill="black"/>
<path d="M488.148 1804.51H162.298C161.078 1804.51 160.098 1803.53 160.098 1802.31V1768.96C160.098 1767.74 161.078 1766.76 162.298 1766.76H488.148C489.368 1766.76 490.348 1767.74 490.348 1768.96V1802.31C490.348 1803.53 489.368 1804.51 488.148 1804.51ZM164.498 1800.11H485.948V1771.17H164.498V1800.11Z" fill="black"/>
<path d="M754.145 1823.89H552.375L641.105 1653.42H783.725L754.145 1823.89Z" fill="white"/>
<path d="M754.143 1826.09H552.373C551.603 1826.09 550.893 1825.69 550.493 1825.03C550.093 1824.37 550.063 1823.55 550.423 1822.87L639.153 1652.41C639.533 1651.68 640.283 1651.23 641.103 1651.23H783.723C784.373 1651.23 784.993 1651.52 785.413 1652.01C785.833 1652.51 786.013 1653.16 785.893 1653.8L756.313 1824.26C756.133 1825.32 755.213 1826.09 754.143 1826.09ZM555.993 1821.69H752.283L781.093 1655.63H642.423L555.983 1821.69H555.993Z" fill="black"/>
<path d="M768.262 1859.53H729.982L713.642 1842.68L697.252 1859.53H620.222L602.922 1842.68L584.992 1859.53H531.262L538.552 1820.08H760.972L768.262 1859.53Z" fill="black"/>
<path d="M1265.09 1826.46C1265.09 1831.48 1264.72 1836.41 1263.99 1841.24H1066.37C1065.67 1836.42 1065.27 1831.49 1065.27 1826.46C1065.27 1823.84 1065.38 1821.22 1065.58 1818.64H1035.1L1061 1684.79H1169.08L1196.21 1731.54C1236.2 1744.58 1265.09 1782.15 1265.09 1826.45V1826.46Z" fill="white"/>
<path d="M1263.99 1843.44H1066.37C1065.28 1843.44 1064.35 1842.64 1064.19 1841.56C1063.44 1836.44 1063.07 1831.36 1063.07 1826.46C1063.07 1824.63 1063.12 1822.75 1063.23 1820.85H1035.11C1034.45 1820.85 1033.83 1820.56 1033.41 1820.05C1032.99 1819.54 1032.82 1818.88 1032.95 1818.23L1058.85 1684.38C1059.05 1683.35 1059.96 1682.6 1061.01 1682.6H1169.09C1169.87 1682.6 1170.6 1683.02 1171 1683.7L1197.71 1729.73C1239.38 1743.69 1267.31 1782.46 1267.31 1826.47C1267.31 1831.54 1266.93 1836.62 1266.19 1841.58C1266.03 1842.66 1265.1 1843.45 1264.01 1843.45L1263.99 1843.44ZM1068.29 1839.04H1262.08C1262.62 1834.9 1262.89 1830.67 1262.89 1826.46C1262.89 1784.08 1235.82 1746.78 1195.53 1733.64C1195.01 1733.47 1194.58 1733.12 1194.31 1732.65L1167.82 1686.99H1062.83L1037.78 1816.43H1065.59C1066.2 1816.43 1066.79 1816.69 1067.2 1817.14C1067.62 1817.59 1067.83 1818.19 1067.78 1818.8C1067.58 1821.4 1067.48 1823.97 1067.48 1826.45C1067.48 1830.54 1067.76 1834.76 1068.3 1839.03L1068.29 1839.04Z" fill="black"/>
<path d="M1216.45 1768.65C1215.69 1768.65 1214.95 1768.26 1214.54 1767.55L1194.3 1732.66C1193.69 1731.61 1194.05 1730.26 1195.1 1729.65C1196.16 1729.04 1197.5 1729.4 1198.11 1730.45L1218.35 1765.34C1218.96 1766.39 1218.6 1767.74 1217.55 1768.35C1217.2 1768.55 1216.82 1768.65 1216.45 1768.65Z" fill="black"/>
<path d="M1276.79 1858.09H1236.01L1218.61 1841.24L1201.15 1858.09H1119.09L1100.67 1841.24L1081.56 1858.09H1024.33L1032.1 1818.65H1269.03L1276.79 1858.09Z" fill="black"/>
<path d="M638.291 1191.76V1191.71L638.289 1191.67L634.626 1092.94H797.863L986.898 1106.28L986.929 1106.28C987.026 1106.3 987.173 1106.32 987.367 1106.35C987.755 1106.42 988.333 1106.52 989.09 1106.65C990.605 1106.92 992.835 1107.32 995.691 1107.85C1001.4 1108.92 1009.61 1110.52 1019.6 1112.68C1039.58 1116.99 1066.65 1123.48 1095.02 1132.22C1123.4 1140.96 1153.02 1151.93 1178.13 1165.16C1203.3 1178.44 1223.62 1193.83 1233.8 1211.26C1260.16 1256.35 1262.7 1312.88 1263.84 1339.75H1166.89L797.782 1320.37L797.717 1320.37H797.651C783.35 1320.37 757.355 1313.45 732.049 1303.83C719.455 1299.04 707.141 1293.62 696.673 1288.14C686.159 1282.64 677.673 1277.16 672.604 1272.29C650.683 1251.22 638.291 1222.14 638.291 1191.76Z" fill="#121212" stroke="white" stroke-width="5"/>
<path d="M1026.29 1693.55L1073 1209.99L1073.71 1202.6L1068.68 1208.05L1070.51 1209.75C1068.68 1208.05 1068.68 1208.05 1068.67 1208.05L1068.67 1208.06L1068.66 1208.08L1068.6 1208.14C1068.55 1208.19 1068.47 1208.28 1068.37 1208.38C1068.17 1208.6 1067.88 1208.92 1067.49 1209.35C1066.72 1210.2 1065.58 1211.46 1064.12 1213.1C1061.19 1216.38 1056.94 1221.2 1051.68 1227.35C1041.16 1239.63 1026.57 1257.23 1010.28 1278.45C977.704 1320.88 938.264 1377.91 910.978 1436.18L790.442 1693.55H604.428L794.1 1217.05L817.627 1166.11L934.119 1146.71L1117.7 1156.98L1117.7 1156.99C1166.98 1159.74 1218.24 1184.69 1241.42 1227.66L1243.62 1226.47L1241.42 1227.66C1257.47 1257.39 1264.74 1281.98 1265.98 1313.23C1267.23 1344.64 1262.4 1382.8 1254.1 1439.78C1254.1 1439.79 1254.1 1439.79 1254.1 1439.8L1212.7 1693.55H1026.29Z" fill="#121212" stroke="white" stroke-width="5"/>
<mask id="path-129-inside-1_2315_2804" fill="white">
<path d="M1214.83 1698.26H1023.54C1022.92 1698.26 1022.32 1698 1021.9 1697.53C1021.48 1697.07 1021.28 1696.45 1021.35 1695.83L1057.36 1352.24C1057.48 1351.03 1058.52 1350.15 1059.78 1350.28C1060.99 1350.41 1061.87 1351.49 1061.74 1352.7L1025.99 1693.86H1212.97L1254.42 1439.82C1277.18 1283.6 1263.43 1222.15 1195.56 1176.83C1144.17 1142.51 1004.32 1106.28 1002.91 1105.92C1001.73 1105.62 1001.02 1104.42 1001.33 1103.24C1001.64 1102.06 1002.85 1101.36 1004.01 1101.66C1005.43 1102.02 1146 1138.44 1198.01 1173.17C1234.52 1197.55 1254.74 1226.77 1263.57 1267.93C1272.06 1307.5 1270.63 1359.11 1258.77 1440.5L1217.01 1696.42C1216.84 1697.48 1215.92 1698.27 1214.84 1698.27L1214.83 1698.26Z"/>
</mask>
<path d="M1214.83 1698.26H1023.54C1022.92 1698.26 1022.32 1698 1021.9 1697.53C1021.48 1697.07 1021.28 1696.45 1021.35 1695.83L1057.36 1352.24C1057.48 1351.03 1058.52 1350.15 1059.78 1350.28C1060.99 1350.41 1061.87 1351.49 1061.74 1352.7L1025.99 1693.86H1212.97L1254.42 1439.82C1277.18 1283.6 1263.43 1222.15 1195.56 1176.83C1144.17 1142.51 1004.32 1106.28 1002.91 1105.92C1001.73 1105.62 1001.02 1104.42 1001.33 1103.24C1001.64 1102.06 1002.85 1101.36 1004.01 1101.66C1005.43 1102.02 1146 1138.44 1198.01 1173.17C1234.52 1197.55 1254.74 1226.77 1263.57 1267.93C1272.06 1307.5 1270.63 1359.11 1258.77 1440.5L1217.01 1696.42C1216.84 1697.48 1215.92 1698.27 1214.84 1698.27L1214.83 1698.26Z" fill="white"/>
<path d="M1214.83 1698.26L1218.37 1694.72L1216.9 1693.26H1214.83V1698.26ZM1021.9 1697.53L1025.63 1694.2L1025.61 1694.18L1025.59 1694.16L1021.9 1697.53ZM1021.35 1695.83L1026.32 1696.39L1026.32 1696.37L1026.32 1696.35L1021.35 1695.83ZM1057.36 1352.24L1062.33 1352.76L1062.33 1352.75L1062.34 1352.73L1057.36 1352.24ZM1059.78 1350.28L1060.31 1345.31L1060.3 1345.31L1060.29 1345.31L1059.78 1350.28ZM1061.74 1352.7L1056.77 1352.17L1056.77 1352.18L1061.74 1352.7ZM1025.99 1693.86L1021.02 1693.34L1020.44 1698.86H1025.99V1693.86ZM1212.97 1693.86V1698.86H1217.22L1217.91 1694.66L1212.97 1693.86ZM1254.42 1439.82L1259.36 1440.62L1259.36 1440.58L1259.37 1440.54L1254.42 1439.82ZM1195.56 1176.83L1192.78 1180.99L1192.78 1180.99L1195.56 1176.83ZM1002.91 1105.92L1004.15 1101.07L1004.14 1101.07L1002.91 1105.92ZM1004.01 1101.66L1002.76 1106.5L1002.77 1106.5L1002.78 1106.51L1004.01 1101.66ZM1198.01 1173.17L1200.79 1169.01L1200.79 1169.01L1198.01 1173.17ZM1263.57 1267.93L1258.68 1268.98L1258.68 1268.98L1263.57 1267.93ZM1258.77 1440.5L1263.71 1441.3L1263.71 1441.26L1263.72 1441.22L1258.77 1440.5ZM1217.01 1696.42L1212.08 1695.61L1212.07 1695.63L1217.01 1696.42ZM1214.84 1698.27L1211.3 1701.8L1212.77 1703.27H1214.84V1698.27ZM1214.83 1693.26H1023.54V1703.26H1214.83V1693.26ZM1023.54 1693.26C1024.31 1693.26 1025.08 1693.58 1025.63 1694.2L1018.17 1700.86C1019.56 1702.42 1021.53 1703.26 1023.54 1703.26V1693.26ZM1025.59 1694.16C1026.15 1694.77 1026.41 1695.58 1026.32 1696.39L1016.38 1695.27C1016.15 1697.31 1016.81 1699.37 1018.21 1700.9L1025.59 1694.16ZM1026.32 1696.35L1062.33 1352.76L1052.39 1351.72L1016.38 1695.31L1026.32 1696.35ZM1062.34 1352.73C1062.19 1354.25 1060.79 1355.41 1059.27 1355.25L1060.29 1345.31C1056.25 1344.89 1052.78 1347.81 1052.38 1351.75L1062.34 1352.73ZM1059.25 1355.25C1057.74 1355.09 1056.6 1353.73 1056.77 1352.17L1066.71 1353.23C1067.14 1349.25 1064.24 1345.73 1060.31 1345.31L1059.25 1355.25ZM1056.77 1352.18L1021.02 1693.34L1030.96 1694.38L1066.71 1353.22L1056.77 1352.18ZM1025.99 1698.86H1212.97V1688.86H1025.99V1698.86ZM1217.91 1694.66L1259.36 1440.62L1249.49 1439.01L1208.04 1693.05L1217.91 1694.66ZM1259.37 1440.54C1270.76 1362.36 1273.15 1307.16 1263.86 1265.64C1254.47 1223.68 1233.21 1195.95 1198.34 1172.67L1192.78 1180.99C1225.79 1203.02 1245.34 1228.68 1254.1 1267.83C1262.96 1307.42 1260.84 1361.05 1249.47 1439.1L1259.37 1440.54ZM1198.34 1172.67C1171.98 1155.07 1123.5 1137.25 1082.03 1123.88C1040.33 1110.45 1004.91 1101.27 1004.15 1101.07L1001.67 1110.76C1002.32 1110.93 1037.53 1120.05 1078.96 1133.4C1120.61 1146.82 1167.76 1164.27 1192.78 1180.99L1198.34 1172.67ZM1004.14 1101.07C1005.65 1101.46 1006.56 1103 1006.17 1104.51L996.495 1101.97C995.477 1105.84 997.814 1109.78 1001.68 1110.77L1004.14 1101.07ZM1006.17 1104.51C1005.78 1106 1004.26 1106.89 1002.76 1106.5L1005.26 1096.82C1001.44 1095.83 997.505 1098.12 996.495 1101.97L1006.17 1104.51ZM1002.78 1106.51C1002.78 1106.51 1002.79 1106.51 1002.79 1106.51C1002.8 1106.51 1002.81 1106.51 1002.82 1106.52C1002.85 1106.52 1002.88 1106.53 1002.93 1106.54C1003.01 1106.57 1003.13 1106.6 1003.28 1106.64C1003.59 1106.72 1004.02 1106.83 1004.58 1106.98C1005.69 1107.27 1007.29 1107.69 1009.32 1108.24C1013.39 1109.33 1019.18 1110.91 1026.25 1112.91C1040.4 1116.91 1059.67 1122.56 1080.5 1129.28C1122.41 1142.8 1169.89 1160.41 1195.23 1177.33L1200.79 1169.01C1174.12 1151.2 1125.31 1133.23 1083.57 1119.77C1041.62 1106.23 1006.02 1097.01 1005.24 1096.81L1002.78 1106.51ZM1195.23 1177.33C1230.71 1201.02 1250.14 1229.15 1258.68 1268.98L1268.46 1266.88C1259.34 1224.39 1238.33 1194.08 1200.79 1169.01L1195.23 1177.33ZM1258.68 1268.98C1266.97 1307.63 1265.67 1358.5 1253.82 1439.78L1263.72 1441.22C1275.59 1359.72 1277.15 1307.37 1268.46 1266.88L1258.68 1268.98ZM1253.84 1439.69L1212.08 1695.61L1221.95 1697.22L1263.71 1441.3L1253.84 1439.69ZM1212.07 1695.63C1212.29 1694.27 1213.45 1693.27 1214.84 1693.27V1703.27C1218.39 1703.27 1221.39 1700.69 1221.95 1697.21L1212.07 1695.63ZM1218.38 1694.73L1218.37 1694.72L1211.29 1701.79L1211.3 1701.8L1218.38 1694.73Z" fill="white" mask="url(#path-129-inside-1_2315_2804)"/>
<path d="M1115.77 556.939L1091.13 620.269L1085.35 582.979L1091.3 566.809C1094.63 557.759 1104.62 553.049 1113.73 556.229L1115.77 556.939Z" fill="#DFE3E8"/>
<path d="M1210.93 605.61L1201.32 677.99L1112.82 703.83L1086.86 636.4C1079.88 618.26 1079.73 598.21 1086.45 579.97L1090.56 568.82L1210.93 605.62V605.61Z" fill="#DFE3E8"/>
<path d="M1168.53 485.29L1119.68 618.61L1095.27 609.65L1144.12 476.33C1146.5 469.87 1153.67 466.56 1160.13 468.94L1161.12 469.3C1167.59 471.67 1170.9 478.83 1168.53 485.29Z" fill="#DFE3E8"/>
<path d="M1175.33 542.709L1146.75 620.359L1120.4 609.719L1150.93 533.739C1153.32 527.239 1160.53 523.909 1167.03 526.299L1167.88 526.609C1174.39 528.999 1177.72 536.209 1175.33 542.709Z" fill="#DFE3E8"/>
<path d="M1224.12 560.73L1195.99 637.13L1171.58 628.17L1199.71 551.76C1202.12 545.21 1209.4 541.85 1215.96 544.25L1216.61 544.49C1223.18 546.9 1226.54 554.17 1224.13 560.73H1224.12Z" fill="#DFE3E8"/>
<path d="M1224.11 616.98L1201.6 677.43L1177.07 668.43L1215.04 565.99L1223.89 588.92C1227.37 597.93 1227.45 607.91 1224.11 616.97V616.98Z" fill="#DFE3E8"/>
<path d="M1189.16 540.72L1190.49 541.21C1196.86 543.55 1199.8 551.51 1197.05 558.99L1171.92 634.81L1143.96 623.69L1172.64 550.03C1175.39 542.55 1182.79 538.39 1189.17 540.73L1189.16 540.72Z" fill="#DFE3E8"/>
<path d="M1202.42 671.619L1199.8 781.029L1105.37 750.919L1107.54 636.799L1202.42 671.619Z" fill="#DFE3E8"/>
<path d="M1201.53 708.92L1199.8 781.03L1105.37 750.92L1105.97 719.34L1164.59 712.94L1201.53 708.92Z" fill="black"/>
<path d="M1165.69 571.1C1165.44 571.1 1165.18 571.06 1164.93 570.96C1163.79 570.54 1163.21 569.27 1163.62 568.13L1173.27 541.93C1174.22 539.34 1174.11 536.53 1172.95 534.03C1171.79 531.52 1169.72 529.62 1167.13 528.67L1166.28 528.36C1160.93 526.39 1154.96 529.14 1152.99 534.49L1142.03 564.25C1141.61 565.39 1140.34 565.98 1139.2 565.56C1138.06 565.14 1137.48 563.87 1137.89 562.73L1148.85 532.97C1151.66 525.34 1160.15 521.42 1167.79 524.23L1168.64 524.54C1172.34 525.9 1175.29 528.62 1176.94 532.19C1178.6 535.76 1178.76 539.77 1177.4 543.46L1167.75 569.66C1167.42 570.55 1166.58 571.1 1165.68 571.1H1165.69Z" fill="black"/>
<path d="M1188.69 583.9C1188.44 583.9 1188.18 583.86 1187.93 583.76C1186.79 583.34 1186.21 582.07 1186.62 580.93L1195.73 556.2C1196.66 553.68 1196.55 550.95 1195.42 548.51C1194.29 546.06 1192.27 544.2 1189.74 543.27L1188.41 542.78C1183.18 540.87 1177.37 543.55 1175.45 548.76L1166.67 572.63C1166.25 573.77 1164.99 574.35 1163.84 573.94C1162.7 573.52 1162.12 572.25 1162.53 571.11L1171.31 547.24C1174.07 539.75 1182.42 535.89 1189.92 538.65L1191.25 539.14C1194.89 540.48 1197.79 543.15 1199.41 546.66C1201.03 550.17 1201.19 554.1 1199.85 557.72L1190.74 582.45C1190.41 583.34 1189.57 583.89 1188.67 583.89L1188.69 583.9Z" fill="black"/>
<path d="M1097.77 605.05C1097.52 605.05 1097.26 605.01 1097.01 604.92C1095.87 604.5 1095.28 603.24 1095.7 602.09L1142.05 475.57C1144.84 467.98 1153.29 464.08 1160.89 466.86L1161.89 467.23C1165.57 468.58 1168.5 471.28 1170.15 474.84C1171.79 478.39 1171.95 482.37 1170.6 486.05L1140.09 569.54C1139.67 570.68 1138.41 571.27 1137.27 570.85C1136.13 570.43 1135.54 569.17 1135.96 568.03L1166.47 484.54C1167.42 481.97 1167.31 479.18 1166.16 476.7C1165.01 474.21 1162.96 472.32 1160.38 471.37L1159.38 471C1154.07 469.04 1148.15 471.78 1146.2 477.09L1099.86 603.6C1099.53 604.49 1098.69 605.05 1097.79 605.05H1097.77Z" fill="black"/>
<path d="M1199.8 783.24C1199.58 783.24 1199.35 783.21 1199.13 783.14L1104.7 753.02C1103.77 752.72 1103.15 751.85 1103.17 750.88L1104.36 687.99L1084.81 637.19C1078.35 620.4 1077.59 601.66 1082.67 584.4C1083.01 583.23 1084.24 582.55 1085.4 582.91C1086.57 583.25 1087.23 584.48 1086.89 585.64C1082.08 601.97 1082.81 619.71 1088.92 635.6L1108.62 686.8C1108.72 687.07 1108.77 687.35 1108.77 687.63L1107.6 749.31L1197.67 778.03L1200.12 675.87C1200.12 675.63 1200.17 675.39 1200.26 675.16L1222.05 616.2C1225.21 607.63 1225.13 598.22 1221.84 589.7L1216.8 576.63C1216.61 576.14 1216.6 575.6 1216.77 575.11L1222.05 559.97C1223.03 557.32 1222.91 554.48 1221.74 551.95C1220.57 549.42 1218.48 547.49 1215.85 546.53L1215.21 546.3C1209.8 544.32 1203.77 547.09 1201.78 552.5L1189.36 586.25C1188.94 587.39 1187.68 587.98 1186.53 587.56C1185.39 587.14 1184.81 585.87 1185.22 584.73L1197.64 550.98C1200.47 543.3 1209.02 539.34 1216.72 542.17L1217.36 542.4C1221.09 543.77 1224.06 546.51 1225.73 550.11C1227.39 553.71 1227.56 557.74 1226.19 561.46L1221.19 575.8L1225.94 588.11C1229.62 597.63 1229.7 608.15 1226.17 617.72L1204.51 676.33L1202 781.06C1201.98 781.75 1201.64 782.4 1201.08 782.8C1200.7 783.07 1200.25 783.21 1199.8 783.21V783.24Z" fill="black"/>
<path d="M1155.05 1047C1154.57 1047 1154.08 1047 1153.6 1046.99C1131.42 1046.61 1110.72 1037.62 1095.31 1021.7C1079.9 1005.77 1071.62 984.8 1072 962.66L1075.29 734.92C1075.31 733.72 1076.29 732.75 1077.49 732.75L1239.83 733.07C1240.42 733.07 1240.98 733.31 1241.4 733.73C1241.82 734.15 1242.04 734.72 1242.03 735.31L1238.05 965.52C1237.27 1010.75 1200.17 1047.01 1155.04 1047.01L1155.05 1047ZM1153.68 1042.58C1154.14 1042.58 1154.6 1042.59 1155.05 1042.59C1197.79 1042.59 1232.92 1008.26 1233.66 965.43L1237.6 737.46L1079.67 737.14L1076.42 962.71C1076.06 983.68 1083.9 1003.54 1098.49 1018.62C1113.08 1033.7 1132.69 1042.21 1153.69 1042.57L1153.68 1042.58Z" fill="#E95018"/>
<path d="M1239.83 735.261L1235.84 965.471C1235.09 1010.04 1198.27 1045.56 1153.63 1044.79C1132.27 1044.42 1112.98 1035.81 1098.75 1022.02L1098.73 1022.04L1005.12 945.301L1026.19 1109.82L632.102 1126.27L640.252 1034.62C627.192 1040.9 614.792 1044.22 602.112 1044.22C589.432 1044.22 577.492 1041.14 563.972 1034.64C523.122 1015.04 511.252 955.051 530.892 914.291L602.112 766.791C630.122 708.761 688.942 671.881 753.462 671.881H847.052C930.112 671.881 1009.77 704.851 1068.5 763.491L1076.96 771.921L1077.49 734.951L1239.83 735.261Z" fill="#E95018"/>
<path d="M632.111 1128.47C631.511 1128.47 630.931 1128.22 630.521 1127.79C630.081 1127.33 629.861 1126.71 629.921 1126.07L637.731 1038.21C625.301 1043.73 613.611 1046.42 602.121 1046.42C589.531 1046.42 576.751 1043.22 563.031 1036.62C545.941 1028.42 532.541 1012.54 525.311 991.91C516.411 966.53 517.801 936.42 528.931 913.33L600.151 765.83C628.351 707.42 688.531 669.67 753.481 669.67H847.071C931.301 669.67 1010.49 702.43 1070.07 761.92L1074.84 766.68L1075.29 734.91C1075.31 733.71 1076.29 732.74 1077.49 732.74L1239.83 733.05C1240.42 733.05 1240.98 733.29 1241.4 733.71C1241.82 734.13 1242.04 734.7 1242.03 735.29L1238.04 965.5C1237.67 987.64 1228.68 1008.32 1212.72 1023.71C1196.77 1039.1 1175.88 1047.38 1153.59 1046.99C1132.55 1046.62 1112.64 1038.41 1097.49 1023.85C1097.44 1023.82 1097.39 1023.78 1097.34 1023.74L1008.01 950.51L1028.38 1109.54C1028.46 1110.15 1028.28 1110.77 1027.88 1111.24C1027.48 1111.71 1026.9 1111.99 1026.29 1112.02L632.201 1128.47C632.201 1128.47 632.141 1128.47 632.111 1128.47ZM640.261 1032.41C640.701 1032.41 641.141 1032.54 641.511 1032.8C642.161 1033.25 642.521 1034.02 642.451 1034.81L634.521 1123.96L1023.71 1107.71L1002.94 945.57C1002.83 944.68 1003.27 943.8 1004.06 943.36C1004.85 942.93 1005.83 943.01 1006.52 943.58L1099.86 1020.1C1100.01 1020.19 1100.16 1020.3 1100.29 1020.42C1114.67 1034.35 1133.63 1042.22 1153.67 1042.57C1174.72 1042.92 1194.56 1035.11 1209.66 1020.53C1224.77 1005.96 1233.28 986.38 1233.63 965.41L1237.58 737.43L1079.65 737.13L1079.16 771.93C1079.15 772.81 1078.61 773.61 1077.79 773.94C1076.97 774.27 1076.03 774.08 1075.4 773.46L1066.94 765.03C1008.19 706.37 930.101 674.07 847.051 674.07H753.461C690.191 674.07 631.561 710.84 604.091 767.74L532.871 915.24C522.231 937.31 520.921 966.13 529.441 990.45C536.281 1009.97 548.881 1024.95 564.911 1032.65C578.021 1038.95 590.191 1042.01 602.101 1042.01C614.011 1042.01 626.151 1038.94 639.281 1032.62C639.581 1032.47 639.911 1032.4 640.231 1032.4L640.261 1032.41Z" fill="#E95018"/>
<path d="M1098.73 1024.24C1098.24 1024.24 1097.75 1024.08 1097.34 1023.74L924.639 882.159C923.699 881.389 923.559 879.999 924.329 879.059C925.099 878.119 926.489 877.979 927.429 878.749L1100.13 1020.33C1101.07 1021.1 1101.21 1022.49 1100.44 1023.43C1100 1023.96 1099.37 1024.24 1098.73 1024.24Z" fill="#E95018"/>
<path d="M1213.05 910.089C1212.49 910.089 1211.92 909.869 1211.49 909.439L1066.93 765.049C1007.35 705.539 930.431 674.089 844.481 674.089C843.261 674.089 842.281 673.099 842.281 671.889C842.281 670.679 843.261 669.689 844.481 669.689C931.621 669.689 1009.62 701.589 1070.04 761.949L1214.6 906.339C1215.46 907.199 1215.46 908.599 1214.6 909.459C1214.17 909.889 1213.6 910.109 1213.04 910.109L1213.05 910.089Z" fill="#E95018"/>
<path d="M632.032 1018.16C631.912 1018.16 631.802 1018.16 631.682 1018.13C630.482 1017.94 629.662 1016.81 629.852 1015.61L665.432 793.67C665.622 792.47 666.752 791.65 667.952 791.84C669.152 792.03 669.972 793.16 669.782 794.36L634.202 1016.3C634.032 1017.38 633.092 1018.15 632.032 1018.15V1018.16Z" fill="#E95018"/>
<path d="M662.73 811.881L610.84 1043.68C610.84 1043.68 618.71 1043.01 626.96 1040.3C632.83 1038.37 640.26 1034.62 640.26 1034.62L662.72 811.881H662.73Z" fill="#E95018"/>
<path d="M875.91 582.809C875.91 611.439 877.76 651.149 849.08 651.149C820.4 651.149 772.07 611.439 772.07 582.809C772.07 554.179 795.32 530.969 823.99 530.969C852.66 530.969 875.91 554.179 875.91 582.809Z" fill="#DFE3E8"/>
<path d="M849.079 653.35C819.689 653.35 769.859 613.26 769.859 582.81C769.859 552.36 794.139 528.77 823.979 528.77C853.819 528.77 878.099 553.01 878.099 582.81V587.72C878.189 609.73 878.279 634.67 866.359 646.63C861.919 651.09 856.099 653.35 849.069 653.35H849.079ZM823.989 533.17C796.579 533.17 774.269 555.44 774.269 582.81C774.269 610.18 821.989 648.95 849.079 648.95C854.979 648.95 859.619 647.18 863.249 643.53C873.879 632.87 873.789 607.85 873.719 587.74V582.81C873.709 555.44 851.399 533.17 823.989 533.17Z" fill="black"/>
<path d="M894.959 570.119C887.039 543.719 862.529 524.469 833.509 524.469C804.489 524.469 780.879 542.179 773.629 570.119H894.959Z" fill="black"/>
<path d="M842.599 634.159V671.889H782.539V606.479L842.599 634.159Z" fill="#DFE3E8"/>
<path d="M842.598 674.089H782.548C781.328 674.089 780.348 673.099 780.348 671.889V606.489C780.348 605.269 781.328 604.289 782.548 604.289C783.768 604.289 784.748 605.269 784.748 606.489V669.689H840.398V634.159C840.398 632.939 841.378 631.959 842.598 631.959C843.818 631.959 844.798 632.939 844.798 634.159V671.889C844.798 673.109 843.818 674.089 842.598 674.089Z" fill="black"/>
<path d="M842.598 675C841.378 675 840.398 674.02 840.398 672.8V633.63C840.398 632.41 841.378 631.43 842.598 631.43C843.818 631.43 844.798 632.41 844.798 633.63V672.8C844.798 674.02 843.818 675 842.598 675Z" fill="black"/>
<path d="M1004.84 1847.11V1859.8H620.02V1847.11L791.349 1832.4V1367.69H832.5V1832.01L1004.84 1847.11Z" fill="white"/>
<path d="M1004.84 1862H620.02C618.8 1862 617.82 1861.02 617.82 1859.8V1847.12C617.82 1845.98 618.7 1845.02 619.83 1844.93L789.14 1830.39V1367.69C789.14 1366.47 790.12 1365.49 791.34 1365.49H832.5C833.72 1365.49 834.7 1366.47 834.7 1367.69V1829.99L1005.03 1844.92C1006.17 1845.02 1007.04 1845.97 1007.04 1847.11V1859.79C1007.04 1861.01 1006.06 1861.99 1004.84 1861.99V1862ZM622.22 1857.6H1002.64V1849.14L832.31 1834.21C831.17 1834.11 830.3 1833.16 830.3 1832.02V1369.9H793.55V1832.42C793.55 1833.56 792.67 1834.52 791.54 1834.61L622.23 1849.15V1857.61L622.22 1857.6Z" fill="black"/>
<path d="M839.341 868.289V996.709C839.341 1094.86 916.901 1174.42 1012.57 1174.42C1108.24 1174.42 1185.81 1253.98 1185.81 1352.13V1367.97H711.411C567.981 1367.97 451.711 1248.69 451.711 1101.56V868.289H839.341Z" fill="#B9BEC6"/>
<path d="M1185.81 1370.17H711.412C566.992 1370.17 449.512 1249.67 449.512 1101.56V868.29C449.512 867.07 450.492 866.09 451.712 866.09H839.342C840.562 866.09 841.542 867.07 841.542 868.29V996.71C841.542 1093.49 918.262 1172.22 1012.57 1172.22C1106.88 1172.22 1188.01 1252.93 1188.01 1352.13V1367.96C1188.01 1369.18 1187.03 1370.16 1185.81 1370.16V1370.17ZM453.912 870.49V1101.55C453.912 1247.24 569.422 1365.76 711.412 1365.76H1183.61V1352.13C1183.61 1255.35 1106.89 1176.62 1012.58 1176.62C918.272 1176.62 837.142 1095.91 837.142 996.71V870.49H453.912Z" fill="black"/>
<path d="M273.078 1081.99H230.348V974.899C230.348 963.099 239.908 953.539 251.708 953.539C263.508 953.539 273.068 963.099 273.068 974.899V1081.99H273.078Z" fill="#B9BEC6"/>
<path d="M288.66 987.219V1003.26H242.73V1031.32H293.42C306.28 1031.32 316.71 1020.89 316.71 1008.03V987.219C316.71 979.469 310.43 973.189 302.68 973.189C294.93 973.189 288.65 979.469 288.65 987.219H288.66Z" fill="#B9BEC6"/>
<path d="M214.411 1044.55H216.901V989.72C216.901 982.24 210.831 976.17 203.351 976.17C195.871 976.17 189.801 982.24 189.801 989.72V1019.93C189.801 1033.52 200.821 1044.54 214.411 1044.54V1044.55Z" fill="#B9BEC6"/>
<path d="M189.789 1021.25V1028.8C189.759 1039.94 198.579 1048.97 209.469 1048.97H257.619V1021.25H189.789Z" fill="#B9BEC6"/>
<path d="M260.587 1080.7C259.367 1080.7 258.387 1079.72 258.387 1078.5V957.03C258.387 955.81 259.367 954.83 260.587 954.83C261.807 954.83 262.787 955.81 262.787 957.03V1078.5C262.787 1079.72 261.807 1080.7 260.587 1080.7Z" fill="white"/>
<path d="M273.079 1032.81C271.859 1032.81 270.879 1031.83 270.879 1030.61V1003.8C270.879 1002.58 271.859 1001.6 273.079 1001.6C274.299 1001.6 275.279 1002.58 275.279 1003.8V1030.61C275.279 1031.83 274.299 1032.81 273.079 1032.81Z" fill="white"/>
<path d="M242.727 1080.7C241.507 1080.7 240.527 1079.72 240.527 1078.5V957.03C240.527 955.81 241.507 954.83 242.727 954.83C243.947 954.83 244.927 955.81 244.927 957.03V1078.5C244.927 1079.72 243.937 1080.7 242.727 1080.7Z" fill="white"/>
<path d="M229.868 1050.37C228.648 1050.37 227.668 1049.39 227.668 1048.17V1022.37C227.668 1021.15 228.648 1020.17 229.868 1020.17C231.088 1020.17 232.068 1021.15 232.068 1022.37V1048.17C232.068 1049.39 231.088 1050.37 229.868 1050.37Z" fill="white"/>
<path d="M257.78 943.569C257.78 952.979 251.72 960.609 251.72 960.609C251.72 960.609 245.66 952.979 245.66 943.569C245.66 934.159 251.72 926.529 251.72 926.529C251.72 926.529 257.78 934.159 257.78 943.569Z" fill="#B9BEC6"/>
<path d="M265.569 951.649C260.339 958.459 251.719 960.619 251.719 960.619C251.719 960.619 251.569 951.729 256.799 944.919C262.029 938.109 270.649 935.949 270.649 935.949C270.649 935.949 270.799 944.839 265.569 951.649Z" fill="#B9BEC6"/>
<path d="M237.87 951.649C243.1 958.459 251.72 960.619 251.72 960.619C251.72 960.619 251.87 951.729 246.64 944.919C241.41 938.109 232.79 935.949 232.79 935.949C232.79 935.949 232.64 944.839 237.87 951.649Z" fill="#B9BEC6"/>
<path d="M293.431 1133.31H211.461L202.551 1063.04H302.341L293.431 1133.31Z" fill="#B9BEC6"/>
<path d="M293.429 1135.52H211.459C210.349 1135.52 209.409 1134.69 209.279 1133.6L200.369 1063.33C200.289 1062.7 200.479 1062.07 200.899 1061.6C201.319 1061.12 201.919 1060.85 202.549 1060.85H302.339C302.969 1060.85 303.569 1061.12 303.989 1061.6C304.409 1062.08 304.599 1062.71 304.519 1063.33L295.609 1133.6C295.469 1134.7 294.529 1135.52 293.429 1135.52ZM213.399 1131.12H291.489L299.839 1065.25H205.049L213.399 1131.12Z" fill="black"/>
<path d="M1546.99 1513.7C1531.11 1503.73 1512.9 1497.48 1494.25 1495.55C1485.62 1494.68 1476.24 1494.91 1469.31 1500.13C1467.85 1501.24 1466.42 1502.86 1466.74 1504.68C1466.98 1506.03 1468.09 1506.98 1469.19 1507.81C1490.65 1524.14 1523.11 1526.24 1547.03 1513.7" fill="#E0E0E0"/>
<path d="M1545.63 1512.25C1533.68 1502.95 1521.68 1493.58 1511.59 1482.31C1501.49 1471.04 1493.26 1457.67 1490.25 1442.84C1489.34 1438.33 1489.06 1433.19 1491.95 1429.63C1519.11 1450.83 1540.45 1478.2 1545.67 1512.21" fill="#E0E0E0"/>
<path d="M1546.71 1513.51C1544.65 1498.68 1543.94 1483.41 1547.35 1468.82C1550.75 1454.22 1558.71 1440.26 1571.18 1431.96C1575.89 1442.91 1573.87 1455.53 1570.54 1467C1565.44 1484.68 1557.44 1501.52 1546.91 1516.67" fill="#E0E0E0"/>
<path d="M1573.38 1561.18C1557.23 1563.15 1543.13 1571.66 1531.1 1582.57C1519.02 1593.49 1510.47 1608.2 1506.91 1624.06C1522.75 1623.07 1536.21 1611.92 1545.94 1599.38C1555.68 1586.84 1562.45 1573.12 1573.18 1561.41" fill="#E0E0E0"/>
<path d="M1579.14 1568.78C1566.12 1536.74 1570.83 1498.18 1591.18 1470.22C1600.4 1502.93 1596.99 1539.87 1579.14 1568.78Z" fill="#E0E0E0"/>
<path d="M1614.24 1610.59C1599.6 1609.68 1584.67 1613.16 1571.92 1620.47C1559.18 1627.79 1548.69 1638.9 1542.11 1652.03C1541.2 1653.81 1540.45 1656.07 1541.64 1657.69C1542.67 1659.07 1544.69 1659.19 1546.43 1659.11C1560.64 1658.2 1573.23 1649.66 1583.64 1639.93C1594.05 1630.2 1603.08 1618.97 1614.56 1610.55" fill="#E0E0E0"/>
<path d="M1613.19 1608.35C1605.63 1584.19 1605.15 1557.81 1611.84 1533.41C1614.49 1523.76 1618.93 1513.6 1627.84 1509.09C1628.59 1508.69 1629.5 1508.37 1630.29 1508.65C1631.04 1508.93 1631.48 1509.72 1631.83 1510.43C1635 1517.08 1635.95 1524.59 1635.59 1531.95C1635.28 1539.3 1633.73 1546.54 1632.23 1553.7C1629.42 1566.98 1627.91 1581.3 1620.63 1592.77C1618.89 1595.5 1617.38 1598.43 1616 1601.35C1614.61 1604.28 1614.61 1605.31 1613.35 1607.6" fill="#E0E0E0"/>
<path d="M1706.25 1622.17C1699.36 1595.95 1706.69 1564.19 1723.2 1542.72C1724.42 1541.14 1726.05 1539.44 1728.03 1539.63C1731.07 1539.91 1731.87 1543.98 1731.71 1547.03C1730.52 1573.8 1721.57 1600.18 1706.25 1622.21" fill="#E0E0E0"/>
<path d="M1714.66 1627.92C1746.53 1636.19 1783.11 1628.16 1809.6 1608.62C1793.88 1600.67 1775.35 1598.38 1758.21 1602.33C1741.07 1606.29 1725.35 1613.96 1714.66 1627.92Z" fill="#E0E0E0"/>
<path d="M1721.74 1610.48C1739.59 1581.41 1773.8 1562.43 1807.92 1560.69C1804 1574.53 1792.6 1585.33 1779.74 1591.81C1766.87 1598.34 1752.54 1601.15 1738.37 1603.92C1732.86 1604.98 1725.3 1606.17 1721.74 1610.48Z" fill="#E0E0E0"/>
<path d="M1708.04 1525.8C1712.87 1509.27 1717.74 1492.58 1719.05 1475.38C1720.4 1458.22 1717.94 1440.26 1708.99 1425.51C1692.33 1457.74 1690.62 1495.39 1707.53 1527.5" fill="#E0E0E0"/>
<path d="M1764.16 1497.46C1783.67 1462.06 1823.42 1433.78 1863.68 1429.83C1848.16 1468.47 1805.8 1498.29 1764.16 1497.46Z" fill="#E0E0E0"/>
<path d="M1751.9 1504.4C1781 1508.83 1805.74 1527.38 1832.94 1538.61C1838.76 1541.02 1845.02 1542.92 1851.27 1542.13C1857.53 1541.3 1863.66 1537.14 1865.05 1531.01C1866.19 1525.91 1863.9 1520.53 1860.22 1516.78C1856.57 1513.06 1851.74 1510.73 1846.92 1508.71C1817.3 1496.41 1785.59 1496.09 1754.4 1503.57" fill="#E0E0E0"/>
<path d="M1735.09 1524.79C1741.66 1526.69 1743.91 1530.09 1749.14 1534.52C1766.84 1549.58 1788.06 1560.46 1810.58 1566.04C1812.92 1566.63 1816.01 1566.87 1817.15 1564.73C1818.18 1562.87 1816.88 1560.66 1815.57 1559C1806.11 1547.17 1792.65 1539.1 1778.48 1533.84C1764.3 1528.58 1751.99 1522.22 1735.09 1523.56" fill="#E0E0E0"/>
<path d="M1716.07 1401.7C1739.7 1423.76 1773.04 1435.07 1805.22 1431.99C1806.69 1431.83 1808.27 1431.63 1809.3 1430.53C1811.56 1428.07 1808.87 1424.32 1806.25 1422.3C1780.05 1401.89 1748.3 1393.43 1716.11 1401.7" fill="#E0E0E0"/>
<path d="M1738.61 1393.48C1769.88 1370.07 1812.72 1362.99 1849.85 1375.13C1835.84 1388.93 1816.4 1396.33 1796.84 1398.39C1777.28 1400.4 1757.69 1398.27 1738.61 1393.48Z" fill="#E0E0E0"/>
<path d="M1729.63 1336.9C1727.05 1310.76 1728.72 1290.12 1726.89 1263.86C1726.74 1261.76 1726.3 1259.23 1724.32 1258.48C1721.59 1257.41 1719.29 1260.77 1718.42 1263.58C1710.62 1287.79 1714.9 1315.55 1729.59 1336.31" fill="#E0E0E0"/>
<path d="M1727.73 1339.82C1745.47 1328.87 1758.77 1314.55 1771.08 1297.74C1779.63 1286.04 1786.88 1272.04 1784.9 1257.68C1772.86 1257.44 1761.46 1264.05 1753.62 1273.18C1745.82 1282.32 1741.15 1293.71 1737.67 1305.22C1734.18 1316.73 1731.77 1328.55 1727.69 1339.82" fill="#E0E0E0"/>
<path d="M1770.34 1328C1809.25 1313.61 1845.55 1292.25 1876.99 1265.16C1864.24 1260.02 1849.67 1263.11 1836.92 1268.25C1807.83 1279.99 1784.03 1299.81 1769.78 1327.73" fill="#E0E0E0"/>
<path d="M1739.74 1354.13C1759.41 1356.27 1779.45 1357.69 1798.96 1354.41C1818.16 1351.21 1836.3 1343.61 1854.27 1336.06C1855.77 1335.43 1857.36 1334.68 1858.03 1333.21C1858.74 1331.63 1857.99 1329.65 1856.68 1328.51C1855.38 1327.32 1853.67 1326.77 1851.97 1326.29C1832.46 1320.83 1811.43 1323.41 1792.23 1329.85C1773.03 1336.34 1757.32 1344.01 1739.78 1354.13" fill="#E0E0E0"/>
<path d="M1627.3 1402.62C1613.87 1375.53 1614.75 1343.93 1626.34 1316.01C1634.5 1328.43 1635.53 1344.28 1634.03 1359.08C1632.52 1373.87 1628.01 1389.09 1627.73 1403.96" fill="#E0E0E0"/>
<path d="M1573.62 1375.56C1540.09 1374.92 1506.52 1389.2 1483.75 1413.8C1500.5 1416.41 1517.72 1412.1 1532.96 1404.7C1548.2 1397.27 1561.7 1386.87 1575.12 1376.51" fill="#E0E0E0"/>
<path d="M1537.56 1363.48C1521.17 1362.14 1505.38 1360.12 1489.58 1364.94C1473.82 1369.77 1459.45 1380.72 1453 1395.91C1468.36 1397.65 1483.92 1393.77 1497.97 1387.41C1512.03 1381.04 1524.81 1372.22 1537.52 1363.44" fill="#E0E0E0"/>
<path d="M1590.95 1364.06C1576.18 1354.41 1561.02 1344.56 1543.84 1340.57C1526.65 1336.57 1506.74 1339.54 1494.75 1352.47C1508.64 1360.62 1525.55 1361.61 1541.66 1361.57C1557.77 1361.57 1577.57 1361.37 1592.77 1366.75" fill="#E0E0E0"/>
<path d="M1591.12 1364.84C1565.9 1340.08 1556.32 1295.63 1566.45 1261.78C1586.29 1291.87 1595.15 1329.01 1591.12 1364.84Z" fill="#E0E0E0"/>
<path d="M1660.43 1294.68C1665.18 1283.65 1668.55 1272.02 1672.82 1260.79C1677.1 1249.56 1682.41 1238.48 1690.48 1229.55C1698.56 1220.61 1709.72 1213.96 1721.72 1213.37C1714.19 1247.42 1691.55 1277.87 1661.07 1294.88" fill="#E0E0E0"/>
<path d="M1647.9 1309.32C1640.02 1298.48 1630.92 1283.77 1620.23 1275.7C1609.54 1267.63 1595.64 1262.73 1582.62 1265.81C1595.88 1289.5 1620.94 1306.15 1647.9 1309.28" fill="#E0E0E0"/>
<path d="M1650.42 1295.58C1645.27 1282.49 1640.05 1269.24 1637.99 1255.32C1635.89 1241.4 1637.16 1226.53 1644.29 1214.38C1658.14 1240.53 1662.61 1268.6 1651.13 1295.89" fill="#E0E0E0"/>
<path d="M1660.59 1214.36C1668.42 1188.42 1692.22 1169.35 1717.87 1160.57C1721.12 1159.47 1724.52 1158.56 1727.93 1159.07C1731.29 1159.59 1734.62 1161.92 1735.33 1165.24C1736.28 1169.67 1732.64 1173.59 1729.19 1176.55C1709.2 1193.64 1685.72 1206.57 1660.63 1214.36" fill="#E0E0E0"/>
<path d="M1660.87 1193.16C1661.86 1176.43 1662.93 1159.47 1668.35 1143.65C1673.78 1127.79 1684.31 1112.96 1699.55 1106C1702.16 1122.89 1694.68 1139.69 1685.69 1154.21C1676.71 1168.72 1665.86 1182.45 1660.48 1198.66" fill="#E0E0E0"/>
<path d="M1660.44 1204.66C1653.95 1185.76 1653.28 1161.75 1641.96 1145.3C1634.04 1133.79 1621.37 1125.96 1614.52 1113.78C1610.01 1125.17 1611.39 1138.3 1616.1 1149.57C1620.86 1160.88 1628.69 1170.61 1637.05 1179.55C1645.44 1188.49 1652.61 1195.21 1660.4 1204.66" fill="#E0E0E0"/>
<path d="M1660.6 1761.19C1660.09 1761.19 1659.65 1635.11 1659.61 1479.65C1659.61 1324.11 1659.97 1198.07 1660.44 1198.07C1660.92 1198.07 1661.39 1324.11 1661.43 1479.65C1661.43 1635.11 1661.08 1761.19 1660.6 1761.19Z" fill="#E0E0E0"/>
<path d="M1770.85 1383.59C1770.85 1383.59 1769.19 1384.34 1766.1 1385.37C1762.7 1386.51 1758.3 1387.98 1753.04 1389.76C1742.03 1393.51 1726.91 1398.93 1710.48 1405.65C1694.21 1412.61 1678.89 1418.27 1670.18 1425.82C1665.83 1429.54 1663.33 1433.57 1662.06 1436.54C1660.8 1439.51 1660.6 1441.33 1660.44 1441.29C1660.36 1441.29 1660.4 1440.81 1660.48 1439.98C1660.64 1439.15 1660.84 1437.85 1661.39 1436.3C1662.46 1433.18 1664.88 1428.87 1669.31 1424.87C1673.7 1420.88 1679.8 1417.28 1686.81 1414.04C1693.81 1410.79 1701.57 1407.35 1709.81 1403.99C1726.28 1397.27 1741.52 1392.01 1752.64 1388.57C1758.23 1386.83 1762.74 1385.56 1765.91 1384.73C1769.07 1383.9 1770.81 1383.51 1770.85 1383.63V1383.59Z" fill="#E0E0E0"/>
<path d="M1807.01 1294.89C1807.01 1294.89 1806.58 1295.44 1805.67 1296.31C1804.6 1297.3 1803.25 1298.57 1801.63 1300.11C1797.87 1303.51 1792.76 1308.18 1786.5 1313.83C1773.44 1325.46 1755.74 1341.2 1736.19 1358.6C1716.55 1376.08 1699.57 1392.77 1687.81 1405.31C1681.91 1411.59 1677.28 1416.77 1674.11 1420.41C1672.65 1422.11 1671.42 1423.46 1670.47 1424.57C1669.64 1425.51 1669.16 1425.99 1669.12 1425.95C1669.08 1425.95 1669.44 1425.36 1670.19 1424.33C1670.94 1423.3 1672.05 1421.8 1673.6 1419.94C1676.61 1416.18 1681.12 1410.8 1686.9 1404.44C1698.46 1391.62 1715.32 1374.74 1735 1357.22C1754.71 1339.77 1772.65 1324.15 1785.67 1312.84C1792.09 1307.35 1797.31 1302.88 1801.19 1299.55C1802.93 1298.13 1804.32 1296.94 1805.47 1296C1806.46 1295.2 1807.01 1294.81 1807.05 1294.85L1807.01 1294.89Z" fill="#E0E0E0"/>
<path d="M1715.02 1376.3C1714.5 1376.06 1718.62 1366.61 1722.7 1354.63C1726.81 1342.64 1728.75 1332.56 1729.27 1332.64C1729.74 1332.68 1728.6 1343.08 1724.4 1355.22C1722.34 1361.27 1720.08 1366.61 1718.3 1370.37C1716.52 1374.16 1715.21 1376.38 1715.02 1376.3Z" fill="#E0E0E0"/>
<path d="M1660.67 1452.64C1660.67 1452.64 1659.48 1451.45 1657.66 1449.12C1655.6 1446.47 1652.99 1443.15 1649.9 1439.19C1643.37 1430.77 1634.38 1419.18 1624.29 1406.49C1614.19 1393.79 1604.93 1382.4 1598.2 1374.14C1595.03 1370.22 1592.38 1366.94 1590.28 1364.33C1588.42 1361.99 1587.47 1360.65 1587.55 1360.57C1587.63 1360.49 1588.82 1361.68 1590.84 1363.85C1592.86 1366.03 1595.71 1369.27 1599.19 1373.26C1606.16 1381.29 1615.62 1392.6 1625.71 1405.3C1635.81 1418.03 1644.68 1429.78 1650.93 1438.4C1654.06 1442.71 1656.55 1446.23 1658.22 1448.68C1659.88 1451.13 1660.79 1452.56 1660.67 1452.6V1452.64Z" fill="#E0E0E0"/>
<path d="M1636.53 1421.63C1636.21 1421.95 1629.8 1414.32 1626.39 1402.69C1623.9 1394.5 1623.78 1387.03 1624.09 1383.59L1624.89 1383.67C1624.53 1385.13 1624.25 1385.88 1624.13 1385.88C1623.98 1385.88 1623.98 1385.05 1624.13 1383.55L1624.93 1383.63C1625.2 1387.03 1625.72 1394.27 1628.17 1402.22C1631.42 1413.49 1637.04 1421.36 1636.57 1421.67L1636.53 1421.63Z" fill="#E0E0E0"/>
<path d="M1605.28 1382.39C1605.05 1382.63 1602.99 1380.02 1598.2 1378.28C1593.49 1376.46 1586.36 1376.06 1578.56 1376.74C1570.76 1377.29 1563.79 1378.71 1558.81 1379.94C1553.82 1381.17 1550.77 1382.15 1550.65 1381.88C1550.57 1381.68 1553.46 1380.26 1558.45 1378.67C1563.4 1377.13 1570.48 1375.51 1578.44 1374.92C1586.32 1374.24 1593.8 1374.84 1598.71 1377.09C1603.66 1379.27 1605.48 1382.35 1605.28 1382.39Z" fill="#E0E0E0"/>
<path d="M1597.88 1372.86C1597.72 1373.14 1593.76 1371.2 1587.03 1368.9C1580.34 1366.61 1570.76 1364.2 1559.99 1363.33C1549.22 1362.54 1539.4 1363.49 1532.44 1364.71C1525.47 1365.98 1521.23 1367.28 1521.11 1366.97C1521.11 1366.85 1522.1 1366.41 1524 1365.74C1525.9 1365.03 1528.67 1364.24 1532.2 1363.45C1539.21 1361.82 1549.18 1360.68 1560.15 1361.51C1571.11 1362.38 1580.81 1365.03 1587.5 1367.68C1590.83 1368.98 1593.48 1370.21 1595.26 1371.2C1597.04 1372.15 1597.95 1372.74 1597.92 1372.86H1597.88Z" fill="#E0E0E0"/>
<path d="M1660.42 1332.7C1659.95 1332.82 1656.39 1320.56 1652.51 1305.29C1648.63 1290.03 1645.89 1277.53 1646.37 1277.41C1646.85 1277.29 1650.41 1289.55 1654.29 1304.82C1658.17 1320.09 1660.9 1332.58 1660.42 1332.7Z" fill="#E0E0E0"/>
<path d="M1660.93 1332.68C1660.37 1332.84 1658.12 1324.66 1652.18 1316.27C1646.4 1307.69 1639.03 1303.42 1639.27 1302.98C1639.35 1302.79 1641.41 1303.54 1644.26 1305.55C1647.11 1307.53 1650.63 1310.89 1653.68 1315.24C1659.86 1323.98 1661.4 1332.68 1660.97 1332.72L1660.93 1332.68Z" fill="#E0E0E0"/>
<path d="M1660.64 1693.99C1660.64 1693.99 1660.08 1690.95 1658.66 1685.61C1657.27 1680.27 1654.62 1672.67 1650.22 1663.78C1641.51 1645.98 1625.64 1623.4 1605.49 1600.82C1595.51 1589.43 1585.81 1578.67 1577.58 1568.35C1569.34 1558.06 1562.57 1548.26 1557.63 1539.6C1552.68 1530.93 1549.43 1523.5 1547.57 1518.28C1546.66 1515.67 1545.95 1513.61 1545.59 1512.19C1545.19 1510.77 1545 1510.01 1545.08 1510.01C1545.23 1509.97 1546.14 1512.9 1548.24 1518.04C1550.3 1523.18 1553.71 1530.46 1558.77 1538.96C1563.84 1547.47 1570.65 1557.16 1578.92 1567.32C1587.2 1577.52 1596.9 1588.2 1606.91 1599.63C1627.14 1622.29 1642.94 1645.15 1651.45 1663.22C1655.73 1672.24 1658.22 1679.99 1659.41 1685.45C1660 1688.18 1660.4 1690.31 1660.52 1691.78C1660.71 1693.24 1660.75 1693.99 1660.71 1693.99H1660.64Z" fill="#E0E0E0"/>
<path d="M1760.24 1581.56C1760.24 1581.56 1758.38 1582.67 1755.01 1584.49C1751.65 1586.39 1746.9 1589.27 1741.47 1593.43C1736.01 1597.58 1729.95 1603.08 1723.7 1609.64C1717.44 1616.25 1711.03 1623.88 1704.46 1632.07C1691.31 1648.52 1679.04 1663.07 1671.72 1674.7C1667.99 1680.47 1665.26 1685.34 1663.48 1688.74C1661.7 1692.14 1660.75 1694.04 1660.59 1694C1660.55 1694 1660.71 1693.44 1661.07 1692.53C1661.46 1691.58 1661.98 1690.2 1662.81 1688.46C1664.39 1684.94 1666.97 1679.96 1670.57 1674.07C1677.69 1662.16 1689.89 1647.41 1702.99 1631C1709.56 1622.77 1716.1 1615.1 1722.43 1608.53C1728.8 1601.97 1735.06 1596.55 1740.64 1592.44C1746.26 1588.36 1751.17 1585.6 1754.61 1583.9C1756.36 1583.03 1757.74 1582.51 1758.69 1582.08C1759.64 1581.68 1760.16 1581.52 1760.16 1581.56H1760.24Z" fill="#E0E0E0"/>
<path d="M1762.19 1618.03C1762.19 1618.31 1758 1618.82 1751.15 1619.61C1744.34 1620.48 1734.88 1621.63 1724.98 1624.75C1715.08 1627.95 1706.89 1632.86 1701.54 1637.05C1696.16 1641.2 1693.59 1644.68 1693.35 1644.49C1693.27 1644.41 1693.78 1643.5 1694.97 1641.95C1696.16 1640.41 1698.1 1638.36 1700.71 1636.06C1705.98 1631.51 1714.25 1626.33 1724.42 1623.05C1734.6 1619.85 1744.18 1618.9 1751.03 1618.34C1757.92 1617.83 1762.19 1617.79 1762.19 1618.03Z" fill="#E0E0E0"/>
<path d="M1696.51 1640.49C1695.92 1640.17 1700.91 1632.58 1704.79 1622.38C1708.39 1612.05 1709.26 1603.04 1709.89 1603.16C1710.13 1603.16 1710.13 1605.45 1709.7 1609.09C1709.26 1612.69 1708.39 1617.75 1706.49 1623.01C1704.55 1628.31 1702.02 1632.7 1700.08 1635.78C1698.1 1638.87 1696.71 1640.65 1696.51 1640.49Z" fill="#E0E0E0"/>
<path d="M1792.52 1483.61C1792.52 1483.61 1791.93 1484 1790.74 1484.56C1789.35 1485.19 1787.65 1485.94 1785.55 1486.93C1783.3 1487.92 1780.52 1489.15 1777.4 1490.77C1774.27 1492.39 1770.63 1494.05 1766.87 1496.3C1764.93 1497.41 1762.95 1498.52 1760.85 1499.71C1758.75 1500.89 1756.69 1502.32 1754.51 1503.7C1750.08 1506.39 1745.65 1509.71 1740.9 1513.07C1731.59 1520.11 1721.85 1528.46 1712.43 1538.07C1703.13 1547.8 1695.09 1557.84 1688.4 1567.33C1685.19 1572.2 1682.03 1576.74 1679.49 1581.25C1678.19 1583.51 1676.84 1585.6 1675.69 1587.74C1674.58 1589.87 1673.52 1591.89 1672.49 1593.87C1670.35 1597.74 1668.8 1601.42 1667.3 1604.59C1665.76 1607.75 1664.65 1610.56 1663.74 1612.85C1662.87 1614.99 1662.11 1616.73 1661.56 1618.11C1661.05 1619.3 1660.73 1619.93 1660.69 1619.89C1660.61 1619.89 1660.81 1619.22 1661.2 1617.95C1661.68 1616.53 1662.31 1614.75 1663.06 1612.58C1663.86 1610.24 1664.93 1607.39 1666.35 1604.15C1667.78 1600.95 1669.24 1597.19 1671.3 1593.28C1672.29 1591.3 1673.36 1589.2 1674.43 1587.07C1675.53 1584.89 1676.88 1582.76 1678.15 1580.5C1680.64 1575.91 1683.77 1571.29 1686.98 1566.38C1693.67 1556.73 1701.7 1546.61 1711.09 1536.8C1720.55 1527.11 1730.44 1518.73 1739.87 1511.73C1744.66 1508.37 1749.17 1505.08 1753.68 1502.43C1755.9 1501.09 1758 1499.67 1760.14 1498.52C1762.27 1497.37 1764.29 1496.26 1766.27 1495.2C1770.11 1492.98 1773.83 1491.4 1777 1489.86C1780.17 1488.32 1782.98 1487.17 1785.31 1486.3C1787.49 1485.47 1789.23 1484.8 1790.66 1484.24C1791.89 1483.81 1792.52 1483.57 1792.56 1483.65L1792.52 1483.61Z" fill="#E0E0E0"/>
<path d="M1713.68 1536.4C1713.68 1536.4 1714.39 1533.32 1718.03 1529.96C1721.56 1526.6 1728.01 1523.47 1735.49 1523.27C1742.98 1523.08 1749.47 1525.17 1753.86 1526.87C1758.3 1528.61 1760.91 1530.04 1760.83 1530.24C1760.71 1530.47 1757.94 1529.48 1753.47 1528.06C1748.99 1526.68 1742.66 1524.9 1735.57 1525.09C1728.53 1525.29 1722.43 1528.02 1718.87 1530.95C1715.26 1533.87 1714 1536.6 1713.68 1536.4Z" fill="#E0E0E0"/>
<path d="M1701.87 1548.55C1701.36 1548.27 1705.83 1541.75 1706.82 1532.41C1707.97 1523.08 1705.16 1515.72 1705.71 1515.57C1705.91 1515.49 1706.9 1517.19 1707.77 1520.27C1708.64 1523.32 1709.2 1527.79 1708.64 1532.61C1708.05 1537.47 1706.51 1541.67 1704.96 1544.44C1703.42 1547.2 1702.07 1548.67 1701.87 1548.55Z" fill="#E0E0E0"/>
<path d="M1573.43 1712.07C1576.17 1760.24 1590.69 1809.24 1613.02 1858.8H1710.21C1731.51 1809.76 1745.05 1760.84 1747.47 1712.07H1573.39H1573.43Z" fill="#EBEBEB"/>
<path d="M1731.72 1790C1731.72 1790.52 1699.74 1790.91 1660.27 1790.91C1620.8 1790.91 1588.77 1790.52 1588.77 1790C1588.77 1789.49 1620.76 1789.09 1660.27 1789.09C1699.78 1789.09 1731.72 1789.49 1731.72 1790Z" fill="#FAFAFA"/>
<path d="M1729.55 1807.45C1729.55 1807.97 1699.54 1808.36 1662.52 1808.36C1625.51 1808.36 1595.5 1807.97 1595.5 1807.45C1595.5 1806.94 1625.51 1806.54 1662.52 1806.54C1699.54 1806.54 1729.55 1806.94 1729.55 1807.45Z" fill="#FAFAFA"/>
<path d="M1614.6 1743.68C1615.12 1743.68 1615.51 1753.68 1615.51 1766.06C1615.51 1778.44 1615.12 1788.44 1614.6 1788.44C1614.09 1788.44 1613.69 1778.44 1613.69 1766.06C1613.69 1753.68 1614.09 1743.68 1614.6 1743.68Z" fill="#FAFAFA"/>
<path d="M1666.68 1743.68C1667.19 1743.68 1667.59 1754.04 1667.59 1766.85C1667.59 1779.66 1667.19 1790.03 1666.68 1790.03C1666.16 1790.03 1665.77 1779.66 1665.77 1766.85C1665.77 1754.04 1666.16 1743.68 1666.68 1743.68Z" fill="#FAFAFA"/>
<path d="M1715.58 1743.27C1716.1 1743.27 1716.49 1753.82 1716.49 1766.88C1716.49 1779.93 1716.1 1790.49 1715.58 1790.49C1715.07 1790.49 1714.67 1779.93 1714.67 1766.88C1714.67 1753.82 1715.07 1743.27 1715.58 1743.27Z" fill="#FAFAFA"/>
<path d="M1744.38 1743.67C1744.38 1744.18 1706.85 1744.58 1660.53 1744.58C1614.21 1744.58 1576.68 1744.18 1576.68 1743.67C1576.68 1743.15 1614.21 1742.76 1660.53 1742.76C1706.85 1742.76 1744.38 1743.15 1744.38 1743.67Z" fill="#FAFAFA"/>
</svg>
