<svg width="2059" height="2065" viewBox="0 0 2059 2065" fill="none" xmlns="http://www.w3.org/2000/svg">
<path d="M1591.92 1899.67C2067.79 1590.98 2201.63 952.311 1890.86 473.183C1580.09 -5.94489 942.396 -144.102 466.523 164.601C-9.34756 473.304 -143.188 1111.97 167.581 1591.1C478.351 2070.22 1116.05 2208.38 1591.92 1899.67Z" fill="#121212" fill-opacity="0.29"/>
<path d="M436.821 1358.02H415.446C406.715 1358.02 399.633 1378.89 399.633 1404.53C399.633 1430.19 406.715 1451.07 415.446 1451.07H436.821C445.553 1451.07 452.634 1430.19 452.634 1404.53C452.634 1378.89 445.553 1358.01 436.821 1358.01V1358.02Z" fill="#121212"/>
<path d="M436.818 1453.36H415.462C403.683 1453.36 397.336 1428.21 397.336 1404.54C397.336 1380.87 403.683 1355.74 415.442 1355.74H436.818C448.577 1355.74 454.924 1380.88 454.924 1404.55C454.924 1428.21 448.577 1453.36 436.818 1453.36ZM415.462 1360.32C409.055 1360.32 401.913 1379.23 401.913 1404.55C401.913 1429.87 409.055 1448.79 415.442 1448.79H436.788C443.205 1448.79 450.347 1429.88 450.347 1404.56C450.347 1379.24 443.205 1360.33 436.818 1360.33H415.462V1360.32Z" fill="white"/>
<path d="M602.971 1427.33V1115.53L174.996 1170.71V1408.29L602.971 1427.33Z" fill="#121212"/>
<path d="M602.969 1429.63C602.969 1429.63 602.898 1429.63 602.868 1429.63L174.893 1410.57C173.666 1410.53 172.711 1409.51 172.711 1408.29V1170.72C172.711 1169.57 173.566 1168.59 174.703 1168.44L602.677 1113.26C603.331 1113.17 603.985 1113.38 604.478 1113.82C604.97 1114.25 605.252 1114.87 605.252 1115.54V1427.34C605.252 1427.97 605 1428.56 604.548 1428.99C604.125 1429.4 603.552 1429.63 602.969 1429.63ZM177.288 1406.1L600.686 1424.94V1118.14L177.288 1172.73V1406.1Z" fill="white"/>
<path d="M547.756 1347.13L561.114 1359.64L557.483 1444.12C557.272 1448.98 561.124 1453.02 565.933 1453.02H641.376V1347.39L547.746 1347.13H547.756Z" fill="#121212"/>
<path d="M641.384 1455.32H565.941C562.994 1455.32 560.248 1454.15 558.196 1452.01C556.134 1449.85 555.067 1447.02 555.198 1444.04L558.789 1360.62L546.195 1348.83C545.511 1348.18 545.28 1347.18 545.632 1346.31C545.974 1345.43 546.819 1344.86 547.754 1344.86L641.384 1345.11C642.642 1345.11 643.668 1346.14 643.668 1347.4V1453.03C643.668 1454.3 642.642 1455.32 641.384 1455.32ZM553.568 1349.45L562.682 1357.98C563.175 1358.43 563.437 1359.08 563.406 1359.75L559.775 1444.23C559.705 1445.95 560.318 1447.59 561.505 1448.83C562.682 1450.06 564.251 1450.74 565.941 1450.74H639.091V1349.69L553.568 1349.45Z" fill="white"/>
<path d="M782.291 1027.62H532.758V1349.92H782.291V1027.62Z" fill="#121212"/>
<path d="M782.295 1352.21H532.76C531.493 1352.21 530.477 1351.18 530.477 1349.93V1027.63C530.477 1026.36 531.503 1025.34 532.76 1025.34H782.295C783.562 1025.34 784.582 1026.38 784.582 1027.63V1349.93C784.582 1351.19 783.556 1352.21 782.295 1352.21ZM535.053 1347.63H780.014V1029.92H535.053V1347.63Z" fill="white"/>
<path d="M782.295 1352.21H742.402C741.134 1352.21 740.118 1351.18 740.118 1349.93C740.118 1348.66 741.144 1347.64 742.402 1347.64H780.001V1029.93H535.044V1349.93C535.044 1351.19 534.017 1352.21 532.76 1352.21C531.503 1352.21 530.477 1351.18 530.477 1349.93V1027.63C530.477 1026.36 531.503 1025.34 532.76 1025.34H782.295C783.562 1025.34 784.582 1026.38 784.582 1027.63V1349.93C784.582 1351.19 783.556 1352.21 782.295 1352.21Z" fill="white"/>
<path d="M624.579 1377.68H599.884C589.795 1377.68 581.617 1401.76 581.617 1431.4C581.617 1461.03 589.795 1485.14 599.884 1485.14H624.579C634.668 1485.14 642.846 1461.04 642.846 1431.41C642.846 1401.78 634.668 1377.68 624.579 1377.68Z" fill="white"/>
<path d="M599.884 1484.28C609.973 1484.28 618.152 1460.26 618.152 1430.63C618.152 1401 609.973 1376.99 599.884 1376.99C589.795 1376.99 581.617 1401 581.617 1430.63C581.617 1460.26 589.795 1484.28 599.884 1484.28Z" fill="#121212"/>
<path d="M599.881 1486.58C586.523 1486.58 579.32 1457.76 579.32 1430.64C579.32 1403.52 586.523 1374.69 599.881 1374.69C613.24 1374.69 620.442 1403.52 620.442 1430.64C620.442 1457.76 613.24 1486.58 599.881 1486.58ZM599.881 1379.27C592.317 1379.27 583.897 1400.37 583.897 1430.64C583.897 1460.9 592.327 1482 599.881 1482C607.435 1482 615.865 1460.9 615.865 1430.64C615.865 1400.37 607.446 1379.27 599.881 1379.27Z" fill="white"/>
<path d="M547.232 1124.46L546.508 1348.41L554.928 1355.51C558.016 1358.12 559.725 1362.03 559.555 1366.09L556.084 1446.76C555.933 1450.2 558.659 1453.06 562.059 1453.07C564.635 1453.07 567.039 1453.06 567.039 1452.97C567.039 1402.59 576.484 1361.28 588.706 1361.28C600.927 1361.28 610.836 1402.12 610.836 1452.49C610.836 1452.68 640.088 1453.02 640.088 1453.02V1125.39L547.222 1124.45L547.232 1124.46Z" fill="#121212"/>
<path d="M563.583 1455.37C563.12 1455.37 562.617 1455.37 562.053 1455.37C559.791 1455.37 557.667 1454.47 556.099 1452.81C554.519 1451.15 553.694 1448.97 553.795 1446.67L557.266 1366.01C557.406 1362.68 555.978 1359.42 553.453 1357.27L545.034 1350.16C544.521 1349.73 544.219 1349.08 544.219 1348.4L544.943 1124.46C544.943 1123.84 545.194 1123.25 545.627 1122.83C546.06 1122.4 546.603 1122.19 547.257 1122.17L640.122 1123.12C641.379 1123.12 642.386 1124.15 642.386 1125.4V1453.02C642.386 1453.64 642.144 1454.22 641.702 1454.66C641.269 1455.09 640.676 1455.34 640.062 1455.32C640.062 1455.32 632.749 1455.23 625.426 1455.13C614.173 1454.96 608.547 1454.09 608.547 1452.51C608.547 1400.11 598.086 1363.59 588.7 1363.59C579.315 1363.59 569.316 1400.3 569.316 1452.97C569.316 1453.58 569.075 1454.17 568.642 1454.6C567.948 1455.29 567.878 1455.36 563.583 1455.36V1455.37ZM548.786 1347.35L556.39 1353.77C560.002 1356.81 562.033 1361.46 561.832 1366.2L558.362 1446.87C558.322 1447.9 558.684 1448.89 559.398 1449.64C560.102 1450.37 561.048 1450.78 562.053 1450.78C563.21 1450.78 564.095 1450.78 564.75 1450.78C565.001 1404.8 573.219 1359 588.7 1359C604.181 1359 612.842 1405.64 613.114 1450.32C617.67 1450.44 628.987 1450.6 637.798 1450.71V1127.68L549.5 1126.77L548.786 1347.35Z" fill="white"/>
<path d="M640.1 1455.32H640.069C640.069 1455.32 632.757 1455.23 625.433 1455.13C614.181 1454.96 608.555 1454.09 608.555 1452.51C608.555 1412.06 602.106 1376.52 592.872 1366.07C592.037 1365.12 592.128 1363.67 593.074 1362.83C594.019 1362 595.467 1362.09 596.302 1363.04C606.19 1374.23 612.9 1409.15 613.131 1450.34C618.1 1450.47 631.097 1450.65 640.13 1450.76C641.397 1450.78 642.403 1451.82 642.393 1453.08C642.383 1454.33 641.357 1455.34 640.11 1455.34L640.1 1455.32Z" fill="white"/>
<path d="M826.048 1375.06H801.354C791.265 1375.06 783.09 1399.14 783.09 1428.78C783.09 1458.41 791.265 1482.52 801.354 1482.52H826.048C836.137 1482.52 844.318 1458.42 844.318 1428.79C844.318 1399.16 836.137 1375.06 826.048 1375.06Z" fill="white"/>
<path d="M801.196 1482.52C811.37 1482.52 819.616 1458.31 819.616 1428.44C819.616 1398.57 811.37 1374.35 801.196 1374.35C791.028 1374.35 782.781 1398.57 782.781 1428.44C782.781 1458.31 791.028 1482.52 801.196 1482.52Z" fill="#121212"/>
<path d="M801.194 1484.82C787.746 1484.82 780.492 1455.77 780.492 1428.44C780.492 1401.11 787.746 1372.07 801.194 1372.07C814.642 1372.07 821.895 1401.11 821.895 1428.44C821.895 1455.77 814.642 1484.82 801.194 1484.82ZM801.194 1376.64C793.568 1376.64 785.073 1397.91 785.073 1428.44C785.073 1458.97 793.568 1480.24 801.194 1480.24C808.819 1480.24 817.321 1458.97 817.321 1428.44C817.321 1397.91 808.819 1376.64 801.194 1376.64Z" fill="white"/>
<path d="M848.068 1124.78H641.707V1453.03H865.554C872.232 1453.03 877.643 1447.57 877.643 1440.84V1335.59C877.643 1306.36 875.075 1277.19 869.978 1248.42L848.068 1124.79V1124.78Z" fill="#121212"/>
<path d="M865.549 1455.33H641.701C640.433 1455.33 639.418 1454.3 639.418 1453.05V1124.8C639.418 1123.53 640.444 1122.51 641.701 1122.51H848.063C849.167 1122.51 850.128 1123.3 850.317 1124.4L872.228 1248.03C877.338 1276.85 879.932 1306.32 879.932 1335.61V1440.85C879.932 1448.84 873.482 1455.34 865.549 1455.34V1455.33ZM643.984 1450.74H865.549C870.96 1450.74 875.351 1446.31 875.351 1440.85V1335.6C875.351 1306.58 872.79 1277.39 867.719 1248.81L846.142 1127.08H643.984V1450.74Z" fill="white"/>
<path d="M607.049 1272.03L617.903 1273.9C621.494 1274.52 624.763 1271.74 624.763 1268.07V1200.06C624.763 1195.43 621.031 1191.67 616.434 1191.67H601.345C597.503 1191.67 594.395 1194.82 594.395 1198.68V1256.91C594.395 1264.38 599.736 1270.77 607.049 1272.03Z" fill="#121212"/>
<path d="M618.903 1276.28C618.44 1276.28 617.978 1276.24 617.515 1276.16L606.661 1274.29C598.232 1272.84 592.105 1265.52 592.105 1256.9V1198.67C592.105 1193.54 596.25 1189.37 601.35 1189.37H616.439C622.293 1189.37 627.051 1194.17 627.051 1200.06V1268.07C627.051 1270.51 625.984 1272.8 624.134 1274.37C622.655 1275.61 620.794 1276.29 618.893 1276.29L618.903 1276.28ZM601.35 1193.95C598.775 1193.95 596.682 1196.07 596.682 1198.67V1256.9C596.682 1263.27 601.209 1268.69 607.435 1269.76L618.289 1271.63C619.326 1271.82 620.382 1271.52 621.187 1270.85C622.011 1270.16 622.474 1269.14 622.474 1268.06V1200.05C622.474 1196.69 619.768 1193.95 616.428 1193.95H601.34L601.35 1193.95Z" fill="white"/>
<path d="M532.77 1349.92V1027.62L154.297 1073.37V1350.26L532.77 1349.92Z" fill="#121212"/>
<path d="M820.045 1124.16H547.949L560.161 1066.75C562.485 1055.83 572.684 1047.97 584.534 1047.97H789.601C798.86 1047.97 806.793 1054.21 808.42 1062.78L820.045 1124.16Z" fill="#121212"/>
<path d="M808.418 1062.78C806.797 1054.21 798.864 1047.97 789.599 1047.97H584.532C578.949 1047.97 573.749 1049.74 569.555 1052.72L658.507 1124.16H820.043L808.418 1062.78Z" fill="#121212"/>
<path d="M643.754 1114.6C643.25 1114.6 642.747 1114.44 642.325 1114.1L580.049 1064.09C579.063 1063.29 578.902 1061.85 579.697 1060.86C580.491 1059.87 581.93 1059.72 582.916 1060.52L645.192 1110.52C646.177 1111.32 646.339 1112.76 645.544 1113.75C645.091 1114.31 644.427 1114.6 643.754 1114.6Z" fill="white"/>
<path d="M820.059 1126.45H547.963C547.269 1126.45 546.616 1126.14 546.183 1125.61C545.751 1125.07 545.579 1124.36 545.72 1123.69L557.932 1066.27C560.427 1054.52 571.341 1046.07 584.478 1045.69H789.602C799.985 1045.69 808.833 1052.7 810.669 1062.35L822.294 1123.74C822.425 1124.42 822.242 1125.1 821.81 1125.63C821.379 1126.15 820.745 1126.45 820.059 1126.45ZM550.79 1121.87H817.295L806.18 1063.2C804.762 1055.7 797.79 1050.26 789.615 1050.26H584.548C573.594 1050.58 564.47 1057.54 562.418 1067.21L550.8 1121.87H550.79Z" fill="white"/>
<path d="M670.843 1185.34H831.575C839.168 1185.34 845.657 1190.84 846.977 1198.38L860.647 1276.88C861.967 1284.46 856.184 1291.4 848.559 1291.4H667.493C660.713 1291.4 655.211 1285.86 655.211 1279.02V1201.1C655.211 1192.39 662.212 1185.33 670.843 1185.33V1185.34Z" fill="#121212"/>
<path d="M848.538 1293.69H667.472C659.445 1293.69 652.906 1287.1 652.906 1279.02V1201.1C652.906 1191.14 660.944 1183.04 670.832 1183.04H831.568C840.285 1183.04 847.709 1189.32 849.218 1197.97L862.888 1276.48C863.633 1280.78 862.47 1285.15 859.673 1288.48C856.896 1291.79 852.832 1293.69 848.538 1293.69ZM670.832 1187.63C663.469 1187.63 657.483 1193.67 657.483 1201.1V1279.02C657.483 1284.58 661.96 1289.1 667.472 1289.1H848.538C851.472 1289.1 854.256 1287.8 856.158 1285.53C858.079 1283.24 858.896 1280.23 858.373 1277.26L844.703 1198.75C843.579 1192.3 838.057 1187.61 831.555 1187.61H670.821L670.832 1187.63Z" fill="white"/>
<path d="M776.844 1260.39C767.447 1250.78 754.633 1245.32 741.244 1245.32H655.027V1279.02C655.027 1285.85 660.681 1291.18 667.461 1291.18H848.521C856.147 1291.18 861.93 1284.35 860.617 1276.78L860.362 1275.46H812.431C799.055 1275.46 786.228 1270 776.831 1260.39H776.844Z" fill="#121212"/>
<path d="M848.538 1293.48H667.473C659.355 1293.48 652.746 1286.99 652.746 1279.02V1245.32C652.746 1244.05 653.772 1243.03 655.03 1243.03H741.246C755.117 1243.03 768.686 1248.78 778.474 1258.79C787.42 1267.93 799.79 1273.18 812.434 1273.18H860.365C861.463 1273.18 862.41 1273.96 862.62 1275.04L862.868 1276.35C863.613 1280.65 862.456 1284.99 859.692 1288.29C856.928 1291.6 852.85 1293.48 848.525 1293.48H848.538ZM657.323 1247.61V1279.02C657.323 1284.46 661.88 1288.9 667.473 1288.9H848.538C851.504 1288.9 854.301 1287.59 856.203 1285.34C857.973 1283.23 858.777 1280.49 858.464 1277.75H812.454C798.581 1277.75 785.015 1272.01 775.227 1261.99C766.294 1252.86 753.91 1247.61 741.266 1247.61H657.333H657.323Z" fill="white"/>
<path d="M848.538 1293.69H667.472C659.445 1293.69 652.906 1287.1 652.906 1279.02V1201.1C652.906 1191.14 660.944 1183.04 670.832 1183.04H831.568C840.285 1183.04 847.709 1189.32 849.218 1197.97L862.888 1276.48C863.633 1280.78 862.47 1285.15 859.673 1288.48C856.896 1291.79 852.832 1293.69 848.538 1293.69ZM670.832 1187.63C663.469 1187.63 657.483 1193.67 657.483 1201.1V1279.02C657.483 1284.58 661.96 1289.1 667.472 1289.1H848.538C851.472 1289.1 854.256 1287.8 856.158 1285.53C858.079 1283.24 858.896 1280.23 858.373 1277.26L844.703 1198.75C843.579 1192.3 838.057 1187.61 831.555 1187.61H670.821L670.832 1187.63Z" fill="white"/>
<path d="M490.809 1365.89H466.788C456.97 1365.89 449.023 1389.48 449.023 1418.3C449.023 1447.12 456.981 1470.73 466.788 1470.73H490.809C500.627 1470.73 508.573 1447.12 508.573 1418.31C508.573 1389.5 500.617 1365.89 490.809 1365.89Z" fill="white"/>
<path d="M466.788 1469.88C476.599 1469.88 484.552 1446.52 484.552 1417.7C484.552 1388.88 476.599 1365.52 466.788 1365.52C456.977 1365.52 449.023 1388.88 449.023 1417.7C449.023 1446.52 456.977 1469.88 466.788 1469.88Z" fill="#121212"/>
<path d="M466.784 1472.16C453.758 1472.16 446.727 1444.1 446.727 1417.7C446.727 1391.29 453.758 1363.23 466.784 1363.23C479.811 1363.23 486.842 1391.29 486.842 1417.7C486.842 1444.1 479.811 1472.16 466.784 1472.16ZM466.784 1367.81C459.461 1367.81 451.303 1388.3 451.303 1417.7C451.303 1447.09 459.461 1467.58 466.784 1467.58C474.108 1467.58 482.265 1447.09 482.265 1417.7C482.265 1388.3 474.108 1367.81 466.784 1367.81Z" fill="white"/>
<path d="M228.453 1359.32H207.862C199.453 1359.32 192.633 1378.84 192.633 1403.22C192.633 1427.61 199.453 1447.13 207.862 1447.13H228.453C236.862 1447.13 243.683 1427.61 243.683 1403.23C243.683 1378.86 236.862 1359.34 228.453 1359.34V1359.32Z" fill="white"/>
<path d="M207.862 1446.63C216.273 1446.63 223.092 1426.87 223.092 1402.49C223.092 1378.11 216.273 1358.36 207.862 1358.36C199.452 1358.36 192.633 1378.11 192.633 1402.49C192.633 1426.87 199.452 1446.63 207.862 1446.63Z" fill="#121212"/>
<path d="M207.858 1448.91C196.482 1448.91 190.336 1424.99 190.336 1402.48C190.336 1379.97 196.472 1356.04 207.858 1356.04C219.245 1356.04 225.381 1379.97 225.381 1402.48C225.381 1424.99 219.245 1448.91 207.858 1448.91ZM207.858 1360.64C201.752 1360.64 194.913 1378.53 194.913 1402.49C194.913 1426.45 201.743 1444.34 207.858 1444.34C213.975 1444.34 220.805 1426.45 220.805 1402.49C220.805 1378.53 213.975 1360.64 207.858 1360.64Z" fill="white"/>
<path d="M267.441 1361.95H246.85C238.441 1361.95 231.621 1381.46 231.621 1405.84C231.621 1430.22 238.441 1449.75 246.85 1449.75H267.441C275.851 1449.75 282.671 1430.22 282.671 1405.85C282.671 1381.48 275.851 1361.95 267.441 1361.95V1361.95Z" fill="white"/>
<path d="M246.85 1449.25C255.262 1449.25 262.08 1429.49 262.08 1405.11C262.08 1380.74 255.262 1360.97 246.85 1360.97C238.44 1360.97 231.621 1380.74 231.621 1405.11C231.621 1429.49 238.44 1449.25 246.85 1449.25Z" fill="#121212"/>
<path d="M246.851 1451.55C235.475 1451.55 229.328 1427.62 229.328 1405.11C229.328 1382.6 235.465 1358.67 246.851 1358.67C258.238 1358.67 264.374 1382.6 264.374 1405.11C264.374 1427.62 258.238 1451.55 246.851 1451.55ZM246.851 1363.26C240.745 1363.26 233.906 1381.15 233.906 1405.11C233.906 1429.07 240.735 1446.96 246.851 1446.96C252.967 1446.96 259.797 1429.07 259.797 1405.11C259.797 1381.15 252.967 1363.26 246.851 1363.26Z" fill="white"/>
<path d="M308.134 1361.94H286.758C278.027 1361.94 270.945 1382.81 270.945 1408.45C270.945 1434.1 278.027 1454.98 286.758 1454.98H308.134C316.865 1454.98 323.947 1434.1 323.947 1408.45C323.947 1382.81 316.865 1361.93 308.134 1361.93V1361.94Z" fill="white"/>
<path d="M286.758 1454.16C295.492 1454.16 302.571 1433.37 302.571 1407.71C302.571 1382.06 295.492 1361.27 286.758 1361.27C278.025 1361.27 270.945 1382.06 270.945 1407.71C270.945 1433.37 278.025 1454.16 286.758 1454.16Z" fill="#121212"/>
<path d="M286.759 1456.46C275 1456.46 268.652 1431.35 268.652 1407.72C268.652 1384.1 275 1358.99 286.759 1358.99C298.518 1358.99 304.865 1384.1 304.865 1407.72C304.865 1431.35 298.518 1456.46 286.759 1456.46ZM286.759 1363.56C280.371 1363.56 273.229 1382.45 273.229 1407.72C273.229 1432.99 280.371 1451.86 286.759 1451.86C293.146 1451.86 300.289 1432.99 300.289 1407.72C300.289 1382.45 293.146 1363.56 286.759 1363.56Z" fill="white"/>
<path d="M701.303 1417.15H672.262C667.263 1417.15 663.219 1413.07 663.219 1408.03V1391.67H686.174C693.96 1391.67 700.9 1396.63 703.486 1404.03L705.819 1410.72C706.916 1413.86 704.602 1417.15 701.303 1417.15Z" fill="#121212"/>
<path d="M701.299 1419.45H672.259C666.012 1419.45 660.922 1414.33 660.922 1408.04V1391.69C660.922 1390.42 661.948 1389.4 663.205 1389.4H686.16C694.901 1389.4 702.727 1394.98 705.625 1403.29L707.958 1409.98C708.723 1412.17 708.38 1414.6 707.043 1416.47C705.715 1418.34 703.562 1419.45 701.279 1419.45H701.299ZM665.508 1393.96V1408.04C665.508 1411.8 668.537 1414.87 672.268 1414.87H701.309C702.124 1414.87 702.868 1414.49 703.341 1413.81C703.824 1413.13 703.945 1412.28 703.673 1411.48L701.339 1404.8C699.076 1398.32 692.99 1393.98 686.19 1393.98H665.519L665.508 1393.96Z" fill="white"/>
<path d="M822.139 1415.39H851.179C856.177 1415.39 860.222 1411.31 860.222 1406.27V1389.91H837.267C829.484 1389.91 822.544 1394.86 819.957 1402.27L817.624 1408.96C816.526 1412.1 818.839 1415.39 822.139 1415.39Z" fill="#121212"/>
<path d="M851.17 1417.69H822.13C819.843 1417.69 817.694 1416.57 816.367 1414.71C815.027 1412.82 814.688 1410.4 815.452 1408.22L817.785 1401.53C820.68 1393.22 828.508 1387.63 837.245 1387.63H860.201C861.468 1387.63 862.488 1388.67 862.488 1389.92V1406.29C862.488 1412.57 857.404 1417.69 851.15 1417.69H851.17ZM837.258 1392.21C830.455 1392.21 824.372 1396.56 822.111 1403.03L819.778 1409.72C819.491 1410.52 819.615 1411.36 820.105 1412.05C820.582 1412.72 821.327 1413.11 822.137 1413.11H851.183C854.901 1413.11 857.94 1410.05 857.94 1406.27V1392.2H837.271L837.258 1392.21Z" fill="white"/>
<path d="M801.448 1434.37H725.052C721.129 1434.37 717.498 1432.26 715.556 1428.82L712.186 1422.88C711.04 1420.86 712.488 1418.35 714.792 1418.35H811.733C814.034 1418.35 815.484 1420.85 814.334 1422.88L810.969 1428.82C809.015 1432.26 805.395 1434.37 801.468 1434.37H801.448Z" fill="#121212"/>
<path d="M801.445 1436.66H725.044C720.306 1436.66 715.91 1434.09 713.556 1429.96L710.186 1424.01C709.241 1422.34 709.25 1420.35 710.216 1418.69C711.172 1417.04 712.882 1416.05 714.783 1416.05H811.724C813.625 1416.05 815.331 1417.04 816.291 1418.69C817.258 1420.35 817.265 1422.34 816.317 1424.01L812.939 1429.96C810.587 1434.09 806.182 1436.66 801.445 1436.66ZM714.763 1420.63C714.411 1420.63 714.23 1420.85 714.149 1420.99C714.069 1421.13 713.959 1421.41 714.149 1421.73L717.519 1427.67C719.058 1430.39 721.935 1432.07 725.033 1432.07H801.432C804.529 1432.07 807.404 1430.39 808.946 1427.67L812.325 1421.73C812.508 1421.41 812.41 1421.13 812.325 1420.99C812.246 1420.85 812.063 1420.63 811.711 1420.63H714.773H714.763Z" fill="white"/>
<path d="M589.144 1203.28H600.37C602.805 1203.28 604.776 1205.25 604.776 1207.69V1259.95C604.776 1262.35 602.835 1264.29 600.44 1264.29H592.031C585.131 1264.29 579.527 1258.68 579.527 1251.77V1212.91C579.527 1207.6 583.833 1203.28 589.144 1203.28Z" fill="#121212"/>
<path d="M600.441 1266.58H592.032C583.873 1266.58 577.234 1259.93 577.234 1251.76V1212.9C577.234 1206.33 582.576 1200.98 589.134 1200.98H600.361C604.052 1200.98 607.05 1203.99 607.05 1207.68V1259.94C607.05 1263.6 604.082 1266.57 600.431 1266.57L600.441 1266.58ZM589.134 1205.57C585.091 1205.57 581.811 1208.87 581.811 1212.91V1251.77C581.811 1257.41 586.398 1262 592.032 1262H600.441C601.568 1262 602.483 1261.09 602.483 1259.96V1207.7C602.483 1206.54 601.538 1205.59 600.371 1205.59H589.145L589.134 1205.57Z" fill="white"/>
<path d="M885.189 1201.1H896.023C899.807 1201.1 902.871 1204.17 902.871 1207.95V1256.39C902.871 1262.16 898.193 1266.86 892.423 1266.86H885.823C884.294 1266.86 883.059 1265.61 883.059 1264.08V1203.21C883.059 1202.04 884 1201.08 885.176 1201.08L885.189 1201.1Z" fill="#121212"/>
<path d="M892.438 1269.16H885.844C883.054 1269.16 880.793 1266.89 880.793 1264.1V1203.23C880.793 1200.79 882.773 1198.81 885.197 1198.81H896.032C901.07 1198.81 905.173 1202.92 905.173 1207.97V1256.4C905.173 1263.43 899.462 1269.16 892.438 1269.16ZM885.367 1203.4V1264.1C885.367 1264.36 885.583 1264.57 885.844 1264.57H892.438C896.94 1264.57 900.599 1260.91 900.599 1256.4V1207.97C900.599 1205.45 898.547 1203.4 896.032 1203.4H885.367Z" fill="white"/>
<path d="M861.553 1322.56H659.111C657.944 1322.56 656.988 1323.52 656.988 1324.7V1337.99C656.988 1342.5 660.61 1346.15 665.076 1346.15H671.182C674.33 1346.15 677.187 1347.99 678.515 1350.87L684.842 1364.57C690.365 1376.52 702.245 1384.16 715.321 1384.16H811.433C824.515 1384.16 836.395 1376.52 841.917 1364.57L848.242 1350.87C849.569 1348 852.424 1346.15 855.574 1346.15C860.044 1346.15 863.664 1342.51 863.664 1337.99V1324.7C863.664 1323.52 862.716 1322.56 861.54 1322.56H861.553Z" fill="#121212"/>
<path d="M811.434 1386.44H715.318C701.417 1386.44 688.631 1378.24 682.766 1365.53L676.44 1351.83C675.494 1349.77 673.422 1348.44 671.179 1348.44H665.073C659.349 1348.44 654.691 1343.76 654.691 1338V1324.7C654.691 1322.26 656.673 1320.27 659.098 1320.27H861.534C863.972 1320.27 865.945 1322.25 865.945 1324.7V1338C865.945 1343.76 861.286 1348.44 855.562 1348.44C853.32 1348.44 851.255 1349.77 850.301 1351.83L843.976 1365.53C838.108 1378.24 825.326 1386.44 811.421 1386.44H811.434ZM659.107 1324.86L659.279 1338C659.279 1341.23 661.884 1343.86 665.083 1343.86H671.189C675.212 1343.86 678.904 1346.23 680.604 1349.9L686.931 1363.61C692.051 1374.7 703.197 1381.86 715.328 1381.86H811.44C823.575 1381.86 834.716 1374.7 839.84 1363.61L846.165 1349.9C847.864 1346.23 851.556 1343.86 855.581 1343.86C858.783 1343.86 861.384 1341.23 861.384 1338V1324.86H659.118H659.107Z" fill="white"/>
<path d="M154.293 1352.55C153.69 1352.55 153.106 1352.31 152.674 1351.88C152.241 1351.45 152 1350.87 152 1350.26V1073.37C152 1072.21 152.865 1071.24 154.012 1071.09L532.496 1025.35C533.149 1025.27 533.793 1025.48 534.286 1025.91C534.779 1026.35 535.06 1026.97 535.06 1027.63V1349.25C535.06 1350.52 534.035 1351.54 532.777 1351.54L154.293 1352.55ZM156.577 1075.39V1347.95L530.484 1346.96V1030.21L156.577 1075.39Z" fill="white"/>
<path d="M184.131 1328.19C182.864 1328.19 181.848 1327.16 181.848 1325.9V1097.61C181.848 1096.34 182.874 1095.32 184.131 1095.32C185.389 1095.32 186.415 1096.36 186.415 1097.61V1325.9C186.415 1327.18 185.389 1328.19 184.131 1328.19Z" fill="white"/>
<path d="M223.1 1328.18C221.833 1328.18 220.816 1327.16 220.816 1325.89V1093.27C220.816 1092 221.842 1090.98 223.1 1090.98C224.357 1090.98 225.383 1092.01 225.383 1093.27V1325.89C225.383 1327.16 224.357 1328.18 223.1 1328.18Z" fill="white"/>
<path d="M262.037 1328.19C260.77 1328.19 259.754 1327.16 259.754 1325.9V1089.05C259.754 1087.78 260.78 1086.76 262.037 1086.76C263.295 1086.76 264.321 1087.78 264.321 1089.05V1325.9C264.321 1327.17 263.295 1328.19 262.037 1328.19Z" fill="white"/>
<path d="M300.998 1328.19C299.731 1328.19 298.715 1327.16 298.715 1325.9V1083.86C298.715 1082.59 299.741 1081.57 300.998 1081.57C302.255 1081.57 303.282 1082.6 303.282 1083.86V1325.9C303.282 1327.17 302.255 1328.19 300.998 1328.19Z" fill="white"/>
<path d="M339.956 1328.18C338.688 1328.18 337.672 1327.16 337.672 1325.89V1079.96C337.672 1078.7 338.698 1077.68 339.956 1077.68C341.213 1077.68 342.239 1078.7 342.239 1079.96V1325.89C342.239 1327.17 341.213 1328.18 339.956 1328.18Z" fill="white"/>
<path d="M378.917 1328.19C377.649 1328.19 376.633 1327.16 376.633 1325.9V1073.82C376.633 1072.55 377.659 1071.54 378.917 1071.54C380.174 1071.54 381.2 1072.56 381.2 1073.82V1325.9C381.2 1327.17 380.174 1328.19 378.917 1328.19Z" fill="white"/>
<path d="M417.869 1328.18C416.601 1328.18 415.586 1327.15 415.586 1325.89V1070.16C415.586 1068.89 416.612 1067.87 417.869 1067.87C419.126 1067.87 420.152 1068.9 420.152 1070.16V1325.89C420.152 1327.16 419.126 1328.18 417.869 1328.18Z" fill="white"/>
<path d="M456.838 1328.18C455.571 1328.18 454.555 1327.15 454.555 1325.9V1065.02C454.555 1063.75 455.581 1062.73 456.838 1062.73C458.096 1062.73 459.122 1063.76 459.122 1065.02V1325.9C459.122 1327.17 458.096 1328.18 456.838 1328.18Z" fill="white"/>
<path d="M495.783 1328.18C494.516 1328.18 493.5 1327.15 493.5 1325.9V1060.82C493.5 1059.55 494.526 1058.54 495.783 1058.54C497.04 1058.54 498.067 1059.56 498.067 1060.82V1325.9C498.067 1327.17 497.04 1328.18 495.783 1328.18Z" fill="white"/>
<path d="M1102.93 772.237L1144.73 803.675C1139.67 823.826 1136.32 844.125 1134.75 864.393L1085.25 880.93C1060.76 889.114 1045.22 913.176 1047.81 938.864C1050.4 964.553 1070.45 985.022 1096.08 988.136L1148.03 994.46C1153.7 1014.19 1160.98 1033.4 1169.82 1051.93L1135.13 1091.1C1118.01 1110.43 1116.57 1139.05 1131.66 1159.99C1146.76 1180.94 1174.35 1188.65 1198.11 1178.53L1246.13 1158.09C1260.75 1172.23 1276.72 1185.19 1293.86 1196.93L1283.41 1248.17C1278.26 1273.47 1291.32 1298.98 1314.86 1309.57C1338.4 1320.17 1366.15 1313.04 1381.67 1292.41L1413.11 1250.61C1433.26 1255.67 1453.56 1259.02 1473.83 1260.59L1490.36 1310.08C1498.55 1334.57 1522.61 1350.12 1548.3 1347.53C1573.99 1344.93 1594.46 1324.89 1597.57 1299.25L1603.89 1247.31C1623.62 1241.65 1642.85 1234.36 1661.36 1225.52L1700.54 1260.21C1719.87 1277.32 1748.48 1278.76 1769.43 1263.67C1790.37 1248.58 1798.08 1220.99 1787.96 1197.22L1767.52 1149.21C1781.66 1134.59 1794.63 1118.62 1806.36 1101.47L1857.61 1111.92C1882.91 1117.08 1908.41 1104.01 1919.01 1080.47C1929.6 1056.93 1922.47 1029.18 1901.84 1013.67L1860.04 982.227C1865.1 962.076 1868.45 941.776 1870.02 921.509L1919.52 904.971C1944 896.788 1959.55 872.726 1956.96 847.037C1954.37 821.349 1934.32 800.879 1908.69 797.765L1856.75 791.442C1851.08 771.716 1843.79 752.5 1834.95 733.975L1869.64 694.8C1886.75 675.467 1888.2 646.857 1873.1 625.909C1858.01 604.96 1830.42 597.255 1806.66 607.373L1758.64 627.811C1744.01 613.686 1728.05 600.709 1710.91 588.976L1721.36 537.727C1726.51 512.432 1713.45 486.935 1689.91 476.328C1666.37 465.732 1638.62 472.863 1623.1 493.493L1591.66 535.293C1571.51 530.234 1551.21 526.886 1530.94 525.313L1514.4 475.818C1506.22 451.331 1482.16 435.782 1456.47 438.375C1430.78 440.968 1410.31 461.013 1407.2 486.648L1400.88 538.598C1381.15 544.263 1361.93 551.544 1343.41 560.386L1304.23 525.696C1284.9 508.585 1256.29 507.139 1235.34 522.231C1214.39 537.323 1206.69 564.914 1216.81 588.678L1237.24 636.696C1223.11 651.32 1210.14 667.284 1198.41 684.427L1147.16 673.98C1121.87 668.825 1096.36 681.887 1085.76 705.428C1075.17 728.969 1082.3 756.72 1102.93 772.237ZM1235.08 772.64C1301.52 625.005 1475.08 559.185 1622.72 625.643C1770.35 692.09 1836.17 865.647 1769.71 1013.28C1703.27 1160.92 1529.71 1226.73 1382.07 1160.28C1234.44 1093.83 1168.63 920.276 1235.08 772.64Z" fill="#121212"/>
<path d="M1542.61 1350.22C1517.98 1350.22 1496.07 1334.69 1488.11 1310.86L1472.07 1262.86C1452.85 1261.28 1433.36 1258.08 1414.09 1253.33L1383.6 1293.86C1367.29 1315.55 1338.63 1322.91 1313.89 1311.77C1289.14 1300.63 1275.66 1274.3 1281.08 1247.72L1291.2 1198.02C1274.88 1186.74 1259.55 1174.28 1245.62 1160.93L1199.06 1180.75C1174.1 1191.38 1145.6 1183.42 1129.74 1161.41C1113.88 1139.39 1115.37 1109.84 1133.36 1089.53L1166.99 1051.53C1158.65 1033.87 1151.66 1015.42 1146.18 996.648L1095.81 990.516C1068.87 987.232 1048.17 966.093 1045.44 939.108C1042.72 912.112 1058.78 887.253 1084.51 878.666L1132.51 862.628C1134.08 843.401 1137.29 823.899 1142.04 804.63L1101.5 774.149C1079.82 757.845 1072.46 729.181 1083.58 704.439C1094.72 679.696 1121.05 666.209 1147.64 671.63L1197.34 681.758C1208.6 665.433 1221.07 650.108 1234.43 636.174L1214.61 589.612C1203.98 564.658 1211.94 536.142 1233.95 520.285C1255.95 504.428 1285.52 505.916 1305.83 523.899L1343.82 557.537C1361.5 549.194 1379.94 542.2 1398.7 536.727L1404.83 486.35C1408.11 459.418 1429.25 438.714 1456.24 435.983C1483.22 433.251 1508.08 449.321 1516.68 475.052L1532.72 523.048C1551.97 524.632 1571.47 527.842 1590.72 532.582L1621.2 492.046C1637.5 470.365 1666.18 463 1690.9 474.138C1715.64 485.276 1729.13 511.613 1723.71 538.194L1713.58 587.891C1729.89 599.156 1745.21 611.623 1759.16 624.983L1805.72 605.161C1830.68 594.544 1859.19 602.494 1875.05 624.505C1890.91 646.515 1889.42 676.072 1871.44 696.383L1837.8 734.378C1846.14 752.053 1853.14 770.503 1858.61 789.251L1908.98 795.384C1935.9 798.668 1956.61 819.807 1959.34 846.792C1962.06 873.787 1946 898.636 1920.27 907.234L1872.28 923.272C1870.69 942.509 1867.49 962.001 1862.74 981.27L1903.28 1011.75C1924.96 1028.05 1932.33 1056.72 1921.2 1081.46C1910.06 1106.19 1883.72 1119.69 1857.14 1114.27L1807.44 1104.14C1796.17 1120.48 1783.69 1135.8 1770.35 1149.73L1790.17 1196.29C1800.8 1221.24 1792.84 1249.76 1770.83 1265.6C1748.82 1281.46 1719.25 1279.97 1698.95 1261.99L1660.96 1228.35C1643.29 1236.7 1624.84 1243.69 1606.08 1249.16L1599.95 1299.54C1596.67 1326.47 1575.53 1347.17 1548.54 1349.91C1546.55 1350.11 1544.57 1350.2 1542.6 1350.2L1542.61 1350.22ZM1413.12 1248.24C1413.31 1248.24 1413.5 1248.26 1413.7 1248.31C1433.74 1253.34 1454.04 1256.68 1474.03 1258.22C1474.99 1258.29 1475.82 1258.93 1476.11 1259.84L1492.65 1309.34C1500.54 1332.93 1523.3 1347.66 1548.08 1345.17C1572.83 1342.67 1592.21 1323.68 1595.22 1298.99L1601.55 1247.05C1601.66 1246.09 1602.33 1245.3 1603.26 1245.04C1622.8 1239.43 1642.02 1232.15 1660.35 1223.39C1661.21 1222.97 1662.25 1223.12 1662.97 1223.76L1702.14 1258.45C1720.76 1274.95 1747.87 1276.3 1768.05 1261.77C1788.23 1247.23 1795.52 1221.09 1785.78 1198.2L1765.35 1150.18C1764.97 1149.3 1765.16 1148.27 1765.83 1147.58C1779.76 1133.17 1792.74 1117.21 1804.41 1100.16C1804.95 1099.36 1805.91 1098.97 1806.86 1099.17L1858.12 1109.61C1882.49 1114.59 1906.64 1102.21 1916.85 1079.53C1927.06 1056.85 1920.3 1030.56 1900.43 1015.61L1858.63 984.171C1857.85 983.597 1857.51 982.609 1857.75 981.673C1862.77 961.65 1866.1 941.35 1867.65 921.348C1867.73 920.392 1868.37 919.573 1869.28 919.265L1918.77 902.728C1942.37 894.842 1957.1 872.055 1954.6 847.302C1952.1 822.549 1933.11 803.163 1908.42 800.156L1856.48 793.832C1855.53 793.715 1854.74 793.045 1854.47 792.121C1848.86 772.586 1841.58 753.381 1832.82 735.026C1832.41 734.155 1832.56 733.124 1833.2 732.412L1867.89 693.226C1884.37 674.606 1885.73 647.504 1871.2 627.321C1856.66 607.138 1830.52 599.847 1807.64 609.583L1759.62 630.021C1758.74 630.393 1757.71 630.212 1757.01 629.542C1742.58 615.598 1726.63 602.611 1709.6 590.962C1708.81 590.42 1708.41 589.453 1708.61 588.507L1719.06 537.258C1724.02 512.888 1711.65 488.73 1688.97 478.527C1666.28 468.314 1640.01 475.073 1625.06 494.948L1593.62 536.748C1593.04 537.513 1592.07 537.864 1591.12 537.63C1571.11 532.603 1550.81 529.277 1530.79 527.714C1529.84 527.64 1529.01 527.002 1528.71 526.088L1512.17 476.593C1504.29 452.998 1481.49 438.279 1456.75 440.766C1432.01 443.263 1412.62 462.256 1409.61 486.945L1403.29 538.895C1403.17 539.852 1402.5 540.638 1401.58 540.904C1382.04 546.515 1362.83 553.796 1344.48 562.553C1343.62 562.968 1342.58 562.819 1341.87 562.181L1302.69 527.491C1284.07 511.007 1256.96 509.636 1236.79 524.175C1216.61 538.714 1209.3 564.849 1219.05 587.742L1239.49 635.76C1239.86 636.642 1239.68 637.673 1239.01 638.364C1225.07 652.786 1212.09 668.739 1200.43 685.786C1199.89 686.583 1198.93 686.977 1197.97 686.775L1146.73 676.327C1122.36 671.353 1098.21 683.735 1087.99 706.416C1077.78 729.096 1084.54 755.379 1104.42 770.333L1146.22 801.771C1146.99 802.345 1147.33 803.333 1147.1 804.269C1142.07 824.303 1138.73 844.602 1137.19 864.594C1137.12 865.55 1136.48 866.379 1135.57 866.677L1086.07 883.214C1062.48 891.1 1047.75 913.887 1050.24 938.64C1052.74 963.393 1071.73 982.779 1096.42 985.786L1148.37 992.11C1149.33 992.227 1150.12 992.897 1150.38 993.821C1155.99 1013.37 1163.27 1032.58 1172.03 1050.92C1172.45 1051.79 1172.3 1052.82 1171.66 1053.53L1136.97 1092.71C1120.49 1111.33 1119.11 1138.43 1133.65 1158.61C1148.19 1178.79 1174.33 1186.08 1197.22 1176.35L1245.24 1155.91C1246.12 1155.54 1247.15 1155.72 1247.84 1156.39C1262.26 1170.32 1278.22 1183.31 1295.26 1194.97C1296.06 1195.51 1296.45 1196.48 1296.25 1197.42L1285.81 1248.67C1280.84 1273.04 1293.21 1297.2 1315.89 1307.4C1338.57 1317.62 1364.86 1310.86 1379.81 1290.98L1411.25 1249.18C1411.71 1248.58 1412.42 1248.23 1413.16 1248.23L1413.12 1248.24ZM1501.96 1188.5C1461.46 1188.5 1420.36 1180.14 1381.1 1162.47C1232.49 1095.59 1166.02 920.264 1232.9 771.662C1265.3 699.677 1323.79 644.613 1397.61 616.618C1471.43 588.624 1551.72 591.058 1623.71 623.452C1772.31 690.335 1838.79 865.657 1771.9 1014.26C1722.69 1123.6 1614.75 1188.48 1501.97 1188.49L1501.96 1188.5ZM1502.51 602.047C1467.71 602.047 1432.82 608.382 1399.29 621.093C1326.67 648.63 1269.13 702.802 1237.26 773.617C1171.46 919.818 1236.85 1092.29 1383.05 1158.09C1529.26 1223.89 1701.73 1158.49 1767.53 1012.29C1833.32 866.093 1767.93 693.619 1621.73 627.821C1583.61 610.656 1543.1 602.047 1502.51 602.047Z" fill="#898989"/>
<path d="M531.841 1487.35L508.598 1607.35C508.598 1607.35 723.605 1669.31 819.896 1565.49L791.688 1487.36H531.831L531.841 1487.35Z" fill="black"/>
<path d="M174.938 1193.26L225.794 1220.33C223.732 1243.12 223.562 1265.78 225.305 1288.1L174.28 1314.55C149.027 1327.63 136.22 1356.47 143.426 1383.97C150.632 1411.48 175.948 1430.32 204.368 1429.34L261.962 1427.36C271.495 1447.85 282.697 1467.52 295.483 1486.16L264.427 1534.71C249.102 1558.67 252.428 1590.04 272.42 1610.27C292.422 1630.48 323.754 1634.15 347.879 1619.09L396.631 1588.65C414.953 1601.53 434.541 1612.91 455.192 1622.75L452.577 1680.29C451.291 1708.7 469.848 1734.21 497.279 1741.73C524.71 1749.24 553.682 1736.74 567.042 1711.64L594.112 1660.78C616.899 1662.84 639.558 1663.01 661.877 1661.27L688.33 1712.3C701.413 1737.54 730.247 1750.36 757.753 1743.15C785.259 1735.94 804.102 1710.64 803.125 1682.21L801.137 1624.61C821.628 1615.08 841.301 1603.87 859.943 1591.09L908.492 1622.15C932.448 1637.47 963.822 1634.15 984.037 1614.15C1004.25 1594.14 1007.92 1562.81 992.858 1538.69L962.419 1489.93C975.3 1471.61 986.683 1452.02 996.525 1431.37L1054.07 1433.99C1082.47 1435.27 1107.98 1416.72 1115.5 1389.29C1123.01 1361.85 1110.51 1332.88 1085.41 1319.52L1034.55 1292.45C1036.61 1269.67 1036.78 1247.01 1035.04 1224.68L1086.07 1198.22C1111.32 1185.14 1124.13 1156.31 1116.92 1128.8C1109.71 1101.3 1084.41 1082.45 1055.98 1083.43L998.385 1085.42C988.851 1064.93 977.638 1045.25 964.863 1026.61L995.919 978.062C1011.24 954.107 1007.92 922.732 987.916 902.518C967.914 882.303 936.582 878.636 912.456 893.696L863.705 924.135C845.382 911.254 825.794 899.871 805.144 890.03L807.758 832.478C809.044 804.069 790.488 778.562 763.056 771.048C735.625 763.534 706.653 776.032 693.294 801.136L666.224 851.991C643.437 849.93 620.778 849.76 598.448 851.503L571.995 800.477C558.911 775.225 530.077 762.418 502.572 769.634C475.066 776.84 456.223 802.156 457.2 830.576L459.188 888.17C438.686 897.692 419.024 908.905 400.382 921.691L351.833 890.635C327.877 875.31 296.503 878.636 276.288 898.638C256.074 918.641 252.407 949.972 267.467 974.098L297.906 1022.85C285.025 1041.17 273.642 1060.76 263.8 1081.41L206.26 1078.8C177.851 1077.5 152.343 1096.07 144.829 1123.5C137.315 1150.93 149.814 1179.9 174.917 1193.26H174.938ZM318.79 1171.13C365.883 999.149 543.469 897.905 715.453 944.998C887.438 992.091 988.681 1169.68 941.588 1341.66C894.495 1513.65 716.909 1614.88 544.925 1567.8C372.94 1520.7 271.708 1343.12 318.79 1171.13Z" fill="#121212"/>
<path d="M742.129 1747.58C718.981 1747.58 697.342 1734.86 686.225 1713.41L660.505 1663.79C639.217 1665.37 617.365 1665.21 595.503 1663.32L569.177 1712.77C555.191 1739.05 525.368 1751.91 496.672 1744.04C467.966 1736.18 448.856 1709.92 450.206 1680.2L452.746 1624.23C432.967 1614.72 414.081 1603.73 396.566 1591.52L349.154 1621.12C323.912 1636.88 291.656 1633.1 270.729 1611.94C249.802 1590.78 246.38 1558.5 262.418 1533.42L292.612 1486.2C280.453 1468.33 269.655 1449.38 260.462 1429.8L204.441 1431.73C174.682 1432.76 148.654 1413.37 141.108 1384.58C133.562 1355.78 146.741 1326.11 173.173 1312.41L222.796 1286.69C221.212 1265.39 221.372 1243.54 223.264 1221.69L173.811 1195.37C147.538 1181.39 134.678 1151.58 142.543 1122.87C150.408 1094.16 176.649 1075.05 206.386 1076.4L262.343 1078.94C271.845 1059.17 282.845 1040.29 295.057 1022.76L265.457 975.351C249.696 950.099 253.469 917.853 274.629 896.926C295.79 875.999 328.078 872.577 353.15 888.615L400.371 918.809C418.247 906.651 437.208 895.842 456.774 886.659L454.84 830.638C453.809 800.89 473.205 774.851 501.997 767.305C530.778 759.759 560.462 772.938 574.151 799.37L599.871 848.993C621.181 847.41 643.032 847.569 664.873 849.461L691.188 800.008C705.175 773.735 734.987 760.875 763.693 768.74C792.4 776.605 811.509 802.856 810.159 832.583L807.619 888.551C827.377 898.053 846.263 909.042 863.789 921.264L911.201 891.665C936.453 875.904 968.699 879.677 989.626 900.837C1010.55 921.998 1013.97 954.286 997.937 979.358L967.743 1026.58C979.901 1044.46 990.71 1063.42 999.893 1082.97L1055.9 1081.04C1085.68 1080.03 1111.69 1099.4 1119.24 1128.19C1126.78 1156.99 1113.59 1186.66 1087.17 1200.36L1037.55 1226.08C1039.13 1247.37 1038.97 1269.22 1037.08 1291.08L1086.53 1317.4C1112.81 1331.38 1125.67 1361.19 1117.81 1389.9C1109.95 1418.61 1083.67 1437.72 1053.96 1436.37L998.001 1433.83C988.489 1453.61 977.489 1472.49 965.287 1490.01L994.887 1537.42C1010.65 1562.66 1006.88 1594.92 985.715 1615.84C964.554 1636.77 932.266 1640.19 907.194 1624.16L859.973 1593.96C842.107 1606.11 823.147 1616.92 803.58 1626.11L805.515 1682.12C806.535 1711.87 787.149 1737.91 758.358 1745.45C752.937 1746.88 747.475 1747.56 742.107 1747.56L742.129 1747.58ZM661.897 1658.89C662.79 1658.89 663.608 1659.38 664.023 1660.19L690.476 1711.21C703.134 1735.63 730.565 1747.82 757.167 1740.84C783.78 1733.87 801.699 1709.8 800.753 1682.3L798.766 1624.71C798.734 1623.75 799.276 1622.86 800.148 1622.46C820.469 1613.01 840.131 1601.79 858.602 1589.13C859.389 1588.58 860.441 1588.56 861.249 1589.08L909.798 1620.14C932.978 1634.95 962.822 1631.8 982.378 1612.45C1001.93 1593.11 1005.42 1563.3 990.859 1539.96L960.42 1491.21C959.91 1490.39 959.941 1489.35 960.494 1488.56C973.205 1470.48 984.609 1450.9 994.398 1430.34C994.812 1429.47 995.694 1428.93 996.672 1428.98L1054.21 1431.6C1081.65 1432.84 1105.96 1415.19 1113.23 1388.66C1120.49 1362.12 1108.61 1334.56 1084.32 1321.64L1033.48 1294.57C1032.63 1294.11 1032.13 1293.2 1032.21 1292.24C1034.26 1269.57 1034.42 1246.9 1032.7 1224.87C1032.63 1223.91 1033.14 1223 1033.99 1222.55L1085.01 1196.1C1109.44 1183.44 1121.63 1156.01 1114.64 1129.41C1107.67 1102.79 1083.54 1084.88 1056.1 1085.82L998.511 1087.81C997.512 1087.83 996.662 1087.3 996.258 1086.43C986.82 1066.12 975.607 1046.45 962.928 1027.97C962.386 1027.17 962.365 1026.13 962.885 1025.32L993.941 976.775C1008.76 953.606 1005.6 923.751 986.257 904.196C966.903 884.64 937.102 881.154 913.762 895.714L865 926.153C864.182 926.663 863.14 926.632 862.354 926.079C844.254 913.357 824.667 901.953 804.144 892.175C803.272 891.761 802.741 890.868 802.783 889.901L805.398 832.349C806.641 804.865 788.988 780.601 762.46 773.342C735.922 766.072 708.363 777.965 695.439 802.251L668.38 853.106C667.923 853.956 667.009 854.456 666.053 854.36C643.404 852.309 620.734 852.15 598.681 853.871C597.724 853.946 596.81 853.446 596.375 852.585L569.921 801.56C557.263 777.136 529.832 764.946 503.23 771.929C476.617 778.901 458.698 802.973 459.644 830.468L461.631 888.062C461.663 889.019 461.121 889.911 460.25 890.315C439.939 899.753 420.266 910.966 401.795 923.634C400.998 924.177 399.956 924.198 399.148 923.677L350.599 892.622C327.419 877.806 297.575 880.963 278.02 900.306C258.464 919.649 254.978 949.461 269.538 972.8L299.977 1021.55C300.487 1022.37 300.456 1023.41 299.903 1024.2C287.192 1042.29 275.777 1061.87 265.999 1082.42C265.585 1083.29 264.681 1083.82 263.725 1083.78L206.184 1081.16C178.7 1079.93 154.436 1097.57 147.166 1124.1C139.896 1150.63 151.789 1178.19 176.075 1191.12L226.93 1218.19C227.78 1218.65 228.28 1219.56 228.195 1220.52C226.144 1243.18 225.984 1265.85 227.706 1287.89C227.78 1288.85 227.27 1289.76 226.42 1290.21L175.394 1316.66C150.971 1329.32 138.781 1356.75 145.763 1383.35C152.735 1409.97 176.882 1427.9 204.303 1426.94L261.897 1424.95C262.896 1424.92 263.746 1425.46 264.15 1426.33C273.598 1446.66 284.811 1466.32 297.48 1484.79C298.022 1485.59 298.043 1486.63 297.522 1487.44L266.467 1535.98C251.641 1559.15 254.808 1589.01 274.151 1608.56C293.494 1628.12 323.306 1631.61 346.645 1617.03L395.397 1586.6C396.215 1586.09 397.257 1586.12 398.043 1586.67C416.121 1599.38 435.709 1610.79 456.264 1620.57C457.135 1620.99 457.667 1621.88 457.624 1622.85L455.01 1680.4C453.766 1707.88 471.42 1732.15 497.947 1739.41C524.486 1746.68 552.034 1734.78 564.968 1710.51L592.038 1659.65C592.495 1658.8 593.399 1658.3 594.366 1658.4C617.036 1660.45 639.705 1660.61 661.727 1658.88C661.791 1658.88 661.854 1658.88 661.918 1658.88L661.897 1658.89ZM630.703 1581.79C601.869 1581.79 572.854 1577.92 544.297 1570.1C460.505 1547.15 390.657 1492.95 347.634 1417.48C304.611 1342.01 293.547 1254.3 316.493 1170.5C339.44 1086.71 393.643 1016.86 469.113 973.842C544.584 930.809 632.298 919.755 716.09 942.701C799.882 965.647 869.73 1019.85 912.753 1095.32C955.786 1170.79 966.839 1258.51 943.893 1342.31C920.947 1426.1 866.743 1495.95 791.273 1538.97C741.523 1567.33 686.459 1581.8 630.703 1581.8V1581.79ZM629.683 935.793C574.746 935.793 520.49 950.056 471.473 977.997C397.108 1020.39 343.701 1089.21 321.095 1171.77C298.489 1254.33 309.383 1340.76 351.779 1415.11C394.174 1489.48 462.992 1542.88 545.551 1565.49C628.11 1588.09 714.538 1577.2 788.892 1534.8C863.257 1492.41 916.664 1423.59 939.27 1341.03C961.876 1258.47 950.982 1172.05 908.586 1097.69C866.191 1023.33 797.374 969.92 714.814 947.314C686.671 939.609 658.081 935.793 629.683 935.793Z" fill="#898989"/>
<path d="M691.724 566.243L712.852 577.487C711.992 586.957 711.928 596.363 712.65 605.641L691.447 616.631C680.957 622.072 675.633 634.05 678.63 645.476C681.627 656.901 692.138 664.734 703.946 664.33L727.881 663.501C731.834 672.014 736.5 680.187 741.803 687.935L728.901 708.107C722.535 718.055 723.916 731.096 732.227 739.492C740.539 747.888 753.558 749.419 763.58 743.159L783.838 730.511C791.447 735.857 799.589 740.597 808.165 744.679L807.081 768.581C806.55 780.389 814.255 790.985 825.649 794.099C837.042 797.224 849.084 792.027 854.632 781.601L865.876 760.472C875.346 761.322 884.752 761.397 894.03 760.674L905.02 781.877C910.461 792.367 922.439 797.692 933.864 794.694C945.29 791.697 953.122 781.186 952.719 769.378L951.89 745.454C960.403 741.501 968.576 736.835 976.324 731.532L996.496 744.434C1006.44 750.8 1019.48 749.419 1027.88 741.107C1036.28 732.796 1037.81 719.777 1031.55 709.755L1018.9 689.497C1024.25 681.888 1028.99 673.746 1033.07 665.17L1056.97 666.254C1068.77 666.785 1079.37 659.08 1082.49 647.686C1085.61 636.293 1080.42 624.251 1069.99 618.703L1048.86 607.459C1049.72 597.989 1049.79 588.583 1049.06 579.305L1070.27 568.315C1080.76 562.874 1086.08 550.896 1083.08 539.471C1080.09 528.045 1069.57 520.212 1057.77 520.616L1033.84 521.445C1029.89 512.932 1025.22 504.759 1019.92 497.011L1032.82 476.839C1039.19 466.891 1037.81 453.85 1029.5 445.454C1021.18 437.058 1008.17 435.528 998.143 441.788L977.886 454.435C970.276 449.089 962.135 444.349 953.558 440.268L954.642 416.354C955.174 404.557 947.468 393.95 936.075 390.836C924.682 387.712 912.64 392.909 907.092 403.335L895.847 424.464C886.378 423.603 876.961 423.539 867.694 424.262L856.704 403.059C851.262 392.569 839.285 387.244 827.859 390.241C816.434 393.238 808.601 403.749 809.016 415.557L809.845 439.492C801.332 443.446 793.159 448.111 785.411 453.415L765.238 440.512C755.29 434.146 742.25 435.528 733.854 443.839C725.457 452.15 723.927 465.169 730.187 475.192L742.834 495.449C737.488 503.059 732.748 511.2 728.667 519.777L704.764 518.693C692.967 518.161 682.36 525.867 679.246 537.26C676.122 548.653 681.319 560.695 691.745 566.243H691.724ZM751.486 557.05C771.052 485.597 844.832 443.541 916.275 463.097C987.728 482.663 1029.78 556.444 1010.22 627.886C990.65 699.339 916.87 741.394 845.428 721.828C773.975 702.262 731.919 628.481 751.486 557.039V557.05Z" fill="#121212"/>
<path d="M927.362 797.936C917.234 797.936 907.764 792.366 902.896 782.982L892.63 763.182C884.308 763.756 875.784 763.692 867.25 763.001L856.749 782.737C850.627 794.237 837.576 799.859 825.024 796.416C812.462 792.972 804.097 781.483 804.692 768.474L805.702 746.145C798.007 742.393 790.631 738.099 783.766 733.37L764.848 745.178C753.805 752.075 739.691 750.428 730.529 741.16C721.368 731.903 719.88 717.768 726.895 706.799L738.947 687.956C734.239 680.952 730.019 673.555 726.395 665.934L704.044 666.71C691.003 667.167 679.631 658.675 676.326 646.081C673.021 633.487 678.792 620.499 690.355 614.505L710.155 604.238C709.581 595.905 709.645 587.382 710.336 578.847L690.6 568.347C679.1 562.225 673.478 549.184 676.921 536.622C680.365 524.059 691.832 515.706 704.862 516.29L727.192 517.3C730.944 509.605 735.227 502.24 739.967 495.363L728.159 476.445C721.262 465.392 722.909 451.289 732.177 442.127C741.434 432.966 755.569 431.478 766.538 438.492L785.381 450.545C792.385 445.836 799.782 441.617 807.403 437.993L806.627 415.642C806.18 402.622 814.662 391.229 827.256 387.924C839.85 384.618 852.838 390.389 858.832 401.953L869.099 421.753C877.431 421.179 885.955 421.243 894.49 421.934L904.99 402.208C911.112 390.708 924.153 385.086 936.715 388.519C949.278 391.962 957.642 403.451 957.047 416.46L956.037 438.79C963.732 442.542 971.097 446.825 977.974 451.565L996.892 439.757C1007.94 432.859 1022.05 434.507 1031.21 443.774C1040.37 453.032 1041.87 467.167 1034.84 478.135L1022.79 496.979C1027.5 503.983 1031.72 511.38 1035.34 519L1057.7 518.225C1070.76 517.778 1082.11 526.259 1085.41 538.854C1088.72 551.448 1082.95 564.436 1071.38 570.43L1051.58 580.697C1052.16 589.029 1052.09 597.553 1051.4 606.087L1071.13 616.588C1082.63 622.71 1088.25 635.75 1084.82 648.313C1081.37 660.875 1069.86 669.24 1056.88 668.644L1034.55 667.635C1030.8 675.329 1026.5 682.705 1021.77 689.571L1033.58 708.489C1040.48 719.532 1038.83 733.646 1029.57 742.807C1020.32 751.969 1006.18 753.467 995.212 746.442L976.369 734.39C969.365 739.098 961.967 743.318 954.347 746.942L955.123 769.293C955.569 782.312 947.088 793.706 934.483 797.011C932.113 797.627 929.722 797.936 927.373 797.936H927.362ZM894.033 758.293C894.925 758.293 895.744 758.782 896.158 759.589L907.148 780.792C912.1 790.358 922.845 795.13 933.261 792.398C943.677 789.667 950.691 780.24 950.33 769.484L949.501 745.56C949.469 744.604 950.011 743.711 950.882 743.307C959.257 739.417 967.356 734.794 974.966 729.575C975.752 729.033 976.804 729.012 977.612 729.533L997.784 742.436C1006.86 748.238 1018.54 747.006 1026.2 739.428C1033.86 731.85 1035.23 720.18 1029.52 711.051L1016.87 690.793C1016.36 689.975 1016.39 688.934 1016.95 688.147C1022.19 680.697 1026.88 672.63 1030.91 664.159C1031.33 663.288 1032.23 662.756 1033.19 662.799L1057.09 663.883C1067.82 664.372 1077.35 657.464 1080.19 647.069C1083.04 636.686 1078.39 625.887 1068.88 620.828L1047.75 609.584C1046.9 609.127 1046.4 608.213 1046.48 607.256C1047.32 597.914 1047.4 588.583 1046.68 579.506C1046.61 578.55 1047.12 577.636 1047.97 577.189L1069.17 566.2C1078.74 561.247 1083.51 550.502 1080.77 540.087C1078.04 529.671 1068.65 522.656 1057.85 523.018L1033.93 523.847C1032.95 523.879 1032.08 523.337 1031.68 522.465C1027.79 514.09 1023.16 505.992 1017.95 498.382C1017.4 497.585 1017.38 496.554 1017.9 495.735L1030.81 475.563C1036.61 466.487 1035.37 454.806 1027.8 447.154C1020.22 439.502 1008.55 438.131 999.421 443.838L979.164 456.486C978.345 456.996 977.304 456.964 976.517 456.411C969.067 451.172 961 446.474 952.54 442.446C951.669 442.031 951.137 441.139 951.18 440.172L952.264 416.258C952.753 405.503 945.845 396.001 935.45 393.153C925.067 390.304 914.269 394.959 909.21 404.472L897.965 425.6C897.508 426.451 896.583 426.94 895.637 426.854C886.306 426.015 876.974 425.94 867.887 426.653C866.931 426.727 866.017 426.227 865.57 425.367L854.581 404.163C849.628 394.598 838.883 389.826 828.468 392.558C818.052 395.289 811.037 404.716 811.409 415.472L812.239 439.406C812.27 440.363 811.728 441.256 810.857 441.659C802.493 445.549 794.383 450.173 786.773 455.391C785.976 455.933 784.935 455.954 784.127 455.434L763.955 442.531C754.879 436.728 743.198 437.961 735.535 445.539C727.883 453.117 726.512 464.786 732.219 473.916L744.867 494.173C745.377 494.991 745.345 496.033 744.792 496.819C739.553 504.27 734.855 512.337 730.827 520.807C730.413 521.679 729.509 522.21 728.553 522.168L704.639 521.083C693.852 520.595 684.382 527.503 681.534 537.897C678.685 548.281 683.341 559.079 692.853 564.138L713.981 575.383C714.832 575.84 715.331 576.754 715.246 577.71C714.407 587.052 714.332 596.384 715.044 605.46C715.119 606.417 714.608 607.331 713.758 607.777L692.555 618.767C682.99 623.719 678.218 634.464 680.949 644.88C683.681 655.295 693.097 662.31 703.863 661.949L727.787 661.12C728.776 661.088 729.637 661.63 730.041 662.501C733.93 670.876 738.554 678.975 743.772 686.585C744.314 687.382 744.335 688.423 743.815 689.231L730.912 709.403C725.109 718.48 726.342 730.16 733.92 737.823C741.498 745.486 753.167 746.846 762.297 741.139L782.554 728.491C783.373 727.981 784.414 728.013 785.201 728.566C792.651 733.805 800.718 738.503 809.188 742.531C810.06 742.946 810.591 743.838 810.549 744.806L809.465 768.708C808.976 779.464 815.884 788.965 826.278 791.814C836.662 794.662 847.46 790.007 852.519 780.495L863.764 759.366C864.221 758.516 865.145 758.016 866.091 758.112C875.433 758.952 884.775 759.026 893.841 758.314C893.905 758.314 893.969 758.314 894.033 758.314V758.293ZM881.077 729.065C868.971 729.065 856.792 727.439 844.803 724.155C772.192 704.27 729.297 629.033 749.182 556.422C769.056 483.811 844.304 440.916 916.915 460.801C952.083 470.43 981.406 493.185 999.464 524.867C1017.52 556.55 1022.17 593.365 1012.54 628.534C1002.91 663.702 980.152 693.025 948.47 711.083C927.586 722.986 904.469 729.065 881.066 729.065H881.077ZM753.794 557.687C734.611 627.747 776.007 700.359 846.068 719.543C880.003 728.831 915.533 724.357 946.1 706.927C976.666 689.497 998.624 661.215 1007.91 627.269C1017.2 593.333 1012.73 557.804 995.297 527.237C977.867 496.671 949.575 474.713 915.64 465.424C845.579 446.24 772.968 487.637 753.784 557.697L753.794 557.687Z" fill="#898989"/>
<mask id="mask0_2337_833" style="mask-type:luminance" maskUnits="userSpaceOnUse" x="760" y="472" width="241" height="241">
<path d="M760.777 592.187C760.777 525.942 814.481 472.238 880.726 472.238C946.971 472.238 1000.68 525.942 1000.68 592.187C1000.68 658.432 946.971 712.136 880.726 712.136C814.481 712.136 760.777 658.432 760.777 592.187Z" fill="white"/>
</mask>
<g mask="url(#mask0_2337_833)">
<path d="M976.188 677.159C951.924 700.285 919.157 714.591 882.99 714.782C846.822 714.974 813.896 701.008 789.398 678.136C817.563 669.251 849.214 664.171 882.724 664.001C916.224 663.82 947.938 668.571 976.188 677.159Z" fill="#E95018"/>
<path d="M803.299 584.959C815.138 542.308 839.551 486.383 885.337 493.259C929.263 499.86 949.924 548.047 959.426 585.384C965.197 608.107 947.873 630.16 924.428 630.288L838.457 630.734C814.48 630.862 796.89 608.065 803.309 584.948L803.299 584.959Z" fill="#E95018"/>
<path d="M841.199 535.421C841.22 535.315 841.263 535.113 841.263 535.113L919.316 534.518C919.316 534.518 919.348 534.645 919.369 534.698C920.4 538.588 920.952 542.691 920.974 546.931L921.091 569.782C921.176 585.076 914.002 598.563 903.097 606.449L903.405 666.094C903.469 677.965 893.893 687.637 882.032 687.701C870.161 687.765 860.5 678.189 860.436 666.328L860.128 607.554C848.437 599.944 840.572 586.085 840.487 570.207L840.349 544.434C840.327 541.341 840.625 538.322 841.188 535.421H841.199Z" fill="white"/>
<path d="M881.917 690.104C875.583 690.104 869.631 687.648 865.125 683.195C860.587 678.71 858.078 672.727 858.046 666.35L857.738 608.246C857.738 606.928 858.801 605.844 860.119 605.844H860.13C861.447 605.844 862.521 606.907 862.521 608.224L862.829 666.328C862.861 671.43 864.87 676.213 868.494 679.805C872.097 683.365 876.858 685.332 881.917 685.332C881.949 685.332 881.981 685.332 882.024 685.332C887.125 685.3 891.908 683.291 895.5 679.667C899.092 676.043 901.048 671.239 901.027 666.137L900.729 608.256C900.729 606.938 901.792 605.854 903.11 605.854H903.12C904.438 605.854 905.512 606.917 905.512 608.235L905.809 666.116C905.841 672.493 903.386 678.508 898.901 683.036C894.416 687.574 888.432 690.082 882.055 690.125C882.013 690.125 881.97 690.125 881.928 690.125L881.917 690.104Z" fill="black"/>
<path d="M880.692 588.094C875.697 588.094 871.052 586.096 867.609 582.461C866.695 581.505 866.737 579.985 867.694 579.081C868.651 578.178 870.17 578.21 871.074 579.167C873.603 581.834 877.015 583.301 880.682 583.301C880.703 583.301 880.724 583.301 880.745 583.301C884.433 583.28 887.845 581.792 890.343 579.103C891.246 578.136 892.755 578.082 893.722 578.975C894.689 579.879 894.743 581.388 893.85 582.355C890.481 585.969 885.719 588.062 880.767 588.083C880.735 588.083 880.703 588.083 880.682 588.083L880.692 588.094Z" fill="black"/>
<path d="M880.817 616.152C857.371 616.152 838.23 595.598 838.092 570.218L837.954 544.444C837.89 532.541 842.109 521.328 849.825 512.847C857.595 504.323 867.978 499.594 879.063 499.53C890.871 499.466 901.978 504.387 910.342 513.389C918.664 522.327 923.287 534.241 923.351 546.921L923.468 569.771C923.563 587.786 913.86 604.323 898.736 611.901C897.556 612.496 896.111 612.018 895.526 610.838C894.931 609.659 895.409 608.213 896.6 607.629C910.098 600.869 918.77 586.022 918.685 569.803L918.568 546.953C918.504 535.474 914.338 524.719 906.845 516.652C899.395 508.649 889.5 504.302 879.095 504.323C869.371 504.376 860.23 508.543 853.375 516.078C846.467 523.656 842.694 533.731 842.747 544.423L842.885 570.196C843.002 592.941 860.007 611.37 880.828 611.37C880.891 611.37 880.976 611.37 881.03 611.37C882.347 611.37 883.421 612.433 883.421 613.75C883.421 615.068 882.358 616.152 881.04 616.152C880.976 616.152 880.902 616.152 880.828 616.152H880.817Z" fill="black"/>
</g>
<path d="M881.142 715.081C868.367 715.081 855.39 713.062 842.615 708.8C815.013 699.596 791.578 680.805 776.614 655.903C775.934 654.766 776.306 653.3 777.432 652.619C778.559 651.939 780.036 652.301 780.716 653.438C795.086 677.372 817.607 695.419 844.135 704.261C905.491 724.721 972.044 691.455 992.493 630.109C1012.95 568.763 979.686 502.21 918.329 481.751C888.613 471.846 856.814 474.099 828.787 488.107C800.761 502.114 779.877 526.198 769.971 555.914C763.159 576.341 762.085 598.171 766.857 619.045C767.155 620.331 766.347 621.617 765.061 621.915C763.786 622.212 762.489 621.405 762.192 620.119C757.218 598.384 758.344 575.661 765.433 554.405C775.742 523.477 797.488 498.416 826.651 483.834C855.815 469.252 888.911 466.903 919.849 477.223C983.703 498.511 1018.33 567.786 997.031 631.639C979.994 682.729 932.242 715.102 881.131 715.102L881.142 715.081Z" fill="black"/>
<path d="M424.327 480.06C423.732 480.06 423.137 479.837 422.669 479.39C421.712 478.476 421.68 476.957 422.595 476.011L431.405 466.817C432.319 465.861 433.839 465.829 434.785 466.743C435.742 467.657 435.773 469.177 434.859 470.123L426.049 479.316C425.581 479.805 424.954 480.049 424.316 480.049L424.327 480.06Z" fill="#EBEBEB"/>
<path d="M393.507 512.242C392.911 512.242 392.316 512.018 391.849 511.572C390.892 510.658 390.86 509.138 391.774 508.192L400.585 498.999C401.499 498.042 403.019 498.011 403.965 498.925C404.921 499.839 404.953 501.358 404.039 502.304L395.228 511.498C394.761 511.987 394.134 512.231 393.496 512.231L393.507 512.242Z" fill="#EBEBEB"/>
<path d="M402.144 480.559C401.538 480.559 400.932 480.325 400.464 479.868L391.526 471.068C390.58 470.143 390.57 468.623 391.494 467.688C392.419 466.742 393.939 466.732 394.885 467.656L403.823 476.456C404.769 477.381 404.779 478.901 403.855 479.836C403.387 480.314 402.771 480.548 402.144 480.548V480.559Z" fill="#EBEBEB"/>
<path d="M433.433 511.35C432.827 511.35 432.221 511.116 431.753 510.659L422.815 501.859C421.869 500.934 421.859 499.414 422.783 498.479C423.708 497.533 425.228 497.523 426.174 498.447L435.112 507.247C436.058 508.172 436.068 509.692 435.144 510.627C434.676 511.105 434.06 511.339 433.433 511.339V511.35Z" fill="#EBEBEB"/>
<path d="M1809.87 496.152C1809.27 496.152 1808.68 495.929 1808.21 495.482C1807.25 494.568 1807.22 493.048 1808.13 492.102L1816.94 482.909C1817.86 481.953 1819.38 481.921 1820.32 482.835C1821.28 483.749 1821.31 485.269 1820.4 486.214L1811.59 495.408C1811.12 495.897 1810.49 496.141 1809.86 496.141L1809.87 496.152Z" fill="black"/>
<path d="M1779.05 528.333C1778.45 528.333 1777.86 528.11 1777.39 527.664C1776.43 526.75 1776.4 525.23 1777.31 524.284L1786.12 515.091C1787.04 514.134 1788.56 514.102 1789.5 515.016C1790.46 515.93 1790.49 517.45 1789.58 518.396L1780.77 527.589C1780.3 528.078 1779.67 528.323 1779.03 528.323L1779.05 528.333Z" fill="black"/>
<path d="M1787.68 496.641C1787.08 496.641 1786.47 496.407 1786 495.95L1777.07 487.15C1776.12 486.225 1776.11 484.705 1777.03 483.77C1777.96 482.824 1779.48 482.814 1780.41 483.738L1789.35 492.538C1790.3 493.463 1790.31 494.983 1789.38 495.918C1788.92 496.396 1788.3 496.63 1787.67 496.63L1787.68 496.641Z" fill="black"/>
<path d="M1818.97 527.442C1818.37 527.442 1817.76 527.208 1817.29 526.751L1808.35 517.951C1807.41 517.026 1807.4 515.506 1808.32 514.571C1809.25 513.625 1810.77 513.614 1811.7 514.539L1820.64 523.339C1821.59 524.264 1821.6 525.784 1820.67 526.719C1820.2 527.197 1819.59 527.431 1818.96 527.431L1818.97 527.442Z" fill="black"/>
<path d="M1848.27 1903.95C1846.97 1903.95 1845.9 1902.91 1845.88 1901.62L1845.6 1888.88C1845.57 1887.57 1846.62 1886.47 1847.94 1886.44C1849.28 1886.39 1850.35 1887.46 1850.38 1888.78L1850.66 1901.51C1850.69 1902.83 1849.64 1903.92 1848.32 1903.95C1848.3 1903.95 1848.29 1903.95 1848.27 1903.95Z" fill="black"/>
<path d="M1849.23 1948.5C1847.93 1948.5 1846.86 1947.46 1846.84 1946.16L1846.56 1933.43C1846.53 1932.11 1847.58 1931.01 1848.9 1930.98C1850.22 1930.94 1851.31 1932 1851.34 1933.32L1851.62 1946.05C1851.65 1947.37 1850.6 1948.46 1849.28 1948.5C1849.26 1948.5 1849.25 1948.5 1849.23 1948.5Z" fill="black"/>
<path d="M1820.39 1920.09C1819.07 1920.09 1818.01 1919.03 1818 1917.72C1818 1916.4 1819.05 1915.32 1820.37 1915.31L1832.91 1915.21H1832.93C1834.25 1915.21 1835.31 1916.27 1835.32 1917.58C1835.32 1918.9 1834.27 1919.98 1832.95 1919.99L1820.41 1920.09H1820.39Z" fill="black"/>
<path d="M1864.29 1919.74C1862.98 1919.74 1861.91 1918.68 1861.9 1917.37C1861.9 1916.05 1862.95 1914.97 1864.27 1914.96L1876.81 1914.86C1878.04 1914.84 1879.22 1915.91 1879.23 1917.23C1879.23 1918.55 1878.17 1919.63 1876.86 1919.64L1864.31 1919.74H1864.29Z" fill="black"/>
<path d="M240.778 717.036C237.43 717.036 234.082 716.409 230.873 715.165C223.879 712.445 218.363 707.099 215.345 700.116C209.191 685.853 215.568 669.135 229.565 662.854C236.304 659.825 243.797 659.633 250.673 662.312C257.666 665.032 263.182 670.378 266.201 677.361C272.354 691.624 265.977 708.342 251.98 714.623C248.399 716.228 244.594 717.036 240.789 717.036H240.778ZM240.768 665.224C237.622 665.224 234.486 665.893 231.532 667.222C219.905 672.44 214.622 686.342 219.745 698.224C222.243 704.016 226.813 708.459 232.605 710.702C238.27 712.902 244.455 712.742 250.014 710.255C261.631 705.037 266.923 691.135 261.801 679.253C259.303 673.461 254.733 669.018 248.941 666.775C246.294 665.745 243.531 665.234 240.768 665.234V665.224Z" fill="#EBEBEB"/>
<path d="M1957.28 1820.74C1954 1820.74 1950.7 1820.13 1947.55 1818.91C1940.67 1816.24 1935.26 1810.99 1932.31 1804.13C1926.27 1790.14 1932.53 1773.73 1946.26 1767.55C1952.87 1764.59 1960.23 1764.39 1966.99 1767.02C1973.85 1769.69 1979.27 1774.94 1982.23 1781.79C1988.26 1795.79 1982 1812.2 1968.26 1818.37C1964.74 1819.96 1961 1820.74 1957.27 1820.74H1957.28ZM1948.23 1771.92C1936.87 1777.02 1931.69 1790.62 1936.71 1802.24C1939.15 1807.92 1943.63 1812.24 1949.29 1814.45C1954.84 1816.61 1960.89 1816.45 1966.32 1814.02C1977.69 1808.92 1982.86 1795.31 1977.85 1783.69C1975.4 1778.02 1970.93 1773.68 1965.27 1771.48C1959.72 1769.33 1953.67 1769.48 1948.24 1771.93L1948.23 1771.92Z" fill="black"/>
<path d="M301.834 558.762C299.571 558.762 297.307 558.337 295.139 557.497C290.409 555.659 286.689 552.045 284.649 547.337C280.493 537.708 284.808 526.431 294.256 522.18C298.805 520.139 303.875 520.001 308.53 521.808C313.26 523.647 316.99 527.26 319.02 531.969C323.176 541.598 318.861 552.874 309.412 557.125C306.989 558.209 304.417 558.762 301.845 558.762H301.834ZM301.834 525.337C299.921 525.337 298.019 525.74 296.223 526.548C289.144 529.726 285.924 538.197 289.049 545.434C290.569 548.963 293.353 551.662 296.871 553.033C300.315 554.373 304.077 554.277 307.446 552.757C314.524 549.579 317.745 541.109 314.62 533.871C313.1 530.342 310.316 527.643 306.787 526.272C305.172 525.645 303.503 525.337 301.824 525.337H301.834Z" fill="#EBEBEB"/>
<path d="M1486.7 651.83C1486.1 651.83 1485.51 651.606 1485.04 651.16C1484.08 650.246 1484.05 648.726 1484.97 647.78L1493.78 638.587C1494.69 637.63 1496.21 637.598 1497.16 638.512C1498.11 639.426 1498.14 640.946 1497.23 641.892L1488.42 651.086C1487.95 651.574 1487.33 651.819 1486.69 651.819L1486.7 651.83Z" fill="black"/>
<path d="M1455.88 683.999C1455.28 683.999 1454.69 683.776 1454.22 683.33C1453.26 682.416 1453.23 680.896 1454.15 679.95L1462.96 670.757C1463.87 669.8 1465.39 669.768 1466.34 670.682C1467.29 671.596 1467.32 673.116 1466.41 674.062L1457.6 683.255C1457.13 683.744 1456.5 683.989 1455.87 683.989L1455.88 683.999Z" fill="black"/>
<path d="M1464.51 652.319C1463.91 652.319 1463.3 652.085 1462.84 651.628L1453.9 642.828C1452.95 641.903 1452.94 640.383 1453.87 639.448C1454.79 638.502 1456.31 638.491 1457.24 639.416L1466.18 648.216C1467.13 649.141 1467.14 650.661 1466.22 651.596C1465.75 652.074 1465.13 652.308 1464.5 652.308L1464.51 652.319Z" fill="black"/>
<path d="M1495.8 683.119C1495.2 683.119 1494.59 682.886 1494.12 682.429L1485.19 673.628C1484.24 672.704 1484.23 671.184 1485.15 670.249C1486.08 669.303 1487.6 669.292 1488.53 670.217L1497.47 679.017C1498.42 679.942 1498.43 681.461 1497.5 682.397C1497.04 682.875 1496.42 683.109 1495.79 683.109L1495.8 683.119Z" fill="black"/>
<path d="M1668.76 957.107C1658.46 957.107 1645.59 952.442 1632.41 943.692C1618.94 934.749 1604.3 911.204 1590.15 888.44C1578.66 869.966 1567.82 852.518 1559.66 846.559C1544.75 835.659 1539.05 839.552 1526.58 848.057C1524.77 849.287 1522.85 850.603 1520.77 851.951C1508.68 859.803 1496.34 858.112 1489.45 854.272C1485.44 852.037 1483.17 849.063 1483.23 846.121C1484.18 798.046 1563.29 758.701 1605.79 737.574C1655.28 712.959 1691.94 717.645 1709 750.764C1726.11 783.979 1685.59 861.375 1680.91 870.093C1676.06 879.122 1680.41 893.05 1684.61 906.508C1688.32 918.425 1692.17 930.748 1690.08 940.729C1688.59 947.821 1684.63 952.871 1678.61 955.352C1675.71 956.539 1672.39 957.128 1668.76 957.128V957.107ZM1544.1 835.038C1549.25 835.038 1555.05 837.177 1562.52 842.623C1571.44 849.138 1582.53 866.981 1594.27 885.862C1607.51 907.149 1622.51 931.272 1635.09 939.627C1651.35 950.421 1667.32 954.7 1676.76 950.827C1681.29 948.966 1684.16 945.232 1685.32 939.713C1687.15 930.973 1683.5 919.269 1679.97 907.941C1675.48 893.521 1670.82 878.598 1676.64 867.772C1693.16 836.985 1717.66 778.149 1704.69 752.978C1688.81 722.159 1655.35 718.34 1607.94 741.917C1566.36 762.595 1488.97 801.085 1488.09 846.206C1488.08 846.87 1489.07 848.485 1491.81 850.014C1497.98 853.449 1508.51 854.112 1518.12 847.865C1520.17 846.538 1522.06 845.243 1523.85 844.035C1531.15 839.05 1537.04 835.038 1544.1 835.038Z" fill="white"/>
<path d="M1123.96 873.217V848.025L1361.51 841.906L1370.85 862.146L1581.98 850.015L1598.36 825.689C1598.36 825.689 1838.39 776.716 1902.04 803.107C1959.13 826.78 1854.21 883.519 1842.05 901.759C1829.88 919.997 1800.76 965.536 1800.76 965.536L1226.07 956.593C1218.36 956.433 1210.71 955.406 1203.33 953.512C1183.04 948.292 1146.39 934.75 1130.69 902.785C1126.09 893.446 1123.96 883.359 1123.96 873.217Z" fill="#121212"/>
<path d="M1800.77 967.978H1800.72L1226.04 959.034C1218.1 958.874 1210.26 957.804 1202.73 955.879C1181.93 950.53 1144.62 936.666 1128.51 903.878C1123.88 894.444 1121.53 884.142 1121.53 873.241V848.048C1121.53 846.733 1122.57 845.653 1123.9 845.62L1361.45 839.501C1362.46 839.501 1363.31 840.036 1363.72 840.914L1372.36 859.645L1580.64 847.674L1596.35 824.354C1596.7 823.83 1597.26 823.455 1597.88 823.327C1607.7 821.316 1839.36 774.504 1902.96 800.883C1914.03 805.473 1920.16 811.731 1921.2 819.498C1923.82 839.213 1892.87 863.175 1868.01 882.419C1856.77 891.116 1847.06 898.626 1844.06 903.13C1832.06 921.144 1803.09 966.416 1802.8 966.876C1802.35 967.572 1801.58 967.999 1800.75 967.999L1800.77 967.978ZM1126.39 850.402V873.22C1126.39 883.372 1128.57 892.957 1132.87 901.718C1148.12 932.762 1183.94 946.016 1203.94 951.161C1211.1 953.001 1218.57 954.017 1226.12 954.167L1799.44 963.089C1804.03 955.911 1829.06 916.854 1840.02 900.413C1843.46 895.246 1852.99 887.875 1865.04 878.547C1887.66 861.035 1918.65 837.052 1916.38 820.117C1915.59 814.202 1910.45 809.239 1901.11 805.355C1840.9 780.387 1616.57 824.525 1599.81 827.884L1583.98 851.376C1583.55 852.007 1582.86 852.402 1582.1 852.445L1370.97 864.577C1370.02 864.64 1369.05 864.073 1368.63 863.165L1359.96 844.38L1126.37 850.402H1126.39Z" fill="white"/>
<path d="M1251.37 841.465H1230.5V763.908L1251.37 765.46V841.465Z" fill="#121212"/>
<path d="M1251.36 843.9H1230.49C1229.15 843.9 1228.07 842.809 1228.07 841.472V763.905C1228.07 763.231 1228.34 762.579 1228.85 762.118C1229.34 761.658 1230 761.423 1230.68 761.476L1251.55 763.028C1252.82 763.124 1253.81 764.183 1253.81 765.456V841.472C1253.81 842.82 1252.72 843.9 1251.38 843.9H1251.36ZM1232.93 839.033H1248.94V767.713L1232.93 766.526V839.033Z" fill="white"/>
<path d="M1215.95 768.086L1230.45 765.4V843.566H1215.95V768.086Z" fill="#121212"/>
<path d="M1230.45 846.004H1215.97C1214.63 846.004 1213.55 844.913 1213.55 843.576V768.094C1213.55 766.918 1214.38 765.913 1215.53 765.699L1230.02 763.014C1230.72 762.885 1231.46 763.077 1232.01 763.538C1232.57 763.997 1232.89 764.682 1232.89 765.41V843.576C1232.89 844.924 1231.8 846.004 1230.46 846.004H1230.45ZM1218.4 841.137H1228.02V768.33L1218.4 770.117V841.147V841.137Z" fill="white"/>
<path d="M1338.86 880.422H1244.21V803.486L1338.86 805.048V880.422Z" fill="#121212"/>
<path d="M1338.86 882.853H1244.21C1242.87 882.853 1241.79 881.762 1241.79 880.425V803.49C1241.79 802.837 1242.05 802.216 1242.51 801.756C1242.97 801.297 1243.56 801.029 1244.26 801.061L1338.91 802.623C1340.23 802.644 1341.3 803.725 1341.3 805.051V880.436C1341.3 881.784 1340.21 882.865 1338.87 882.865L1338.86 882.853ZM1246.64 877.986H1336.43V807.437L1246.64 805.96V877.997V877.986Z" fill="white"/>
<path d="M1178.28 809.611L1244 803.064V881.573H1178.28V809.611Z" fill="#121212"/>
<path d="M1244 884.004H1178.28C1176.94 884.004 1175.86 882.913 1175.86 881.575V809.614C1175.86 808.362 1176.81 807.314 1178.05 807.197L1243.77 800.65C1244.45 800.585 1245.13 800.81 1245.63 801.27C1246.15 801.73 1246.44 802.382 1246.44 803.078V881.586C1246.44 882.934 1245.35 884.015 1244.01 884.015L1244 884.004ZM1180.72 879.147H1241.58V805.752L1180.72 811.818V879.137V879.147Z" fill="white"/>
<path d="M1392.42 863.632L1316.52 868.51V792.494L1392.42 785.145V863.632Z" fill="#121212"/>
<path d="M1316.52 870.944C1315.9 870.944 1315.31 870.709 1314.85 870.281C1314.36 869.821 1314.08 869.179 1314.08 868.505V792.49C1314.08 791.238 1315.03 790.19 1316.28 790.072L1392.18 782.712C1392.86 782.648 1393.53 782.872 1394.05 783.332C1394.55 783.792 1394.85 784.445 1394.85 785.13V863.617C1394.85 864.9 1393.85 865.959 1392.57 866.045L1316.68 870.923C1316.68 870.923 1316.57 870.923 1316.52 870.923V870.944ZM1318.95 794.704V865.917L1389.99 861.349V787.825L1318.95 794.714V794.704Z" fill="white"/>
<path d="M1331.17 858.108C1329.82 858.108 1328.75 857.017 1328.75 855.679V800.844C1328.75 799.497 1329.84 798.416 1331.17 798.416C1332.51 798.416 1333.59 799.507 1333.59 800.844V855.679C1333.59 857.028 1332.51 858.108 1331.17 858.108Z" fill="white"/>
<path d="M1346.12 856.672C1344.77 856.672 1343.69 855.581 1343.69 854.244V799.409C1343.69 798.061 1344.78 796.98 1346.12 796.98C1347.45 796.98 1348.54 798.072 1348.54 799.409V854.244C1348.54 855.591 1347.45 856.672 1346.12 856.672Z" fill="white"/>
<path d="M1361.07 855.232C1359.72 855.232 1358.64 854.141 1358.64 852.804V797.969C1358.64 796.621 1359.73 795.541 1361.07 795.541C1362.4 795.541 1363.49 796.632 1363.49 797.969V852.804C1363.49 854.152 1362.4 855.232 1361.07 855.232Z" fill="white"/>
<path d="M1376.02 853.797C1374.67 853.797 1373.59 852.706 1373.59 851.369V796.534C1373.59 795.186 1374.68 794.105 1376.02 794.105C1377.35 794.105 1378.44 795.197 1378.44 796.534V851.369C1378.44 852.717 1377.35 853.797 1376.02 853.797Z" fill="white"/>
<path d="M1390.97 865.148V783.623L1498.13 788.244V858.28L1390.97 865.158V865.148Z" fill="#121212"/>
<path d="M1390.97 867.592C1390.35 867.592 1389.76 867.357 1389.3 866.929C1388.81 866.469 1388.53 865.827 1388.53 865.153V783.628C1388.53 782.965 1388.8 782.334 1389.28 781.874C1389.76 781.414 1390.4 781.168 1391.06 781.2L1498.22 785.821C1499.52 785.875 1500.55 786.945 1500.55 788.25V858.286C1500.55 859.569 1499.56 860.629 1498.27 860.714L1391.12 867.592C1391.12 867.592 1391.01 867.592 1390.96 867.592H1390.97ZM1393.4 786.164V862.554L1495.7 855.996V790.571L1393.4 786.164Z" fill="white"/>
<path d="M1482.42 855.682L1406.53 860.561V784.544L1482.42 777.195V855.682Z" fill="#121212"/>
<path d="M1406.53 863.001C1405.91 863.001 1405.32 862.766 1404.86 862.338C1404.37 861.878 1404.09 861.236 1404.09 860.562V784.546C1404.09 783.294 1405.04 782.246 1406.29 782.129L1482.19 774.769C1482.87 774.704 1483.54 774.929 1484.05 775.389C1484.56 775.849 1484.86 776.501 1484.86 777.186V855.673C1484.86 856.957 1483.86 858.016 1482.58 858.101L1406.69 862.979C1406.69 862.979 1406.58 862.979 1406.53 862.979V863.001ZM1408.96 786.76V857.973L1480 853.405V779.882L1408.96 786.771V786.76Z" fill="white"/>
<path d="M1422.04 850.881C1420.69 850.881 1419.61 849.79 1419.61 848.453V793.618C1419.61 792.27 1420.7 791.189 1422.04 791.189C1423.37 791.189 1424.46 792.281 1424.46 793.618V848.453C1424.46 849.801 1423.37 850.881 1422.04 850.881Z" fill="white"/>
<path d="M1436.98 849.446C1435.64 849.446 1434.56 848.354 1434.56 847.017V792.182C1434.56 790.834 1435.65 789.754 1436.98 789.754C1438.32 789.754 1439.41 790.845 1439.41 792.182V847.017C1439.41 848.365 1438.32 849.446 1436.98 849.446Z" fill="white"/>
<path d="M1451.95 848.022C1450.6 848.022 1449.52 846.931 1449.52 845.594V790.758C1449.52 789.41 1450.61 788.33 1451.95 788.33C1453.28 788.33 1454.37 789.421 1454.37 790.758V845.594C1454.37 846.941 1453.28 848.022 1451.95 848.022Z" fill="white"/>
<path d="M1466.89 846.571C1465.55 846.571 1464.47 845.479 1464.47 844.142V789.307C1464.47 787.96 1465.56 786.879 1466.89 786.879C1468.23 786.879 1469.32 787.97 1469.32 789.307V844.142C1469.32 845.491 1468.23 846.571 1466.89 846.571Z" fill="white"/>
<path d="M1480.99 857.205V775.68L1588.15 780.301V850.338L1480.99 857.216V857.205Z" fill="#121212"/>
<path d="M1480.99 859.647C1480.37 859.647 1479.78 859.412 1479.32 858.984C1478.83 858.524 1478.55 857.883 1478.55 857.209V775.683C1478.55 775.02 1478.82 774.389 1479.3 773.929C1479.78 773.469 1480.43 773.223 1481.08 773.255L1588.24 777.876C1589.54 777.929 1590.57 778.999 1590.57 780.304V850.341C1590.57 851.625 1589.57 852.683 1588.29 852.769L1481.14 859.647C1481.14 859.647 1481.03 859.647 1480.98 859.647H1480.99ZM1483.41 778.218V854.609L1585.71 848.051V782.626L1483.41 778.218Z" fill="white"/>
<path d="M1577.33 849.822L1498.48 854.893V775.924L1577.33 768.275V849.822Z" fill="#121212"/>
<path d="M1498.48 857.323C1497.86 857.323 1497.27 857.087 1496.81 856.659C1496.32 856.199 1496.04 855.557 1496.04 854.883V775.915C1496.04 774.663 1496.99 773.615 1498.24 773.497L1577.09 765.849C1577.77 765.785 1578.44 766.009 1578.96 766.469C1579.46 766.929 1579.76 767.582 1579.76 768.266V849.802C1579.76 851.086 1578.76 852.145 1577.48 852.231L1498.64 857.301C1498.64 857.301 1498.53 857.301 1498.48 857.301V857.323ZM1500.9 778.14V852.305L1574.89 847.545V770.962L1500.9 778.14Z" fill="white"/>
<path d="M1515.48 844.564C1514.13 844.564 1513.05 843.474 1513.05 842.136V787.301C1513.05 785.953 1514.14 784.873 1515.48 784.873C1516.81 784.873 1517.9 785.964 1517.9 787.301V842.136C1517.9 843.484 1516.81 844.564 1515.48 844.564Z" fill="white"/>
<path d="M1530.42 843.112C1529.08 843.112 1528 842.02 1528 840.683V785.848C1528 784.5 1529.09 783.42 1530.42 783.42C1531.76 783.42 1532.85 784.511 1532.85 785.848V840.683C1532.85 842.031 1531.76 843.112 1530.42 843.112Z" fill="white"/>
<path d="M1545.39 841.688C1544.04 841.688 1542.96 840.597 1542.96 839.26V784.424C1542.96 783.076 1544.05 781.996 1545.39 781.996C1546.72 781.996 1547.81 783.087 1547.81 784.424V839.26C1547.81 840.607 1546.72 841.688 1545.39 841.688Z" fill="white"/>
<path d="M1560.31 840.252C1558.97 840.252 1557.89 839.161 1557.89 837.823V782.989C1557.89 781.641 1558.98 780.561 1560.31 780.561C1561.65 780.561 1562.74 781.651 1562.74 782.989V837.823C1562.74 839.171 1561.65 840.252 1560.31 840.252Z" fill="white"/>
<path d="M1575.89 851.345V766.771L1687.09 771.564V844.21L1575.89 851.345Z" fill="#121212"/>
<path d="M1575.88 853.788C1575.26 853.788 1574.68 853.553 1574.22 853.124C1573.73 852.665 1573.45 852.023 1573.45 851.349V766.775C1573.45 766.112 1573.72 765.481 1574.2 765.021C1574.68 764.56 1575.33 764.315 1575.98 764.347L1687.19 769.139C1688.49 769.193 1689.51 770.262 1689.51 771.568V844.214C1689.51 845.497 1688.52 846.557 1687.24 846.642L1576.03 853.777C1576.03 853.777 1575.93 853.777 1575.87 853.777L1575.88 853.788ZM1578.31 769.31V848.76L1684.65 841.935V773.899L1578.31 769.31Z" fill="white"/>
<path d="M1676.54 843.047L1595.5 848.267V767.095L1676.54 759.232V843.047Z" fill="#121212"/>
<path d="M1595.49 850.695C1594.87 850.695 1594.28 850.46 1593.82 850.032C1593.33 849.572 1593.05 848.93 1593.05 848.256V767.084C1593.05 765.833 1594.01 764.784 1595.25 764.666L1676.3 756.804C1676.97 756.739 1677.65 756.964 1678.17 757.424C1678.67 757.884 1678.97 758.537 1678.97 759.221V843.036C1678.97 844.32 1677.97 845.378 1676.69 845.464L1595.65 850.674C1595.65 850.674 1595.54 850.674 1595.49 850.674V850.695ZM1597.91 769.299V845.667L1674.1 840.768V761.917L1597.91 769.299Z" fill="white"/>
<path d="M1611.92 814.004C1610.57 814.004 1609.49 812.913 1609.49 811.576V778.96C1609.49 777.611 1610.58 776.531 1611.92 776.531C1613.25 776.531 1614.34 777.623 1614.34 778.96V811.576C1614.34 812.924 1613.25 814.004 1611.92 814.004Z" fill="white"/>
<path d="M1627.71 811.473C1626.36 811.473 1625.28 810.381 1625.28 809.044V777.444C1625.28 776.096 1626.37 775.016 1627.71 775.016C1629.04 775.016 1630.13 776.107 1630.13 777.444V809.044C1630.13 810.392 1629.04 811.473 1627.71 811.473Z" fill="white"/>
<path d="M1643.49 808.824C1642.15 808.824 1641.07 807.733 1641.07 806.396V775.94C1641.07 774.593 1642.16 773.512 1643.49 773.512C1644.83 773.512 1645.92 774.603 1645.92 775.94V806.396C1645.92 807.744 1644.83 808.824 1643.49 808.824Z" fill="white"/>
<path d="M1659.26 805.784C1657.92 805.784 1656.84 804.692 1656.84 803.355V774.419C1656.84 773.07 1657.93 771.99 1659.26 771.99C1660.6 771.99 1661.69 773.082 1661.69 774.419V803.355C1661.69 804.703 1660.6 805.784 1659.26 805.784Z" fill="white"/>
<path d="M1675.1 844.579V757.727L1789.34 762.647V837.251L1675.1 844.579Z" fill="#121212"/>
<path d="M1675.1 847.006C1674.48 847.006 1673.89 846.771 1673.43 846.343C1672.94 845.883 1672.66 845.242 1672.66 844.568V757.715C1672.66 757.052 1672.93 756.421 1673.41 755.961C1673.89 755.5 1674.54 755.265 1675.19 755.287L1789.43 760.208C1790.73 760.261 1791.76 761.331 1791.76 762.636V837.24C1791.76 838.523 1790.77 839.583 1789.48 839.668L1675.24 846.996C1675.24 846.996 1675.14 846.996 1675.09 846.996L1675.1 847.006ZM1677.53 760.261V841.979L1786.91 834.961V764.968L1677.53 760.25V760.261Z" fill="white"/>
<path d="M1771.8 791.452C1770.45 791.452 1769.38 790.361 1769.38 789.024V775.952C1769.38 774.604 1770.46 773.523 1771.8 773.523C1773.14 773.523 1774.22 774.615 1774.22 775.952V789.024C1774.22 790.372 1773.14 791.452 1771.8 791.452Z" fill="white"/>
<path d="M1755.91 792.924C1754.56 792.924 1753.49 791.834 1753.49 790.496V775.028C1753.49 773.68 1754.58 772.6 1755.91 772.6C1757.24 772.6 1758.33 773.691 1758.33 775.028V790.496C1758.33 791.844 1757.24 792.924 1755.91 792.924Z" fill="white"/>
<path d="M1740.05 795.727C1738.7 795.727 1737.62 794.636 1737.62 793.299V775.028C1737.62 773.68 1738.71 772.6 1740.05 772.6C1741.38 772.6 1742.47 773.691 1742.47 775.028V793.299C1742.47 794.647 1741.38 795.727 1740.05 795.727Z" fill="white"/>
<path d="M1724.17 797.921C1722.83 797.921 1721.75 796.829 1721.75 795.492V774.419C1721.75 773.07 1722.84 771.99 1724.17 771.99C1725.51 771.99 1726.6 773.082 1726.6 774.419V795.492C1726.6 796.84 1725.51 797.921 1724.17 797.921Z" fill="white"/>
<path d="M1708.3 799.942C1706.95 799.942 1705.87 798.851 1705.87 797.514V773.508C1705.87 772.161 1706.96 771.08 1708.3 771.08C1709.63 771.08 1710.72 772.171 1710.72 773.508V797.514C1710.72 798.862 1709.63 799.942 1708.3 799.942Z" fill="white"/>
<path d="M1692.43 802.02C1691.08 802.02 1690 800.929 1690 799.592V771.993C1690 770.645 1691.09 769.564 1692.43 769.564C1693.76 769.564 1694.85 770.656 1694.85 771.993V799.592C1694.85 800.94 1693.76 802.02 1692.43 802.02Z" fill="white"/>
<path d="M1902.05 803.107C1838.4 776.716 1598.38 825.689 1598.38 825.689L1581.99 850.015L1270.46 870.233L1261.18 842.965L1123.97 848.025V873.528C1123.97 879.679 1124.76 885.819 1126.46 891.777C1127.05 893.853 1745.43 863.077 1745.43 863.077C1745.43 863.077 1835.18 857.835 1848.13 858.905C1879.77 861.525 1881.78 868.489 1881.78 868.489C1910.35 845.383 1937.61 817.837 1902.07 803.096L1902.05 803.107Z" fill="#121212"/>
<path d="M1130.5 894.291C1124.62 894.291 1124.46 893.756 1124.1 892.451C1122.39 886.428 1121.53 880.063 1121.53 873.538V848.035C1121.53 846.73 1122.56 845.649 1123.87 845.607L1261.08 840.547C1262.1 840.504 1263.12 841.178 1263.47 842.194L1272.14 867.697L1580.64 847.671L1596.35 824.34C1596.7 823.816 1597.26 823.442 1597.88 823.313C1607.7 821.302 1839.36 774.49 1902.96 800.87C1913.95 805.416 1920.07 811.621 1921.18 819.302C1923.5 835.455 1903.33 854.197 1883.28 870.403C1882.64 870.928 1881.76 871.077 1880.98 870.821C1880.31 870.596 1879.77 870.083 1879.51 869.43C1879.21 869.002 1874.96 863.589 1847.91 861.353C1835.28 860.305 1746.44 865.472 1745.55 865.525C1743.98 865.6 1589.16 873.302 1436.26 880.662C1346.46 884.984 1274.88 888.332 1223.5 890.632C1193 891.991 1169.38 892.996 1153.29 893.606C1141.53 894.055 1134.61 894.312 1130.5 894.312V894.291ZM1128.33 889.466H1128.58C1158.39 889.466 1541.41 870.799 1745.29 860.647C1748.94 860.433 1835.34 855.405 1848.31 856.486C1870.29 858.304 1878.82 862.209 1882.12 865.076C1898.31 851.832 1918.31 833.422 1916.38 819.976C1915.54 814.113 1910.4 809.193 1901.12 805.352C1840.91 780.384 1616.58 824.522 1599.82 827.881L1583.99 851.373C1583.58 851.993 1582.88 852.389 1582.13 852.442L1270.6 872.66C1269.51 872.714 1268.49 872.061 1268.14 871.013L1259.44 845.468L1126.39 850.378V873.538C1126.39 879.025 1127.04 884.374 1128.33 889.466ZM1879.4 869.087C1879.4 869.087 1879.42 869.184 1879.44 869.227C1879.44 869.184 1879.42 869.13 1879.4 869.087Z" fill="white"/>
<path d="M1902.06 803.094C1899.16 801.896 1895.89 800.848 1892.3 799.95C1891.16 799.671 1867.71 825.077 1850.97 853.907C1850.01 855.555 1849.07 857.223 1848.13 858.903C1879.77 861.524 1881.77 868.487 1881.77 868.487C1910.34 845.381 1937.6 817.835 1902.06 803.094Z" fill="#121212"/>
<path d="M1881.77 870.932C1881.52 870.932 1881.27 870.89 1881.02 870.815C1880.33 870.59 1879.79 870.077 1879.52 869.414C1879.23 868.986 1874.98 863.573 1847.91 861.337C1847.09 861.273 1846.36 860.781 1845.97 860.054C1845.59 859.326 1845.6 858.438 1846.01 857.721C1846.96 856.031 1847.91 854.352 1848.86 852.694C1857.93 837.065 1868.41 823.286 1875.6 814.483C1889.97 796.874 1891.71 797.313 1892.88 797.602C1896.63 798.543 1900.03 799.634 1902.98 800.865C1913.95 805.411 1920.07 811.616 1921.18 819.296C1923.51 835.449 1903.34 854.191 1883.29 870.398C1882.85 870.751 1882.31 870.932 1881.77 870.932ZM1879.42 869.125C1879.42 869.125 1879.45 869.189 1879.45 869.21C1879.45 869.178 1879.42 869.157 1879.42 869.125ZM1852.09 856.833C1871.27 858.769 1879 862.396 1882.11 865.081C1898.31 851.838 1918.32 833.428 1916.38 819.981C1915.53 814.119 1910.4 809.198 1901.12 805.357C1898.66 804.341 1895.85 803.411 1892.74 802.587C1888.5 806.384 1868.09 829.245 1853.06 855.143C1852.74 855.7 1852.41 856.267 1852.09 856.833Z" fill="white"/>
<path d="M1819.48 917.361L1145.12 922.763C1163.07 940.767 1187.93 949.549 1203.34 953.507C1210.74 955.401 1218.37 956.438 1226.08 956.588L1800.77 965.531C1800.77 965.531 1817.41 939.526 1830.78 918.943L1819.48 917.35V917.361Z" fill="#121212"/>
<path d="M1800.77 967.975C1800.77 967.975 1800.74 967.975 1800.72 967.975L1226.04 959.032C1218.11 958.872 1210.27 957.802 1202.74 955.876C1185.52 951.458 1161.25 942.419 1143.4 924.49C1142.7 923.795 1142.5 922.757 1142.87 921.848C1143.25 920.939 1144.12 920.35 1145.1 920.34L1819.46 914.938C1819.55 914.938 1819.69 914.938 1819.81 914.959L1831.11 916.553C1831.93 916.67 1832.64 917.194 1832.98 917.954C1833.33 918.713 1833.26 919.591 1832.81 920.286C1819.6 940.622 1802.98 966.606 1802.81 966.863C1802.36 967.558 1801.59 967.986 1800.77 967.986V967.975ZM1151.24 925.153C1168.78 940.419 1191.41 947.939 1203.95 951.159C1211.12 952.999 1218.59 954.015 1226.14 954.165L1799.45 963.087C1802.62 958.144 1815.45 938.108 1826.67 920.832L1819.32 919.794L1151.24 925.153Z" fill="white"/>
<path d="M1823.71 910.248C1823.38 910.248 1823.03 910.184 1822.71 910.034C1821.49 909.478 1820.95 908.044 1821.5 906.814C1830.79 886.179 1840 867.982 1848.86 852.707C1860.43 832.777 1875.69 813.639 1885.24 803.305C1886.15 802.321 1887.68 802.257 1888.67 803.177C1889.65 804.086 1889.72 805.627 1888.79 806.611C1879.41 816.763 1864.41 835.569 1853.05 855.156C1844.27 870.282 1835.14 888.34 1825.91 908.814C1825.5 909.713 1824.62 910.248 1823.71 910.248Z" fill="white"/>
<path d="M1800.77 967.978H1800.72L1226.04 959.034C1218.1 958.874 1210.26 957.804 1202.73 955.879C1181.93 950.53 1144.62 936.666 1128.51 903.878C1123.88 894.444 1121.53 884.142 1121.53 873.241V848.048C1121.53 846.743 1122.55 845.674 1123.86 845.62L1261 839.908C1262.08 839.865 1263.07 840.539 1263.41 841.566L1272.15 867.711L1580.64 847.685L1596.35 824.354C1596.7 823.83 1597.26 823.455 1597.88 823.327C1607.7 821.316 1839.36 774.504 1902.96 800.883C1914.03 805.473 1920.16 811.731 1921.2 819.498C1923.82 839.213 1892.87 863.175 1868.01 882.419C1856.77 891.116 1847.06 898.626 1844.06 903.13C1832.06 921.144 1803.09 966.416 1802.8 966.876C1802.35 967.572 1801.58 967.999 1800.75 967.999L1800.77 967.978ZM1126.39 850.37V873.22C1126.39 883.372 1128.57 892.957 1132.87 901.718C1148.12 932.762 1183.94 946.016 1203.94 951.161C1211.1 953.001 1218.57 954.017 1226.12 954.167L1799.44 963.089C1804.03 955.911 1829.06 916.854 1840.02 900.413C1843.46 895.246 1852.99 887.875 1865.04 878.547C1887.66 861.035 1918.65 837.052 1916.38 820.117C1915.59 814.202 1910.45 809.239 1901.11 805.355C1840.9 780.387 1616.57 824.525 1599.81 827.884L1583.98 851.376C1583.57 851.996 1582.87 852.392 1582.12 852.445L1270.58 872.663C1269.51 872.738 1268.48 872.054 1268.13 871.005L1259.37 844.818L1126.38 850.359L1126.39 850.37Z" fill="white"/>
<path d="M1253.37 1669.28C1253.37 1669.28 1282.7 1635.06 1255.17 1613.35C1255.17 1613.35 1235.07 1601.18 1218.68 1602.17C1218.68 1602.17 1241.91 1641.11 1234.38 1644.99C1226.86 1648.87 1211.63 1599.74 1211.63 1599.74C1211.63 1599.74 1165.87 1595.31 1151.15 1602.39C1151.15 1602.39 1190.28 1634.38 1182.04 1636.29C1173.8 1638.2 1131.55 1606.8 1131.55 1606.8C1131.55 1606.8 1088.97 1614.05 1091.23 1640.01C1093.49 1665.97 1108.17 1673.98 1114.62 1673.3C1121.08 1672.6 1158.81 1658.21 1159.61 1663.5C1160.44 1668.78 1137.73 1686.04 1121.83 1686.85C1121.83 1686.85 1151.85 1719.94 1171.81 1710.4C1191.77 1700.84 1193.46 1685.71 1205.91 1680.03C1218.35 1674.35 1228.96 1674.37 1223.83 1680.16C1218.7 1685.95 1196.18 1691.58 1189.06 1704.15C1181.94 1716.73 1175.56 1725.2 1196.22 1722.1C1216.86 1718.99 1250.42 1703.89 1251.9 1686.59L1253.37 1669.31V1669.28Z" fill="#82B378"/>
<path d="M1112.21 1640.69C1112.21 1640.69 1227.86 1636.25 1253.41 1669.3C1253.41 1669.3 1259.06 1686.22 1276.44 1701.6L1279.15 1708.98C1279.15 1708.98 1259.1 1687.85 1251.92 1686.58C1251.92 1686.58 1263.14 1645.62 1112.19 1640.69H1112.21Z" fill="#82B378"/>
<path d="M1276.46 1701.61C1276.46 1701.61 1301.29 1719.96 1303 1752.76L1298.49 1753.16C1298.49 1753.16 1290.57 1719.26 1276.24 1706C1261.91 1692.75 1276.46 1701.63 1276.46 1701.63V1701.61Z" fill="#82B378"/>
<path d="M1355.87 1626.22C1355.87 1626.22 1309.2 1600.09 1330.98 1564.65C1330.98 1564.65 1348.4 1542.88 1367.07 1537.29C1367.07 1537.29 1357.12 1590.15 1367.07 1591.4C1377.02 1592.65 1373.91 1531.7 1373.91 1531.7C1373.91 1531.7 1423.06 1508.08 1442.36 1509.93C1442.36 1509.93 1411.86 1561.56 1421.83 1560.31C1431.78 1559.06 1466.01 1506.83 1466.01 1506.83C1466.01 1506.83 1516.41 1497.5 1524.5 1527.34C1532.59 1557.2 1519.52 1572.11 1512.05 1573.99C1504.58 1575.86 1456.67 1575.24 1457.92 1581.45C1459.17 1587.67 1491.52 1597.61 1509.57 1592.02C1509.57 1592.02 1489.66 1641.15 1463.53 1638.67C1437.39 1636.18 1429.31 1620 1413.13 1618.77C1396.94 1617.52 1385.13 1621.88 1393.23 1626.24C1401.32 1630.59 1428.69 1627.67 1441.75 1638.76C1454.81 1649.86 1465.38 1656.7 1441.12 1661.68C1416.86 1666.67 1373.31 1663.54 1364.59 1644.9L1355.87 1626.24V1626.22Z" fill="#82B378"/>
<path d="M1501.49 1536.7C1501.49 1536.7 1370.83 1578.98 1355.91 1626.25C1355.91 1626.25 1356.53 1647.39 1343.46 1671.64V1680.96C1343.46 1680.96 1357.14 1649.25 1364.61 1644.89C1364.61 1644.89 1335.36 1603.84 1501.49 1536.68V1536.7Z" fill="#82B378"/>
<path d="M1343.47 1671.64C1343.47 1671.64 1323.33 1702.23 1334.81 1739.46L1339.99 1738.06C1339.99 1738.06 1334.95 1697.07 1345.51 1676.44C1356.05 1655.81 1343.49 1671.64 1343.49 1671.64H1343.47Z" fill="#82B378"/>
<path d="M1281.63 1590.23C1281.63 1590.23 1343.14 1555.8 1314.45 1509.08C1314.45 1509.08 1291.47 1480.38 1266.88 1473.01C1266.88 1473.01 1280 1542.69 1266.88 1544.33C1253.77 1545.96 1257.85 1465.62 1257.85 1465.62C1257.85 1465.62 1193.05 1434.47 1167.63 1436.92C1167.63 1436.92 1207.82 1504.96 1194.69 1503.33C1181.57 1501.69 1136.45 1432.82 1136.45 1432.82C1136.45 1432.82 1070.02 1420.52 1059.37 1459.86C1048.7 1499.21 1065.93 1518.88 1075.77 1521.34C1085.61 1523.81 1148.76 1522.98 1147.12 1531.18C1145.48 1539.38 1102.83 1552.49 1079.05 1545.12C1079.05 1545.12 1105.29 1609.89 1139.75 1606.6C1174.2 1603.32 1184.85 1582 1206.18 1580.36C1227.5 1578.72 1243.1 1584.46 1232.43 1590.2C1221.76 1595.93 1185.67 1592.07 1168.46 1606.71C1151.24 1621.34 1137.3 1630.37 1169.29 1636.91C1201.27 1643.48 1258.68 1639.38 1270.17 1614.78L1281.65 1590.18L1281.63 1590.23Z" fill="#A8D29F"/>
<path d="M1089.69 1472.21C1089.69 1472.21 1261.93 1527.96 1281.61 1590.26C1281.61 1590.26 1280.78 1618.14 1298.02 1650.11V1662.41C1298.02 1662.41 1279.97 1620.6 1270.13 1614.86C1270.13 1614.86 1308.69 1560.76 1089.69 1472.21Z" fill="#82B378"/>
<path d="M1298.04 1650.11C1298.04 1650.11 1324.6 1690.43 1309.47 1739.5L1302.64 1737.66C1302.64 1737.66 1309.28 1683.61 1295.38 1656.42C1281.47 1629.23 1298.06 1650.09 1298.06 1650.09L1298.04 1650.11Z" fill="#82B378"/>
<path d="M1283.71 1846.79C1217.47 1846.79 1163.77 1792.31 1163.77 1725.11H1403.64C1403.64 1792.31 1349.95 1846.79 1283.71 1846.79Z" fill="#ED823A"/>
<path d="M1254.16 1845.86C1259.05 1846.47 1264.06 1846.79 1269.14 1846.79C1335.74 1846.79 1389.74 1792.31 1389.74 1725.11H1359.79C1359.79 1787.18 1313.71 1838.41 1254.17 1845.86H1254.16Z" fill="#FF9E55"/>
<path d="M1162.03 1852H1405.38C1405.38 1843.36 1398.75 1836.36 1390.58 1836.36H1176.85C1168.68 1836.36 1162.05 1843.36 1162.05 1852H1162.03Z" fill="#ED823A"/>
<path d="M1160.29 1728.59H1408.86V1725.11H1160.29V1728.59Z" fill="#ED823A"/>
</svg>
