<svg width="2011" height="1897" viewBox="0 0 2011 1897" fill="none" xmlns="http://www.w3.org/2000/svg">
<path d="M375.188 498.59L375.577 517.61L395.957 521.77C396.837 526.16 398.068 530.42 399.638 534.51L384.668 548.9L394.527 565.18L414.267 558.6C417.197 561.91 420.397 564.98 423.827 567.77L418.057 587.74L434.747 596.91L448.517 581.38C452.677 582.78 456.988 583.83 461.408 584.53L466.408 604.7L485.448 604.31L489.607 583.95C493.997 583.07 498.267 581.85 502.357 580.28L516.768 595.24L533.057 585.39L526.467 565.67C529.787 562.75 532.858 559.55 535.648 556.12L555.638 561.89L564.818 545.22L549.258 531.46C550.658 527.31 551.707 523 552.407 518.58L572.597 513.59L572.208 494.57L551.828 490.41C550.948 486.02 549.718 481.76 548.148 477.67L563.117 463.28L553.258 447L533.518 453.58C530.588 450.27 527.388 447.2 523.958 444.41L529.727 424.44L513.037 415.27L499.267 430.8C495.107 429.4 490.798 428.35 486.378 427.65L481.378 407.48L462.337 407.87L458.177 428.23C453.787 429.11 449.517 430.33 445.427 431.9L431.017 416.94L414.728 426.79L421.318 446.5C417.998 449.42 414.928 452.62 412.138 456.05L392.147 450.28L382.967 466.95L398.527 480.71C397.127 484.86 396.078 489.17 395.378 493.59L375.188 498.58V498.59ZM472.888 457.12C499.958 456.57 522.367 478.04 522.927 505.09C523.487 532.13 501.998 554.5 474.918 555.06C447.848 555.61 425.438 534.14 424.878 507.09C424.318 480.05 445.808 457.68 472.888 457.12Z" fill="#121212"/>
<path d="M466.419 606.89C465.409 606.89 464.519 606.2 464.279 605.21L459.629 586.45C456.079 585.83 452.589 584.97 449.219 583.91L436.409 598.36C435.729 599.13 434.599 599.33 433.689 598.83L416.999 589.66C416.099 589.16 415.659 588.1 415.939 587.11L421.309 568.54C418.589 566.25 415.999 563.77 413.599 561.15L395.239 567.27C394.259 567.59 393.189 567.2 392.649 566.32L382.789 550.04C382.259 549.16 382.399 548.02 383.149 547.3L397.079 533.92C395.879 530.61 394.889 527.16 394.109 523.64L375.149 519.77C374.139 519.56 373.399 518.68 373.379 517.65L372.989 498.63C372.969 497.6 373.669 496.69 374.669 496.44L393.459 491.8C394.079 488.25 394.929 484.77 395.999 481.41L381.529 468.61C380.759 467.93 380.559 466.8 381.059 465.89L390.239 449.22C390.739 448.32 391.789 447.88 392.789 448.16L411.389 453.53C413.679 450.81 416.159 448.23 418.789 445.83L412.659 427.49C412.329 426.51 412.729 425.43 413.609 424.9L429.899 415.05C430.779 414.52 431.919 414.67 432.629 415.41L446.029 429.33C449.349 428.13 452.799 427.14 456.319 426.37L460.189 407.43C460.399 406.42 461.279 405.69 462.309 405.66L481.349 405.27C482.439 405.26 483.289 405.95 483.539 406.95L488.189 425.71C491.739 426.33 495.229 427.19 498.599 428.25L511.409 413.8C512.089 413.03 513.219 412.83 514.129 413.33L530.819 422.5C531.719 423 532.159 424.06 531.879 425.05L526.509 443.62C529.229 445.91 531.819 448.39 534.219 451.01L552.579 444.89C553.559 444.57 554.629 444.96 555.169 445.84L565.029 462.12C565.559 463 565.419 464.14 564.669 464.86L550.739 478.24C551.939 481.55 552.929 485 553.709 488.52L572.669 492.39C573.679 492.6 574.419 493.48 574.439 494.51L574.829 513.53C574.849 514.56 574.149 515.47 573.149 515.72L554.359 520.36C553.739 523.91 552.889 527.39 551.819 530.75L566.289 543.55C567.059 544.23 567.259 545.36 566.759 546.27L557.579 562.94C557.079 563.84 556.029 564.28 555.029 564L536.429 558.63C534.139 561.35 531.659 563.93 529.029 566.33L535.159 584.67C535.489 585.65 535.089 586.73 534.209 587.26L517.919 597.11C517.039 597.64 515.899 597.49 515.189 596.75L501.789 582.83C498.469 584.03 495.019 585.02 491.499 585.79L487.629 604.73C487.419 605.74 486.539 606.47 485.509 606.5L466.469 606.89H466.419ZM448.529 579.16C448.769 579.16 448.999 579.2 449.229 579.28C453.249 580.63 457.459 581.66 461.759 582.34C462.639 582.48 463.349 583.13 463.559 583.99L468.129 602.45L483.639 602.13L487.439 583.5C487.619 582.63 488.299 581.95 489.169 581.78C493.439 580.93 497.609 579.73 501.569 578.21C502.399 577.89 503.339 578.1 503.949 578.74L517.129 592.43L530.399 584.41L524.369 566.37C524.089 565.53 524.339 564.6 524.999 564.01C528.219 561.17 531.219 558.05 533.919 554.72C534.479 554.03 535.389 553.75 536.249 553.99L554.549 559.27L562.029 545.7L547.799 533.11C547.129 532.52 546.889 531.59 547.169 530.75C548.519 526.75 549.549 522.53 550.229 518.23C550.369 517.35 551.019 516.64 551.879 516.43L570.359 511.87L570.039 496.38L551.389 492.58C550.519 492.4 549.839 491.72 549.669 490.85C548.809 486.58 547.609 482.42 546.099 478.47C545.779 477.64 545.989 476.7 546.629 476.09L560.329 462.93L552.299 449.67L534.239 455.69C533.399 455.97 532.469 455.72 531.889 455.06C529.049 451.85 525.919 448.85 522.589 446.15C521.899 445.59 521.609 444.67 521.859 443.82L527.139 425.55L513.539 418.08L500.929 432.29C500.339 432.95 499.409 433.2 498.569 432.92C494.559 431.57 490.349 430.54 486.039 429.86C485.159 429.72 484.449 429.07 484.239 428.21L479.669 409.75L464.159 410.07L460.359 428.7C460.179 429.57 459.499 430.25 458.629 430.42C454.349 431.28 450.179 432.48 446.229 433.99C445.399 434.31 444.469 434.1 443.849 433.46L430.669 419.77L417.399 427.79L423.429 445.83C423.709 446.67 423.459 447.6 422.799 448.19C419.589 451.02 416.579 454.15 413.879 457.48C413.319 458.17 412.409 458.45 411.549 458.21L393.249 452.93L385.769 466.5L399.999 479.09C400.669 479.68 400.909 480.61 400.629 481.45C399.279 485.46 398.249 489.67 397.569 493.97C397.429 494.85 396.779 495.56 395.919 495.77L377.439 500.33L377.759 515.82L396.409 519.62C397.279 519.8 397.959 520.48 398.129 521.35C398.989 525.62 400.189 529.78 401.699 533.73C402.019 534.56 401.809 535.5 401.169 536.11L387.469 549.27L395.499 562.53L413.559 556.51C414.399 556.23 415.329 556.48 415.909 557.14C418.749 560.36 421.879 563.36 425.209 566.05C425.899 566.61 426.189 567.53 425.939 568.38L420.659 586.65L434.259 594.12L446.859 579.91C447.289 579.43 447.889 579.17 448.509 579.17L448.529 579.16ZM473.899 557.28C446.129 557.28 423.249 535 422.669 507.14C422.389 493.47 427.449 480.51 436.929 470.65C446.409 460.79 459.159 455.2 472.839 454.92C501.099 454.44 524.549 476.83 525.129 505.05C525.409 518.72 520.349 531.68 510.869 541.54C501.389 551.4 488.639 556.99 474.959 557.27C474.609 557.27 474.249 557.28 473.899 557.28ZM472.929 459.34C460.419 459.6 448.769 464.7 440.109 473.71C431.449 482.72 426.829 494.56 427.089 507.05C427.619 532.51 448.529 552.86 473.899 552.86C474.219 552.86 474.539 552.86 474.869 552.85C487.379 552.59 499.029 547.49 507.689 538.48C516.349 529.47 520.969 517.63 520.709 505.14C520.179 479.36 498.729 458.72 472.929 459.34Z" fill="white"/>
<path d="M1276.61 338.102L1276.94 353.902L1293.88 357.352C1294.61 361.002 1295.63 364.532 1296.94 367.932L1284.5 379.882L1292.69 393.402L1309.09 387.932C1311.52 390.682 1314.18 393.232 1317.04 395.552L1312.24 412.142L1326.11 419.762L1337.55 406.852C1341 408.012 1344.58 408.882 1348.26 409.462L1352.41 426.222L1368.23 425.902L1371.68 408.982C1375.33 408.252 1378.87 407.232 1382.27 405.932L1394.24 418.362L1407.78 410.182L1402.3 393.802C1405.06 391.372 1407.61 388.722 1409.92 385.872L1426.53 390.662L1434.16 376.812L1421.24 365.372C1422.4 361.922 1423.27 358.342 1423.85 354.672L1440.63 350.532L1440.3 334.732L1423.36 331.282C1422.63 327.632 1421.61 324.102 1420.3 320.702L1432.74 308.752L1424.55 295.232L1408.15 300.702C1405.72 297.952 1403.06 295.402 1400.2 293.082L1404.99 276.492L1391.12 268.872L1379.68 281.782C1376.23 280.622 1372.65 279.752 1368.97 279.172L1364.82 262.412L1349 262.732L1345.55 279.652C1341.9 280.382 1338.36 281.402 1334.96 282.702L1322.99 270.272L1309.45 278.452L1314.93 294.832C1312.17 297.262 1309.62 299.912 1307.31 302.762L1290.7 297.972L1283.07 311.822L1295.99 323.262C1294.83 326.712 1293.96 330.292 1293.38 333.962L1276.6 338.102H1276.61ZM1357.78 303.652C1380.27 303.192 1398.89 321.032 1399.35 343.502C1399.82 365.972 1381.96 384.562 1359.46 385.012C1336.97 385.472 1318.35 367.632 1317.89 345.162C1317.42 322.692 1335.28 304.112 1357.78 303.652Z" fill="#121212"/>
<path d="M1352.41 428.461C1351.4 428.461 1350.51 427.771 1350.27 426.781L1346.47 411.431C1343.67 410.931 1340.91 410.261 1338.25 409.431L1327.76 421.261C1327.07 422.031 1325.94 422.221 1325.04 421.731L1311.18 414.111C1310.27 413.611 1309.83 412.551 1310.12 411.561L1314.51 396.361C1312.37 394.541 1310.32 392.591 1308.42 390.521L1293.39 395.531C1292.41 395.851 1291.34 395.461 1290.8 394.581L1282.61 381.051C1282.08 380.171 1282.22 379.031 1282.97 378.311L1294.37 367.361C1293.43 364.741 1292.65 362.021 1292.03 359.241L1276.51 356.081C1275.5 355.871 1274.77 354.991 1274.74 353.961L1274.41 338.161C1274.39 337.131 1275.09 336.221 1276.09 335.971L1291.46 332.171C1291.96 329.371 1292.64 326.621 1293.46 323.961L1281.62 313.481C1280.85 312.801 1280.65 311.671 1281.15 310.761L1288.78 296.911C1289.28 296.011 1290.33 295.571 1291.33 295.851L1306.55 300.241C1308.37 298.101 1310.33 296.061 1312.4 294.161L1307.38 279.151C1307.05 278.171 1307.45 277.091 1308.33 276.561L1321.87 268.381C1322.76 267.851 1323.89 268.001 1324.6 268.741L1335.57 280.131C1338.19 279.191 1340.92 278.411 1343.7 277.791L1346.86 262.291C1347.06 261.281 1347.94 260.551 1348.98 260.521L1364.8 260.201C1365.94 260.221 1366.74 260.871 1366.99 261.881L1370.79 277.241C1373.59 277.741 1376.35 278.411 1379.01 279.241L1389.5 267.411C1390.19 266.641 1391.31 266.441 1392.22 266.941L1406.09 274.561C1407 275.061 1407.44 276.121 1407.15 277.111L1402.76 292.311C1404.91 294.131 1406.95 296.091 1408.85 298.151L1423.88 293.141C1424.86 292.811 1425.93 293.211 1426.47 294.091L1434.66 307.621C1435.19 308.501 1435.05 309.641 1434.3 310.361L1422.9 321.311C1423.84 323.931 1424.62 326.651 1425.24 329.431L1440.76 332.591C1441.77 332.801 1442.5 333.681 1442.53 334.711L1442.86 350.511C1442.88 351.541 1442.18 352.451 1441.18 352.701L1425.81 356.501C1425.31 359.301 1424.63 362.051 1423.81 364.711L1435.65 375.191C1436.42 375.871 1436.62 377.001 1436.12 377.911L1428.49 391.761C1427.99 392.661 1426.94 393.101 1425.94 392.821L1410.72 388.431C1408.9 390.571 1406.94 392.611 1404.87 394.511L1409.89 409.521C1410.22 410.501 1409.82 411.581 1408.94 412.111L1395.4 420.291C1394.52 420.821 1393.38 420.671 1392.67 419.931L1381.7 408.541C1379.07 409.481 1376.35 410.261 1373.57 410.881L1370.41 426.381C1370.21 427.391 1369.33 428.121 1368.29 428.151L1352.47 428.471H1352.42L1352.41 428.461ZM1337.55 404.671C1337.79 404.671 1338.02 404.711 1338.25 404.791C1341.57 405.901 1345.05 406.751 1348.6 407.321C1349.48 407.461 1350.19 408.111 1350.4 408.971L1354.13 424.021L1366.42 423.771L1369.52 408.581C1369.7 407.711 1370.38 407.031 1371.25 406.861C1374.78 406.151 1378.22 405.161 1381.49 403.911C1382.32 403.591 1383.25 403.801 1383.87 404.441L1394.62 415.601L1405.14 409.251L1400.22 394.551C1399.94 393.711 1400.19 392.781 1400.85 392.191C1403.51 389.851 1405.99 387.261 1408.22 384.521C1408.78 383.831 1409.7 383.551 1410.55 383.791L1425.47 388.101L1431.39 377.351L1419.79 367.091C1419.13 366.501 1418.88 365.571 1419.16 364.731C1420.27 361.421 1421.12 357.951 1421.69 354.391C1421.83 353.511 1422.48 352.801 1423.34 352.591L1438.4 348.871L1438.15 336.601L1422.94 333.501C1422.07 333.321 1421.39 332.641 1421.22 331.771C1420.51 328.251 1419.52 324.811 1418.27 321.541C1417.95 320.711 1418.16 319.771 1418.8 319.161L1429.97 308.431L1423.61 297.931L1408.88 302.841C1408.04 303.121 1407.11 302.871 1406.53 302.211C1404.19 299.561 1401.61 297.081 1398.85 294.841C1398.16 294.281 1397.87 293.361 1398.12 292.511L1402.42 277.621L1391.65 271.701L1381.37 283.291C1380.78 283.951 1379.85 284.201 1379.01 283.921C1375.7 282.811 1372.22 281.961 1368.66 281.391C1367.78 281.251 1367.07 280.601 1366.86 279.741L1363.13 264.691L1350.84 264.941L1347.74 280.131C1347.56 281.001 1346.88 281.681 1346.01 281.851C1342.48 282.561 1339.03 283.551 1335.77 284.801C1334.94 285.121 1334 284.911 1333.39 284.271L1322.65 273.111L1312.13 279.461L1317.05 294.161C1317.33 295.001 1317.08 295.931 1316.42 296.521C1313.77 298.861 1311.29 301.441 1309.05 304.191C1308.49 304.881 1307.57 305.161 1306.73 304.921L1291.82 300.621L1285.9 311.371L1297.5 321.631C1298.16 322.221 1298.41 323.151 1298.13 323.991C1297.02 327.301 1296.17 330.771 1295.6 334.331C1295.46 335.211 1294.81 335.921 1293.95 336.131L1278.89 339.851L1279.14 352.121L1294.35 355.221C1295.22 355.401 1295.9 356.081 1296.07 356.951C1296.78 360.491 1297.77 363.931 1299.02 367.181C1299.34 368.011 1299.13 368.951 1298.49 369.561L1287.33 380.291L1293.69 390.791L1308.41 385.881C1309.25 385.601 1310.18 385.851 1310.76 386.511C1313.11 389.171 1315.7 391.651 1318.44 393.871C1319.13 394.431 1319.42 395.351 1319.17 396.201L1314.87 411.091L1325.64 417.011L1335.91 405.421C1336.34 404.941 1336.94 404.681 1337.56 404.681L1337.55 404.671ZM1358.63 387.241C1335.35 387.241 1316.18 368.571 1315.69 345.221C1315.45 333.761 1319.7 322.901 1327.64 314.631C1335.58 306.361 1346.27 301.681 1357.74 301.451C1358.04 301.451 1358.33 301.451 1358.63 301.451C1381.91 301.451 1401.08 320.121 1401.57 343.471C1401.81 354.931 1397.56 365.791 1389.62 374.061C1381.68 382.331 1370.99 387.011 1359.52 387.241C1359.22 387.241 1358.92 387.241 1358.63 387.241ZM1357.83 305.871C1347.54 306.081 1337.95 310.281 1330.82 317.701C1323.7 325.111 1319.89 334.861 1320.1 345.141C1320.53 366.091 1337.74 382.841 1358.62 382.841C1358.89 382.841 1359.15 382.841 1359.42 382.841C1369.71 382.631 1379.3 378.431 1386.43 371.021C1393.56 363.601 1397.36 353.861 1397.15 343.581C1396.71 322.361 1379.08 305.481 1357.83 305.891V305.871Z" fill="white"/>
<path d="M1456.27 325.681L1464.5 349.211L1491.55 346.101C1494.43 351.211 1497.69 356.011 1501.31 360.471L1488.54 384.471L1507.43 400.731L1529.3 384.511C1534.29 387.451 1539.52 389.961 1544.93 392.041L1545.88 419.251L1570.37 423.891L1581.18 398.941C1586.92 398.991 1592.71 398.551 1598.5 397.621L1612.93 420.711L1636.46 412.481L1633.35 385.431C1638.46 382.551 1643.26 379.291 1647.72 375.681L1671.73 388.451L1687.99 369.561L1671.76 347.691C1674.7 342.701 1677.22 337.471 1679.29 332.071L1706.51 331.131L1711.15 306.641L1686.2 295.831C1686.25 290.091 1685.8 284.301 1684.87 278.511L1707.96 264.091L1699.73 240.561L1672.68 243.671C1669.8 238.561 1666.54 233.761 1662.92 229.301L1675.69 205.301L1656.8 189.041L1634.93 205.261C1629.94 202.321 1624.71 199.801 1619.3 197.731L1618.35 170.521L1593.86 165.881L1583.05 190.831C1577.31 190.781 1571.52 191.221 1565.73 192.151L1551.3 169.061L1527.77 177.291L1530.89 204.331C1525.78 207.211 1520.98 210.471 1516.52 214.091L1492.51 201.321L1476.25 220.211L1492.48 242.081C1489.54 247.071 1487.03 252.301 1484.95 257.711L1457.73 258.651L1453.09 283.141L1478.04 293.951C1477.99 299.691 1478.44 305.481 1479.37 311.271L1456.28 325.691L1456.27 325.681ZM1560.93 234.311C1594.39 222.611 1630.99 240.251 1642.7 273.701C1654.4 307.151 1636.77 343.751 1603.31 355.451C1569.85 367.151 1533.25 349.511 1521.54 316.061C1509.84 282.611 1527.47 246.011 1560.93 234.311Z" fill="#121212"/>
<path d="M1570.38 426.09C1570.24 426.09 1570.11 426.08 1569.97 426.05L1545.48 421.41C1544.47 421.22 1543.72 420.35 1543.69 419.32L1542.79 393.56C1538.22 391.73 1533.75 389.58 1529.47 387.14L1508.76 402.5C1507.93 403.12 1506.78 403.07 1506 402.4L1487.1 386.14C1486.32 385.47 1486.11 384.34 1486.59 383.43L1498.68 360.71C1495.66 356.88 1492.87 352.77 1490.36 348.46L1464.75 351.41C1463.74 351.52 1462.75 350.92 1462.41 349.94L1454.18 326.41C1453.84 325.44 1454.22 324.35 1455.1 323.81L1476.96 310.16C1476.24 305.22 1475.86 300.26 1475.83 295.4L1452.21 285.16C1451.26 284.75 1450.73 283.74 1450.92 282.72L1455.56 258.23C1455.75 257.22 1456.62 256.47 1457.65 256.43L1483.42 255.54C1485.25 250.96 1487.4 246.5 1489.83 242.22L1474.47 221.52C1473.85 220.69 1473.9 219.55 1474.57 218.76L1490.83 199.87C1491.51 199.08 1492.63 198.88 1493.54 199.36L1516.27 211.45C1520.1 208.43 1524.21 205.64 1528.52 203.13L1525.57 177.53C1525.45 176.5 1526.06 175.53 1527.03 175.19L1550.56 166.96C1551.53 166.62 1552.62 167 1553.16 167.87L1566.82 189.73C1571.76 189.01 1576.71 188.63 1581.59 188.6L1591.83 164.99C1592.24 164.04 1593.25 163.51 1594.27 163.7L1618.76 168.34C1619.77 168.53 1620.52 169.4 1620.55 170.43L1621.45 196.19C1626.03 198.02 1630.5 200.17 1634.77 202.61L1655.48 187.26C1656.31 186.65 1657.46 186.69 1658.24 187.36L1677.13 203.62C1677.91 204.29 1678.12 205.42 1677.64 206.33L1665.55 229.05C1668.57 232.88 1671.36 236.99 1673.87 241.3L1699.47 238.35C1700.47 238.24 1701.47 238.84 1701.81 239.81L1710.04 263.34C1710.38 264.31 1710 265.4 1709.12 265.94L1687.26 279.59C1687.98 284.52 1688.37 289.48 1688.39 294.35L1712.01 304.59C1712.96 305 1713.49 306.01 1713.3 307.03L1708.66 331.52C1708.47 332.53 1707.6 333.28 1706.57 333.32L1680.8 334.21C1678.98 338.78 1676.82 343.25 1674.38 347.53L1689.74 368.24C1690.36 369.07 1690.31 370.21 1689.64 371L1673.38 389.89C1672.71 390.67 1671.58 390.88 1670.67 390.4L1647.94 378.31C1644.11 381.33 1639.99 384.12 1635.69 386.63L1638.64 412.23C1638.76 413.26 1638.15 414.23 1637.18 414.57L1613.65 422.8C1612.68 423.14 1611.6 422.76 1611.05 421.89L1597.39 400.03C1592.45 400.75 1587.5 401.13 1582.62 401.16L1572.38 424.77C1572.02 425.59 1571.22 426.1 1570.35 426.1L1570.38 426.09ZM1548.03 417.4L1569.05 421.38L1579.16 398.05C1579.51 397.24 1580.22 396.7 1581.21 396.72C1586.78 396.77 1592.49 396.33 1598.16 395.42C1599.03 395.28 1599.91 395.68 1600.38 396.43L1613.87 418.02L1634.07 410.96L1631.16 385.67C1631.06 384.79 1631.49 383.93 1632.27 383.49C1637.26 380.67 1642 377.46 1646.33 373.94C1647.02 373.38 1647.98 373.29 1648.76 373.7L1671.21 385.64L1685.17 369.43L1670 348.98C1669.47 348.27 1669.42 347.31 1669.87 346.54C1672.74 341.66 1675.22 336.52 1677.24 331.25C1677.56 330.42 1678.34 329.86 1679.22 329.83L1704.67 328.95L1708.65 307.93L1685.32 297.82C1684.5 297.47 1683.98 296.66 1683.99 295.77C1684.04 290.19 1683.6 284.49 1682.69 278.82C1682.55 277.94 1682.95 277.07 1683.7 276.6L1705.3 263.11L1698.23 242.92L1672.94 245.83C1672.06 245.93 1671.2 245.49 1670.76 244.72C1667.94 239.72 1664.73 234.99 1661.21 230.66C1660.65 229.97 1660.56 229.01 1660.97 228.23L1672.91 205.79L1656.69 191.83L1636.23 207C1635.52 207.53 1634.55 207.58 1633.8 207.13C1628.93 204.27 1623.79 201.79 1618.5 199.76C1617.67 199.44 1617.12 198.66 1617.09 197.77L1616.2 172.32L1595.18 168.34L1585.07 191.67C1584.72 192.48 1583.92 193 1583.04 193C1582.79 193.03 1582.45 193 1582.15 193C1576.85 193 1571.44 193.44 1566.07 194.3C1565.2 194.45 1564.32 194.04 1563.85 193.29L1550.36 171.7L1530.16 178.76L1533.07 204.05C1533.17 204.93 1532.74 205.79 1531.96 206.23C1526.96 209.05 1522.23 212.26 1517.9 215.78C1517.21 216.34 1516.25 216.43 1515.47 216.02L1493.02 204.08L1479.06 220.29L1494.23 240.74C1494.76 241.45 1494.81 242.41 1494.36 243.18C1491.49 248.05 1489.02 253.19 1486.99 258.48C1486.67 259.31 1485.89 259.87 1485.01 259.9L1459.56 260.78L1455.58 281.8L1478.91 291.91C1479.73 292.26 1480.25 293.07 1480.24 293.96C1480.19 299.53 1480.63 305.23 1481.54 310.91C1481.68 311.79 1481.28 312.66 1480.53 313.13L1458.94 326.62L1466 346.81L1491.3 343.9C1492.17 343.8 1493.04 344.24 1493.48 345.01C1496.3 350.01 1499.52 354.74 1503.03 359.07C1503.59 359.76 1503.68 360.72 1503.26 361.5L1491.32 383.95L1507.54 397.91L1528 382.74C1528.71 382.21 1529.67 382.16 1530.43 382.61C1535.3 385.48 1540.45 387.96 1545.73 389.98C1546.56 390.3 1547.12 391.08 1547.15 391.97L1548.04 417.42L1548.03 417.4ZM1582.18 361.25C1554.74 361.25 1529.01 344.11 1519.45 316.78C1513.59 300.05 1514.61 282.03 1522.3 266.06C1529.99 250.09 1543.45 238.07 1560.19 232.22C1594.74 220.14 1632.68 238.42 1644.77 272.96C1650.63 289.69 1649.61 307.71 1641.92 323.68C1634.22 339.65 1620.77 351.67 1604.03 357.52C1596.81 360.05 1589.43 361.25 1582.18 361.25ZM1561.65 236.39C1546.03 241.85 1533.47 253.07 1526.28 267.98C1519.1 282.89 1518.15 299.7 1523.62 315.32C1534.9 347.57 1570.33 364.62 1602.57 353.35C1618.19 347.89 1630.75 336.67 1637.94 321.76C1645.12 306.85 1646.07 290.04 1640.6 274.42C1629.32 242.17 1593.89 225.12 1561.65 236.39Z" fill="white"/>
<path d="M383.861 1162.52C383.291 1162.52 382.731 1162.3 382.301 1161.87C381.441 1161.01 381.441 1159.61 382.301 1158.75L573.251 967.838C574.111 966.978 575.511 966.978 576.371 967.838C577.231 968.698 577.231 970.098 576.371 970.958L385.421 1161.87C384.991 1162.3 384.421 1162.52 383.861 1162.52Z" fill="white"/>
<path d="M429.072 1036.75C428.502 1036.75 427.942 1036.53 427.512 1036.1C426.652 1035.24 426.652 1033.84 427.512 1032.98L580.212 880.309C581.072 879.449 582.472 879.449 583.332 880.309C584.192 881.169 584.192 882.569 583.332 883.429L430.632 1036.1C430.202 1036.53 429.632 1036.75 429.072 1036.75Z" fill="white"/>
<path d="M216.712 562.301C216.322 562.301 215.932 562.201 215.572 561.981C214.532 561.351 214.192 559.991 214.832 558.951C287.562 439.111 393.282 343.981 520.572 283.831C573.562 258.791 629.292 240.311 686.222 228.911C687.422 228.671 688.582 229.441 688.822 230.641C689.062 231.841 688.282 233.001 687.092 233.241C630.522 244.571 575.132 262.941 522.462 287.831C395.962 347.611 290.892 442.151 218.612 561.251C218.192 561.931 217.472 562.311 216.722 562.311L216.712 562.301Z" fill="white"/>
<path d="M126.58 582.111C126.22 582.111 125.86 582.021 125.52 581.841C124.45 581.251 124.06 579.911 124.65 578.841C167.91 500.191 223.77 429.671 290.7 369.231C359.96 306.691 439.33 256.581 526.62 220.311C527.75 219.841 529.04 220.381 529.51 221.501C529.98 222.631 529.44 223.921 528.32 224.391C358.06 295.141 216.08 421.78 128.53 580.97C128.13 581.701 127.37 582.111 126.59 582.111H126.58Z" fill="white"/>
<path d="M609.139 210.2C609.039 210.2 608.939 210.2 608.839 210.18C607.989 210.06 607.289 209.47 607.029 208.66L596.739 176.03C596.519 175.34 596.659 174.59 597.099 174.01C597.539 173.44 598.249 173.13 598.959 173.16L629.429 174.82C630.219 174.86 630.919 175.32 631.279 176.03C631.639 176.73 631.589 177.57 631.159 178.24L610.979 209.21C610.569 209.84 609.869 210.21 609.129 210.21L609.139 210.2ZM601.909 177.74L609.839 202.88L625.379 179.02L601.909 177.74Z" fill="white"/>
<path d="M1258.82 73.3097C1247.89 73.3097 1238.56 64.9197 1237.6 53.8297C1237.11 48.1597 1238.86 42.6297 1242.52 38.2697C1246.18 33.9097 1251.33 31.2397 1257 30.7497C1268.68 29.7397 1279.06 38.4397 1280.08 50.1497C1280.57 55.8197 1278.82 61.3497 1275.16 65.7097C1271.5 70.0697 1266.35 72.7397 1260.68 73.2297C1260.06 73.2797 1259.44 73.3097 1258.83 73.3097H1258.82ZM1242 53.4497C1242.8 62.7397 1251.03 69.6297 1260.3 68.8297C1264.8 68.4397 1268.87 66.3197 1271.78 62.8697C1274.68 59.4097 1276.07 55.0297 1275.68 50.5397C1274.88 41.2497 1266.67 34.3697 1257.38 35.1597C1252.88 35.5497 1248.81 37.6697 1245.9 41.1197C1243 44.5797 1241.61 48.9597 1242 53.4497Z" fill="white"/>
<path d="M1433.46 82.2007C1433.46 82.2007 1433.39 82.2007 1433.35 82.2007L1421.64 81.6307C1420.42 81.5707 1419.48 80.5307 1419.54 79.3207C1419.6 78.1007 1420.65 77.1707 1421.85 77.2207L1433.56 77.7907C1434.78 77.8507 1435.72 78.8907 1435.66 80.1007C1435.6 81.2807 1434.62 82.2007 1433.46 82.2007Z" fill="white"/>
<path d="M1392.48 80.2014C1392.48 80.2014 1392.41 80.2014 1392.37 80.2014L1380.66 79.6314C1379.44 79.5714 1378.5 78.5314 1378.56 77.3214C1378.62 76.1014 1379.66 75.1914 1380.87 75.2214L1392.58 75.7914C1393.8 75.8514 1394.74 76.8914 1394.68 78.1014C1394.62 79.2814 1393.64 80.2014 1392.48 80.2014Z" fill="white"/>
<path d="M1407.99 66.5006C1407.99 66.5006 1407.9 66.5006 1407.85 66.5006C1406.63 66.4306 1405.7 65.3807 1405.78 64.1607L1406.48 52.6306C1406.56 51.4106 1407.62 50.4706 1408.82 50.5606C1410.04 50.6306 1410.97 51.6806 1410.89 52.9006L1410.19 64.4306C1410.12 65.6006 1409.15 66.5006 1407.99 66.5006Z" fill="white"/>
<path d="M1405.53 106.85C1405.53 106.85 1405.44 106.85 1405.39 106.85C1404.17 106.78 1403.24 105.73 1403.32 104.51L1404.02 92.9803C1404.1 91.7603 1405.16 90.8203 1406.36 90.9103C1407.58 90.9803 1408.51 92.0303 1408.43 93.2503L1407.73 104.78C1407.66 105.95 1406.69 106.85 1405.53 106.85Z" fill="white"/>
<path d="M347.28 1296.83C350.93 1326.57 342.26 1356.51 323.28 1379.7C304.3 1402.89 276.67 1417.3 246.8 1419.59C216.72 1421.9 187.03 1411.71 164.69 1391.43C142.36 1371.15 129.36 1342.57 128.77 1312.4L135.91 740.7C135.09 699.54 166.54 664.9 207.58 661.75C248.94 658.58 285.49 688.5 290.54 729.68L347.27 1296.82L347.28 1296.83Z" fill="white"/>
<path d="M238.511 1422.11C210.841 1422.11 183.791 1411.76 163.201 1393.06C140.521 1372.46 127.161 1343.08 126.551 1312.44L133.691 740.669C132.851 698.449 165.231 662.779 207.401 659.539C250.051 656.269 287.511 686.96 292.721 729.4L349.451 1296.57C353.151 1326.75 344.231 1357.55 324.971 1381.08C305.711 1404.62 277.271 1419.45 246.951 1421.77C244.131 1421.99 241.311 1422.09 238.501 1422.09L238.511 1422.11ZM213.621 663.729C211.671 663.729 209.721 663.8 207.751 663.96C167.911 667.02 137.321 700.709 138.121 740.669L130.981 1312.44C131.561 1341.8 144.401 1370.02 166.181 1389.81C187.971 1409.59 217.321 1419.65 246.631 1417.4C275.751 1415.17 303.071 1400.92 321.571 1378.31C340.071 1355.7 348.641 1326.11 345.081 1297.11C345.081 1297.09 345.081 1297.08 345.081 1297.06L288.351 729.919C283.671 691.829 251.421 663.749 213.631 663.749L213.621 663.729Z" fill="white"/>
<path d="M458.247 1392.29C436.997 1392.29 418.288 1378.28 412.318 1357.88L390.448 1283.17C386.198 1268.64 372.858 1258.65 357.717 1258.65H82.0175C62.2275 1258.65 46.1875 1274.69 46.1875 1294.48V1541.26H516.948V1428.12C516.948 1408.33 500.908 1392.29 481.117 1392.29H458.267H458.247Z" fill="white"/>
<path d="M516.939 1543.47H46.1787C44.9587 1543.47 43.9688 1542.48 43.9688 1541.26V1294.48C43.9688 1273.51 61.0388 1256.45 82.0088 1256.45H357.719C373.739 1256.45 388.069 1267.19 392.569 1282.56L414.439 1357.27C420.099 1376.59 438.109 1390.09 458.249 1390.09H481.099C502.079 1390.09 519.139 1407.15 519.139 1428.12V1541.26C519.139 1542.48 518.149 1543.47 516.929 1543.47H516.939ZM48.3887 1539.05H514.729V1428.11C514.729 1409.57 499.649 1394.49 481.099 1394.49H458.249C436.159 1394.49 416.409 1379.69 410.199 1358.5L388.329 1283.79C384.379 1270.29 371.789 1260.86 357.719 1260.86H82.0187C63.4787 1260.86 48.3887 1275.94 48.3887 1294.48V1539.05Z" fill="white"/>
<path d="M498.908 1392.29C477.658 1392.29 458.948 1378.28 452.978 1357.88L431.108 1283.17C426.858 1268.64 413.518 1258.65 398.378 1258.65H122.678C102.888 1258.65 86.8477 1274.69 86.8477 1294.48V1541.26H557.608V1428.12C557.608 1408.33 541.568 1392.29 521.778 1392.29H498.928H498.908Z" fill="#121212"/>
<path d="M557.599 1543.47H86.8389C85.6189 1543.47 84.6289 1542.48 84.6289 1541.26V1294.48C84.6289 1273.51 101.699 1256.45 122.669 1256.45H398.379C414.399 1256.45 428.729 1267.19 433.229 1282.56L455.099 1357.27C460.759 1376.59 478.769 1390.09 498.909 1390.09H521.759C542.739 1390.09 559.799 1407.15 559.799 1428.12V1541.26C559.799 1542.48 558.809 1543.47 557.589 1543.47H557.599ZM89.0489 1539.05H555.389V1428.11C555.389 1409.57 540.309 1394.49 521.759 1394.49H498.909C476.819 1394.49 457.069 1379.69 450.859 1358.5L428.989 1283.79C425.039 1270.29 412.449 1260.86 398.379 1260.86H122.679C104.139 1260.86 89.0489 1275.94 89.0489 1294.48V1539.05Z" fill="white"/>
<path d="M520.29 1452.08C531.043 1452.08 539.76 1443.36 539.76 1432.61C539.76 1421.86 531.043 1413.14 520.29 1413.14C509.537 1413.14 500.82 1421.86 500.82 1432.61C500.82 1443.36 509.537 1452.08 520.29 1452.08Z" fill="#121212"/>
<path d="M605.1 1520.88H0V1547.86H605.1V1520.88Z" fill="white"/>
<path d="M1789.12 1382.44L707.812 1232.06C680.662 1228.6 660.322 1205.49 660.322 1178.12L645.492 423.89C645.492 423.89 670.142 406.12 684.112 399.31C691.222 395.84 699.402 394.33 707.922 395.41L1786.02 532.9C1813.17 536.36 1833.51 559.47 1833.51 586.84V1327.63C1833.51 1340.88 1827.45 1352.57 1818.08 1360.27C1809.45 1367.36 1789.13 1382.43 1789.13 1382.43L1789.12 1382.44Z" fill="white"/>
<path d="M1756.12 1392.46L678.021 1254.97C650.871 1251.51 630.531 1228.4 630.531 1201.03V460.25C630.531 434.79 652.871 415.12 678.131 418.34L1756.23 555.83C1783.38 559.29 1803.72 582.4 1803.72 609.77V1350.56C1803.72 1376.02 1781.38 1395.69 1756.12 1392.47V1392.46Z" fill="#121212"/>
<path d="M1733.21 1361.93L703.79 1230.65C684.05 1228.13 669.25 1211.33 669.25 1191.43V476.86C669.25 459.86 684.17 446.72 701.04 448.87L1730.46 580.15C1750.2 582.67 1765 599.47 1765 619.37V1333.93C1765 1350.93 1750.08 1364.07 1733.21 1361.92V1361.93Z" fill="#121212"/>
<path d="M1736.77 1364.36C1735.49 1364.36 1734.21 1364.28 1732.92 1364.12L703.501 1232.84C682.711 1230.19 667.031 1212.38 667.031 1191.43V476.86C667.031 468.12 670.791 459.8 677.351 454.03C683.911 448.25 692.641 445.58 701.311 446.68L1730.73 577.96C1751.52 580.61 1767.2 598.41 1767.2 619.37V1333.93C1767.2 1342.67 1763.44 1350.99 1756.88 1356.77C1751.29 1361.69 1744.13 1364.36 1736.77 1364.36ZM1733.48 1359.73C1740.88 1360.67 1748.35 1358.39 1753.96 1353.45C1759.56 1348.51 1762.78 1341.4 1762.78 1333.93V619.37C1762.78 600.63 1748.76 584.71 1730.17 582.34L700.751 451.06C693.341 450.12 685.881 452.41 680.271 457.34C674.671 462.28 671.451 469.39 671.451 476.86V1191.42C671.451 1210.16 685.471 1226.08 704.061 1228.45L1733.48 1359.73Z" fill="white"/>
<path d="M1761.46 1395.01C1759.59 1395.01 1757.71 1394.89 1755.84 1394.65L677.752 1257.16C649.572 1253.57 628.332 1229.44 628.332 1201.03V897.441C628.332 896.221 629.322 895.231 630.542 895.231C631.762 895.231 632.752 896.221 632.752 897.441V1201.03C632.752 1227.22 652.342 1249.46 678.322 1252.78L1756.42 1390.27C1767.82 1391.73 1779.32 1388.2 1787.95 1380.6C1796.58 1373 1801.53 1362.05 1801.53 1350.55V609.761C1801.53 583.571 1781.94 561.331 1755.97 558.021L1200.33 487.161C1199.12 487.001 1198.27 485.901 1198.42 484.691C1198.58 483.481 1199.69 482.631 1200.89 482.781L1756.53 553.641C1784.7 557.231 1805.95 581.361 1805.95 609.771V1350.56C1805.95 1363.33 1800.46 1375.49 1790.87 1383.93C1782.71 1391.12 1772.24 1395.02 1761.49 1395.02L1761.46 1395.01Z" fill="white"/>
<path d="M630.53 651.231C629.31 651.231 628.32 650.241 628.32 649.021V460.241C628.32 447.471 633.82 435.311 643.4 426.871C652.98 418.431 665.73 414.521 678.41 416.131L932.29 448.511C933.5 448.671 934.35 449.771 934.2 450.981C934.05 452.191 932.95 453.051 931.73 452.891L677.85 420.511C666.44 419.051 654.95 422.581 646.32 430.181C637.69 437.781 632.74 448.731 632.74 460.231V649.011C632.74 650.231 631.75 651.221 630.53 651.221V651.231Z" fill="white"/>
<path d="M1333.24 1895.02L224.462 1752.03C215.782 1750.92 210.892 1743.65 211.002 1736.39C211.082 1731.38 211.482 1696.08 211.482 1696.08L797.752 1360.92C827.122 1344.14 865.132 1337.66 898.682 1341.96L1993.46 1483.19C2000.05 1484.04 2005.7 1488.31 2008.31 1494.43L2010.07 1498.55C2010.07 1498.55 2009.13 1527.98 2009.51 1534.86C2009.81 1540.24 2007.39 1545.79 2001.76 1549L1430.21 1875.79C1400.84 1892.57 1366.8 1899.32 1333.24 1895.02Z" fill="white"/>
<path d="M1333.24 1855.74L228.435 1713.02C213.765 1711.14 209.915 1691.69 222.755 1684.36L791.235 1359.68C820.605 1342.9 854.645 1336.15 888.205 1340.45L1993.01 1483.17C2007.68 1485.05 2011.53 1504.5 1998.69 1511.83L1430.21 1836.51C1400.84 1853.29 1366.8 1860.04 1333.24 1855.74Z" fill="#121212"/>
<path d="M1352.77 1859.19C1346.16 1859.19 1339.54 1858.77 1332.96 1857.93L228.144 1715.21C220.504 1714.23 214.604 1708.72 213.104 1701.16C211.604 1693.61 214.954 1686.26 221.644 1682.44L790.134 1357.76C819.734 1340.85 854.664 1333.92 888.474 1338.26L1993.29 1480.98C2000.93 1481.96 2006.83 1487.47 2008.33 1495.02C2009.83 1502.57 2006.48 1509.92 1999.79 1513.74L1431.3 1838.42C1407.46 1852.04 1380.15 1859.18 1352.77 1859.18V1859.19ZM1333.52 1853.55C1366.4 1857.76 1400.34 1851.02 1429.11 1834.59L1997.6 1509.91C2003.68 1506.44 2004.89 1500.39 2004 1495.88C2003.11 1491.38 1999.68 1486.25 1992.73 1485.36L887.914 1342.64C855.044 1338.43 821.094 1345.16 792.324 1361.6L223.844 1686.28C217.764 1689.75 216.554 1695.81 217.444 1700.31C218.334 1704.82 221.764 1709.94 228.714 1710.84L1333.53 1853.56L1333.52 1853.55Z" fill="white"/>
<path d="M1549.55 1675.51L591.531 1550.85C578.281 1549.15 574.801 1531.59 586.401 1524.96L811.661 1397.61C838.191 1382.46 868.931 1376.36 899.241 1380.24L1857.26 1504.9C1870.51 1506.6 1873.99 1524.16 1862.39 1530.79L1637.13 1658.14C1610.6 1673.29 1579.85 1679.39 1549.55 1675.51Z" fill="#121212"/>
<path d="M1567.19 1678.84C1561.21 1678.84 1555.22 1678.46 1549.27 1677.7L591.25 1553.04C584.26 1552.14 578.86 1547.1 577.49 1540.18C576.12 1533.27 579.19 1526.54 585.31 1523.04L810.58 1395.68C837.35 1380.39 868.94 1374.12 899.53 1378.04L1857.55 1502.7C1864.54 1503.6 1869.94 1508.64 1871.31 1515.56C1872.68 1522.48 1869.61 1529.2 1863.49 1532.7L1638.22 1660.06C1616.66 1672.37 1591.97 1678.84 1567.19 1678.84ZM1549.84 1673.32C1579.48 1677.11 1610.09 1671.04 1636.04 1656.22L1861.31 1528.86C1866.7 1525.78 1867.77 1520.42 1866.98 1516.42C1866.19 1512.42 1863.15 1507.87 1856.98 1507.09L898.96 1382.43C869.32 1378.64 838.71 1384.71 812.76 1399.53L587.49 1526.89C582.1 1529.97 581.03 1535.33 581.82 1539.33C582.61 1543.33 585.65 1547.88 591.82 1548.66L1549.84 1673.32Z" fill="white"/>
<path d="M1631.58 680.331C1631.5 680.331 1631.42 680.331 1631.33 680.321L1187.23 630.211C1186.11 630.081 1185.27 629.131 1185.27 628.011L1185.35 604.861C1185.35 604.231 1185.62 603.641 1186.09 603.221C1186.56 602.801 1187.17 602.601 1187.81 602.681L1631.91 652.791C1633.03 652.921 1633.87 653.861 1633.87 654.991L1633.79 678.141C1633.79 678.771 1633.52 679.361 1633.05 679.781C1632.64 680.141 1632.12 680.341 1631.58 680.341V680.331ZM1189.69 626.041L1629.38 675.651L1629.45 656.951L1189.76 607.341L1189.69 626.041Z" fill="white"/>
<path d="M1732.21 729.861C1732.13 729.861 1732.05 729.861 1731.96 729.851L1279.48 678.801C1278.36 678.671 1277.52 677.721 1277.52 676.601L1277.6 653.451C1277.6 652.821 1277.87 652.231 1278.34 651.811C1278.81 651.391 1279.42 651.191 1280.06 651.271L1732.54 702.321C1733.66 702.451 1734.5 703.391 1734.5 704.521L1734.41 727.671C1734.41 728.301 1734.14 728.891 1733.67 729.311C1733.26 729.671 1732.74 729.871 1732.2 729.871L1732.21 729.861ZM1281.94 674.631L1730.01 725.181L1730.08 706.481L1282.01 655.931L1281.94 674.631Z" fill="white"/>
<path d="M1677.51 761.872C1677.43 761.872 1677.35 761.872 1677.26 761.862L1443.38 735.472C1442.26 735.342 1441.42 734.392 1441.42 733.272L1441.5 710.122C1441.5 709.492 1441.77 708.902 1442.24 708.482C1442.71 708.062 1443.32 707.872 1443.96 707.942L1677.84 734.332C1678.96 734.462 1679.8 735.412 1679.8 736.532L1679.72 759.682C1679.72 760.312 1679.45 760.902 1678.98 761.322C1678.57 761.682 1678.05 761.882 1677.51 761.882V761.872ZM1445.85 731.302L1675.31 757.192L1675.38 738.492L1445.92 712.602L1445.85 731.302Z" fill="white"/>
<path d="M1630.46 985.631C1630.38 985.631 1630.3 985.631 1630.21 985.621L1186.11 935.511C1184.99 935.381 1184.15 934.441 1184.15 933.311L1184.23 910.161C1184.23 909.531 1184.5 908.941 1184.97 908.521C1185.44 908.101 1186.05 907.911 1186.69 907.981L1630.79 958.091C1631.91 958.221 1632.75 959.161 1632.75 960.291L1632.67 983.441C1632.67 984.071 1632.4 984.671 1631.93 985.081C1631.52 985.441 1631 985.641 1630.46 985.641V985.631ZM1188.57 931.341L1628.26 980.951L1628.33 962.251L1188.64 912.641L1188.57 931.341Z" fill="white"/>
<path d="M1731.09 1035.17C1731.01 1035.17 1730.93 1035.17 1730.84 1035.16L1278.36 984.112C1277.24 983.982 1276.4 983.032 1276.4 981.912L1276.48 958.762C1276.48 958.132 1276.75 957.542 1277.22 957.122C1277.69 956.702 1278.3 956.502 1278.94 956.582L1731.42 1007.63C1732.54 1007.76 1733.38 1008.7 1733.38 1009.83L1733.29 1032.98C1733.29 1033.61 1733.02 1034.2 1732.55 1034.62C1732.14 1034.98 1731.62 1035.18 1731.08 1035.18L1731.09 1035.17ZM1280.82 979.942L1728.89 1030.49L1728.96 1011.79L1280.89 961.242L1280.82 979.942Z" fill="white"/>
<path d="M1730.95 1073.33C1730.87 1073.33 1730.79 1073.33 1730.7 1073.32L1442.26 1040.78C1441.14 1040.65 1440.3 1039.7 1440.3 1038.58L1440.39 1015.43C1440.39 1014.8 1440.66 1014.21 1441.13 1013.79C1441.6 1013.37 1442.21 1013.18 1442.85 1013.25L1731.29 1045.79C1732.41 1045.92 1733.25 1046.87 1733.25 1047.99L1733.16 1071.14C1733.16 1071.77 1732.89 1072.36 1732.42 1072.78C1732.01 1073.14 1731.49 1073.34 1730.95 1073.34V1073.33ZM1444.72 1036.61L1728.75 1068.65L1728.82 1049.94L1444.79 1017.9L1444.72 1036.6V1036.61Z" fill="white"/>
<path d="M1545.78 1089.03C1545.7 1089.03 1545.62 1089.03 1545.53 1089.02L1276.41 1058.66C1275.29 1058.53 1274.45 1057.59 1274.45 1056.46L1274.53 1033.31C1274.53 1032.68 1274.8 1032.09 1275.27 1031.67C1275.74 1031.25 1276.36 1031.05 1276.99 1031.13L1546.11 1061.49C1547.23 1061.62 1548.07 1062.57 1548.07 1063.69L1547.99 1086.84C1547.99 1087.47 1547.72 1088.06 1547.25 1088.48C1546.84 1088.84 1546.32 1089.04 1545.78 1089.04V1089.03ZM1278.87 1054.49L1543.58 1084.35L1543.65 1065.65L1278.94 1035.79L1278.87 1054.49Z" fill="white"/>
<path d="M1631.16 794.822C1631.08 794.822 1631 794.822 1630.91 794.812L1186.81 744.702C1185.69 744.572 1184.85 743.622 1184.85 742.502L1184.94 719.352C1184.94 718.722 1185.21 718.132 1185.68 717.712C1186.15 717.292 1186.76 717.092 1187.4 717.172L1631.5 767.282C1632.62 767.412 1633.46 768.362 1633.46 769.482L1633.37 792.632C1633.37 793.262 1633.1 793.852 1632.63 794.272C1632.22 794.632 1631.7 794.832 1631.16 794.832V794.822ZM1189.27 740.532L1628.96 790.142L1629.03 771.442L1189.34 721.832L1189.27 740.532Z" fill="white"/>
<path d="M1731.79 844.352C1731.71 844.352 1731.63 844.352 1731.54 844.342L1279.06 793.292C1277.94 793.162 1277.1 792.212 1277.1 791.092L1277.19 767.942C1277.19 767.312 1277.46 766.722 1277.93 766.302C1278.4 765.882 1279.01 765.692 1279.65 765.762L1732.13 816.812C1733.25 816.942 1734.09 817.882 1734.09 819.012L1734.01 842.162C1734.01 842.792 1733.74 843.382 1733.27 843.802C1732.86 844.162 1732.34 844.362 1731.8 844.362L1731.79 844.352ZM1281.52 789.122L1729.59 839.672L1729.66 820.972L1281.59 770.422L1281.52 789.122Z" fill="white"/>
<path d="M1622.39 908.371C1622.31 908.371 1622.23 908.371 1622.14 908.361L1442.82 888.131C1441.7 888.001 1440.86 887.061 1440.86 885.931L1440.94 862.781C1440.94 862.151 1441.21 861.561 1441.68 861.141C1442.15 860.721 1442.76 860.521 1443.4 860.601L1622.72 880.831C1623.84 880.961 1624.68 881.901 1624.68 883.031L1624.6 906.181C1624.6 906.811 1624.33 907.401 1623.86 907.821C1623.45 908.181 1622.93 908.381 1622.39 908.381V908.371ZM1445.29 883.961L1620.19 903.691L1620.26 884.981L1445.36 865.251L1445.29 883.951V883.961Z" fill="white"/>
<path d="M1675.86 952.552C1675.78 952.552 1675.7 952.552 1675.61 952.542L1496.29 932.312C1495.17 932.182 1494.33 931.232 1494.33 930.112L1494.41 906.962C1494.41 906.332 1494.68 905.742 1495.15 905.322C1495.62 904.902 1496.23 904.712 1496.87 904.782L1676.19 925.012C1677.31 925.142 1678.15 926.092 1678.15 927.212L1678.07 950.362C1678.07 950.992 1677.8 951.582 1677.33 952.002C1676.92 952.362 1676.4 952.562 1675.86 952.562V952.552ZM1498.76 928.142L1673.66 947.872L1673.73 929.172L1498.83 909.442L1498.76 928.142Z" fill="white"/>
<path d="M1731.65 882.511C1731.57 882.511 1731.49 882.511 1731.4 882.501L1442.96 849.961C1441.84 849.831 1441 848.881 1441 847.761L1441.08 824.611C1441.08 823.981 1441.35 823.391 1441.82 822.971C1442.29 822.551 1442.9 822.351 1443.54 822.431L1731.98 854.971C1733.1 855.101 1733.94 856.051 1733.94 857.171L1733.86 880.321C1733.86 880.951 1733.59 881.541 1733.12 881.961C1732.71 882.321 1732.19 882.521 1731.65 882.521V882.511ZM1445.42 845.791L1729.45 877.831L1729.52 859.131L1445.49 827.091L1445.42 845.791Z" fill="white"/>
<path d="M1629.9 1138.29C1629.82 1138.29 1629.74 1138.29 1629.65 1138.28L1185.55 1088.17C1184.43 1088.04 1183.59 1087.09 1183.59 1085.97L1183.68 1062.82C1183.68 1062.19 1183.95 1061.6 1184.42 1061.18C1184.89 1060.76 1185.5 1060.57 1186.14 1060.64L1630.24 1110.75C1631.36 1110.88 1632.2 1111.83 1632.2 1112.95L1632.11 1136.1C1632.11 1136.73 1631.84 1137.32 1631.37 1137.74C1630.96 1138.1 1630.44 1138.3 1629.9 1138.3V1138.29ZM1188.01 1084L1627.7 1133.61L1627.77 1114.91L1188.08 1065.3L1188.01 1084.01V1084Z" fill="white"/>
<path d="M1715.98 1186.18C1715.9 1186.18 1715.82 1186.18 1715.73 1186.17L1277.8 1136.76C1276.68 1136.63 1275.84 1135.68 1275.84 1134.56L1275.93 1111.41C1275.93 1110.78 1276.2 1110.19 1276.67 1109.77C1277.14 1109.35 1277.75 1109.15 1278.39 1109.23L1716.32 1158.64C1717.44 1158.77 1718.28 1159.72 1718.28 1160.84L1718.2 1183.99C1718.2 1184.62 1717.93 1185.22 1717.46 1185.63C1717.05 1185.99 1716.53 1186.19 1715.99 1186.19L1715.98 1186.18ZM1280.26 1132.59L1713.78 1181.5L1713.85 1162.8L1280.33 1113.89L1280.26 1132.59Z" fill="white"/>
<path d="M1730.39 1225.98C1730.31 1225.98 1730.23 1225.98 1730.14 1225.97L1441.7 1193.43C1440.58 1193.3 1439.74 1192.35 1439.74 1191.23L1439.82 1168.08C1439.82 1167.45 1440.09 1166.86 1440.56 1166.44C1441.03 1166.02 1441.64 1165.83 1442.28 1165.9L1730.72 1198.44C1731.84 1198.57 1732.68 1199.52 1732.68 1200.64L1732.6 1223.79C1732.6 1224.42 1732.33 1225.01 1731.86 1225.43C1731.45 1225.79 1730.93 1225.99 1730.39 1225.99V1225.98ZM1444.16 1189.26L1728.19 1221.3L1728.26 1202.6L1444.23 1170.56L1444.16 1189.26Z" fill="white"/>
<path d="M1629.48 1252.78C1629.4 1252.78 1629.32 1252.78 1629.23 1252.77L1185.12 1202.66C1184 1202.53 1183.16 1201.58 1183.16 1200.46L1183.25 1177.31C1183.25 1176.68 1183.52 1176.09 1183.99 1175.67C1184.46 1175.25 1185.08 1175.06 1185.71 1175.13L1629.81 1225.24C1630.93 1225.37 1631.77 1226.32 1631.77 1227.44L1631.69 1250.59C1631.69 1251.22 1631.42 1251.81 1630.95 1252.23C1630.54 1252.59 1630.02 1252.79 1629.48 1252.79V1252.78ZM1187.59 1198.49L1627.28 1248.1L1627.35 1229.4L1187.66 1179.79L1187.59 1198.49Z" fill="white"/>
<path d="M1730.11 1302.31C1730.03 1302.31 1729.95 1302.31 1729.86 1302.3L1277.38 1251.25C1276.26 1251.12 1275.42 1250.17 1275.42 1249.05L1275.5 1225.9C1275.5 1225.27 1275.77 1224.68 1276.24 1224.26C1276.71 1223.84 1277.32 1223.65 1277.96 1223.72L1730.44 1274.77C1731.56 1274.9 1732.4 1275.85 1732.4 1276.97L1732.32 1300.12C1732.32 1300.75 1732.05 1301.34 1731.58 1301.76C1731.17 1302.12 1730.65 1302.32 1730.11 1302.32V1302.31ZM1279.84 1247.08L1727.91 1297.63L1727.98 1278.93L1279.91 1228.38L1279.84 1247.08Z" fill="white"/>
<path d="M1149.53 892.739C1149.45 892.739 1149.37 892.739 1149.28 892.729L1106.02 887.849C1104.9 887.719 1104.06 886.769 1104.06 885.649L1104.14 863.409C1104.14 862.779 1104.41 862.189 1104.88 861.769C1105.35 861.349 1105.96 861.159 1106.6 861.229L1149.86 866.109C1150.98 866.239 1151.82 867.179 1151.82 868.309L1151.74 890.549C1151.74 891.179 1151.47 891.769 1151 892.189C1150.59 892.549 1150.07 892.749 1149.53 892.749V892.739ZM1108.48 883.679L1147.33 888.059L1147.4 870.259L1108.55 865.879L1108.48 883.679Z" fill="white"/>
<path d="M1152.12 626.239C1152.04 626.239 1151.96 626.239 1151.87 626.229L1106.78 621.139C1105.66 621.009 1104.82 620.059 1104.82 618.939L1104.91 595.789C1104.91 595.159 1105.18 594.569 1105.65 594.149C1106.12 593.729 1106.73 593.529 1107.37 593.609L1152.46 598.699C1153.58 598.829 1154.42 599.769 1154.42 600.899L1154.34 624.049C1154.34 624.679 1154.07 625.269 1153.6 625.689C1153.19 626.049 1152.67 626.249 1152.13 626.249L1152.12 626.239ZM1109.24 616.969L1149.92 621.559L1149.99 602.859L1109.32 598.269L1109.25 616.969H1109.24Z" fill="white"/>
<path d="M1152.25 591.16C1152.17 591.16 1152.09 591.16 1152 591.15L1106.91 586.06C1105.79 585.93 1104.95 584.99 1104.95 583.86L1105.03 560.71C1105.03 560.08 1105.3 559.49 1105.77 559.07C1106.24 558.65 1106.85 558.46 1107.49 558.53L1152.58 563.62C1153.7 563.75 1154.54 564.69 1154.54 565.82L1154.46 588.97C1154.46 589.6 1154.19 590.19 1153.72 590.61C1153.31 590.97 1152.79 591.17 1152.25 591.17V591.16ZM1109.37 581.89L1150.05 586.48L1150.12 567.78L1109.44 563.19L1109.37 581.89Z" fill="white"/>
<path d="M1151.64 664.36C1151.56 664.36 1151.48 664.36 1151.39 664.35L1106.65 659.3C1105.53 659.17 1104.69 658.22 1104.69 657.1L1104.77 633.95C1104.77 633.32 1105.04 632.73 1105.51 632.31C1105.98 631.89 1106.59 631.7 1107.23 631.77L1151.97 636.82C1153.09 636.95 1153.93 637.9 1153.93 639.02L1153.85 662.17C1153.85 662.8 1153.58 663.39 1153.11 663.81C1152.7 664.17 1152.18 664.37 1151.64 664.37V664.36ZM1109.11 655.13L1149.44 659.68L1149.51 640.98L1109.18 636.43L1109.11 655.13Z" fill="white"/>
<path d="M1149.98 702.349C1149.9 702.349 1149.82 702.349 1149.73 702.339L1107.26 697.549C1106.14 697.419 1105.3 696.469 1105.3 695.349L1105.39 672.199C1105.39 671.569 1105.66 670.979 1106.13 670.559C1106.6 670.139 1107.21 669.939 1107.85 670.019L1150.32 674.809C1151.44 674.939 1152.28 675.889 1152.28 677.009L1152.2 700.159C1152.2 700.789 1151.93 701.379 1151.46 701.799C1151.05 702.159 1150.53 702.359 1149.99 702.359L1149.98 702.349ZM1109.72 693.379L1147.78 697.669L1147.85 678.959L1109.8 674.669L1109.73 693.369L1109.72 693.379Z" fill="white"/>
<path d="M1150.07 740.54C1149.99 740.54 1149.91 740.54 1149.82 740.53L1106.59 735.65C1105.47 735.52 1104.63 734.58 1104.63 733.45L1104.71 710.3C1104.71 709.67 1104.98 709.08 1105.45 708.66C1105.92 708.24 1106.53 708.05 1107.17 708.12L1150.4 713C1151.52 713.13 1152.36 714.08 1152.36 715.2L1152.28 738.35C1152.28 738.98 1152.01 739.57 1151.54 739.99C1151.13 740.35 1150.61 740.55 1150.07 740.55V740.54ZM1109.06 731.48L1147.87 735.86L1147.94 717.16L1109.13 712.78L1109.06 731.48Z" fill="white"/>
<path d="M1149.7 778.679C1149.62 778.679 1149.54 778.679 1149.45 778.669L1106.22 773.789C1105.1 773.659 1104.26 772.71 1104.26 771.59L1104.34 748.44C1104.34 747.81 1104.61 747.219 1105.08 746.799C1105.55 746.379 1106.16 746.18 1106.8 746.26L1150.03 751.14C1151.15 751.27 1151.99 752.21 1151.99 753.34L1151.91 776.489C1151.91 777.119 1151.64 777.72 1151.17 778.13C1150.76 778.49 1150.24 778.69 1149.7 778.69V778.679ZM1108.69 769.619L1147.5 774L1147.57 755.289L1108.76 750.909L1108.69 769.609V769.619Z" fill="white"/>
<path d="M1150.51 853.599C1150.43 853.599 1150.35 853.599 1150.26 853.589L1107.42 848.759C1106.3 848.629 1105.46 847.679 1105.46 846.559L1105.54 823.409C1105.54 822.779 1105.81 822.189 1106.28 821.769C1106.75 821.349 1107.36 821.159 1108 821.229L1150.84 826.059C1151.96 826.189 1152.8 827.139 1152.8 828.259L1152.71 851.409C1152.71 852.039 1152.44 852.629 1151.97 853.049C1151.56 853.409 1151.04 853.609 1150.5 853.609L1150.51 853.599ZM1109.89 844.589L1148.31 848.929L1148.38 830.229L1109.95 825.889L1109.88 844.589H1109.89Z" fill="white"/>
<path d="M1149.57 815.31C1149.49 815.31 1149.41 815.31 1149.32 815.3L1108.37 810.68C1107.25 810.55 1106.41 809.6 1106.41 808.48L1106.49 785.33C1106.49 784.7 1106.76 784.11 1107.23 783.69C1107.7 783.27 1108.31 783.07 1108.95 783.15L1149.9 787.77C1151.02 787.9 1151.86 788.85 1151.86 789.97L1151.77 813.12C1151.77 813.75 1151.5 814.34 1151.03 814.76C1150.62 815.12 1150.1 815.32 1149.56 815.32L1149.57 815.31ZM1110.84 806.51L1147.37 810.63L1147.44 791.93L1110.9 787.81L1110.83 806.51H1110.84Z" fill="white"/>
<path d="M1149.1 1008.67C1149.02 1008.67 1148.94 1008.67 1148.85 1008.66L1105.59 1003.78C1104.47 1003.65 1103.63 1002.71 1103.63 1001.58L1103.71 979.341C1103.71 978.711 1103.98 978.121 1104.45 977.701C1104.92 977.281 1105.53 977.091 1106.17 977.161L1149.43 982.041C1150.55 982.171 1151.39 983.121 1151.39 984.241L1151.31 1006.48C1151.31 1007.11 1151.04 1007.7 1150.57 1008.12C1150.16 1008.48 1149.64 1008.68 1149.1 1008.68V1008.67ZM1108.05 999.611L1146.9 1003.99L1146.97 986.191L1108.12 981.811L1108.05 999.601V999.611Z" fill="white"/>
<path d="M1150.08 969.519C1150 969.519 1149.92 969.519 1149.83 969.509L1106.99 964.679C1105.87 964.549 1105.03 963.599 1105.03 962.479L1105.11 939.329C1105.11 938.699 1105.38 938.109 1105.85 937.689C1106.32 937.269 1106.94 937.079 1107.57 937.149L1150.41 941.979C1151.53 942.109 1152.37 943.049 1152.37 944.179L1152.28 967.329C1152.28 967.959 1152.01 968.549 1151.54 968.969C1151.13 969.329 1150.61 969.529 1150.07 969.529L1150.08 969.519ZM1109.46 960.509L1147.88 964.839L1147.95 946.139L1109.52 941.809L1109.45 960.509H1109.46Z" fill="white"/>
<path d="M1149.14 931.24C1149.06 931.24 1148.98 931.24 1148.89 931.23L1107.94 926.61C1106.82 926.48 1105.98 925.54 1105.98 924.41L1106.07 901.26C1106.07 900.63 1106.34 900.04 1106.81 899.62C1107.28 899.2 1107.89 899 1108.53 899.08L1149.48 903.7C1150.6 903.83 1151.44 904.78 1151.44 905.9L1151.35 929.05C1151.35 929.68 1151.08 930.27 1150.61 930.69C1150.2 931.05 1149.68 931.25 1149.14 931.25V931.24ZM1110.4 922.44L1146.94 926.56L1147.01 907.86L1110.47 903.74L1110.4 922.44Z" fill="white"/>
<path d="M1148.27 1234.41C1148.19 1234.41 1148.11 1234.41 1148.02 1234.4L1104.76 1229.52C1103.64 1229.39 1102.8 1228.44 1102.8 1227.32L1102.88 1205.08C1102.88 1204.45 1103.15 1203.86 1103.62 1203.44C1104.09 1203.02 1104.71 1202.82 1105.34 1202.9L1148.6 1207.78C1149.72 1207.91 1150.56 1208.86 1150.56 1209.98L1150.48 1232.22C1150.48 1232.85 1150.21 1233.44 1149.74 1233.86C1149.33 1234.22 1148.81 1234.42 1148.27 1234.42V1234.41ZM1107.22 1225.35L1146.07 1229.73L1146.14 1211.93L1107.29 1207.55L1107.22 1225.35Z" fill="white"/>
<path d="M1148.73 1044.03C1148.65 1044.03 1148.57 1044.03 1148.48 1044.02L1106.01 1039.23C1104.89 1039.1 1104.05 1038.16 1104.05 1037.03L1104.14 1013.88C1104.14 1013.25 1104.41 1012.66 1104.88 1012.24C1105.35 1011.82 1105.96 1011.62 1106.6 1011.7L1149.07 1016.49C1150.19 1016.62 1151.03 1017.56 1151.03 1018.69L1150.95 1041.84C1150.95 1042.47 1150.68 1043.06 1150.21 1043.48C1149.8 1043.84 1149.28 1044.04 1148.74 1044.04L1148.73 1044.03ZM1108.48 1035.06L1146.54 1039.35L1146.61 1020.64L1108.56 1016.35L1108.49 1035.05L1108.48 1035.06Z" fill="white"/>
<path d="M1148.82 1082.22C1148.74 1082.22 1148.66 1082.22 1148.57 1082.21L1105.34 1077.33C1104.22 1077.2 1103.38 1076.25 1103.38 1075.13L1103.46 1051.98C1103.46 1051.35 1103.73 1050.76 1104.2 1050.34C1104.67 1049.92 1105.28 1049.73 1105.92 1049.8L1149.15 1054.68C1150.27 1054.81 1151.11 1055.75 1151.11 1056.88L1151.03 1080.03C1151.03 1080.66 1150.76 1081.25 1150.29 1081.67C1149.88 1082.03 1149.36 1082.23 1148.82 1082.23V1082.22ZM1107.81 1073.16L1146.62 1077.54L1146.69 1058.84L1107.88 1054.46L1107.81 1073.16Z" fill="white"/>
<path d="M1148.45 1120.35C1148.37 1120.35 1148.29 1120.35 1148.2 1120.34L1104.97 1115.46C1103.85 1115.33 1103.01 1114.39 1103.01 1113.26L1103.09 1090.11C1103.09 1089.48 1103.36 1088.89 1103.83 1088.47C1104.3 1088.05 1104.91 1087.86 1105.55 1087.93L1148.78 1092.81C1149.9 1092.94 1150.74 1093.89 1150.74 1095.01L1150.66 1118.16C1150.66 1118.79 1150.39 1119.38 1149.92 1119.8C1149.51 1120.16 1148.99 1120.36 1148.45 1120.36V1120.35ZM1107.44 1111.29L1146.25 1115.67L1146.32 1096.97L1107.51 1092.59L1107.44 1111.29Z" fill="white"/>
<path d="M1149.26 1195.27C1149.18 1195.27 1149.1 1195.27 1149.01 1195.26L1106.17 1190.43C1105.05 1190.3 1104.21 1189.35 1104.21 1188.23L1104.29 1165.08C1104.29 1164.45 1104.56 1163.86 1105.03 1163.44C1105.5 1163.02 1106.11 1162.82 1106.75 1162.9L1149.59 1167.73C1150.71 1167.86 1151.55 1168.81 1151.55 1169.93L1151.46 1193.08C1151.46 1193.71 1151.19 1194.3 1150.72 1194.72C1150.31 1195.08 1149.79 1195.28 1149.25 1195.28L1149.26 1195.27ZM1108.64 1186.26L1147.06 1190.6L1147.13 1171.89L1108.7 1167.56L1108.63 1186.26H1108.64Z" fill="white"/>
<path d="M1148.31 1156.98C1148.23 1156.98 1148.15 1156.98 1148.06 1156.97L1107.11 1152.35C1105.99 1152.22 1105.15 1151.27 1105.15 1150.15L1105.24 1127C1105.24 1126.37 1105.51 1125.78 1105.98 1125.36C1106.45 1124.94 1107.06 1124.74 1107.7 1124.82L1148.65 1129.44C1149.77 1129.57 1150.61 1130.52 1150.61 1131.64L1150.52 1154.79C1150.52 1155.42 1150.25 1156.01 1149.78 1156.43C1149.37 1156.79 1148.85 1156.99 1148.31 1156.99V1156.98ZM1109.57 1148.18L1146.11 1152.3L1146.18 1133.6L1109.64 1129.48L1109.57 1148.18Z" fill="white"/>
<path d="M917.771 559.631C917.691 559.631 917.611 559.631 917.521 559.621L703.741 535.501C702.621 535.371 701.781 534.431 701.781 533.301L701.861 511.061C701.861 510.431 702.131 509.841 702.601 509.421C703.071 509.001 703.691 508.801 704.321 508.881L918.101 533.001C919.221 533.131 920.061 534.071 920.061 535.201L919.981 557.441C919.981 558.071 919.711 558.661 919.241 559.081C918.831 559.441 918.311 559.641 917.771 559.641V559.631ZM706.211 531.331L915.571 554.951L915.641 537.151L706.281 513.531L706.221 531.331H706.211Z" fill="white"/>
<path d="M960.191 603.052C960.111 603.052 960.031 603.051 959.941 603.041L734.601 577.622C733.481 577.492 732.641 576.551 732.641 575.421L732.721 552.272C732.721 551.642 732.991 551.052 733.461 550.632C733.931 550.212 734.551 550.012 735.181 550.092L960.521 575.512C961.641 575.642 962.481 576.592 962.481 577.712L962.391 600.861C962.391 601.492 962.121 602.082 961.651 602.502C961.241 602.862 960.721 603.062 960.181 603.062L960.191 603.052ZM737.061 573.452L957.991 598.382L958.061 579.682L737.131 554.752L737.061 573.452Z" fill="white"/>
<path d="M1023.89 648.42C1023.81 648.42 1023.73 648.42 1023.64 648.41L761.101 618.79C759.981 618.66 759.141 617.72 759.141 616.59L759.231 593.44C759.231 592.81 759.501 592.22 759.971 591.8C760.441 591.38 761.061 591.19 761.691 591.26L1024.23 620.88C1025.35 621.01 1026.19 621.95 1026.19 623.08L1026.11 646.23C1026.11 646.86 1025.84 647.45 1025.37 647.87C1024.96 648.23 1024.44 648.43 1023.9 648.43L1023.89 648.42ZM763.571 614.62L1021.69 643.74L1021.76 625.04L763.641 595.92L763.571 614.63V614.62Z" fill="white"/>
<path d="M1062.34 690.93C1062.26 690.93 1062.18 690.93 1062.09 690.92L843.003 666.2C841.883 666.07 841.043 665.12 841.043 664L841.133 640.85C841.133 640.22 841.403 639.63 841.873 639.21C842.343 638.79 842.973 638.59 843.593 638.67L1062.68 663.39C1063.8 663.52 1064.64 664.46 1064.64 665.59L1064.55 688.74C1064.55 689.37 1064.28 689.96 1063.81 690.38C1063.4 690.74 1062.88 690.94 1062.34 690.94V690.93ZM845.473 662.03L1060.14 686.25L1060.21 667.54L845.543 643.32L845.473 662.02V662.03Z" fill="white"/>
<path d="M876.032 860.351C875.952 860.351 875.862 860.351 875.782 860.341L702.632 840.801C701.512 840.671 700.672 839.731 700.672 838.601L700.752 816.361C700.752 815.731 701.022 815.141 701.492 814.721C701.962 814.301 702.582 814.101 703.212 814.181L876.362 833.721C877.482 833.851 878.322 834.801 878.322 835.921L878.242 858.161C878.242 858.791 877.972 859.381 877.502 859.801C877.092 860.161 876.572 860.361 876.032 860.361V860.351ZM705.092 836.631L873.832 855.671L873.902 837.871L705.162 818.831L705.092 836.631Z" fill="white"/>
<path d="M883.58 899.84C883.5 899.84 883.41 899.84 883.33 899.83L756.71 885.54C755.59 885.41 754.75 884.46 754.75 883.34L754.83 860.19C754.83 859.56 755.1 858.97 755.57 858.55C756.04 858.13 756.66 857.94 757.29 858.01L883.91 872.3C885.03 872.43 885.87 873.38 885.87 874.5L885.79 897.65C885.79 898.28 885.52 898.87 885.05 899.29C884.64 899.65 884.12 899.85 883.58 899.85V899.84ZM759.17 881.37L881.38 895.16L881.45 876.46L759.24 862.67L759.17 881.37Z" fill="white"/>
<path d="M933.713 943.681C933.633 943.681 933.553 943.681 933.463 943.671L812.253 929.991C811.133 929.861 810.293 928.921 810.293 927.791L810.373 904.641C810.373 904.011 810.643 903.421 811.113 903.001C811.583 902.581 812.203 902.381 812.833 902.461L934.043 916.141C935.163 916.271 936.003 917.221 936.003 918.341L935.923 941.491C935.923 942.121 935.653 942.711 935.183 943.131C934.773 943.491 934.253 943.691 933.713 943.691V943.681ZM814.713 925.821L931.513 939.001L931.583 920.301L814.783 907.121L814.713 925.821Z" fill="white"/>
<path d="M1018.76 991.451C1018.68 991.451 1018.6 991.451 1018.51 991.441L865.12 974.131C864 974.001 863.16 973.051 863.16 971.931L863.24 948.781C863.24 948.151 863.51 947.561 863.98 947.141C864.45 946.721 865.08 946.521 865.7 946.601L1019.09 963.911C1020.21 964.041 1021.05 964.991 1021.05 966.111L1020.97 989.261C1020.97 989.891 1020.7 990.481 1020.23 990.901C1019.82 991.261 1019.3 991.461 1018.76 991.461V991.451ZM867.58 969.961L1016.56 986.771L1016.63 968.061L867.65 951.251L867.58 969.951V969.961Z" fill="white"/>
<path d="M861.022 706.401C860.942 706.401 860.862 706.401 860.772 706.391L705.952 688.921C704.832 688.791 703.992 687.841 703.992 686.721L704.082 663.571C704.082 662.941 704.352 662.351 704.822 661.931C705.292 661.511 705.912 661.321 706.542 661.391L861.362 678.861C862.482 678.991 863.322 679.931 863.322 681.061L863.232 704.211C863.232 704.841 862.962 705.431 862.492 705.851C862.082 706.211 861.562 706.411 861.022 706.411V706.401ZM708.422 684.751L858.822 701.721L858.892 683.021L708.492 666.051L708.422 684.761V684.751Z" fill="white"/>
<path d="M1058.23 766.831C1058.15 766.831 1058.07 766.831 1057.98 766.821L818.761 739.831C817.641 739.701 816.801 738.751 816.801 737.631L816.891 714.481C816.891 713.851 817.161 713.261 817.631 712.841C818.101 712.421 818.721 712.221 819.351 712.301L1058.57 739.291C1059.69 739.421 1060.53 740.361 1060.53 741.491L1060.44 764.641C1060.44 765.271 1060.17 765.861 1059.7 766.281C1059.29 766.641 1058.77 766.841 1058.23 766.841V766.831ZM821.221 735.661L1056.03 762.151L1056.1 743.451L821.291 716.961L821.221 735.661Z" fill="white"/>
<path d="M862.682 782.881C862.602 782.881 862.512 782.881 862.432 782.871L707.612 765.401C706.492 765.271 705.652 764.331 705.652 763.201L705.742 740.051C705.742 739.421 706.012 738.831 706.482 738.411C706.952 737.991 707.572 737.791 708.202 737.871L863.022 755.341C864.142 755.471 864.982 756.411 864.982 757.541L864.892 780.691C864.892 781.321 864.622 781.911 864.152 782.331C863.742 782.691 863.222 782.891 862.682 782.891V782.881ZM710.082 761.231L860.482 778.201L860.552 759.501L710.152 742.531L710.082 761.231Z" fill="white"/>
<path d="M1059.88 843.311C1059.8 843.311 1059.72 843.311 1059.63 843.301L820.413 816.311C819.293 816.181 818.453 815.231 818.453 814.111L818.543 790.961C818.543 790.331 818.813 789.741 819.283 789.321C819.753 788.901 820.373 788.701 821.003 788.781L1060.22 815.771C1061.34 815.901 1062.18 816.841 1062.18 817.971L1062.1 841.121C1062.1 841.751 1061.83 842.341 1061.36 842.761C1060.95 843.121 1060.43 843.321 1059.89 843.321L1059.88 843.311ZM822.873 812.141L1057.68 838.631L1057.75 819.931L822.943 793.441L822.873 812.141Z" fill="white"/>
<path d="M894.812 1015.19C894.732 1015.19 894.652 1015.19 894.562 1015.18L702.062 993.46C700.942 993.33 700.102 992.38 700.102 991.26L700.182 969.02C700.182 968.39 700.452 967.8 700.922 967.38C701.392 966.96 702.022 966.77 702.642 966.84L895.142 988.56C896.262 988.69 897.102 989.63 897.102 990.76L897.022 1013C897.022 1013.63 896.752 1014.22 896.282 1014.64C895.872 1015 895.352 1015.2 894.812 1015.2V1015.19ZM704.532 989.29L892.612 1010.51L892.672 992.71L704.592 971.49L704.522 989.29H704.532Z" fill="white"/>
<path d="M1024.28 1068.43C1024.2 1068.43 1024.12 1068.43 1024.03 1068.42L709.683 1032.95C708.563 1032.82 707.723 1031.88 707.723 1030.75L707.813 1007.6C707.813 1006.97 708.083 1006.38 708.553 1005.96C709.023 1005.54 709.653 1005.35 710.273 1005.42L1024.62 1040.89C1025.74 1041.02 1026.58 1041.96 1026.58 1043.09L1026.5 1066.24C1026.5 1066.87 1026.23 1067.46 1025.76 1067.88C1025.35 1068.24 1024.83 1068.44 1024.29 1068.44L1024.28 1068.43ZM712.153 1028.78L1022.08 1063.75L1022.15 1045.05L712.223 1010.08L712.153 1028.78Z" fill="white"/>
<path d="M1028.01 1107.03C1027.93 1107.03 1027.85 1107.03 1027.76 1107.02L847.292 1086.66C846.172 1086.53 845.332 1085.59 845.332 1084.46L845.422 1061.31C845.422 1060.68 845.692 1060.09 846.162 1059.67C846.632 1059.25 847.252 1059.05 847.882 1059.13L1028.35 1079.49C1029.47 1079.62 1030.31 1080.57 1030.31 1081.69L1030.22 1104.84C1030.22 1105.47 1029.95 1106.06 1029.48 1106.48C1029.07 1106.84 1028.55 1107.04 1028.01 1107.04V1107.03ZM849.762 1082.49L1025.81 1102.35L1025.88 1083.65L849.822 1063.79L849.752 1082.49H849.762Z" fill="white"/>
<path d="M961.922 1175.93C961.842 1175.93 961.762 1175.93 961.672 1175.92L753.792 1152.47C752.672 1152.34 751.832 1151.39 751.832 1150.27L751.922 1127.12C751.922 1126.49 752.192 1125.9 752.662 1125.48C753.132 1125.06 753.752 1124.86 754.382 1124.94L962.252 1148.39C963.372 1148.52 964.212 1149.46 964.212 1150.59L964.132 1173.74C964.132 1174.37 963.862 1174.96 963.392 1175.38C962.982 1175.74 962.462 1175.94 961.922 1175.94V1175.93ZM756.262 1148.3L959.722 1171.25L959.792 1152.55L756.332 1129.6L756.262 1148.3Z" fill="white"/>
<path d="M1068.51 1146.76C1068.43 1146.76 1068.35 1146.76 1068.26 1146.75L895.163 1127.22C894.043 1127.09 893.203 1126.15 893.203 1125.02L893.293 1101.87C893.293 1101.24 893.563 1100.65 894.033 1100.23C894.503 1099.81 895.123 1099.61 895.753 1099.69L1068.85 1119.22C1069.97 1119.35 1070.81 1120.3 1070.81 1121.42L1070.72 1144.57C1070.72 1145.2 1070.45 1145.79 1069.98 1146.21C1069.57 1146.57 1069.05 1146.77 1068.51 1146.77V1146.76ZM897.633 1123.05L1066.31 1142.08L1066.38 1123.38L897.703 1104.35L897.633 1123.05Z" fill="white"/>
<path d="M1002.39 1218.68C1002.31 1218.68 1002.23 1218.68 1002.14 1218.67L838.37 1200.19C837.25 1200.06 836.41 1199.11 836.41 1197.99L836.5 1174.84C836.5 1174.21 836.77 1173.62 837.24 1173.2C837.71 1172.78 838.33 1172.59 838.96 1172.66L1002.73 1191.14C1003.85 1191.27 1004.69 1192.21 1004.69 1193.34L1004.61 1216.49C1004.61 1217.12 1004.34 1217.71 1003.87 1218.13C1003.46 1218.49 1002.94 1218.69 1002.4 1218.69L1002.39 1218.68ZM840.83 1196.02L1000.19 1214L1000.26 1195.3L840.9 1177.32L840.83 1196.02Z" fill="white"/>
<path d="M719.504 742.029C744.884 747.289 761.994 768.749 758.414 790.819C754.794 813.099 731.404 828.089 705.444 824.739L218.194 761.989C180.364 757.119 152.464 727.109 155.264 694.309C156.734 677.019 166.684 661.449 182.594 651.519C198.504 641.589 218.864 638.239 238.544 642.319L719.514 742.039L719.504 742.029Z" fill="#121212"/>
<path d="M712.763 827.42C710.263 827.42 707.733 827.26 705.173 826.93L217.923 764.18C178.643 759.12 150.153 728.35 153.073 694.12C154.603 676.15 164.943 659.94 181.433 649.64C197.803 639.42 218.783 635.96 239.003 640.15L719.973 739.87C746.533 745.38 764.383 767.91 760.613 791.18C757.153 812.53 736.833 827.43 712.773 827.43L712.763 827.42ZM222.033 642.82C208.263 642.82 194.873 646.44 183.763 653.38C168.463 662.93 158.883 677.92 157.463 694.49C154.743 726.35 181.543 755.04 218.483 759.79L705.733 822.54C730.593 825.74 752.803 811.65 756.233 790.45C759.623 769.53 743.293 749.2 719.053 744.18L238.083 644.46C232.743 643.35 227.353 642.81 222.023 642.81L222.033 642.82Z" fill="white"/>
<path d="M356.42 1265.99C360.07 1295.73 351.4 1325.67 332.42 1348.86C313.44 1372.05 285.81 1386.46 255.94 1388.75C225.86 1391.06 196.17 1380.87 173.83 1360.59C151.5 1340.31 138.5 1311.73 137.91 1281.56L142.42 711.54C141.6 670.38 173.05 635.74 214.09 632.59C255.45 629.42 292 659.34 297.05 700.52L356.41 1265.99H356.42Z" fill="#121212"/>
<path d="M247.651 1391.28C219.991 1391.28 192.931 1380.93 172.341 1362.23C149.661 1341.63 136.301 1312.25 135.691 1281.61L140.201 711.519C139.361 669.289 171.741 633.619 213.911 630.379C256.561 627.109 294.021 657.799 299.241 700.239L358.611 1265.73C362.311 1295.91 353.391 1326.72 334.131 1350.25C314.871 1373.79 286.431 1388.62 256.111 1390.94C253.291 1391.16 250.471 1391.26 247.661 1391.26L247.651 1391.28ZM220.131 634.569C218.191 634.569 216.231 634.639 214.261 634.799C174.421 637.859 143.831 671.549 144.631 711.509L140.121 1281.6C140.701 1310.97 153.531 1339.19 175.321 1358.98C197.101 1378.76 226.431 1388.82 255.771 1386.57C284.891 1384.34 312.211 1370.09 330.711 1347.48C349.211 1324.87 357.781 1295.28 354.221 1266.28C354.221 1266.27 354.221 1266.25 354.221 1266.24L294.861 700.769C290.181 662.669 257.931 634.589 220.131 634.589V634.569Z" fill="white"/>
<path d="M308.176 1287.46C316.109 1251.88 293.704 1216.61 258.132 1208.68C222.56 1200.75 187.293 1223.16 179.36 1258.74C171.427 1294.31 193.833 1329.58 229.404 1337.52C264.976 1345.45 300.243 1323.04 308.176 1287.46Z" fill="#E95018"/>
<path d="M263.776 718.385C269.211 694.581 254.324 670.879 230.525 665.446C206.726 660.013 183.028 674.905 177.594 698.709C172.159 722.514 187.047 746.215 210.845 751.648C234.644 757.081 258.342 742.189 263.776 718.385Z" fill="#E95018"/>
<path d="M246.163 1366.05C239.723 1366.05 233.223 1365.35 226.753 1363.91C219.733 1362.34 212.933 1359.95 206.553 1356.8C205.463 1356.26 205.013 1354.94 205.553 1353.84C206.093 1352.75 207.423 1352.3 208.513 1352.84C214.583 1355.84 221.053 1358.11 227.723 1359.6C264.963 1367.91 303.513 1350.22 321.453 1316.58C322.023 1315.5 323.363 1315.09 324.443 1315.67C325.523 1316.24 325.923 1317.58 325.353 1318.66C309.603 1348.21 278.733 1366.06 246.173 1366.06L246.163 1366.05Z" fill="white"/>
<path d="M331.382 1296.75C331.282 1296.75 331.192 1296.75 331.092 1296.73C329.882 1296.57 329.032 1295.46 329.192 1294.25C331.172 1279.24 329.082 1263.91 323.142 1249.92C322.662 1248.8 323.192 1247.5 324.312 1247.02C325.442 1246.55 326.732 1247.07 327.212 1248.19C333.462 1262.91 335.662 1279.04 333.572 1294.83C333.422 1295.94 332.472 1296.75 331.382 1296.75Z" fill="white"/>
<path d="M248.423 762.208C247.633 762.208 246.873 761.788 246.473 761.048C245.893 759.978 246.293 758.638 247.363 758.058C259.033 751.758 268.133 741.538 272.983 729.278C273.433 728.148 274.713 727.588 275.853 728.038C276.983 728.488 277.543 729.768 277.093 730.908C271.863 744.138 262.053 755.168 249.463 761.958C249.133 762.138 248.773 762.228 248.413 762.228L248.423 762.208Z" fill="white"/>
<path d="M276.32 692.679C275.39 692.679 274.52 692.089 274.22 691.149C268.09 672.289 252.27 657.889 232.95 653.579C217.75 650.179 201.67 653.299 188.83 662.129C187.82 662.819 186.45 662.569 185.76 661.559C185.07 660.549 185.32 659.179 186.33 658.489C200.18 648.969 217.53 645.619 233.91 649.269C254.76 653.919 271.81 669.449 278.42 689.779C278.8 690.939 278.16 692.189 277 692.559C276.77 692.629 276.54 692.669 276.32 692.669V692.679Z" fill="white"/>
<path d="M805.98 1074.74L895.49 1026.68L920.68 1052.54L955.3 1117.05L963.5 1153.41L873.98 1201.47L805.98 1074.74Z" fill="white"/>
<path d="M873.979 1203.67C873.769 1203.67 873.549 1203.64 873.339 1203.58C872.779 1203.41 872.309 1203.03 872.029 1202.51L804.029 1075.79C803.449 1074.72 803.859 1073.38 804.929 1072.8L894.449 1024.74C895.319 1024.28 896.389 1024.44 897.079 1025.14L922.259 1051C922.399 1051.15 922.529 1051.31 922.619 1051.5L957.239 1116.01C957.329 1116.19 957.409 1116.37 957.449 1116.57L965.649 1152.92C965.869 1153.89 965.409 1154.88 964.539 1155.35L875.019 1203.41C874.699 1203.58 874.339 1203.67 873.979 1203.67ZM808.969 1075.64L874.889 1198.47L960.979 1152.25L953.209 1117.83L918.879 1053.85L895.069 1029.41L808.959 1075.64H808.969Z" fill="white"/>
<path d="M1218.06 641.12C1092.18 708.7 1044.91 865.55 1112.48 991.45C1180.05 1117.35 1336.86 1164.63 1462.74 1097.05C1588.62 1029.47 1635.89 872.62 1568.32 746.72C1500.76 620.82 1343.94 573.54 1218.06 641.12ZM1547.95 757.66C1609.48 872.32 1566.43 1015.15 1451.8 1076.69C1337.17 1138.23 1194.37 1095.18 1132.84 980.52C1071.31 865.87 1114.36 723.03 1228.99 661.49C1343.62 599.95 1486.42 643 1547.95 757.66Z" fill="white"/>
<path d="M803.679 1188.5C791.789 1194.88 776.979 1190.42 770.599 1178.53L767.949 1173.6C761.569 1161.71 766.029 1146.89 777.919 1140.51L1087.63 974.23L1113.39 1022.23L803.679 1188.51V1188.5Z" fill="white"/>
<path d="M934.077 1077.74C933.287 1077.74 932.527 1077.32 932.127 1076.58C931.547 1075.51 931.957 1074.17 933.027 1073.59L958.927 1059.68C960.007 1059.1 961.337 1059.51 961.917 1060.58C962.497 1061.66 962.087 1062.99 961.017 1063.57L935.117 1077.48C934.787 1077.66 934.427 1077.74 934.077 1077.74Z" fill="#121212"/>
<path d="M1032.72 1067.21L1006.91 1019.12C1003.37 1012.53 1005.85 1004.31 1012.44 1000.77L1029.47 991.629C1036.06 988.089 1044.28 990.569 1047.81 997.159L1073.62 1045.25C1077.16 1051.84 1074.68 1060.06 1068.09 1063.6L1051.06 1072.74C1044.47 1076.28 1036.25 1073.8 1032.72 1067.21Z" fill="white"/>
<path d="M1044.68 1076.57C1043.15 1076.57 1041.62 1076.35 1040.11 1075.89C1036.08 1074.67 1032.77 1071.96 1030.78 1068.25L1004.97 1020.16C1000.86 1012.5 1003.75 1002.93 1011.4 998.82L1028.43 989.68C1032.14 987.69 1036.4 987.26 1040.43 988.48C1044.46 989.69 1047.77 992.41 1049.76 996.11L1075.57 1044.2C1079.68 1051.86 1076.79 1061.43 1069.14 1065.54L1052.11 1074.68C1049.79 1075.93 1047.24 1076.56 1044.68 1076.56V1076.57ZM1034.67 1066.17C1036.1 1068.84 1038.49 1070.79 1041.39 1071.66C1044.28 1072.54 1047.36 1072.23 1050.03 1070.79L1067.06 1061.65C1072.57 1058.69 1074.64 1051.8 1071.69 1046.29L1045.88 998.2C1044.45 995.53 1042.06 993.58 1039.16 992.71C1036.27 991.84 1033.2 992.15 1030.52 993.58L1013.49 1002.72C1007.98 1005.68 1005.91 1012.57 1008.86 1018.08L1034.67 1066.17Z" fill="#121212"/>
<path d="M1524.04 772.38C1523.25 772.38 1522.49 771.96 1522.09 771.22C1512.2 752.78 1499.68 736.07 1484.9 721.54C1484.03 720.68 1484.02 719.29 1484.87 718.42C1485.72 717.55 1487.12 717.54 1487.99 718.39C1503.09 733.23 1515.87 750.3 1525.97 769.13C1526.55 770.2 1526.14 771.54 1525.07 772.12C1524.74 772.3 1524.38 772.38 1524.03 772.38H1524.04Z" fill="white"/>
<path d="M1243.1 1055.55C1242.75 1055.55 1242.4 1055.47 1242.07 1055.3C1204.84 1035.72 1174.61 1005.71 1154.64 968.49C1099.69 866.09 1138.27 738.07 1240.65 683.11C1314.58 643.42 1404.94 651.34 1470.86 703.3C1471.82 704.05 1471.98 705.44 1471.23 706.4C1470.48 707.36 1469.09 707.52 1468.13 706.77C1403.59 655.9 1315.12 648.14 1242.74 687C1142.51 740.81 1104.74 866.15 1158.54 966.41C1178.09 1002.84 1207.69 1032.23 1244.14 1051.39C1245.22 1051.96 1245.63 1053.29 1245.07 1054.37C1244.68 1055.12 1243.91 1055.55 1243.11 1055.55H1243.1Z" fill="white"/>
<path d="M667.241 788.31C660.881 777.13 659.391 763.82 663.121 751.51C666.851 739.2 675.481 728.96 686.991 723.2C699.651 716.86 714.351 715.97 727.681 720.75C741.011 725.52 751.811 735.54 757.571 748.48L900.171 1068.9L843.161 1097.45L667.241 788.31Z" fill="white"/>
<path d="M843.161 1099.66C842.391 1099.66 841.641 1099.26 841.241 1098.54L665.321 789.4C658.691 777.74 657.121 763.7 661.011 750.87C664.901 738.04 674.011 727.23 686.001 721.23C699.131 714.65 714.601 713.72 728.421 718.67C742.251 723.62 753.611 734.16 759.581 747.58L902.181 1068C902.661 1069.08 902.211 1070.34 901.151 1070.87L844.141 1099.43C843.821 1099.59 843.491 1099.66 843.151 1099.66H843.161ZM669.161 787.22L844.041 1094.54L897.291 1067.87L755.541 749.38C750.051 737.06 739.631 727.38 726.931 722.83C714.231 718.28 700.031 719.14 687.971 725.18C677.061 730.64 668.771 740.48 665.231 752.16C661.691 763.84 663.121 776.62 669.151 787.23L669.161 787.22Z" fill="white"/>
<path d="M665.1 794.73C658.74 783.55 657.25 770.24 660.98 757.93C664.71 745.62 673.34 735.38 684.85 729.62C697.51 723.28 712.21 722.39 725.54 727.17C738.87 731.94 749.67 741.96 755.43 754.9L898.03 1075.32L841.02 1103.87L665.1 794.73Z" fill="#121212"/>
<path d="M841.02 1106.08C840.25 1106.08 839.51 1105.68 839.1 1104.96L663.18 795.82C656.55 784.16 654.98 770.12 658.87 757.29C662.76 744.46 671.87 733.65 683.86 727.65C696.99 721.07 712.46 720.14 726.29 725.09C740.12 730.04 751.47 740.58 757.45 754L900.05 1074.42C900.53 1075.5 900.08 1076.76 899.02 1077.29L842.01 1105.84C841.69 1106 841.36 1106.07 841.02 1106.07V1106.08ZM667.02 793.64L841.9 1100.96L895.15 1074.29L753.4 755.8C747.91 743.47 737.49 733.8 724.79 729.25C712.09 724.7 697.89 725.56 685.83 731.6C674.92 737.06 666.631 746.9 663.091 758.58C659.551 770.26 660.98 783.04 667.01 793.65L667.02 793.64Z" fill="white"/>
<path d="M805.527 1071.69L896.377 1026.18L901.897 1061.43L933.657 1124.86L960.757 1154.78L869.917 1200.29L845.177 1175.11L810.157 1105.14L805.527 1071.69Z" fill="#121212"/>
<path d="M869.919 1202.5C869.339 1202.5 868.769 1202.27 868.339 1201.84L843.609 1176.66C843.449 1176.5 843.309 1176.31 843.209 1176.1L808.179 1106.13C808.069 1105.91 807.999 1105.68 807.969 1105.44L803.349 1071.99C803.219 1071.05 803.699 1070.14 804.549 1069.71L895.399 1024.21C896.029 1023.89 896.769 1023.9 897.399 1024.22C898.029 1024.54 898.459 1025.15 898.569 1025.84L904.039 1060.75L935.509 1123.6L962.409 1153.3C962.869 1153.81 963.069 1154.51 962.939 1155.19C962.809 1155.87 962.379 1156.45 961.759 1156.76L870.909 1202.26C870.599 1202.42 870.259 1202.49 869.919 1202.49V1202.5ZM846.999 1173.81L870.359 1197.6L957.169 1154.12L932.019 1126.35C931.889 1126.2 931.769 1126.04 931.679 1125.86L899.919 1062.43C899.819 1062.23 899.749 1062.01 899.709 1061.78L894.659 1029.52L807.929 1072.96L812.289 1104.48L846.999 1173.81Z" fill="white"/>
<path d="M711.141 794.717C721.602 794.702 730.069 786.211 730.055 775.75C730.04 765.29 721.549 756.822 711.088 756.837C700.628 756.851 692.16 765.343 692.175 775.803C692.189 786.264 700.681 794.731 711.141 794.717Z" fill="white"/>
<path d="M877.182 1170C876.372 1170 875.592 1169.55 875.202 1168.78C874.652 1167.69 875.092 1166.36 876.192 1165.82L917.282 1145.24C918.372 1144.69 919.702 1145.13 920.242 1146.23C920.792 1147.32 920.352 1148.65 919.252 1149.19L878.162 1169.77C877.842 1169.93 877.512 1170 877.172 1170H877.182Z" fill="white"/>
<path d="M838.391 1095.23C837.581 1095.23 836.801 1094.78 836.411 1094.01C835.861 1092.92 836.311 1091.59 837.401 1091.05L878.491 1070.47C879.581 1069.92 880.911 1070.37 881.451 1071.46C882.001 1072.55 881.551 1073.88 880.461 1074.42L839.371 1095C839.051 1095.16 838.721 1095.23 838.381 1095.23H838.391Z" fill="white"/>
<path d="M711.171 808.641C707.681 808.641 704.181 808.071 700.771 806.941C698.341 806.131 696.001 805.041 693.831 803.701C692.791 803.061 692.471 801.701 693.111 800.661C693.751 799.621 695.111 799.301 696.151 799.941C698.031 801.101 700.051 802.051 702.161 802.751C708.281 804.781 714.701 804.711 720.751 802.541C721.901 802.131 723.161 802.721 723.581 803.871C723.991 805.021 723.401 806.281 722.251 806.701C718.641 808.001 714.901 808.651 711.161 808.651L711.171 808.641Z" fill="white"/>
<path d="M680.882 782.929C679.822 782.929 678.882 782.159 678.702 781.079C677.832 775.849 678.272 770.409 679.952 765.349C684.042 753.049 695.012 744.279 707.912 742.989C709.142 742.869 710.212 743.759 710.332 744.969C710.452 746.179 709.562 747.269 708.352 747.389C697.182 748.499 687.682 756.099 684.142 766.739C682.682 771.119 682.312 775.829 683.062 780.349C683.262 781.549 682.452 782.689 681.242 782.889C681.122 782.909 681.002 782.919 680.882 782.919V782.929Z" fill="white"/>
<path d="M1028.38 625.451C1021.89 604.021 1022.98 590.491 1028.88 576.401L1038.8 556.661L1008.97 544.691L999.828 567.161C996.878 574.401 992.618 581.031 987.258 586.711L982.328 591.941L1028.38 625.451Z" fill="#121212"/>
<path d="M1028.38 627.662C1027.92 627.662 1027.47 627.522 1027.08 627.242L981.027 593.732C980.517 593.362 980.187 592.782 980.127 592.152C980.067 591.522 980.287 590.892 980.717 590.432L985.647 585.202C990.837 579.692 994.917 573.352 997.777 566.332L1006.92 543.862C1007.38 542.742 1008.66 542.192 1009.79 542.642L1039.62 554.612C1040.19 554.842 1040.64 555.302 1040.86 555.882C1041.08 556.462 1041.05 557.102 1040.77 557.652L1030.85 577.392C1025.75 589.602 1023.7 602.412 1030.49 624.812C1030.77 625.722 1030.43 626.702 1029.66 627.252C1029.28 627.522 1028.83 627.662 1028.38 627.662ZM985.647 591.632L1024.54 619.932C1020.15 602.632 1020.89 589.772 1026.84 575.552L1035.75 557.822L1010.19 547.562L1001.87 567.992C998.807 575.512 994.427 582.322 988.867 588.222L985.657 591.622L985.647 591.632Z" fill="white"/>
<path d="M995.828 580.972C995.088 578.642 992.028 578.072 990.358 579.852C985.638 584.872 977.378 593.272 971.108 597.612C965.268 601.652 963.438 609.442 966.748 615.682C976.108 633.322 999.798 671.612 1024.77 700.832C1026.48 702.832 1030.72 705.502 1036.84 702.752C1057.37 693.522 1037.85 651.782 1026.72 608.332C1026.28 606.622 1024.9 605.322 1023.17 605.002L1016.97 603.862C1005.51 601.582 1000.69 596.182 995.828 580.972Z" fill="white"/>
<path d="M972.51 596.652C972.51 596.652 971.56 597.292 971.1 597.612C965.26 601.652 963.43 609.442 966.74 615.682C976.1 633.322 999.79 671.612 1024.76 700.832C1026.47 702.832 1030.71 705.502 1036.83 702.752C1038.7 701.912 1041.53 699.612 1041.53 699.612L1039.85 697.472C1015.93 667.022 994.29 634.842 975.1 601.212L972.5 596.652H972.51Z" fill="#121212"/>
<path d="M1031.77 706.133C1027.9 706.133 1024.84 704.333 1023.08 702.273C998.128 673.073 974.548 635.113 964.788 616.723C960.928 609.453 963.108 600.453 969.848 595.793L971.268 594.823C971.778 594.483 972.418 594.363 973.008 594.503C973.608 594.643 974.118 595.023 974.428 595.563L977.028 600.123C996.098 633.543 1017.82 665.843 1041.6 696.123L1043.28 698.263C1044.02 699.213 1043.87 700.583 1042.94 701.343C1042.63 701.593 1039.83 703.853 1037.75 704.783C1035.61 705.743 1033.61 706.143 1031.78 706.143L1031.77 706.133ZM971.778 599.853C967.338 603.343 965.988 609.573 968.688 614.653C978.358 632.873 1001.72 670.473 1026.44 699.403C1027.02 700.083 1030.19 703.323 1035.93 700.743C1036.62 700.433 1037.57 699.813 1038.41 699.213L1038.12 698.843C1014.21 668.393 992.358 635.913 973.188 602.303L971.788 599.843L971.778 599.853Z" fill="white"/>
<path d="M1035.22 643.033C1035.1 643.033 1034.98 643.033 1034.85 643.003L1014.28 639.553C1013.08 639.353 1012.27 638.213 1012.47 637.013C1012.67 635.813 1013.81 634.993 1015.01 635.203L1035.58 638.653C1036.78 638.853 1037.59 639.993 1037.39 641.193C1037.21 642.273 1036.27 643.033 1035.21 643.033H1035.22Z" fill="#121212"/>
<path d="M1038.55 654.752C1038.44 654.752 1038.33 654.752 1038.22 654.732L1021.41 652.242C1020.2 652.062 1019.37 650.942 1019.55 649.732C1019.73 648.522 1020.85 647.702 1022.06 647.872L1038.87 650.362C1040.08 650.542 1040.91 651.662 1040.73 652.872C1040.57 653.972 1039.62 654.752 1038.55 654.752Z" fill="#121212"/>
<path d="M860.286 314.281C860.286 314.281 1067.35 268.871 1130.45 304.821C1139.96 310.241 1148.97 321.591 1150.96 332.351C1157.02 365.111 1138.78 436.491 1039.02 570.691C1037.61 572.581 1035.1 573.321 1032.9 572.491L1001.25 560.491C998.676 559.521 997.286 556.741 998.036 554.101L1040.29 406.211C1041.39 402.361 1038.21 398.641 1034.23 399.121L836.906 423.371L860.276 314.281H860.286Z" fill="#121212"/>
<path d="M1034.77 575.021C1033.88 575.021 1032.99 574.861 1032.13 574.541L1000.48 562.541C996.868 561.171 994.868 557.191 995.928 553.481L1038.18 405.591C1038.5 404.481 1038.25 403.341 1037.5 402.461C1036.75 401.581 1035.66 401.151 1034.52 401.301L837.198 425.551C836.488 425.641 835.778 425.381 835.298 424.851C834.818 424.321 834.618 423.601 834.768 422.901L858.138 313.821C858.318 312.971 858.978 312.311 859.828 312.131C868.318 310.271 1068.44 266.961 1131.56 302.911C1142.06 308.891 1151.15 321.111 1153.15 331.951C1158.07 358.551 1150.02 425.101 1040.81 572.011C1039.37 573.951 1037.1 575.031 1034.77 575.031V575.021ZM1034.94 396.861C1037.2 396.861 1039.37 397.841 1040.86 399.591C1042.56 401.581 1043.15 404.281 1042.43 406.801L1000.18 554.691C999.738 556.211 1000.56 557.851 1002.04 558.411L1033.69 570.411C1034.96 570.891 1036.44 570.471 1037.26 569.361C1145.47 423.801 1153.59 358.631 1148.8 332.741C1147.01 323.061 1138.84 312.131 1129.36 306.731C1070.38 273.131 880.338 312.271 862.148 316.131L839.728 420.781L1033.97 396.911C1034.29 396.871 1034.61 396.851 1034.93 396.851L1034.94 396.861Z" fill="white"/>
<path d="M921.438 704.191L925.498 723.471C930.918 751.531 910.418 765.891 910.418 765.891L971.048 773.271C971.048 773.271 957.808 765.221 960.508 726.241L963.978 693.631L921.448 704.191H921.438Z" fill="#121212"/>
<path d="M971.048 775.48C970.958 775.48 970.868 775.48 970.778 775.46L910.148 768.08C909.238 767.97 908.498 767.31 908.268 766.42C908.048 765.53 908.398 764.6 909.148 764.08C909.938 763.53 928.398 750.14 923.328 723.89L919.278 704.65C919.038 703.49 919.748 702.34 920.908 702.05L963.438 691.49C964.148 691.32 964.878 691.49 965.418 691.97C965.958 692.44 966.238 693.15 966.158 693.87L962.688 726.48C960.158 763.11 972.088 771.33 972.208 771.4C973.068 771.96 973.448 773.05 973.088 774.01C972.768 774.89 971.938 775.47 971.028 775.47L971.048 775.48ZM915.528 764.29L965.498 770.37C961.518 764.34 956.548 751.53 958.308 726.09L961.448 696.54L924.048 705.83L927.668 723.02C931.788 744.32 921.478 758.27 915.538 764.29H915.528Z" fill="white"/>
<path d="M920.176 739.94C915.176 745.69 906.116 756.5 899.166 766.96C894.796 773.52 897.416 781.09 902.086 787.38C911.636 800.21 924.736 810.08 940.126 820.24C953.576 829.11 968.606 838.47 986.696 846.74C991.606 848.99 1002.68 852.06 1010.08 848.37C1032.43 837.22 995.156 802.3 965.846 762.07C964.696 760.49 962.746 759.72 960.826 760.1L953.966 761.47C947.096 762.84 940.106 759.95 936.216 754.14L926.986 740.35C925.416 738 922.046 737.8 920.186 739.95L920.176 739.94Z" fill="white"/>
<path d="M902.765 762.1C902.765 762.1 899.505 766.45 899.165 766.96C898.075 768.6 897.425 770.52 897.075 772.48C895.925 778.8 898.125 785.27 902.555 789.91C903.625 791.03 905.085 792.46 906.775 794.08C924.365 810.82 944.145 825.09 965.455 836.74C976.265 842.65 1000.26 854.79 1010.07 848.37C1013.1 846.39 1014.95 840.36 1014.95 840.36C1014.95 840.36 1009.22 843.8 991.965 835.23C962.825 820.75 943.085 804.49 919.035 785.06C914.305 781.24 911.035 777.73 907.665 773.56C905.005 770.27 903.295 766.3 902.755 762.11L902.765 762.1Z" fill="#121212"/>
<path d="M1002.74 852.38C993.946 852.38 981.106 847.8 964.406 838.67C942.636 826.78 922.736 812.31 905.256 795.68C903.526 794.04 902.046 792.58 900.956 791.44C895.916 786.17 893.656 778.93 894.896 772.09C895.346 769.63 896.156 767.49 897.326 765.74C897.686 765.2 900.446 761.51 901.006 760.78C901.546 760.06 902.466 759.74 903.336 759.97C904.206 760.2 904.846 760.93 904.966 761.82C905.456 765.6 906.986 769.18 909.406 772.17C913.136 776.79 916.336 780.02 920.446 783.34L922.766 785.21C945.426 803.52 964.996 819.34 992.976 833.25C1008.44 840.93 1013.87 838.45 1013.92 838.42C1014.72 838.03 1015.7 838.13 1016.37 838.7C1017.04 839.27 1017.35 840.17 1017.09 841.01C1016.87 841.7 1014.89 847.87 1011.3 850.22C1009.09 851.66 1006.24 852.38 1002.75 852.38H1002.74ZM901.706 767.22C901.336 767.72 901.076 768.08 901.006 768.18C900.176 769.42 899.586 771 899.246 772.87C898.256 778.33 900.096 784.13 904.156 788.39C905.206 789.49 906.636 790.89 908.306 792.48C925.506 808.85 945.096 823.09 966.526 834.8C995.106 850.41 1005.33 848.84 1008.88 846.52C1009.78 845.93 1010.67 844.63 1011.39 843.23C1007.46 843.32 1001.05 842.2 990.996 837.2C962.576 823.07 942.836 807.12 919.976 788.64L917.656 786.77C913.286 783.24 909.896 779.81 905.956 774.94C904.086 772.62 902.646 770.01 901.696 767.22H901.706Z" fill="white"/>
<path d="M960.367 792.29C959.347 792.29 958.437 791.58 958.207 790.55C957.947 789.36 958.707 788.18 959.897 787.93L982.517 783.04C983.707 782.79 984.887 783.54 985.137 784.73C985.397 785.92 984.637 787.1 983.447 787.35L960.827 792.24C960.667 792.27 960.517 792.29 960.357 792.29H960.367Z" fill="#121212"/>
<path d="M972.885 802.44C971.885 802.44 970.975 801.76 970.735 800.74C970.455 799.55 971.195 798.36 972.375 798.08L990.725 793.75C991.905 793.46 993.095 794.2 993.385 795.39C993.665 796.58 992.925 797.77 991.745 798.05L973.395 802.38C973.225 802.42 973.055 802.44 972.885 802.44Z" fill="#121212"/>
<path d="M994.257 373.47C933.927 321.88 739.807 320.26 739.807 320.26C739.807 320.26 715.567 349.17 727.137 407.33C730.957 426.51 744.517 443.72 765.947 443.72L885.037 444.73C893.767 444.8 900.697 452.08 900.357 460.8C898.137 518.37 896.167 637.39 912.627 718.49C913.297 721.78 915.777 724.39 919.007 725.27C926.617 727.33 941.517 730.67 957.677 730.45C962.717 730.38 966.937 726.59 967.607 721.59L1007.11 426.65C1008.3 417.76 1008.33 408.73 1006.84 399.88C1005.25 390.43 1001.76 379.89 994.257 373.47Z" fill="#121212"/>
<path d="M956.177 732.661C940.287 732.661 925.797 729.391 918.437 727.391C914.357 726.281 911.307 723.041 910.467 718.921C894.197 638.751 895.767 522.731 898.157 460.701C898.297 457.081 896.997 453.651 894.497 451.031C891.997 448.421 888.637 446.961 885.017 446.931L765.927 445.931C741.307 445.931 728.477 425.371 724.967 407.771C713.327 349.251 737.097 320.061 738.117 318.851C738.537 318.341 739.217 318.111 739.827 318.061C747.787 318.131 935.457 320.281 995.697 371.811C1002.42 377.561 1006.9 386.881 1009.02 399.531C1010.48 408.221 1010.57 417.441 1009.3 426.951L969.797 721.891C968.987 727.951 963.787 732.581 957.707 732.661C957.187 732.661 956.677 732.661 956.167 732.661H956.177ZM740.897 322.481C737.277 327.501 719.147 355.811 729.307 406.891C732.487 422.861 743.987 441.501 765.947 441.501L885.057 442.501C889.877 442.541 894.367 444.481 897.697 447.971C901.027 451.461 902.757 456.041 902.567 460.861C900.187 522.691 898.617 638.311 914.797 718.031C915.297 720.501 917.137 722.451 919.597 723.121C926.967 725.121 941.727 728.451 957.667 728.221C961.577 728.171 964.917 725.181 965.437 721.281L1004.94 426.341C1006.15 417.271 1006.07 408.491 1004.68 400.231C1002.73 388.631 998.747 380.191 992.837 375.141C936.147 326.661 756.737 322.721 740.897 322.471V322.481Z" fill="white"/>
<path d="M953.189 184L969.159 214.64C984.659 242.53 1009.59 261.02 1037.19 277.01L1048.38 283.5C1055.55 287.66 1063.9 289.32 1072.12 288.22L1073.38 288.05C1085.93 286.37 1098.66 289.37 1109.16 296.46L1081.34 307.12C1064.38 313.62 1045.5 313.35 1028.87 306.04C1012.94 299.03 977.039 290.46 960.109 270.74C924.629 229.43 926.019 220.25 926.019 220.25L953.209 184H953.189Z" fill="#121212"/>
<path d="M1056.26 314.01C1046.59 314.01 1036.99 312.02 1027.97 308.05C1024.27 306.42 1019.49 304.71 1013.95 302.74C996.128 296.38 971.718 287.66 958.418 272.17C924.018 232.12 923.558 221.61 923.818 219.91C923.878 219.55 924.018 219.21 924.238 218.91L951.428 182.66C951.878 182.05 952.618 181.72 953.378 181.78C954.138 181.84 954.808 182.29 955.158 182.96L971.128 213.6C987.418 242.9 1014.23 261.12 1038.31 275.08L1049.5 281.57C1056.22 285.46 1064.16 287.04 1071.84 286.01L1073.1 285.84C1086.2 284.09 1099.45 287.21 1110.41 294.61C1111.09 295.07 1111.46 295.87 1111.37 296.69C1111.28 297.51 1110.74 298.21 1109.97 298.5L1082.15 309.16C1073.73 312.39 1064.99 314 1056.29 314L1056.26 314.01ZM928.238 220.95C928.608 223.06 931.888 234.5 961.768 269.3C974.308 283.9 998.078 292.39 1015.43 298.59C1021.04 300.6 1025.89 302.33 1029.74 304.02C1045.81 311.09 1063.84 311.45 1080.53 305.06L1104.17 296C1094.91 290.87 1084.24 288.83 1073.65 290.24L1072.4 290.41C1063.75 291.56 1054.82 289.79 1047.26 285.41L1036.07 278.92C1011.47 264.66 984.048 246 967.208 215.71L952.838 188.13L928.218 220.95H928.238Z" fill="#E95018"/>
<path d="M872.289 331.92C872.289 331.92 874.319 336.06 820.469 343.84C781.649 349.45 746.409 346.97 729.749 345.15C724.319 344.56 720.659 339.33 721.989 334.04C726.359 316.57 729.549 300.35 746.369 255.99C758.039 225.2 740.309 169.04 776.559 135.67C837.729 79.3498 922.129 151.21 922.129 151.21L948.669 190.19C918.259 225.84 894.369 266.57 878.099 310.52L872.299 331.93L872.289 331.92Z" fill="#E95018"/>
<path d="M849.62 224.61C848.51 224.61 847.55 223.77 847.43 222.64L842.88 180.22C842.75 179.01 843.63 177.92 844.84 177.79C846.04 177.66 847.14 178.54 847.27 179.75L851.82 222.17C851.95 223.38 851.07 224.47 849.86 224.6C849.78 224.6 849.7 224.61 849.62 224.61Z" fill="#121212"/>
<path d="M793.53 247.909C792.73 247.909 791.97 247.479 791.57 246.729C781.66 227.809 769.14 178.249 768.88 167.649C768.85 166.429 769.81 165.419 771.03 165.389C772.3 165.329 773.26 166.319 773.29 167.539C773.54 177.579 786.02 226.629 795.48 244.679C796.05 245.759 795.63 247.089 794.55 247.659C794.22 247.829 793.87 247.909 793.53 247.909Z" fill="#121212"/>
<path d="M1136.42 300.329L992.648 311.289L1071.64 168.499C1074.58 163.119 1080.15 159.569 1086.39 159.099L1203.07 150.209C1210.48 149.649 1215.59 157.239 1212.09 163.629L1136.42 300.339V300.329Z" fill="#E95018"/>
<path d="M1117.73 232.939C1114.91 238.089 1108.36 242.589 1103.09 242.989C1097.82 243.389 1095.83 239.539 1098.65 234.389C1101.47 229.239 1108.02 224.739 1113.29 224.339C1118.56 223.939 1120.55 227.789 1117.73 232.939Z" fill="#121212"/>
<path d="M1129.41 309.588L903.87 326.778C899.21 327.128 895.15 323.638 894.79 318.978L894.41 317.708L1136.82 299.238L1137.2 300.508C1137.55 305.168 1134.06 309.238 1129.4 309.598L1129.41 309.588Z" fill="#E95018"/>
<path d="M1014.32 283.59L984.96 273.43C980.6 271.92 975.76 272.79 972.21 275.74L958.59 287C955.99 289.15 952.67 290.21 949.3 289.99C934.61 289.02 866.18 270.31 860.94 257.88C856.53 247.42 853.08 234.91 853.08 234.91L800 253.47C800 253.47 800.86 269.87 822.44 291.88C840.81 310.61 888.18 316.91 953.34 312.98C953.34 312.98 966.96 311.44 978.38 297.81C985.67 289.1 1003.44 293.59 1013.98 291C1017.72 290.08 1017.96 284.85 1014.32 283.59Z" fill="#121212"/>
<path d="M918.818 316.289C869.198 316.289 835.648 308.519 820.858 293.429C798.948 271.079 797.828 254.299 797.788 253.589C797.738 252.609 798.338 251.709 799.268 251.389L852.348 232.829C852.928 232.629 853.558 232.669 854.098 232.959C854.638 233.239 855.038 233.739 855.198 234.329C855.228 234.449 858.668 246.829 862.968 257.029C867.478 267.719 934.068 286.769 949.448 287.789C952.258 287.989 955.018 287.089 957.178 285.299L970.798 274.039C974.928 270.629 980.628 269.599 985.678 271.349L1015.04 281.509C1017.6 282.399 1019.24 284.819 1019.12 287.529C1018.99 290.239 1017.14 292.499 1014.5 293.149C1010.57 294.109 1005.95 294.149 1001.05 294.199C992.738 294.269 984.148 294.349 980.058 299.229C968.208 313.379 954.168 315.109 953.578 315.179C941.248 315.929 929.638 316.299 918.818 316.299V316.289ZM802.438 254.959C803.298 259.489 807.188 273.179 824.008 290.339C841.108 307.779 885.788 314.849 953.198 310.779C953.198 310.779 966.018 309.119 976.678 296.389C982.078 289.939 991.698 289.859 1001.02 289.779C1005.65 289.739 1010.02 289.699 1013.45 288.859C1014.56 288.589 1014.7 287.619 1014.71 287.329C1014.72 287.039 1014.68 286.059 1013.6 285.689L984.238 275.529C980.628 274.279 976.558 275.019 973.618 277.449L959.998 288.709C956.958 291.219 953.108 292.459 949.158 292.199C935.548 291.299 864.868 272.899 858.898 258.749C855.558 250.829 852.798 241.879 851.588 237.779L802.428 254.959H802.438Z" fill="#E95018"/>
<path d="M914.79 147.311C951.04 166.731 965.71 195.211 984.7 220.671C971.32 232.751 955.36 249.151 945 260.801C935.25 253.291 922.9 245.691 913.93 234.911L914.79 147.311Z" fill="#E95018"/>
<path d="M869.711 76.729L869.631 116.429C869.881 121.609 873.271 126.119 878.181 127.789L885.741 131.039C887.691 131.879 880.691 142.459 849.591 137.689C837.631 135.859 826.261 131.229 816.331 124.329L809.051 119.259C814.081 118.519 827.901 114.829 829.171 109.899L840.641 58.209L869.711 76.719V76.729Z" fill="#121212"/>
<path d="M864.091 141.099C859.781 141.099 854.851 140.729 849.261 139.879C837.141 138.019 825.321 133.269 815.081 126.149L807.801 121.089C807.061 120.569 806.701 119.649 806.911 118.769C807.121 117.889 807.841 117.219 808.741 117.089C815.441 116.099 826.301 112.249 827.041 109.369L838.491 57.7491C838.651 57.0491 839.131 56.4591 839.801 56.1891C840.461 55.9191 841.231 55.9791 841.831 56.3691L870.901 74.8791C871.541 75.2891 871.921 75.9891 871.921 76.7491L871.841 116.449C872.041 120.649 874.811 124.329 878.891 125.719L886.611 129.029C887.921 129.589 888.541 131.029 888.111 132.529C887.011 136.389 879.551 141.119 864.091 141.119V141.099ZM814.461 120.339L817.591 122.519C827.291 129.269 838.471 133.759 849.921 135.509C871.201 138.769 880.341 134.549 883.011 132.269L877.301 129.809C871.651 127.889 867.711 122.649 867.421 116.519L867.491 77.9291L842.111 61.7691L831.331 110.379C830.001 115.559 820.521 118.779 814.461 120.329V120.339Z" fill="white"/>
<path d="M922.621 31.99C914.011 25.51 919.111 42.21 892.471 10.51C881.861 -2.10997 878.241 17.71 875.481 14.44C865.281 2.37003 865.641 2.77003 858.391 0.290026C853.591 -1.35997 845.892 4.40003 842.902 10.54C838.952 18.64 843.791 24.64 838.731 43.94C835.171 57.49 829.761 63.57 833.101 68.11C836.481 72.71 843.791 68.91 847.861 73.66C853.131 79.8 844.341 90.17 847.541 99.03C849.561 104.62 857.912 112.15 877.592 114.81C880.782 115.24 883.841 113.33 884.861 110.27C886.171 106.35 887.791 101.38 888.951 96.5C894.461 73.27 890.652 64.65 896.282 61.43C904.902 56.49 916.051 70.04 922.421 65.51C929.041 60.81 934.421 40.86 922.641 31.99H922.621Z" fill="white"/>
<path d="M873.755 37.6916L873.115 44.1716C872.815 47.2216 872.305 50.2516 871.585 53.2416C870.235 58.8416 867.995 68.4916 867.155 73.9916C865.915 82.0716 890.595 87.6316 890.595 87.6316L894.325 84.6116L897.235 85.2016C897.795 85.3116 898.385 85.3116 898.935 85.1316C900.295 84.6716 901.145 83.4316 901.135 82.0916C901.095 74.7816 901.545 58.7116 905.785 46.8516C905.785 46.8516 893.715 33.3716 873.755 37.6916Z" fill="#121212"/>
<path d="M890.603 89.8408C890.443 89.8408 890.283 89.8208 890.113 89.7908C885.653 88.7908 863.493 83.2908 864.973 73.6608C865.833 68.0308 868.143 58.1308 869.443 52.7308C870.133 49.8608 870.633 46.9108 870.923 43.9608L871.563 37.4808C871.653 36.5208 872.353 35.7408 873.293 35.5408C894.273 31.0108 906.903 44.8008 907.433 45.3808C907.973 45.9808 908.143 46.8308 907.863 47.6008C903.673 59.3208 903.303 75.6208 903.343 82.0908C903.353 84.4308 901.863 86.4908 899.633 87.2408C898.763 87.5308 897.783 87.5808 896.793 87.3808L894.903 87.0008L891.983 89.3608C891.583 89.6808 891.093 89.8508 890.593 89.8508L890.603 89.8408ZM875.793 39.5508L875.313 44.4008C875.003 47.5508 874.473 50.7008 873.733 53.7708C872.453 59.1008 870.173 68.8608 869.333 74.3408C868.753 78.1308 880.673 82.9808 890.043 85.2508L892.933 82.9108C893.443 82.4908 894.113 82.3308 894.763 82.4608L897.673 83.0508C897.893 83.0908 898.103 83.1008 898.233 83.0508C898.653 82.9108 898.923 82.5408 898.923 82.1208C898.873 74.1008 899.393 59.2108 903.243 47.4508C900.343 44.7408 890.583 37.0308 875.783 39.5608L875.793 39.5508Z" fill="white"/>
<path d="M866.21 56.7808C866.21 56.7808 867.76 41.1908 860.52 42.0308C853.28 42.8708 852.01 60.0808 866.21 56.7808Z" fill="#121212"/>
</svg>
